# Blender 5.1.1
# www.blender.org
mtllib wheel_l.mtl
o export_Wheel_L_Circle.006
v 0.053681 0.368393 0.000000
v 0.053681 0.263755 0.000000
v -0.053681 0.263755 0.000000
v -0.053681 0.368393 0.000000
v 0.053681 0.340350 0.140978
v 0.053681 0.243678 0.100935
v -0.053681 0.243678 0.100935
v -0.053681 0.340350 0.140978
v 0.053681 0.260493 0.260493
v 0.053681 0.186503 0.186503
v -0.053681 0.186503 0.186503
v -0.053681 0.260493 0.260493
v 0.053681 0.140978 0.340350
v 0.053681 0.100935 0.243678
v -0.053681 0.100935 0.243678
v -0.053681 0.140978 0.340350
v 0.053681 -0.000000 0.368393
v 0.053681 -0.000000 0.263755
v -0.053681 -0.000000 0.263755
v -0.053681 -0.000000 0.368393
v 0.053681 -0.140978 0.340350
v 0.053681 -0.100935 0.243678
v -0.053681 -0.100935 0.243678
v -0.053681 -0.140978 0.340350
v 0.053681 -0.260493 0.260493
v 0.053681 -0.186503 0.186503
v -0.053681 -0.186503 0.186503
v -0.053681 -0.260493 0.260493
v 0.053681 -0.340350 0.140978
v 0.053681 -0.243678 0.100935
v -0.053681 -0.243678 0.100935
v -0.053681 -0.340350 0.140978
v 0.053681 -0.368393 0.000000
v 0.053681 -0.263755 0.000000
v -0.053681 -0.263755 0.000000
v -0.053681 -0.368393 0.000000
v 0.053681 -0.340350 -0.140978
v 0.053681 -0.243678 -0.100934
v -0.053681 -0.243678 -0.100935
v -0.053681 -0.340350 -0.140978
v 0.053681 -0.260493 -0.260493
v 0.053681 -0.186503 -0.186503
v -0.053681 -0.186503 -0.186503
v -0.053681 -0.260493 -0.260493
v 0.053681 -0.140978 -0.340350
v 0.053681 -0.100935 -0.243678
v -0.053681 -0.100935 -0.243678
v -0.053681 -0.140978 -0.340350
v 0.053681 0.000000 -0.368393
v 0.053681 0.000000 -0.263755
v -0.053681 -0.000000 -0.263755
v -0.053681 -0.000000 -0.368393
v 0.053681 0.140978 -0.340350
v 0.053681 0.100935 -0.243678
v -0.053681 0.100935 -0.243678
v -0.053681 0.140978 -0.340350
v 0.053681 0.260493 -0.260493
v 0.053681 0.186503 -0.186503
v -0.053681 0.186503 -0.186503
v -0.053681 0.260493 -0.260493
v 0.053681 0.340351 -0.140978
v 0.053681 0.243678 -0.100934
v -0.053681 0.243678 -0.100934
v -0.053681 0.340351 -0.140978
v 0.053681 0.361291 0.071865
v 0.073811 0.316074 0.000000
v 0.053681 0.258670 0.051453
v 0.073811 0.292014 0.120956
v -0.000000 0.244135 0.000000
v -0.053681 0.258670 0.051453
v -0.000000 0.225551 0.093426
v -0.073811 0.316074 0.000000
v -0.053681 0.361291 0.071865
v -0.073812 0.292014 0.120956
v -0.000000 0.388012 0.000000
v -0.000000 0.358477 0.148486
v 0.053681 0.306288 0.204655
v 0.053681 0.219290 0.146525
v 0.073811 0.223498 0.223498
v -0.053681 0.219290 0.146525
v -0.000000 0.172630 0.172630
v -0.053681 0.306288 0.204655
v -0.073812 0.223498 0.223498
v -0.000000 0.274366 0.274366
v 0.053681 0.204655 0.306288
v 0.053681 0.146525 0.219290
v 0.073811 0.120956 0.292014
v -0.053681 0.146525 0.219290
v -0.000000 0.093426 0.225551
v -0.053681 0.204655 0.306288
v -0.073812 0.120956 0.292014
v -0.000000 0.148486 0.358477
v 0.053681 0.071865 0.361291
v 0.053681 0.051453 0.258670
v 0.073811 -0.000000 0.316074
v -0.053681 0.051453 0.258670
v -0.000000 -0.000000 0.244135
v -0.053681 0.071865 0.361291
v -0.073812 -0.000000 0.316074
v -0.000000 -0.000000 0.388012
v 0.053681 -0.071865 0.361291
v 0.053681 -0.051453 0.258670
v 0.073811 -0.120956 0.292014
v -0.053681 -0.051453 0.258670
v -0.000000 -0.093426 0.225551
v -0.053681 -0.071865 0.361291
v -0.073811 -0.120956 0.292014
v -0.000000 -0.148486 0.358477
v 0.053681 -0.204655 0.306288
v 0.053681 -0.146525 0.219290
v 0.073811 -0.223498 0.223498
v -0.053681 -0.146525 0.219290
v -0.000000 -0.172630 0.172630
v -0.053681 -0.204655 0.306288
v -0.073811 -0.223498 0.223498
v -0.000000 -0.274366 0.274366
v 0.053681 -0.306288 0.204655
v 0.053681 -0.219290 0.146525
v 0.073811 -0.292014 0.120956
v -0.053681 -0.219290 0.146525
v 0.000000 -0.225551 0.093426
v -0.053681 -0.306288 0.204655
v -0.073811 -0.292014 0.120956
v 0.000000 -0.358477 0.148486
v 0.053681 -0.361291 0.071865
v 0.053681 -0.258670 0.051453
v 0.073811 -0.316074 0.000000
v -0.053681 -0.258670 0.051453
v 0.000000 -0.244135 0.000000
v -0.053681 -0.361291 0.071865
v -0.073811 -0.316074 0.000000
v 0.000000 -0.388012 0.000000
v 0.053681 -0.361291 -0.071865
v 0.053681 -0.258670 -0.051453
v 0.073812 -0.292014 -0.120956
v -0.053681 -0.258670 -0.051453
v 0.000000 -0.225551 -0.093426
v -0.053681 -0.361291 -0.071865
v -0.073811 -0.292014 -0.120956
v 0.000000 -0.358477 -0.148486
v 0.053681 -0.306288 -0.204655
v 0.053681 -0.219290 -0.146525
v 0.073812 -0.223498 -0.223498
v -0.053681 -0.219290 -0.146525
v 0.000000 -0.172630 -0.172630
v -0.053681 -0.306288 -0.204655
v -0.073811 -0.223498 -0.223498
v 0.000000 -0.274366 -0.274366
v 0.053681 -0.204655 -0.306288
v 0.053681 -0.146525 -0.219290
v 0.073812 -0.120956 -0.292014
v -0.053681 -0.146525 -0.219290
v 0.000000 -0.093427 -0.225551
v -0.053681 -0.204655 -0.306288
v -0.073811 -0.120956 -0.292014
v 0.000000 -0.148486 -0.358477
v 0.053681 -0.071865 -0.361291
v 0.053681 -0.051453 -0.258670
v 0.073812 0.000000 -0.316074
v -0.053681 -0.051453 -0.258670
v 0.000000 -0.000000 -0.244135
v -0.053681 -0.071865 -0.361291
v -0.073811 -0.000000 -0.316074
v 0.000000 0.000000 -0.388012
v 0.053681 0.071865 -0.361291
v 0.053681 0.051453 -0.258670
v 0.073811 0.120956 -0.292014
v -0.053681 0.051453 -0.258670
v 0.000000 0.093426 -0.225551
v -0.053681 0.071865 -0.361291
v -0.073811 0.120956 -0.292014
v 0.000000 0.148486 -0.358477
v 0.053681 0.204655 -0.306288
v 0.053681 0.146525 -0.219290
v 0.073811 0.223498 -0.223498
v -0.053681 0.146525 -0.219290
v 0.000000 0.172630 -0.172630
v -0.053681 0.204655 -0.306288
v -0.073811 0.223498 -0.223498
v 0.000000 0.274366 -0.274366
v 0.053681 0.306288 -0.204655
v 0.053681 0.219290 -0.146525
v 0.073811 0.292014 -0.120956
v -0.053681 0.219290 -0.146525
v -0.000000 0.225551 -0.093426
v -0.053681 0.306288 -0.204655
v -0.073811 0.292014 -0.120956
v -0.000000 0.358477 -0.148486
v 0.053681 0.361291 -0.071865
v 0.053681 0.258670 -0.051453
v -0.053681 0.258670 -0.051453
v -0.053681 0.361291 -0.071865
v 0.073811 0.309980 0.061659
v -0.000000 0.239429 0.047625
v -0.073812 0.309980 0.061659
v -0.000000 0.380532 0.075693
v 0.073811 0.262789 0.175590
v -0.000000 0.202978 0.135625
v -0.073812 0.262789 0.175590
v -0.000000 0.322600 0.215554
v 0.073811 0.175590 0.262789
v -0.000000 0.135625 0.202978
v -0.073812 0.175590 0.262789
v -0.000000 0.215554 0.322600
v 0.073811 0.061659 0.309980
v -0.000000 0.047625 0.239429
v -0.073812 0.061659 0.309980
v -0.000000 0.075693 0.380532
v 0.073811 -0.061659 0.309980
v -0.000000 -0.047625 0.239429
v -0.073812 -0.061659 0.309980
v -0.000000 -0.075693 0.380532
v 0.073811 -0.175590 0.262789
v -0.000000 -0.135625 0.202978
v -0.073811 -0.175590 0.262789
v -0.000000 -0.215554 0.322600
v 0.073811 -0.262789 0.175590
v 0.000000 -0.202978 0.135625
v -0.073811 -0.262789 0.175590
v 0.000000 -0.322600 0.215554
v 0.073811 -0.309980 0.061659
v 0.000000 -0.239429 0.047625
v -0.073811 -0.309980 0.061659
v 0.000000 -0.380532 0.075693
v 0.073812 -0.309980 -0.061659
v 0.000000 -0.239429 -0.047625
v -0.073811 -0.309980 -0.061659
v 0.000000 -0.380532 -0.075692
v 0.073812 -0.262789 -0.175590
v 0.000000 -0.202978 -0.135625
v -0.073811 -0.262789 -0.175590
v 0.000000 -0.322600 -0.215554
v 0.073812 -0.175590 -0.262789
v 0.000000 -0.135626 -0.202978
v -0.073811 -0.175590 -0.262789
v 0.000000 -0.215554 -0.322600
v 0.073812 -0.061659 -0.309980
v 0.000000 -0.047625 -0.239429
v -0.073811 -0.061659 -0.309980
v 0.000000 -0.075693 -0.380532
v 0.073812 0.061659 -0.309980
v 0.000000 0.047625 -0.239429
v -0.073811 0.061659 -0.309980
v 0.000000 0.075693 -0.380532
v 0.073811 0.175590 -0.262789
v 0.000000 0.135626 -0.202978
v -0.073811 0.175590 -0.262789
v 0.000000 0.215554 -0.322600
v 0.073811 0.262789 -0.175590
v -0.000000 0.202978 -0.135625
v -0.073811 0.262789 -0.175590
v -0.000000 0.322600 -0.215554
v 0.073811 0.309980 -0.061659
v -0.000000 0.239429 -0.047625
v -0.073811 0.309981 -0.061659
v -0.000000 0.380532 -0.075692
vn -0.6884 -0.7253 -0.0000
vn -0.7143 0.6998 -0.0000
vn 0.7143 0.6998 -0.0000
vn 0.6884 -0.7253 -0.0000
vn -0.6884 -0.6701 -0.2776
vn -0.7143 0.6466 0.2678
vn 0.7143 0.6466 0.2678
vn 0.6884 -0.6701 -0.2776
vn -0.6884 -0.5129 -0.5129
vn -0.7143 0.4949 0.4949
vn 0.7143 0.4949 0.4949
vn 0.6884 -0.5129 -0.5129
vn -0.6884 -0.2776 -0.6701
vn -0.7143 0.2678 0.6466
vn 0.7143 0.2678 0.6466
vn 0.6884 -0.2776 -0.6701
vn -0.6884 -0.0000 -0.7253
vn -0.7143 -0.0000 0.6998
vn 0.7143 -0.0000 0.6998
vn 0.6884 -0.0000 -0.7253
vn -0.6884 0.2776 -0.6701
vn -0.7143 -0.2678 0.6466
vn 0.7143 -0.2678 0.6466
vn 0.6884 0.2776 -0.6701
vn -0.6884 0.5129 -0.5129
vn -0.7143 -0.4949 0.4949
vn 0.7143 -0.4949 0.4949
vn 0.6884 0.5129 -0.5129
vn -0.6884 0.6701 -0.2776
vn -0.7143 -0.6466 0.2678
vn 0.7143 -0.6466 0.2678
vn 0.6884 0.6701 -0.2776
vn -0.6884 0.7253 -0.0000
vn -0.7143 -0.6998 -0.0000
vn 0.7143 -0.6998 -0.0000
vn 0.6884 0.7253 -0.0000
vn -0.6884 0.6701 0.2776
vn -0.7143 -0.6466 -0.2678
vn 0.7143 -0.6466 -0.2678
vn 0.6884 0.6701 0.2776
vn -0.6884 0.5129 0.5129
vn -0.7143 -0.4949 -0.4949
vn 0.7143 -0.4949 -0.4949
vn 0.6884 0.5129 0.5129
vn -0.6884 0.2776 0.6701
vn -0.7143 -0.2678 -0.6466
vn 0.7143 -0.2678 -0.6466
vn 0.6884 0.2776 0.6701
vn -0.6884 -0.0000 0.7253
vn -0.7143 -0.0000 -0.6998
vn 0.7143 -0.0000 -0.6998
vn 0.6884 -0.0000 0.7253
vn -0.6884 -0.2776 0.6701
vn -0.7143 0.2678 -0.6466
vn 0.7143 0.2678 -0.6466
vn 0.6884 -0.2776 0.6701
vn -0.6884 -0.5129 0.5129
vn -0.7143 0.4949 -0.4949
vn 0.7143 0.4949 -0.4949
vn 0.6884 -0.5129 0.5129
vn -0.6884 -0.6701 0.2776
vn -0.7143 0.6466 -0.2678
vn 0.7143 0.6466 -0.2678
vn 0.6884 -0.6701 0.2776
vn -0.6885 -0.7113 -0.1415
vn -0.9997 -0.0225 -0.0000
vn -0.7142 0.6865 0.1366
vn -0.9997 -0.0208 -0.0086
vn -0.0000 1.0000 -0.0000
vn 0.7142 0.6865 0.1366
vn -0.0000 0.9239 0.3827
vn 0.9997 -0.0225 -0.0000
vn 0.6885 -0.7113 -0.1415
vn 0.9997 -0.0208 -0.0086
vn -0.0000 -1.0000 -0.0000
vn -0.0000 -0.9239 -0.3827
vn -0.6885 -0.6030 -0.4029
vn -0.7142 0.5820 0.3889
vn -0.9997 -0.0159 -0.0159
vn 0.7142 0.5820 0.3889
vn -0.0000 0.7071 0.7071
vn 0.6885 -0.6030 -0.4029
vn 0.9997 -0.0159 -0.0159
vn -0.0000 -0.7071 -0.7071
vn -0.6885 -0.4029 -0.6030
vn -0.7142 0.3889 0.5820
vn -0.9997 -0.0086 -0.0208
vn 0.7142 0.3889 0.5820
vn -0.0000 0.3827 0.9239
vn 0.6885 -0.4029 -0.6030
vn 0.9997 -0.0086 -0.0208
vn -0.0000 -0.3827 -0.9239
vn -0.6885 -0.1415 -0.7113
vn -0.7142 0.1366 0.6865
vn -0.9997 -0.0000 -0.0225
vn 0.7142 0.1366 0.6865
vn -0.0000 -0.0000 1.0000
vn 0.6885 -0.1415 -0.7113
vn 0.9997 -0.0000 -0.0225
vn -0.0000 -0.0000 -1.0000
vn -0.6885 0.1415 -0.7113
vn -0.7142 -0.1366 0.6865
vn -0.9997 0.0086 -0.0208
vn 0.7142 -0.1366 0.6865
vn -0.0000 -0.3827 0.9239
vn 0.6885 0.1415 -0.7113
vn 0.9997 0.0086 -0.0208
vn -0.0000 0.3827 -0.9239
vn -0.6885 0.4029 -0.6030
vn -0.7142 -0.3889 0.5820
vn -0.9997 0.0159 -0.0159
vn 0.7142 -0.3889 0.5820
vn -0.0000 -0.7071 0.7071
vn 0.6885 0.4029 -0.6030
vn 0.9997 0.0159 -0.0159
vn -0.0000 0.7071 -0.7071
vn -0.6885 0.6030 -0.4029
vn -0.7142 -0.5820 0.3889
vn -0.9997 0.0208 -0.0086
vn 0.7142 -0.5820 0.3889
vn -0.0000 -0.9239 0.3827
vn 0.6885 0.6030 -0.4029
vn 0.9997 0.0208 -0.0086
vn -0.0000 0.9239 -0.3827
vn -0.6885 0.7113 -0.1415
vn -0.7142 -0.6865 0.1366
vn -0.9997 0.0225 -0.0000
vn 0.7142 -0.6865 0.1366
vn 0.6885 0.7113 -0.1415
vn 0.9997 0.0225 -0.0000
vn -0.6885 0.7113 0.1415
vn -0.7142 -0.6865 -0.1366
vn -0.9997 0.0208 0.0086
vn 0.7142 -0.6865 -0.1366
vn 0.6885 0.7113 0.1415
vn 0.9997 0.0208 0.0086
vn -0.6885 0.6030 0.4029
vn -0.7142 -0.5820 -0.3889
vn -0.9997 0.0159 0.0159
vn 0.7142 -0.5820 -0.3889
vn 0.6885 0.6030 0.4029
vn 0.9997 0.0159 0.0159
vn -0.6885 0.4029 0.6030
vn -0.7142 -0.3889 -0.5820
vn -0.9997 0.0086 0.0208
vn 0.7142 -0.3889 -0.5820
vn 0.6885 0.4029 0.6030
vn 0.9997 0.0086 0.0208
vn -0.6885 0.1415 0.7113
vn -0.7142 -0.1366 -0.6865
vn -0.9997 -0.0000 0.0225
vn 0.7142 -0.1366 -0.6865
vn 0.6885 0.1415 0.7113
vn 0.9997 -0.0000 0.0225
vn -0.6885 -0.1415 0.7113
vn -0.7142 0.1366 -0.6865
vn -0.9997 -0.0086 0.0208
vn 0.7142 0.1366 -0.6865
vn 0.6885 -0.1415 0.7113
vn 0.9997 -0.0086 0.0208
vn -0.6885 -0.4029 0.6030
vn -0.7142 0.3889 -0.5820
vn -0.9997 -0.0159 0.0159
vn 0.7142 0.3889 -0.5820
vn 0.6885 -0.4029 0.6030
vn 0.9997 -0.0159 0.0159
vn -0.6885 -0.6030 0.4029
vn -0.7142 0.5820 -0.3889
vn -0.9997 -0.0208 0.0086
vn 0.7142 0.5820 -0.3889
vn 0.6885 -0.6030 0.4029
vn 0.9997 -0.0208 0.0086
vn -0.6885 -0.7113 0.1415
vn -0.7142 0.6865 -0.1366
vn 0.7142 0.6865 -0.1366
vn 0.6885 -0.7113 0.1415
vn -0.9998 -0.0219 -0.0044
vn -0.0000 0.9808 0.1951
vn 0.9998 -0.0219 -0.0044
vn -0.0000 -0.9808 -0.1951
vn -0.9998 -0.0186 -0.0124
vn -0.0000 0.8315 0.5556
vn 0.9998 -0.0186 -0.0124
vn -0.0000 -0.8315 -0.5556
vn -0.9998 -0.0124 -0.0186
vn -0.0000 0.5556 0.8315
vn 0.9998 -0.0124 -0.0186
vn -0.0000 -0.5556 -0.8315
vn -0.9998 -0.0044 -0.0219
vn -0.0000 0.1951 0.9808
vn 0.9998 -0.0044 -0.0219
vn -0.0000 -0.1951 -0.9808
vn -0.9998 0.0044 -0.0219
vn -0.0000 -0.1951 0.9808
vn 0.9998 0.0044 -0.0219
vn -0.0000 0.1951 -0.9808
vn -0.9998 0.0124 -0.0186
vn -0.0000 -0.5556 0.8315
vn 0.9998 0.0124 -0.0186
vn -0.0000 0.5556 -0.8315
vn -0.9998 0.0186 -0.0124
vn -0.0000 -0.8315 0.5556
vn 0.9998 0.0186 -0.0124
vn -0.0000 0.8315 -0.5556
vn -0.9998 0.0219 -0.0044
vn -0.0000 -0.9808 0.1951
vn 0.9998 0.0219 -0.0044
vn -0.0000 0.9808 -0.1951
vn -0.9998 0.0219 0.0044
vn 0.9998 0.0219 0.0044
vn -0.9998 0.0186 0.0124
vn 0.9998 0.0186 0.0124
vn -0.9998 0.0124 0.0186
vn 0.9998 0.0124 0.0186
vn -0.9998 0.0044 0.0219
vn 0.9998 0.0044 0.0219
vn -0.9998 -0.0044 0.0219
vn 0.9998 -0.0044 0.0219
vn -0.9998 -0.0124 0.0186
vn 0.9998 -0.0124 0.0186
vn -0.9998 -0.0186 0.0124
vn 0.9998 -0.0186 0.0124
vn -0.9998 -0.0219 0.0044
vn 0.9998 -0.0219 0.0044
s 1
usemtl tire
f 1//1 66//66 193//177 65//65
f 66//66 2//2 67//67 193//177
f 193//177 67//67 6//6 68//68
f 65//65 193//177 68//68 5//5
f 2//2 69//69 194//178 67//67
f 69//69 3//3 70//70 194//178
f 194//178 70//70 7//7 71//71
f 67//67 194//178 71//71 6//6
f 3//3 72//72 195//179 70//70
f 72//72 4//4 73//73 195//179
f 195//179 73//73 8//8 74//74
f 70//70 195//179 74//74 7//7
f 4//4 75//75 196//180 73//73
f 75//75 1//1 65//65 196//180
f 196//180 65//65 5//5 76//76
f 73//73 196//180 76//76 8//8
f 5//5 68//68 197//181 77//77
f 68//68 6//6 78//78 197//181
f 197//181 78//78 10//10 79//79
f 77//77 197//181 79//79 9//9
f 6//6 71//71 198//182 78//78
f 71//71 7//7 80//80 198//182
f 198//182 80//80 11//11 81//81
f 78//78 198//182 81//81 10//10
f 7//7 74//74 199//183 80//80
f 74//74 8//8 82//82 199//183
f 199//183 82//82 12//12 83//83
f 80//80 199//183 83//83 11//11
f 8//8 76//76 200//184 82//82
f 76//76 5//5 77//77 200//184
f 200//184 77//77 9//9 84//84
f 82//82 200//184 84//84 12//12
f 9//9 79//79 201//185 85//85
f 79//79 10//10 86//86 201//185
f 201//185 86//86 14//14 87//87
f 85//85 201//185 87//87 13//13
f 10//10 81//81 202//186 86//86
f 81//81 11//11 88//88 202//186
f 202//186 88//88 15//15 89//89
f 86//86 202//186 89//89 14//14
f 11//11 83//83 203//187 88//88
f 83//83 12//12 90//90 203//187
f 203//187 90//90 16//16 91//91
f 88//88 203//187 91//91 15//15
f 12//12 84//84 204//188 90//90
f 84//84 9//9 85//85 204//188
f 204//188 85//85 13//13 92//92
f 90//90 204//188 92//92 16//16
f 13//13 87//87 205//189 93//93
f 87//87 14//14 94//94 205//189
f 205//189 94//94 18//18 95//95
f 93//93 205//189 95//95 17//17
f 14//14 89//89 206//190 94//94
f 89//89 15//15 96//96 206//190
f 206//190 96//96 19//19 97//97
f 94//94 206//190 97//97 18//18
f 15//15 91//91 207//191 96//96
f 91//91 16//16 98//98 207//191
f 207//191 98//98 20//20 99//99
f 96//96 207//191 99//99 19//19
f 16//16 92//92 208//192 98//98
f 92//92 13//13 93//93 208//192
f 208//192 93//93 17//17 100//100
f 98//98 208//192 100//100 20//20
f 17//17 95//95 209//193 101//101
f 95//95 18//18 102//102 209//193
f 209//193 102//102 22//22 103//103
f 101//101 209//193 103//103 21//21
f 18//18 97//97 210//194 102//102
f 97//97 19//19 104//104 210//194
f 210//194 104//104 23//23 105//105
f 102//102 210//194 105//105 22//22
f 19//19 99//99 211//195 104//104
f 99//99 20//20 106//106 211//195
f 211//195 106//106 24//24 107//107
f 104//104 211//195 107//107 23//23
f 20//20 100//100 212//196 106//106
f 100//100 17//17 101//101 212//196
f 212//196 101//101 21//21 108//108
f 106//106 212//196 108//108 24//24
f 21//21 103//103 213//197 109//109
f 103//103 22//22 110//110 213//197
f 213//197 110//110 26//26 111//111
f 109//109 213//197 111//111 25//25
f 22//22 105//105 214//198 110//110
f 105//105 23//23 112//112 214//198
f 214//198 112//112 27//27 113//113
f 110//110 214//198 113//113 26//26
f 23//23 107//107 215//199 112//112
f 107//107 24//24 114//114 215//199
f 215//199 114//114 28//28 115//115
f 112//112 215//199 115//115 27//27
f 24//24 108//108 216//200 114//114
f 108//108 21//21 109//109 216//200
f 216//200 109//109 25//25 116//116
f 114//114 216//200 116//116 28//28
f 25//25 111//111 217//201 117//117
f 111//111 26//26 118//118 217//201
f 217//201 118//118 30//30 119//119
f 117//117 217//201 119//119 29//29
f 26//26 113//113 218//202 118//118
f 113//113 27//27 120//120 218//202
f 218//202 120//120 31//31 121//121
f 118//118 218//202 121//121 30//30
f 27//27 115//115 219//203 120//120
f 115//115 28//28 122//122 219//203
f 219//203 122//122 32//32 123//123
f 120//120 219//203 123//123 31//31
f 28//28 116//116 220//204 122//122
f 116//116 25//25 117//117 220//204
f 220//204 117//117 29//29 124//124
f 122//122 220//204 124//124 32//32
f 29//29 119//119 221//205 125//125
f 119//119 30//30 126//126 221//205
f 221//205 126//126 34//34 127//127
f 125//125 221//205 127//127 33//33
f 30//30 121//121 222//206 126//126
f 121//121 31//31 128//128 222//206
f 222//206 128//128 35//35 129//75
f 126//126 222//206 129//75 34//34
f 31//31 123//123 223//207 128//128
f 123//123 32//32 130//129 223//207
f 223//207 130//129 36//36 131//130
f 128//128 223//207 131//130 35//35
f 32//32 124//124 224//208 130//129
f 124//124 29//29 125//125 224//208
f 224//208 125//125 33//33 132//69
f 130//129 224//208 132//69 36//36
f 33//33 127//127 225//209 133//131
f 127//127 34//34 134//132 225//209
f 225//209 134//132 38//38 135//133
f 133//131 225//209 135//133 37//37
f 34//34 129//75 226//180 134//132
f 129//75 35//35 136//134 226//180
f 226//180 136//134 39//39 137//76
f 134//132 226//180 137//76 38//38
f 35//35 131//130 227//210 136//134
f 131//130 36//36 138//135 227//210
f 227//210 138//135 40//40 139//136
f 136//134 227//210 139//136 39//39
f 36//36 132//69 228//178 138//135
f 132//69 33//33 133//131 228//178
f 228//178 133//131 37//37 140//71
f 138//135 228//178 140//71 40//40
f 37//37 135//133 229//211 141//137
f 135//133 38//38 142//138 229//211
f 229//211 142//138 42//42 143//139
f 141//137 229//211 143//139 41//41
f 38//38 137//76 230//184 142//138
f 137//76 39//39 144//140 230//184
f 230//184 144//140 43//43 145//84
f 142//138 230//184 145//84 42//42
f 39//39 139//136 231//212 144//140
f 139//136 40//40 146//141 231//212
f 231//212 146//141 44//44 147//142
f 144//140 231//212 147//142 43//43
f 40//40 140//71 232//182 146//141
f 140//71 37//37 141//137 232//182
f 232//182 141//137 41//41 148//81
f 146//141 232//182 148//81 44//44
f 41//41 143//139 233//213 149//143
f 143//139 42//42 150//144 233//213
f 233//213 150//144 46//46 151//145
f 149//143 233//213 151//145 45//45
f 42//42 145//84 234//188 150//144
f 145//84 43//43 152//146 234//188
f 234//188 152//146 47//47 153//92
f 150//144 234//188 153//92 46//46
f 43//43 147//142 235//214 152//146
f 147//142 44//44 154//147 235//214
f 235//214 154//147 48//48 155//148
f 152//146 235//214 155//148 47//47
f 44//44 148//81 236//186 154//147
f 148//81 41//41 149//143 236//186
f 236//186 149//143 45//45 156//89
f 154//147 236//186 156//89 48//48
f 45//45 151//145 237//215 157//149
f 151//145 46//46 158//150 237//215
f 237//215 158//150 50//50 159//151
f 157//149 237//215 159//151 49//49
f 46//46 153//92 238//192 158//150
f 153//92 47//47 160//152 238//192
f 238//192 160//152 51//51 161//100
f 158//150 238//192 161//100 50//50
f 47//47 155//148 239//216 160//152
f 155//148 48//48 162//153 239//216
f 239//216 162//153 52//52 163//154
f 160//152 239//216 163//154 51//51
f 48//48 156//89 240//190 162//153
f 156//89 45//45 157//149 240//190
f 240//190 157//149 49//49 164//97
f 162//153 240//190 164//97 52//52
f 49//49 159//151 241//217 165//155
f 159//151 50//50 166//156 241//217
f 241//217 166//156 54//54 167//157
f 165//155 241//217 167//157 53//53
f 50//50 161//100 242//196 166//156
f 161//100 51//51 168//158 242//196
f 242//196 168//158 55//55 169//108
f 166//156 242//196 169//108 54//54
f 51//51 163//154 243//218 168//158
f 163//154 52//52 170//159 243//218
f 243//218 170//159 56//56 171//160
f 168//158 243//218 171//160 55//55
f 52//52 164//97 244//194 170//159
f 164//97 49//49 165//155 244//194
f 244//194 165//155 53//53 172//105
f 170//159 244//194 172//105 56//56
f 53//53 167//157 245//219 173//161
f 167//157 54//54 174//162 245//219
f 245//219 174//162 58//58 175//163
f 173//161 245//219 175//163 57//57
f 54//54 169//108 246//200 174//162
f 169//108 55//55 176//164 246//200
f 246//200 176//164 59//59 177//116
f 174//162 246//200 177//116 58//58
f 55//55 171//160 247//220 176//164
f 171//160 56//56 178//165 247//220
f 247//220 178//165 60//60 179//166
f 176//164 247//220 179//166 59//59
f 56//56 172//105 248//198 178//165
f 172//105 53//53 173//161 248//198
f 248//198 173//161 57//57 180//113
f 178//165 248//198 180//113 60//60
f 57//57 175//163 249//221 181//167
f 175//163 58//58 182//168 249//221
f 249//221 182//168 62//62 183//169
f 181//167 249//221 183//169 61//61
f 58//58 177//116 250//204 182//168
f 177//116 59//59 184//170 250//204
f 250//204 184//170 63//63 185//124
f 182//168 250//204 185//124 62//62
f 59//59 179//166 251//222 184//170
f 179//166 60//60 186//171 251//222
f 251//222 186//171 64//64 187//172
f 184//170 251//222 187//172 63//63
f 60//60 180//113 252//202 186//171
f 180//113 57//57 181//167 252//202
f 252//202 181//167 61//61 188//121
f 186//171 252//202 188//121 64//64
f 61//61 183//169 253//223 189//173
f 183//169 62//62 190//174 253//223
f 253//223 190//174 2//2 66//66
f 189//173 253//223 66//66 1//1
f 62//62 185//124 254//208 190//174
f 185//124 63//63 191//175 254//208
f 254//208 191//175 3//3 69//69
f 190//174 254//208 69//69 2//2
f 63//63 187//172 255//224 191//175
f 187//172 64//64 192//176 255//224
f 255//224 192//176 4//4 72//72
f 191//175 255//224 72//72 3//3
f 64//64 188//121 256//206 192//176
f 188//121 61//61 189//173 256//206
f 256//206 189//173 1//1 75//75
f 192//176 256//206 75//75 4//4
o export_Wheel_L_Circle.007
v 0.008229 0.262058 0.000000
v 0.008229 0.226949 -0.131029
v 0.008229 0.131029 -0.226949
v 0.008229 -0.000000 -0.262058
v 0.008229 -0.131029 -0.226949
v 0.008229 -0.226949 -0.131029
v 0.008229 -0.262058 -0.000000
v 0.008229 -0.226949 0.131029
v 0.008229 -0.131029 0.226949
v 0.008229 -0.000000 0.262058
v 0.008229 0.131029 0.226949
v 0.008229 0.226949 0.131029
v 0.008229 -0.000000 -0.000000
v 0.008229 0.180388 -0.104147
v 0.008229 0.123368 -0.133990
v 0.008229 0.086242 -0.049792
v 0.008229 0.177723 -0.039844
v 0.008230 0.177723 0.039844
v 0.008229 0.086242 0.049792
v 0.008230 0.123368 0.133990
v 0.008230 0.180388 0.104147
v 0.008230 0.054355 0.173835
v 0.008229 -0.000000 0.099584
v 0.008230 -0.054355 0.173835
v 0.008230 -0.000000 0.208294
v 0.008229 -0.086243 -0.049792
v 0.008229 -0.123368 -0.133990
v 0.008229 -0.180388 -0.104147
v 0.008229 -0.177723 -0.039844
v 0.008229 -0.123368 0.133990
v 0.008229 -0.086243 0.049792
v 0.008229 -0.177723 0.039844
v 0.008229 -0.180388 0.104147
v 0.008229 -0.000000 -0.099584
v 0.008229 0.054355 -0.173835
v 0.008229 -0.000000 -0.208294
v 0.008229 -0.054355 -0.173835
v 0.008229 0.192977 -0.068265
v 0.008229 0.155608 -0.132991
v 0.008229 0.037369 -0.201256
v 0.008229 -0.037369 -0.201256
v 0.008229 -0.155608 -0.132991
v 0.008229 -0.192977 -0.068265
v 0.008229 -0.192977 0.068265
v 0.008229 -0.155608 0.132991
v 0.008230 -0.037369 0.201256
v 0.008230 0.037369 0.201256
v 0.008230 0.155608 0.132991
v 0.008230 0.192977 0.068266
v 0.008229 -0.133871 -0.000000
v 0.008229 0.133871 -0.000000
v 0.008229 0.066935 0.115936
v 0.008229 -0.066936 -0.115936
v 0.008229 -0.066936 0.115936
v 0.008229 0.066935 -0.115936
v 0.008229 0.090883 -0.095622
v 0.008229 0.128252 -0.030896
v 0.008229 0.185264 -0.185264
v 0.008229 0.203669 -0.117588
v 0.008229 0.127163 -0.161359
v 0.008229 0.071589 -0.041332
v 0.008229 0.203323 -0.029447
v 0.008229 0.253076 -0.067811
v 0.008229 0.128252 0.030896
v 0.008230 0.090883 0.095622
v 0.008229 0.203323 0.029447
v 0.008229 0.071589 0.041332
v 0.008229 0.127163 0.161359
v 0.008229 0.185264 0.185264
v 0.008229 0.203669 0.117588
v 0.008229 0.253076 0.067811
v 0.008230 0.037369 0.126518
v 0.008229 -0.037369 0.126518
v 0.008229 0.076160 0.190806
v 0.008229 -0.000000 0.082664
v 0.008229 -0.076160 0.190806
v 0.008229 -0.067812 0.253076
v 0.008229 -0.000000 0.235176
v 0.008229 0.067811 0.253076
v 0.008229 -0.090883 -0.095622
v 0.008229 -0.128252 -0.030896
v 0.008229 -0.071589 -0.041332
v 0.008229 -0.127163 -0.161359
v 0.008229 -0.185264 -0.185264
v 0.008229 -0.203669 -0.117588
v 0.008229 -0.253076 -0.067811
v 0.008229 -0.203323 -0.029447
v 0.008229 -0.090883 0.095622
v 0.008229 -0.128252 0.030896
v 0.008229 -0.127163 0.161359
v 0.008229 -0.071589 0.041332
v 0.008229 -0.203323 0.029447
v 0.008229 -0.253076 0.067811
v 0.008229 -0.203669 0.117588
v 0.008229 -0.185264 0.185264
v 0.008229 0.037369 -0.126518
v 0.008229 -0.037369 -0.126518
v 0.008229 -0.000000 -0.082664
v 0.008229 0.076160 -0.190806
v 0.008229 0.067811 -0.253076
v 0.008229 -0.000000 -0.235176
v 0.008229 -0.067811 -0.253076
v 0.008229 -0.076160 -0.190806
v 0.008229 0.170436 -0.157223
v 0.008229 0.082064 -0.106038
v 0.008229 0.132863 -0.018050
v 0.008229 0.221377 -0.068991
v 0.008229 0.132863 0.018050
v 0.008229 0.082064 0.106038
v 0.008229 0.170436 0.157223
v 0.008229 0.221377 0.068991
v 0.008229 0.050800 0.124088
v 0.008229 -0.050800 0.124088
v 0.008229 -0.050941 0.226213
v 0.008229 0.050940 0.226213
v 0.008229 -0.082064 -0.106038
v 0.008229 -0.170436 -0.157223
v 0.008229 -0.221377 -0.068991
v 0.008229 -0.132863 -0.018050
v 0.008229 -0.082064 0.106038
v 0.008229 -0.132863 0.018050
v 0.008229 -0.221377 0.068991
v 0.008229 -0.170436 0.157222
v 0.008229 0.050800 -0.124088
v 0.008229 0.050941 -0.226213
v 0.008229 -0.050941 -0.226213
v 0.008229 -0.050800 -0.124088
v -0.008229 0.262058 0.000000
v -0.008229 0.226949 -0.131029
v -0.008229 0.131029 -0.226949
v -0.008229 -0.000000 -0.262058
v -0.008229 -0.131029 -0.226949
v -0.008229 -0.226949 -0.131029
v -0.008229 -0.262058 -0.000000
v -0.008229 -0.226949 0.131029
v -0.008229 -0.131029 0.226949
v -0.008229 -0.000000 0.262058
v -0.008229 0.131029 0.226949
v -0.008229 0.226949 0.131029
v -0.008229 -0.000000 -0.000000
v -0.008229 0.180388 -0.104147
v -0.008229 0.123368 -0.133990
v -0.008229 0.086243 -0.049792
v -0.008229 0.177723 -0.039845
v -0.008229 0.177723 0.039845
v -0.008229 0.086243 0.049792
v -0.008229 0.123368 0.133990
v -0.008229 0.180388 0.104147
v -0.008229 0.054355 0.173835
v -0.008229 -0.000000 0.099584
v -0.008229 -0.054355 0.173835
v -0.008229 -0.000000 0.208294
v -0.008229 -0.086243 -0.049792
v -0.008229 -0.123368 -0.133990
v -0.008229 -0.180388 -0.104147
v -0.008229 -0.177723 -0.039845
v -0.008229 -0.123368 0.133990
v -0.008229 -0.086243 0.049792
v -0.008229 -0.177723 0.039845
v -0.008229 -0.180388 0.104147
v -0.008229 -0.000000 -0.099584
v -0.008229 0.054355 -0.173835
v -0.008229 -0.000000 -0.208294
v -0.008229 -0.054355 -0.173835
v -0.008229 0.192977 -0.068265
v -0.008229 0.155608 -0.132991
v -0.008229 0.037369 -0.201256
v -0.008229 -0.037369 -0.201256
v -0.008229 -0.155608 -0.132991
v -0.008229 -0.192977 -0.068265
v -0.008229 -0.192977 0.068265
v -0.008229 -0.155608 0.132991
v -0.008229 -0.037369 0.201256
v -0.008229 0.037369 0.201256
v -0.008229 0.155608 0.132991
v -0.008229 0.192977 0.068266
v -0.008229 -0.133871 -0.000000
v -0.008229 0.133871 -0.000000
v -0.008229 0.066935 0.115936
v -0.008229 -0.066936 -0.115936
v -0.008229 -0.066936 0.115936
v -0.008229 0.066935 -0.115936
v -0.008229 0.090883 -0.095622
v -0.008229 0.128252 -0.030896
v -0.008229 0.185264 -0.185264
v -0.008229 0.203669 -0.117588
v -0.008229 0.127163 -0.161359
v -0.008229 0.071589 -0.041332
v -0.008229 0.203323 -0.029447
v -0.008229 0.253076 -0.067811
v -0.008229 0.128252 0.030896
v -0.008229 0.090883 0.095622
v -0.008229 0.203323 0.029447
v -0.008229 0.071589 0.041332
v -0.008229 0.127163 0.161359
v -0.008229 0.185264 0.185264
v -0.008229 0.203668 0.117588
v -0.008229 0.253076 0.067811
v -0.008229 0.037369 0.126518
v -0.008229 -0.037369 0.126518
v -0.008229 0.076160 0.190806
v -0.008229 -0.000000 0.082664
v -0.008229 -0.076160 0.190806
v -0.008229 -0.067811 0.253076
v -0.008229 -0.000000 0.235176
v -0.008229 0.067811 0.253076
v -0.008229 -0.090883 -0.095622
v -0.008229 -0.128252 -0.030896
v -0.008229 -0.071589 -0.041332
v -0.008229 -0.127163 -0.161359
v -0.008229 -0.185264 -0.185264
v -0.008229 -0.203669 -0.117588
v -0.008229 -0.253076 -0.067811
v -0.008229 -0.203323 -0.029447
v -0.008229 -0.090883 0.095621
v -0.008229 -0.128252 0.030896
v -0.008229 -0.127163 0.161359
v -0.008229 -0.071589 0.041332
v -0.008229 -0.203323 0.029447
v -0.008229 -0.253076 0.067811
v -0.008229 -0.203669 0.117588
v -0.008229 -0.185264 0.185264
v -0.008229 0.037369 -0.126518
v -0.008229 -0.037369 -0.126518
v -0.008229 -0.000000 -0.082664
v -0.008229 0.076160 -0.190806
v -0.008229 0.067811 -0.253076
v -0.008229 -0.000000 -0.235176
v -0.008229 -0.067811 -0.253076
v -0.008229 -0.076160 -0.190806
v -0.008229 0.170436 -0.157222
v -0.008229 0.082064 -0.106038
v -0.008229 0.132863 -0.018050
v -0.008229 0.221377 -0.068991
v -0.008229 0.132863 0.018050
v -0.008229 0.082064 0.106038
v -0.008229 0.170436 0.157223
v -0.008229 0.221377 0.068991
v -0.008229 0.050799 0.124088
v -0.008229 -0.050800 0.124088
v -0.008229 -0.050941 0.226213
v -0.008229 0.050940 0.226213
v -0.008229 -0.082064 -0.106038
v -0.008229 -0.170436 -0.157222
v -0.008229 -0.221377 -0.068991
v -0.008229 -0.132863 -0.018050
v -0.008229 -0.082064 0.106038
v -0.008229 -0.132863 0.018050
v -0.008229 -0.221377 0.068991
v -0.008229 -0.170436 0.157222
v -0.008229 0.050800 -0.124088
v -0.008229 0.050941 -0.226213
v -0.008229 -0.050941 -0.226213
v -0.008229 -0.050800 -0.124088
vn -1.0000 -0.0000 -0.0000
vn 1.0000 -0.0000 -0.0000
vn -0.0000 0.9970 0.0775
vn -0.0000 0.8660 -0.5000
vn -0.0000 0.5880 0.8089
vn -0.0000 0.4314 -0.9022
vn -0.0000 -0.4065 -0.9136
vn -0.0000 0.5656 -0.8247
vn -0.0000 -0.0000 -1.0000
vn -0.0000 0.9945 -0.1048
vn -0.0000 -0.5656 -0.8247
vn -0.0000 -0.9945 -0.1048
vn -0.0000 -0.4314 -0.9022
vn -0.0000 -0.8660 -0.5000
vn -0.0000 0.4065 -0.9136
vn -0.0000 -0.9970 0.0775
vn -0.0000 -0.5880 0.8089
vn -0.0000 -0.9970 -0.0775
vn -0.0000 -0.8660 0.5000
vn -0.0000 -0.5880 -0.8089
vn -0.0000 -0.4314 0.9022
vn -0.0000 0.4065 0.9136
vn -0.0000 -0.5656 0.8247
vn -0.0000 -0.0000 1.0000
vn -0.0000 -0.9945 0.1048
vn -0.0000 0.5656 0.8247
vn -0.0000 0.9945 0.1048
vn -0.0000 0.4314 0.9022
vn -0.0000 0.8660 0.5000
vn -0.0000 -0.4065 0.9136
vn -0.0000 0.9970 -0.0775
vn -0.0000 0.5880 -0.8089
vn -0.0000 -0.9204 -0.3910
vn -0.0000 -0.9949 -0.1007
vn -0.0000 -0.1216 0.9926
vn -0.0000 -0.4102 0.9120
vn -0.0000 -0.7071 0.7071
vn -0.0000 -0.5000 0.8660
vn -0.0000 -0.9659 0.2588
vn -0.0000 -1.0000 -0.0000
vn -0.0000 -0.1216 -0.9926
vn -0.0000 -0.4102 -0.9120
vn -0.0000 -0.9949 0.1007
vn -0.0000 -0.9204 0.3910
vn -0.0000 -0.7071 -0.7071
vn -0.0000 -0.5000 -0.8660
vn -0.0000 -0.9659 -0.2588
vn -0.0000 0.7988 -0.6016
vn -0.0000 0.5847 -0.8112
vn -0.0000 -0.7988 -0.6016
vn -0.0000 -0.5847 -0.8112
vn -0.0000 0.2588 -0.9659
vn -0.0000 0.5000 -0.8660
vn -0.0000 -0.2588 -0.9659
vn -0.0000 0.9204 -0.3910
vn -0.0000 0.9949 -0.1007
vn -0.0000 0.1216 0.9926
vn -0.0000 0.4102 0.9120
vn -0.0000 0.7071 0.7071
vn -0.0000 0.5000 0.8660
vn -0.0000 0.9659 0.2588
vn -0.0000 1.0000 -0.0000
vn -0.0000 0.9204 0.3910
vn -0.0000 0.9949 0.1007
vn -0.0000 0.4102 -0.9120
vn -0.0000 0.1216 -0.9926
vn -0.0000 0.9659 -0.2588
vn -0.0000 0.7071 -0.7071
vn -0.0000 0.5847 0.8112
vn -0.0000 0.7988 0.6016
vn -0.0000 -0.7988 0.6016
vn -0.0000 -0.5847 0.8112
vn -0.0000 -0.2588 0.9659
vn -0.0000 0.2588 0.9659
vt 0.000000 0.000000
s 1
usemtl wheelchair_plastic
f 258/1/225 314/1/225 360/1/225 315/1/225
f 314/1/225 259/1/225 316/1/225 360/1/225
f 360/1/225 316/1/225 271/1/225 295/1/225
f 315/1/225 360/1/225 295/1/225 270/1/225
f 259/1/225 311/1/225 361/1/225 316/1/225
f 311/1/225 269/1/225 317/1/225 361/1/225
f 361/1/225 317/1/225 272/1/225 312/1/225
f 316/1/225 361/1/225 312/1/225 271/1/225
f 269/1/225 307/1/225 362/1/225 317/1/225
f 307/1/225 257/1/225 318/1/225 362/1/225
f 362/1/225 318/1/225 273/1/225 313/1/225
f 317/1/225 362/1/225 313/1/225 272/1/225
f 257/1/225 319/1/225 363/1/225 318/1/225
f 319/1/225 258/1/225 315/1/225 363/1/225
f 363/1/225 315/1/225 270/1/225 294/1/225
f 318/1/225 363/1/225 294/1/225 273/1/225
f 257/1/225 307/1/225 364/1/225 322/1/225
f 307/1/225 269/1/225 323/1/225 364/1/225
f 364/1/225 323/1/225 275/1/225 320/1/225
f 322/1/225 364/1/225 320/1/225 274/1/225
f 269/1/225 308/1/225 365/1/225 323/1/225
f 308/1/225 267/1/225 324/1/225 365/1/225
f 365/1/225 324/1/225 276/1/225 321/1/225
f 323/1/225 365/1/225 321/1/225 275/1/225
f 267/1/225 325/1/225 366/1/225 324/1/225
f 325/1/225 268/1/225 326/1/225 366/1/225
f 366/1/225 326/1/225 277/1/225 304/1/225
f 324/1/225 366/1/225 304/1/225 276/1/225
f 268/1/225 327/1/225 367/1/225 326/1/225
f 327/1/225 257/1/225 322/1/225 367/1/225
f 367/1/225 322/1/225 274/1/225 305/1/225
f 326/1/225 367/1/225 305/1/225 277/1/225
f 267/1/225 308/1/225 368/1/225 330/1/225
f 308/1/225 269/1/225 331/1/225 368/1/225
f 368/1/225 331/1/225 279/1/225 328/1/225
f 330/1/225 368/1/225 328/1/225 278/1/225
f 269/1/225 310/1/225 369/1/225 331/1/225
f 310/1/225 265/1/225 332/1/225 369/1/225
f 369/1/225 332/1/225 280/1/225 329/1/225
f 331/1/225 369/1/225 329/1/225 279/1/225
f 265/1/225 333/1/225 370/1/225 332/1/225
f 333/1/225 266/1/225 334/1/225 370/1/225
f 370/1/225 334/1/225 281/1/225 302/1/225
f 332/1/225 370/1/225 302/1/225 280/1/225
f 266/1/225 335/1/225 371/1/225 334/1/225
f 335/1/225 267/1/225 330/1/225 371/1/225
f 371/1/225 330/1/225 278/1/225 303/1/225
f 334/1/225 371/1/225 303/1/225 281/1/225
f 269/1/225 309/1/225 372/1/225 338/1/225
f 309/1/225 261/1/225 339/1/225 372/1/225
f 372/1/225 339/1/225 283/1/225 336/1/225
f 338/1/225 372/1/225 336/1/225 282/1/225
f 261/1/225 340/1/225 373/1/225 339/1/225
f 340/1/225 262/1/225 341/1/225 373/1/225
f 373/1/225 341/1/225 284/1/225 298/1/225
f 339/1/225 373/1/225 298/1/225 283/1/225
f 262/1/225 342/1/225 374/1/225 341/1/225
f 342/1/225 263/1/225 343/1/225 374/1/225
f 374/1/225 343/1/225 285/1/225 299/1/225
f 341/1/225 374/1/225 299/1/225 284/1/225
f 263/1/225 306/1/225 375/1/225 343/1/225
f 306/1/225 269/1/225 338/1/225 375/1/225
f 375/1/225 338/1/225 282/1/225 337/1/225
f 343/1/225 375/1/225 337/1/225 285/1/225
f 265/1/225 310/1/225 376/1/225 346/1/225
f 310/1/225 269/1/225 347/1/225 376/1/225
f 376/1/225 347/1/225 287/1/225 344/1/225
f 346/1/225 376/1/225 344/1/225 286/1/225
f 269/1/225 306/1/225 377/1/225 347/1/225
f 306/1/225 263/1/225 348/1/225 377/1/225
f 377/1/225 348/1/225 288/1/225 345/1/225
f 347/1/225 377/1/225 345/1/225 287/1/225
f 263/1/225 349/1/225 378/1/225 348/1/225
f 349/1/225 264/1/225 350/1/225 378/1/225
f 378/1/225 350/1/225 289/1/225 300/1/225
f 348/1/225 378/1/225 300/1/225 288/1/225
f 264/1/225 351/1/225 379/1/225 350/1/225
f 351/1/225 265/1/225 346/1/225 379/1/225
f 379/1/225 346/1/225 286/1/225 301/1/225
f 350/1/225 379/1/225 301/1/225 289/1/225
f 269/1/225 311/1/225 380/1/225 354/1/225
f 311/1/225 259/1/225 355/1/225 380/1/225
f 380/1/225 355/1/225 291/1/225 352/1/225
f 354/1/225 380/1/225 352/1/225 290/1/225
f 259/1/225 356/1/225 381/1/225 355/1/225
f 356/1/225 260/1/225 357/1/225 381/1/225
f 381/1/225 357/1/225 292/1/225 296/1/225
f 355/1/225 381/1/225 296/1/225 291/1/225
f 260/1/225 358/1/225 382/1/225 357/1/225
f 358/1/225 261/1/225 359/1/225 382/1/225
f 382/1/225 359/1/225 293/1/225 297/1/225
f 357/1/225 382/1/225 297/1/225 292/1/225
f 261/1/225 309/1/225 383/1/225 359/1/225
f 309/1/225 269/1/225 354/1/225 383/1/225
f 383/1/225 354/1/225 290/1/225 353/1/225
f 359/1/225 383/1/225 353/1/225 293/1/225
f 385/1/226 442/1/226 487/1/226 441/1/226
f 441/1/226 487/1/226 443/1/226 386/1/226
f 487/1/226 422/1/226 398/1/226 443/1/226
f 442/1/226 397/1/226 422/1/226 487/1/226
f 386/1/226 443/1/226 488/1/226 438/1/226
f 438/1/226 488/1/226 444/1/226 396/1/226
f 488/1/226 439/1/226 399/1/226 444/1/226
f 443/1/226 398/1/226 439/1/226 488/1/226
f 396/1/226 444/1/226 489/1/226 434/1/226
f 434/1/226 489/1/226 445/1/226 384/1/226
f 489/1/226 440/1/226 400/1/226 445/1/226
f 444/1/226 399/1/226 440/1/226 489/1/226
f 384/1/226 445/1/226 490/1/226 446/1/226
f 446/1/226 490/1/226 442/1/226 385/1/226
f 490/1/226 421/1/226 397/1/226 442/1/226
f 445/1/226 400/1/226 421/1/226 490/1/226
f 384/1/226 449/1/226 491/1/226 434/1/226
f 434/1/226 491/1/226 450/1/226 396/1/226
f 491/1/226 447/1/226 402/1/226 450/1/226
f 449/1/226 401/1/226 447/1/226 491/1/226
f 396/1/226 450/1/226 492/1/226 435/1/226
f 435/1/226 492/1/226 451/1/226 394/1/226
f 492/1/226 448/1/226 403/1/226 451/1/226
f 450/1/226 402/1/226 448/1/226 492/1/226
f 394/1/226 451/1/226 493/1/226 452/1/226
f 452/1/226 493/1/226 453/1/226 395/1/226
f 493/1/226 431/1/226 404/1/226 453/1/226
f 451/1/226 403/1/226 431/1/226 493/1/226
f 395/1/226 453/1/226 494/1/226 454/1/226
f 454/1/226 494/1/226 449/1/226 384/1/226
f 494/1/226 432/1/226 401/1/226 449/1/226
f 453/1/226 404/1/226 432/1/226 494/1/226
f 394/1/226 457/1/226 495/1/226 435/1/226
f 435/1/226 495/1/226 458/1/226 396/1/226
f 495/1/226 455/1/226 406/1/226 458/1/226
f 457/1/226 405/1/226 455/1/226 495/1/226
f 396/1/226 458/1/226 496/1/226 437/1/226
f 437/1/226 496/1/226 459/1/226 392/1/226
f 496/1/226 456/1/226 407/1/226 459/1/226
f 458/1/226 406/1/226 456/1/226 496/1/226
f 392/1/226 459/1/226 497/1/226 460/1/226
f 460/1/226 497/1/226 461/1/226 393/1/226
f 497/1/226 429/1/226 408/1/226 461/1/226
f 459/1/226 407/1/226 429/1/226 497/1/226
f 393/1/226 461/1/226 498/1/226 462/1/226
f 462/1/226 498/1/226 457/1/226 394/1/226
f 498/1/226 430/1/226 405/1/226 457/1/226
f 461/1/226 408/1/226 430/1/226 498/1/226
f 396/1/226 465/1/226 499/1/226 436/1/226
f 436/1/226 499/1/226 466/1/226 388/1/226
f 499/1/226 463/1/226 410/1/226 466/1/226
f 465/1/226 409/1/226 463/1/226 499/1/226
f 388/1/226 466/1/226 500/1/226 467/1/226
f 467/1/226 500/1/226 468/1/226 389/1/226
f 500/1/226 425/1/226 411/1/226 468/1/226
f 466/1/226 410/1/226 425/1/226 500/1/226
f 389/1/226 468/1/226 501/1/226 469/1/226
f 469/1/226 501/1/226 470/1/226 390/1/226
f 501/1/226 426/1/226 412/1/226 470/1/226
f 468/1/226 411/1/226 426/1/226 501/1/226
f 390/1/226 470/1/226 502/1/226 433/1/226
f 433/1/226 502/1/226 465/1/226 396/1/226
f 502/1/226 464/1/226 409/1/226 465/1/226
f 470/1/226 412/1/226 464/1/226 502/1/226
f 392/1/226 473/1/226 503/1/226 437/1/226
f 437/1/226 503/1/226 474/1/226 396/1/226
f 503/1/226 471/1/226 414/1/226 474/1/226
f 473/1/226 413/1/226 471/1/226 503/1/226
f 396/1/226 474/1/226 504/1/226 433/1/226
f 433/1/226 504/1/226 475/1/226 390/1/226
f 504/1/226 472/1/226 415/1/226 475/1/226
f 474/1/226 414/1/226 472/1/226 504/1/226
f 390/1/226 475/1/226 505/1/226 476/1/226
f 476/1/226 505/1/226 477/1/226 391/1/226
f 505/1/226 427/1/226 416/1/226 477/1/226
f 475/1/226 415/1/226 427/1/226 505/1/226
f 391/1/226 477/1/226 506/1/226 478/1/226
f 478/1/226 506/1/226 473/1/226 392/1/226
f 506/1/226 428/1/226 413/1/226 473/1/226
f 477/1/226 416/1/226 428/1/226 506/1/226
f 396/1/226 481/1/226 507/1/226 438/1/226
f 438/1/226 507/1/226 482/1/226 386/1/226
f 507/1/226 479/1/226 418/1/226 482/1/226
f 481/1/226 417/1/226 479/1/226 507/1/226
f 386/1/226 482/1/226 508/1/226 483/1/226
f 483/1/226 508/1/226 484/1/226 387/1/226
f 508/1/226 423/1/226 419/1/226 484/1/226
f 482/1/226 418/1/226 423/1/226 508/1/226
f 387/1/226 484/1/226 509/1/226 485/1/226
f 485/1/226 509/1/226 486/1/226 388/1/226
f 509/1/226 424/1/226 420/1/226 486/1/226
f 484/1/226 419/1/226 424/1/226 509/1/226
f 388/1/226 486/1/226 510/1/226 436/1/226
f 436/1/226 510/1/226 481/1/226 396/1/226
f 510/1/226 480/1/226 417/1/226 481/1/226
f 486/1/226 420/1/226 480/1/226 510/1/226
f 294/1/227 270/1/228 397/1/228 421/1/227
f 273/1/229 294/1/227 421/1/227 400/1/229
f 295/1/230 271/1/231 398/1/231 422/1/230
f 270/1/228 295/1/230 422/1/230 397/1/228
f 296/1/232 292/1/233 419/1/233 423/1/232
f 291/1/234 296/1/232 423/1/232 418/1/234
f 297/1/235 293/1/236 420/1/236 424/1/235
f 292/1/233 297/1/235 424/1/235 419/1/233
f 298/1/237 284/1/238 411/1/238 425/1/237
f 283/1/239 298/1/237 425/1/237 410/1/239
f 299/1/240 285/1/241 412/1/241 426/1/240
f 284/1/238 299/1/240 426/1/240 411/1/238
f 300/1/242 289/1/243 416/1/243 427/1/242
f 288/1/244 300/1/242 427/1/242 415/1/244
f 301/1/245 286/1/246 413/1/246 428/1/245
f 289/1/243 301/1/245 428/1/245 416/1/243
f 302/1/247 281/1/248 408/1/248 429/1/247
f 280/1/249 302/1/247 429/1/247 407/1/249
f 303/1/250 278/1/251 405/1/251 430/1/250
f 281/1/248 303/1/250 430/1/250 408/1/248
f 304/1/252 277/1/253 404/1/253 431/1/252
f 276/1/254 304/1/252 431/1/252 403/1/254
f 305/1/255 274/1/256 401/1/256 432/1/255
f 277/1/253 305/1/255 432/1/255 404/1/253
f 312/1/257 272/1/258 399/1/258 439/1/257
f 271/1/231 312/1/257 439/1/257 398/1/231
f 313/1/259 273/1/229 400/1/229 440/1/259
f 272/1/260 313/1/259 440/1/259 399/1/260
f 314/1/261 258/1/243 385/1/243 441/1/261
f 259/1/262 314/1/261 441/1/261 386/1/262
f 319/1/263 257/1/264 384/1/264 446/1/263
f 258/1/243 319/1/263 446/1/263 385/1/243
f 274/1/256 320/1/265 447/1/265 401/1/256
f 320/1/265 275/1/266 402/1/266 447/1/265
f 275/1/267 321/1/268 448/1/268 402/1/267
f 321/1/268 276/1/254 403/1/254 448/1/268
f 325/1/269 267/1/270 394/1/270 452/1/269
f 268/1/238 325/1/269 452/1/269 395/1/238
f 327/1/271 268/1/238 395/1/238 454/1/271
f 257/1/264 327/1/271 454/1/271 384/1/264
f 328/1/272 279/1/273 406/1/273 455/1/272
f 278/1/251 328/1/272 455/1/272 405/1/251
f 329/1/274 280/1/249 407/1/249 456/1/274
f 279/1/275 329/1/274 456/1/274 406/1/275
f 333/1/276 265/1/277 392/1/277 460/1/276
f 266/1/233 333/1/276 460/1/276 393/1/233
f 335/1/278 266/1/233 393/1/233 462/1/278
f 267/1/270 335/1/278 462/1/278 394/1/270
f 336/1/279 283/1/239 410/1/239 463/1/279
f 282/1/280 336/1/279 463/1/279 409/1/280
f 337/1/281 282/1/282 409/1/282 464/1/281
f 285/1/241 337/1/281 464/1/281 412/1/241
f 340/1/283 261/1/284 388/1/284 467/1/283
f 262/1/253 340/1/283 467/1/283 389/1/253
f 342/1/285 262/1/253 389/1/253 469/1/285
f 263/1/286 342/1/285 469/1/285 390/1/286
f 286/1/246 344/1/287 471/1/287 413/1/246
f 344/1/287 287/1/288 414/1/288 471/1/287
f 287/1/289 345/1/290 472/1/290 414/1/289
f 345/1/290 288/1/244 415/1/244 472/1/290
f 349/1/291 263/1/286 390/1/286 476/1/291
f 264/1/228 349/1/291 476/1/291 391/1/228
f 351/1/292 264/1/228 391/1/228 478/1/292
f 265/1/277 351/1/292 478/1/292 392/1/277
f 290/1/293 352/1/294 479/1/294 417/1/293
f 352/1/294 291/1/234 418/1/234 479/1/294
f 293/1/236 353/1/295 480/1/295 420/1/236
f 353/1/295 290/1/296 417/1/296 480/1/295
f 356/1/297 259/1/262 386/1/262 483/1/297
f 260/1/248 356/1/297 483/1/297 387/1/248
f 358/1/298 260/1/248 387/1/248 485/1/298
f 261/1/284 358/1/298 485/1/298 388/1/284
o export_Wheel_L_Cylinder.128
v 0.136358 0.029665 0.018040
v -0.121113 0.029665 0.018040
v 0.136358 0.030455 -0.016670
v -0.121113 0.030455 -0.016670
v 0.136358 0.000791 -0.034710
v -0.121113 0.000791 -0.034710
v 0.136358 -0.029664 -0.018039
v -0.121113 -0.029664 -0.018039
v 0.136358 -0.030455 0.016671
v -0.121113 -0.030455 0.016671
v 0.136358 -0.000791 0.034711
v -0.121113 -0.000791 0.034711
vn -0.0000 -0.8544 -0.5196
vn -0.0000 -0.8772 0.4801
vn -0.0000 -0.0228 0.9997
vn -0.0000 0.8544 0.5196
vn -0.0000 0.8772 -0.4801
vn 1.0000 -0.0000 -0.0000
vn -0.0000 0.0228 -0.9997
vn -1.0000 -0.0000 -0.0000
vt 1.000000 0.500000
vt 1.000000 1.000000
vt 0.833333 1.000000
vt 0.833333 0.500000
vt 0.666667 1.000000
vt 0.666667 0.500000
vt 0.500000 1.000000
vt 0.500000 0.500000
vt 0.333333 1.000000
vt 0.333333 0.500000
vt 0.457846 0.370000
vt 0.250000 0.490000
vt 0.042154 0.370000
vt 0.042154 0.130000
vt 0.250000 0.010000
vt 0.457846 0.130000
vt 0.166667 1.000000
vt 0.166667 0.500000
vt -0.000000 1.000000
vt -0.000000 0.500000
vt 0.750000 0.490000
vt 0.957846 0.370000
vt 0.957846 0.130000
vt 0.750000 0.010000
vt 0.542154 0.130000
vt 0.542154 0.370000
s 1
usemtl wheelchair_metal
f 511/2/299 512/3/299 514/4/300 513/5/300
f 513/5/300 514/4/300 516/6/301 515/7/301
f 515/7/301 516/6/301 518/8/302 517/9/302
f 517/9/302 518/8/302 520/10/303 519/11/303
f 514/12/304 512/13/304 522/14/304 520/15/304 518/16/304 516/17/304
f 519/11/303 520/10/303 522/18/305 521/19/305
f 521/19/305 522/18/305 512/20/299 511/21/299
f 511/22/306 513/23/306 515/24/306 517/25/306 519/26/306 521/27/306
o export_Wheel_L_Cylinder.129
v 0.043148 0.048491 0.029490
v -0.027902 0.048491 0.029490
v 0.043148 0.049784 -0.027250
v -0.027902 0.049784 -0.027250
v 0.043148 0.001293 -0.056739
v -0.027902 0.001293 -0.056739
v 0.043148 -0.048491 -0.029489
v -0.027902 -0.048491 -0.029489
v 0.043148 -0.049784 0.027251
v -0.027902 -0.049784 0.027251
v 0.043148 -0.001293 0.056740
v -0.027902 -0.001293 0.056740
vn -0.0000 -0.9997 -0.0228
vn -0.0000 -0.5196 0.8544
vn -0.0000 0.4801 0.8772
vn -0.0000 0.9997 0.0228
vn 1.0000 -0.0000 -0.0000
vn -0.0000 0.5196 -0.8544
vn -0.0000 -0.4801 -0.8772
vn -1.0000 -0.0000 -0.0000
vt 1.000000 0.500000
vt 1.000000 1.000000
vt 0.833333 1.000000
vt 0.833333 0.500000
vt 0.666667 1.000000
vt 0.666667 0.500000
vt 0.500000 1.000000
vt 0.500000 0.500000
vt 0.333333 1.000000
vt 0.333333 0.500000
vt 0.457846 0.370000
vt 0.250000 0.490000
vt 0.042154 0.370000
vt 0.042154 0.130000
vt 0.250000 0.010000
vt 0.457846 0.130000
vt 0.166667 1.000000
vt 0.166667 0.500000
vt -0.000000 1.000000
vt -0.000000 0.500000
vt 0.750000 0.490000
vt 0.957846 0.370000
vt 0.957846 0.130000
vt 0.750000 0.010000
vt 0.542154 0.130000
vt 0.542154 0.370000
s 0
usemtl wheelchair_plastic
f 523/28/307 524/29/307 526/30/307 525/31/307
f 525/31/308 526/30/308 528/32/308 527/33/308
f 527/33/309 528/32/309 530/34/309 529/35/309
f 529/35/310 530/34/310 532/36/310 531/37/310
f 526/38/311 524/39/311 534/40/311 532/41/311 530/42/311 528/43/311
f 531/37/312 532/36/312 534/44/312 533/45/312
f 533/45/313 534/44/313 524/46/313 523/47/313
f 523/48/314 525/49/314 527/50/314 529/51/314 531/52/314 533/53/314
