# Blender 5.1.1
# www.blender.org
mtllib l_ankle.mtl
o export_l_ankle_part
v -0.019942 -0.016932 -0.035469
v -0.022657 -0.017855 -0.030720
v -0.025117 -0.012399 -0.031548
v -0.021916 -0.011882 -0.036647
v -0.024691 -0.018604 -0.025169
v -0.027403 -0.012866 -0.025738
v -0.025915 -0.018902 -0.019153
v -0.028712 -0.013065 -0.019503
v -0.026211 -0.018604 -0.013021
v -0.028980 -0.012866 -0.013137
v -0.025608 -0.017855 -0.007140
v -0.028196 -0.012399 -0.006943
v -0.024146 -0.016932 -0.001867
v -0.026349 -0.011882 -0.001213
v -0.026594 -0.006350 -0.032204
v -0.023142 -0.006121 -0.037555
v -0.029026 -0.006572 -0.026165
v -0.030395 -0.006671 -0.019713
v -0.030658 -0.006572 -0.013123
v -0.029789 -0.006350 -0.006671
v -0.027761 -0.006121 -0.000634
v -0.027091 -0.000000 -0.032466
v -0.023569 -0.000000 -0.037908
v -0.029567 -0.000000 -0.026333
v -0.030957 -0.000000 -0.019783
v -0.031223 -0.000000 -0.013093
v -0.030334 -0.000000 -0.006539
v -0.028262 -0.000000 -0.000397
v -0.026594 0.006350 -0.032204
v -0.023142 0.006121 -0.037555
v -0.029026 0.006572 -0.026165
v -0.030395 0.006671 -0.019713
v -0.030658 0.006572 -0.013123
v -0.029789 0.006350 -0.006671
v -0.027761 0.006121 -0.000634
v -0.025117 0.012398 -0.031548
v -0.021916 0.011882 -0.036647
v -0.027403 0.012866 -0.025738
v -0.028712 0.013064 -0.019503
v -0.028980 0.012866 -0.013137
v -0.028196 0.012398 -0.006943
v -0.026349 0.011882 -0.001213
v -0.022657 0.017855 -0.030720
v -0.019942 0.016932 -0.035469
v -0.024691 0.018604 -0.025169
v -0.025915 0.018902 -0.019153
v -0.026211 0.018604 -0.013021
v -0.025608 0.017855 -0.007140
v -0.024146 0.016932 -0.001867
v -0.015311 -0.019608 -0.037587
v -0.017073 -0.020985 -0.034600
v -0.016507 -0.016426 -0.039124
v -0.019139 -0.022468 -0.030029
v -0.020876 -0.023515 -0.024585
v -0.022009 -0.023905 -0.018664
v -0.022370 -0.023515 -0.012646
v -0.022028 -0.022468 -0.006942
v -0.021151 -0.020985 -0.002003
v -0.020180 -0.019608 0.001326
v -0.021717 -0.016426 0.002521
v -0.023373 -0.011634 0.003809
v -0.024542 -0.006016 0.004718
v -0.024977 -0.000000 0.005056
v -0.024542 0.006016 0.004718
v -0.023373 0.011633 0.003809
v -0.021717 0.016426 0.002521
v -0.020180 0.019608 0.001326
v -0.021151 0.020985 -0.002003
v -0.022028 0.022468 -0.006942
v -0.022370 0.023515 -0.012646
v -0.022009 0.023905 -0.018664
v -0.020876 0.023515 -0.024585
v -0.019139 0.022468 -0.030029
v -0.017073 0.020985 -0.034600
v -0.016507 0.016426 -0.039124
v -0.015311 0.019608 -0.037587
v -0.017794 0.011633 -0.040780
v -0.018703 0.006016 -0.041949
v -0.019042 -0.000000 -0.042384
v -0.018703 -0.006016 -0.041949
v -0.017794 -0.011634 -0.040780
v -0.012988 0.023940 -0.034599
v -0.014531 0.026045 -0.029703
v -0.009053 0.028588 -0.029538
v -0.007863 0.026045 -0.034888
v -0.015990 0.027374 -0.024080
v -0.010267 0.030135 -0.023594
v -0.017045 0.027841 -0.018043
v -0.011253 0.030660 -0.017318
v -0.017509 0.027374 -0.011932
v -0.011844 0.030135 -0.010993
v -0.017481 0.026045 -0.006123
v -0.012131 0.028588 -0.004933
v -0.017192 0.023940 -0.000997
v -0.012296 0.026045 0.000546
v -0.002993 0.030135 -0.029251
v -0.002054 0.027374 -0.034916
v -0.003995 0.031799 -0.023033
v -0.004909 0.032356 -0.016525
v -0.005626 0.031799 -0.009991
v -0.006187 0.030135 -0.003719
v -0.006673 0.027374 0.002004
v 0.003333 0.030660 -0.028660
v 0.004057 0.027841 -0.034452
v 0.002539 0.032356 -0.022316
v 0.001711 0.032922 -0.015696
v 0.000882 0.032356 -0.009077
v 0.000089 0.030660 -0.002733
v -0.000636 0.027841 0.003059
v 0.009608 0.030135 -0.027674
v 0.010094 0.027374 -0.033397
v 0.009048 0.031799 -0.021402
v 0.008330 0.032356 -0.014868
v 0.007416 0.031799 -0.008359
v 0.006414 0.030135 -0.002142
v 0.005475 0.027374 0.003524
v 0.015552 0.028588 -0.026460
v 0.015717 0.026045 -0.031938
v 0.015265 0.030135 -0.020400
v 0.014674 0.030660 -0.014074
v 0.013689 0.030135 -0.007799
v 0.012474 0.028588 -0.001855
v 0.011284 0.026045 0.003496
v 0.020903 0.026045 -0.025270
v 0.020614 0.023940 -0.030395
v 0.020931 0.027374 -0.019461
v 0.020466 0.027841 -0.013350
v 0.019411 0.027374 -0.007313
v 0.017953 0.026045 -0.001690
v 0.016410 0.023940 0.003207
v -0.011983 0.020985 -0.038558
v -0.017193 0.020985 0.003087
v -0.012622 0.022468 0.005154
v -0.007178 0.023515 0.006890
v -0.001257 0.023905 0.008024
v 0.004761 0.023515 0.008384
v 0.010465 0.022468 0.008042
v 0.015404 0.020985 0.007166
v 0.018733 0.019608 0.006194
v 0.020494 0.020985 0.003207
v 0.022561 0.022468 -0.001364
v 0.024297 0.023515 -0.006808
v 0.025431 0.023905 -0.012729
v 0.025791 0.023515 -0.018746
v 0.025449 0.022468 -0.024450
v 0.024573 0.020985 -0.029390
v 0.020614 0.020985 -0.034480
v 0.023601 0.019608 -0.032718
v 0.016043 0.022468 -0.036546
v 0.010599 0.023515 -0.038283
v 0.004678 0.023905 -0.039416
v -0.001339 0.023515 -0.039777
v -0.007043 0.022468 -0.039435
v 0.027567 0.016932 -0.029525
v 0.029029 0.017855 -0.024253
v 0.031617 0.012398 -0.024450
v 0.029771 0.011882 -0.030180
v 0.029633 0.018604 -0.018372
v 0.032401 0.012866 -0.018256
v 0.029337 0.018902 -0.012240
v 0.032134 0.013064 -0.011890
v 0.028113 0.018604 -0.006224
v 0.030825 0.012866 -0.005655
v 0.026079 0.017855 -0.000673
v 0.028538 0.012398 0.000155
v 0.023363 0.016932 0.004077
v 0.025337 0.011882 0.005254
v 0.033210 0.006350 -0.024721
v 0.031182 0.006121 -0.030758
v 0.034079 0.006572 -0.018270
v 0.033816 0.006671 -0.011679
v 0.032448 0.006572 -0.005228
v 0.030016 0.006350 0.000811
v 0.026563 0.006121 0.006162
v 0.033756 -0.000000 -0.024853
v 0.031683 -0.000000 -0.030995
v 0.034644 -0.000000 -0.018299
v 0.034378 -0.000000 -0.011609
v 0.032988 -0.000000 -0.005060
v 0.030512 -0.000000 0.001073
v 0.026990 -0.000000 0.006516
v 0.033210 -0.006350 -0.024721
v 0.031182 -0.006121 -0.030758
v 0.034079 -0.006572 -0.018270
v 0.033816 -0.006671 -0.011679
v 0.032448 -0.006572 -0.005228
v 0.030016 -0.006350 0.000811
v 0.026563 -0.006121 0.006162
v 0.031617 -0.012399 -0.024450
v 0.029771 -0.011882 -0.030180
v 0.032401 -0.012866 -0.018256
v 0.032134 -0.013065 -0.011890
v 0.030825 -0.012866 -0.005655
v 0.028538 -0.012399 0.000155
v 0.025337 -0.011882 0.005254
v 0.029029 -0.017855 -0.024253
v 0.027567 -0.016932 -0.029525
v 0.029633 -0.018604 -0.018372
v 0.029337 -0.018902 -0.012240
v 0.028113 -0.018604 -0.006224
v 0.026079 -0.017855 -0.000673
v 0.023363 -0.016932 0.004077
v 0.025139 0.016426 -0.033914
v 0.019928 0.016426 0.007732
v 0.021216 0.011633 0.009387
v 0.022125 0.006016 0.010556
v 0.022463 -0.000000 0.010991
v 0.022125 -0.006016 0.010556
v 0.021216 -0.011634 0.009387
v 0.019928 -0.016426 0.007732
v 0.018733 -0.019608 0.006194
v 0.020494 -0.020985 0.003207
v 0.022561 -0.022468 -0.001364
v 0.024297 -0.023515 -0.006808
v 0.025431 -0.023905 -0.012729
v 0.025791 -0.023515 -0.018746
v 0.025449 -0.022468 -0.024450
v 0.024573 -0.020985 -0.029390
v 0.025139 -0.016426 -0.033914
v 0.023601 -0.019608 -0.032718
v 0.026794 -0.011634 -0.035201
v 0.027963 -0.006016 -0.036110
v 0.028398 -0.000000 -0.036449
v 0.027963 0.006016 -0.036110
v 0.026794 0.011633 -0.035201
v 0.020614 -0.023940 -0.030395
v 0.020903 -0.026045 -0.025270
v 0.015552 -0.028588 -0.026460
v 0.015717 -0.026045 -0.031938
v 0.020931 -0.027374 -0.019461
v 0.015265 -0.030135 -0.020400
v 0.020466 -0.027842 -0.013350
v 0.014674 -0.030660 -0.014074
v 0.019411 -0.027374 -0.007313
v 0.013688 -0.030135 -0.007799
v 0.017953 -0.026045 -0.001690
v 0.012474 -0.028588 -0.001855
v 0.016410 -0.023940 0.003207
v 0.011284 -0.026045 0.003496
v 0.009608 -0.030135 -0.027674
v 0.010094 -0.027374 -0.033397
v 0.009048 -0.031799 -0.021402
v 0.008330 -0.032356 -0.014868
v 0.007416 -0.031799 -0.008359
v 0.006414 -0.030135 -0.002142
v 0.005475 -0.027374 0.003524
v 0.003333 -0.030660 -0.028660
v 0.004057 -0.027842 -0.034452
v 0.002539 -0.032356 -0.022316
v 0.001711 -0.032922 -0.015696
v 0.000882 -0.032356 -0.009077
v 0.000089 -0.030660 -0.002733
v -0.000636 -0.027842 0.003059
v -0.002993 -0.030135 -0.029251
v -0.002054 -0.027374 -0.034916
v -0.003995 -0.031799 -0.023033
v -0.004909 -0.032356 -0.016525
v -0.005626 -0.031799 -0.009991
v -0.006187 -0.030135 -0.003719
v -0.006673 -0.027374 0.002004
v -0.009053 -0.028588 -0.029538
v -0.007863 -0.026045 -0.034888
v -0.010267 -0.030135 -0.023594
v -0.011253 -0.030660 -0.017318
v -0.011844 -0.030135 -0.010993
v -0.012131 -0.028588 -0.004933
v -0.012296 -0.026045 0.000546
v -0.014531 -0.026045 -0.029703
v -0.012988 -0.023940 -0.034599
v -0.015990 -0.027374 -0.024080
v -0.017045 -0.027842 -0.018043
v -0.017509 -0.027374 -0.011932
v -0.017481 -0.026045 -0.006123
v -0.017192 -0.023940 -0.000997
v 0.020615 -0.020985 -0.034480
v 0.015404 -0.020985 0.007166
v 0.010465 -0.022468 0.008042
v 0.004761 -0.023515 0.008384
v -0.001257 -0.023905 0.008024
v -0.007178 -0.023515 0.006890
v -0.012622 -0.022468 0.005154
v -0.017193 -0.020985 0.003087
v -0.011983 -0.020985 -0.038558
v -0.007043 -0.022468 -0.039435
v -0.001339 -0.023515 -0.039777
v 0.004678 -0.023905 -0.039416
v 0.010599 -0.023515 -0.038283
v 0.016043 -0.022468 -0.036546
v -0.012118 0.016932 -0.041553
v -0.006846 0.017855 -0.043015
v -0.007043 0.012398 -0.045603
v -0.012773 0.011882 -0.043756
v -0.000965 0.018604 -0.043618
v -0.000849 0.012866 -0.046387
v 0.005167 0.018902 -0.043322
v 0.005517 0.013064 -0.046119
v 0.011183 0.018604 -0.042098
v 0.011752 0.012866 -0.044810
v 0.016734 0.017855 -0.040064
v 0.017562 0.012398 -0.042524
v 0.021484 0.016932 -0.037349
v 0.022661 0.011882 -0.039323
v -0.007314 0.006350 -0.047196
v -0.013351 0.006121 -0.045168
v -0.000863 0.006572 -0.048065
v 0.005727 0.006671 -0.047802
v 0.012179 0.006572 -0.046433
v 0.018218 0.006350 -0.044001
v 0.023569 0.006121 -0.040549
v -0.007446 -0.000000 -0.047741
v -0.013588 -0.000000 -0.045669
v -0.000892 -0.000000 -0.048630
v 0.005798 -0.000000 -0.048364
v 0.012347 -0.000000 -0.046974
v 0.018480 -0.000000 -0.044498
v 0.023923 -0.000000 -0.040976
v -0.007314 -0.006350 -0.047196
v -0.013351 -0.006121 -0.045168
v -0.000863 -0.006572 -0.048065
v 0.005727 -0.006671 -0.047802
v 0.012179 -0.006572 -0.046433
v 0.018218 -0.006350 -0.044001
v 0.023569 -0.006121 -0.040549
v -0.007043 -0.012399 -0.045603
v -0.012773 -0.011882 -0.043756
v -0.000849 -0.012866 -0.046387
v 0.005517 -0.013065 -0.046119
v 0.011752 -0.012866 -0.044810
v 0.017562 -0.012399 -0.042524
v 0.022661 -0.011882 -0.039323
v -0.006846 -0.017855 -0.043015
v -0.012118 -0.016932 -0.041553
v -0.000965 -0.018604 -0.043618
v 0.005167 -0.018902 -0.043322
v 0.011183 -0.018604 -0.042098
v 0.016734 -0.017855 -0.040064
v 0.021484 -0.016932 -0.037349
v 0.015540 0.016932 0.010160
v 0.010267 0.017855 0.011622
v 0.010464 0.012398 0.014210
v 0.016194 0.011882 0.012364
v 0.004386 0.018604 0.012226
v 0.004270 0.012866 0.014994
v -0.001746 0.018902 0.011930
v -0.002096 0.013064 0.014727
v -0.007762 0.018604 0.010706
v -0.008331 0.012866 0.013418
v -0.013313 0.017855 0.008672
v -0.014141 0.012398 0.011131
v -0.018062 0.016932 0.005956
v -0.019240 0.011882 0.007930
v 0.010736 0.006350 0.015803
v 0.016773 0.006121 0.013775
v 0.004284 0.006572 0.016672
v -0.002306 0.006671 0.016409
v -0.008758 0.006572 0.015041
v -0.014797 0.006350 0.012609
v -0.020148 0.006121 0.009156
v 0.010868 -0.000000 0.016349
v 0.017010 -0.000000 0.014276
v 0.004313 -0.000000 0.017237
v -0.002376 -0.000000 0.016971
v -0.008926 -0.000000 0.015581
v -0.015059 -0.000000 0.013105
v -0.020501 -0.000000 0.009583
v 0.010736 -0.006350 0.015803
v 0.016773 -0.006121 0.013775
v 0.004284 -0.006572 0.016672
v -0.002306 -0.006671 0.016409
v -0.008758 -0.006572 0.015041
v -0.014797 -0.006350 0.012609
v -0.020148 -0.006121 0.009156
v 0.010464 -0.012399 0.014210
v 0.016194 -0.011882 0.012364
v 0.004270 -0.012866 0.014994
v -0.002096 -0.013065 0.014727
v -0.008331 -0.012866 0.013418
v -0.014141 -0.012399 0.011131
v -0.019240 -0.011882 0.007930
v 0.010267 -0.017855 0.011622
v 0.015540 -0.016932 0.010160
v 0.004386 -0.018604 0.012226
v -0.001746 -0.018902 0.011930
v -0.007762 -0.018604 0.010706
v -0.013313 -0.017855 0.008672
v -0.018062 -0.016932 0.005956
vn -0.7518 -0.4151 -0.5124
vn -0.8287 -0.4278 -0.3609
vn -0.8786 -0.4340 -0.1992
vn -0.9006 -0.4340 -0.0234
vn -0.8920 -0.4278 0.1456
vn -0.8549 -0.4151 0.3113
vn -0.8072 -0.2552 -0.5322
vn -0.8927 -0.2567 -0.3704
vn -0.9445 -0.2564 -0.2054
vn -0.9660 -0.2564 -0.0337
vn -0.9564 -0.2567 0.1391
vn -0.9135 -0.2552 0.3169
vn -0.8358 -0.0886 -0.5419
vn -0.9234 -0.0865 -0.3739
vn -0.9746 -0.0848 -0.2074
vn -0.9956 -0.0848 -0.0391
vn -0.9871 -0.0865 0.1349
vn -0.9435 -0.0886 0.3193
vn -0.8358 0.0886 -0.5419
vn -0.9234 0.0865 -0.3739
vn -0.9746 0.0848 -0.2074
vn -0.9956 0.0848 -0.0391
vn -0.9871 0.0865 0.1349
vn -0.9435 0.0886 0.3193
vn -0.8072 0.2552 -0.5322
vn -0.8927 0.2567 -0.3704
vn -0.9445 0.2564 -0.2054
vn -0.9660 0.2564 -0.0337
vn -0.9564 0.2567 0.1391
vn -0.9135 0.2552 0.3169
vn -0.7518 0.4151 -0.5123
vn -0.8287 0.4278 -0.3609
vn -0.8786 0.4340 -0.1993
vn -0.9006 0.4340 -0.0234
vn -0.8920 0.4278 0.1456
vn -0.8549 0.4151 0.3113
vn -0.5867 -0.5325 -0.6101
vn -0.6593 -0.5734 -0.4863
vn -0.7207 -0.6011 -0.3453
vn -0.7652 -0.6161 -0.1866
vn -0.7876 -0.6162 -0.0077
vn -0.7836 -0.6011 0.1571
vn -0.7588 -0.5734 0.3089
vn -0.7190 -0.5325 0.4467
vn -0.7803 -0.4007 0.4803
vn -0.8267 -0.2532 0.5024
vn -0.8529 -0.0901 0.5142
vn -0.8529 0.0901 0.5142
vn -0.8268 0.2532 0.5024
vn -0.7803 0.4007 0.4803
vn -0.7190 0.5325 0.4467
vn -0.7588 0.5734 0.3089
vn -0.7836 0.6011 0.1571
vn -0.7876 0.6161 -0.0077
vn -0.7652 0.6161 -0.1866
vn -0.7207 0.6011 -0.3453
vn -0.6593 0.5734 -0.4863
vn -0.5867 0.5325 -0.6101
vn -0.6379 0.4007 -0.6577
vn -0.6775 0.2532 -0.6906
vn -0.6999 0.0901 -0.7085
vn -0.6999 -0.0901 -0.7085
vn -0.6775 -0.2532 -0.6906
vn -0.6379 -0.4007 -0.6577
vn -0.3603 0.8096 -0.4634
vn -0.3929 0.8671 -0.3064
vn -0.4196 0.8966 -0.1418
vn -0.4416 0.8966 0.0341
vn -0.4562 0.8671 0.2002
vn -0.4634 0.8096 0.3603
vn -0.2002 0.8671 -0.4562
vn -0.2229 0.9318 -0.2866
vn -0.2437 0.9627 -0.1177
vn -0.2652 0.9627 0.0540
vn -0.2866 0.9318 0.2229
vn -0.3064 0.8671 0.3928
vn -0.0341 0.8966 -0.4416
vn -0.0540 0.9627 -0.2652
vn -0.0737 0.9928 -0.0947
vn -0.0947 0.9928 0.0737
vn -0.1177 0.9627 0.2437
vn -0.1418 0.8966 0.4196
vn 0.1418 0.8966 -0.4196
vn 0.1177 0.9627 -0.2437
vn 0.0947 0.9928 -0.0737
vn 0.0737 0.9928 0.0947
vn 0.0540 0.9627 0.2652
vn 0.0341 0.8966 0.4416
vn 0.3064 0.8671 -0.3929
vn 0.2866 0.9318 -0.2229
vn 0.2652 0.9627 -0.0540
vn 0.2437 0.9627 0.1177
vn 0.2229 0.9318 0.2866
vn 0.2002 0.8671 0.4562
vn 0.4634 0.8096 -0.3603
vn 0.4562 0.8671 -0.2002
vn 0.4416 0.8966 -0.0341
vn 0.4196 0.8966 0.1418
vn 0.3929 0.8671 0.3064
vn 0.3603 0.8096 0.4634
vn -0.4623 0.6579 -0.5945
vn -0.5192 0.7146 -0.4688
vn -0.5650 0.7580 -0.3259
vn -0.6002 0.7825 -0.1659
vn -0.6226 0.7825 0.0129
vn -0.6279 0.7580 0.1766
vn -0.6187 0.7146 0.3264
vn -0.5945 0.6579 0.4623
vn -0.4688 0.7146 0.5192
vn -0.3259 0.7580 0.5650
vn -0.1659 0.7825 0.6002
vn 0.0129 0.7825 0.6226
vn 0.1766 0.7580 0.6279
vn 0.3264 0.7146 0.6187
vn 0.4623 0.6579 0.5945
vn 0.5192 0.7146 0.4688
vn 0.5650 0.7580 0.3259
vn 0.6002 0.7825 0.1659
vn 0.6226 0.7825 -0.0129
vn 0.6279 0.7580 -0.1766
vn 0.6187 0.7146 -0.3264
vn 0.5945 0.6579 -0.4623
vn 0.4688 0.7146 -0.5192
vn 0.3259 0.7580 -0.5650
vn 0.1659 0.7825 -0.6002
vn -0.0129 0.7825 -0.6226
vn -0.1766 0.7580 -0.6279
vn -0.3264 0.7146 -0.6187
vn 0.8549 0.4151 -0.3113
vn 0.8920 0.4278 -0.1456
vn 0.9006 0.4340 0.0234
vn 0.8786 0.4340 0.1992
vn 0.8287 0.4278 0.3609
vn 0.7518 0.4151 0.5123
vn 0.9135 0.2552 -0.3169
vn 0.9564 0.2567 -0.1391
vn 0.9660 0.2564 0.0337
vn 0.9445 0.2564 0.2054
vn 0.8927 0.2567 0.3704
vn 0.8072 0.2552 0.5322
vn 0.9435 0.0886 -0.3193
vn 0.9871 0.0865 -0.1349
vn 0.9956 0.0848 0.0391
vn 0.9746 0.0848 0.2074
vn 0.9234 0.0865 0.3739
vn 0.8358 0.0886 0.5419
vn 0.9435 -0.0886 -0.3193
vn 0.9871 -0.0865 -0.1349
vn 0.9956 -0.0848 0.0391
vn 0.9746 -0.0848 0.2074
vn 0.9234 -0.0865 0.3739
vn 0.8358 -0.0886 0.5419
vn 0.9135 -0.2552 -0.3169
vn 0.9564 -0.2567 -0.1391
vn 0.9660 -0.2564 0.0337
vn 0.9445 -0.2564 0.2054
vn 0.8927 -0.2567 0.3704
vn 0.8072 -0.2552 0.5322
vn 0.8549 -0.4151 -0.3113
vn 0.8920 -0.4278 -0.1456
vn 0.9006 -0.4340 0.0234
vn 0.8786 -0.4340 0.1992
vn 0.8287 -0.4278 0.3609
vn 0.7518 -0.4151 0.5124
vn 0.7190 0.5325 -0.4467
vn 0.7588 0.5734 -0.3089
vn 0.7836 0.6011 -0.1571
vn 0.7876 0.6161 0.0077
vn 0.7652 0.6161 0.1866
vn 0.7207 0.6011 0.3453
vn 0.6593 0.5734 0.4863
vn 0.5867 0.5325 0.6101
vn 0.6379 0.4007 0.6577
vn 0.6775 0.2532 0.6906
vn 0.6999 0.0901 0.7085
vn 0.6999 -0.0901 0.7085
vn 0.6775 -0.2532 0.6906
vn 0.6379 -0.4007 0.6577
vn 0.5867 -0.5325 0.6101
vn 0.6593 -0.5734 0.4863
vn 0.7207 -0.6011 0.3453
vn 0.7652 -0.6161 0.1866
vn 0.7876 -0.6161 0.0077
vn 0.7836 -0.6011 -0.1571
vn 0.7588 -0.5734 -0.3089
vn 0.7190 -0.5325 -0.4467
vn 0.7803 -0.4007 -0.4803
vn 0.8268 -0.2532 -0.5024
vn 0.8529 -0.0901 -0.5142
vn 0.8529 0.0901 -0.5142
vn 0.8268 0.2532 -0.5024
vn 0.7803 0.4007 -0.4803
vn 0.4634 -0.8096 -0.3603
vn 0.4562 -0.8671 -0.2002
vn 0.4416 -0.8966 -0.0341
vn 0.4196 -0.8966 0.1418
vn 0.3929 -0.8671 0.3064
vn 0.3603 -0.8096 0.4634
vn 0.3064 -0.8671 -0.3929
vn 0.2866 -0.9318 -0.2229
vn 0.2652 -0.9627 -0.0540
vn 0.2437 -0.9627 0.1177
vn 0.2229 -0.9318 0.2866
vn 0.2002 -0.8671 0.4562
vn 0.1418 -0.8966 -0.4196
vn 0.1177 -0.9627 -0.2437
vn 0.0947 -0.9928 -0.0737
vn 0.0737 -0.9928 0.0947
vn 0.0540 -0.9627 0.2652
vn 0.0341 -0.8966 0.4416
vn -0.0341 -0.8966 -0.4416
vn -0.0540 -0.9627 -0.2652
vn -0.0737 -0.9928 -0.0947
vn -0.0947 -0.9928 0.0737
vn -0.1177 -0.9627 0.2437
vn -0.1418 -0.8966 0.4196
vn -0.2002 -0.8671 -0.4562
vn -0.2229 -0.9318 -0.2866
vn -0.2437 -0.9627 -0.1177
vn -0.2652 -0.9627 0.0540
vn -0.2866 -0.9318 0.2229
vn -0.3064 -0.8671 0.3929
vn -0.3603 -0.8096 -0.4634
vn -0.3929 -0.8671 -0.3064
vn -0.4196 -0.8966 -0.1418
vn -0.4416 -0.8966 0.0341
vn -0.4562 -0.8671 0.2002
vn -0.4634 -0.8096 0.3603
vn 0.5945 -0.6579 -0.4623
vn 0.6187 -0.7146 -0.3264
vn 0.6279 -0.7580 -0.1766
vn 0.6226 -0.7825 -0.0129
vn 0.6002 -0.7825 0.1659
vn 0.5650 -0.7580 0.3259
vn 0.5192 -0.7146 0.4688
vn 0.4623 -0.6579 0.5945
vn 0.3264 -0.7146 0.6187
vn 0.1766 -0.7580 0.6279
vn 0.0129 -0.7825 0.6226
vn -0.1659 -0.7825 0.6002
vn -0.3259 -0.7580 0.5650
vn -0.4688 -0.7146 0.5192
vn -0.5945 -0.6579 0.4623
vn -0.6187 -0.7146 0.3264
vn -0.6279 -0.7580 0.1766
vn -0.6226 -0.7825 0.0129
vn -0.6002 -0.7825 -0.1659
vn -0.5650 -0.7580 -0.3259
vn -0.5192 -0.7146 -0.4688
vn -0.4623 -0.6579 -0.5945
vn -0.3264 -0.7146 -0.6187
vn -0.1766 -0.7580 -0.6279
vn -0.0129 -0.7825 -0.6226
vn 0.1659 -0.7825 -0.6002
vn 0.3259 -0.7580 -0.5650
vn 0.4688 -0.7146 -0.5192
vn -0.3113 0.4151 -0.8549
vn -0.1456 0.4278 -0.8920
vn 0.0234 0.4340 -0.9006
vn 0.1992 0.4340 -0.8786
vn 0.3609 0.4278 -0.8287
vn 0.5124 0.4151 -0.7518
vn -0.3169 0.2552 -0.9135
vn -0.1391 0.2567 -0.9564
vn 0.0337 0.2564 -0.9660
vn 0.2054 0.2564 -0.9445
vn 0.3704 0.2567 -0.8927
vn 0.5322 0.2552 -0.8072
vn -0.3193 0.0886 -0.9435
vn -0.1349 0.0865 -0.9871
vn 0.0391 0.0848 -0.9956
vn 0.2074 0.0848 -0.9746
vn 0.3739 0.0865 -0.9234
vn 0.5419 0.0886 -0.8358
vn -0.3193 -0.0886 -0.9435
vn -0.1349 -0.0865 -0.9871
vn 0.0391 -0.0848 -0.9956
vn 0.2074 -0.0848 -0.9746
vn 0.3739 -0.0865 -0.9234
vn 0.5419 -0.0886 -0.8358
vn -0.3169 -0.2552 -0.9135
vn -0.1391 -0.2567 -0.9564
vn 0.0337 -0.2564 -0.9660
vn 0.2054 -0.2564 -0.9445
vn 0.3704 -0.2567 -0.8927
vn 0.5322 -0.2552 -0.8072
vn -0.3113 -0.4151 -0.8549
vn -0.1456 -0.4278 -0.8920
vn 0.0234 -0.4340 -0.9006
vn 0.1992 -0.4340 -0.8786
vn 0.3609 -0.4278 -0.8287
vn 0.5124 -0.4151 -0.7518
vn -0.4467 0.5325 -0.7190
vn -0.3089 0.5734 -0.7588
vn -0.1571 0.6011 -0.7836
vn 0.0077 0.6161 -0.7876
vn 0.1866 0.6161 -0.7652
vn 0.3453 0.6011 -0.7207
vn 0.4863 0.5734 -0.6593
vn 0.6101 0.5325 -0.5867
vn 0.6577 0.4007 -0.6379
vn 0.6906 0.2532 -0.6775
vn 0.7085 0.0901 -0.6999
vn 0.7085 -0.0901 -0.6999
vn 0.6906 -0.2532 -0.6775
vn 0.6577 -0.4007 -0.6379
vn 0.6101 -0.5325 -0.5867
vn 0.4863 -0.5734 -0.6593
vn 0.3453 -0.6011 -0.7207
vn 0.1866 -0.6161 -0.7652
vn 0.0077 -0.6161 -0.7876
vn -0.1571 -0.6011 -0.7836
vn -0.3089 -0.5734 -0.7588
vn -0.4467 -0.5325 -0.7190
vn -0.4803 -0.4007 -0.7803
vn -0.5024 -0.2532 -0.8268
vn -0.5142 -0.0901 -0.8529
vn -0.5142 0.0901 -0.8529
vn -0.5024 0.2532 -0.8268
vn -0.4803 0.4007 -0.7803
vn 0.3113 0.4151 0.8549
vn 0.1456 0.4278 0.8920
vn -0.0234 0.4340 0.9006
vn -0.1993 0.4340 0.8786
vn -0.3609 0.4278 0.8287
vn -0.5123 0.4151 0.7518
vn 0.3169 0.2552 0.9135
vn 0.1391 0.2567 0.9564
vn -0.0337 0.2564 0.9660
vn -0.2054 0.2564 0.9445
vn -0.3704 0.2567 0.8927
vn -0.5322 0.2552 0.8072
vn 0.3193 0.0886 0.9435
vn 0.1349 0.0865 0.9871
vn -0.0391 0.0848 0.9956
vn -0.2074 0.0848 0.9746
vn -0.3739 0.0865 0.9234
vn -0.5419 0.0886 0.8358
vn 0.3193 -0.0886 0.9435
vn 0.1349 -0.0865 0.9871
vn -0.0391 -0.0848 0.9956
vn -0.2074 -0.0848 0.9746
vn -0.3739 -0.0865 0.9234
vn -0.5419 -0.0886 0.8358
vn 0.3169 -0.2552 0.9135
vn 0.1391 -0.2567 0.9564
vn -0.0337 -0.2564 0.9660
vn -0.2054 -0.2564 0.9445
vn -0.3704 -0.2567 0.8927
vn -0.5322 -0.2552 0.8072
vn 0.3113 -0.4151 0.8549
vn 0.1456 -0.4278 0.8920
vn -0.0234 -0.4340 0.9006
vn -0.1992 -0.4340 0.8786
vn -0.3609 -0.4278 0.8287
vn -0.5124 -0.4151 0.7518
vn 0.4467 0.5325 0.7190
vn 0.3089 0.5734 0.7588
vn 0.1571 0.6011 0.7836
vn -0.0077 0.6161 0.7876
vn -0.1866 0.6161 0.7652
vn -0.3453 0.6011 0.7207
vn -0.4863 0.5734 0.6593
vn -0.6101 0.5325 0.5867
vn -0.6577 0.4007 0.6379
vn -0.6906 0.2532 0.6775
vn -0.7085 0.0901 0.6999
vn -0.7085 -0.0901 0.6999
vn -0.6906 -0.2532 0.6775
vn -0.6577 -0.4007 0.6379
vn -0.6101 -0.5325 0.5867
vn -0.4863 -0.5734 0.6593
vn -0.3453 -0.6011 0.7207
vn -0.1866 -0.6161 0.7652
vn -0.0077 -0.6161 0.7876
vn 0.1571 -0.6011 0.7836
vn 0.3089 -0.5734 0.7588
vn 0.4467 -0.5325 0.7190
vn 0.4803 -0.4007 0.7803
vn 0.5024 -0.2532 0.8268
vn 0.5142 -0.0901 0.8529
vn 0.5142 0.0901 0.8529
vn 0.5024 0.2532 0.8268
vn 0.4803 0.4007 0.7803
vt 0.971773 0.372186
vt 0.972943 0.369473
vt 0.976037 0.370867
vt 0.974320 0.374028
vt 0.973742 0.366446
vt 0.977185 0.367337
vt 0.974188 0.363278
vt 0.977777 0.363614
vt 0.974339 0.360082
vt 0.977888 0.359846
vt 0.974117 0.356959
vt 0.977417 0.356164
vt 0.973472 0.354075
vt 0.976318 0.352740
vt 0.979599 0.372727
vt 0.977281 0.376419
vt 0.981215 0.368529
vt 0.982040 0.364014
vt 0.982069 0.359425
vt 0.981262 0.354999
vt 0.979671 0.350941
vt 0.983797 0.375090
vt 0.980751 0.379360
vt 0.986063 0.370091
vt 0.987328 0.364510
vt 0.987123 0.358792
vt 0.985826 0.353459
vt 0.983628 0.348696
vt 0.972741 0.215069
vt 0.967979 0.217267
vt 0.966439 0.212703
vt 0.970496 0.211113
vt 0.962646 0.218564
vt 0.962013 0.213510
vt 0.956928 0.218769
vt 0.957424 0.213481
vt 0.951347 0.217504
vt 0.952909 0.212656
vt 0.946348 0.215238
vt 0.948711 0.211040
vt 0.942078 0.212192
vt 0.945019 0.208723
vt 0.965274 0.208858
vt 0.968698 0.207759
vt 0.961592 0.209329
vt 0.957824 0.209219
vt 0.954101 0.208627
vt 0.950571 0.207478
vt 0.947411 0.205762
vt 0.964479 0.205558
vt 0.967363 0.204914
vt 0.961356 0.205781
vt 0.958160 0.205629
vt 0.954992 0.205184
vt 0.951965 0.204384
vt 0.949251 0.203215
vt 0.968835 0.372818
vt 0.969442 0.371033
vt 0.970088 0.374331
vt 0.970129 0.368554
vt 0.970685 0.365818
vt 0.971035 0.362982
vt 0.971218 0.360130
vt 0.971182 0.357339
vt 0.970967 0.354775
vt 0.970703 0.352908
vt 0.972216 0.351655
vt 0.974508 0.349755
vt 0.977354 0.347398
vt 0.980723 0.344607
vt 0.938600 0.208577
vt 0.941969 0.205786
vt 0.944814 0.203429
vt 0.947107 0.201530
vt 0.948620 0.200276
vt 0.950405 0.200883
vt 0.952884 0.201571
vt 0.955620 0.202126
vt 0.958456 0.202476
vt 0.961308 0.202660
vt 0.964099 0.202623
vt 0.966663 0.202408
vt 0.969783 0.203657
vt 0.968530 0.202144
vt 0.971683 0.205950
vt 0.974040 0.208795
vt 0.976831 0.212164
vt 0.974345 0.379469
vt 0.977136 0.382838
vt 0.971988 0.376624
vt 0.966721 0.199961
vt 0.964146 0.199874
vt 0.964421 0.197184
vt 0.967115 0.197414
vt 0.961455 0.199790
vt 0.961708 0.197013
vt 0.958725 0.199608
vt 0.958988 0.196809
vt 0.956009 0.199279
vt 0.956277 0.196504
vt 0.953350 0.198861
vt 0.953580 0.196167
vt 0.950803 0.198467
vt 0.950890 0.195892
vt 0.964758 0.194487
vt 0.967532 0.194755
vt 0.962001 0.194264
vt 0.959248 0.194033
vt 0.956500 0.193748
vt 0.953750 0.193454
vt 0.950974 0.193202
vt 0.965063 0.191776
vt 0.967862 0.192039
vt 0.962287 0.191516
vt 0.959509 0.191255
vt 0.956731 0.190995
vt 0.953955 0.190734
vt 0.951156 0.190471
vt 0.965267 0.189056
vt 0.968043 0.189309
vt 0.962517 0.188763
vt 0.959769 0.188477
vt 0.957016 0.188247
vt 0.954260 0.188023
vt 0.951485 0.187755
vt 0.965438 0.186343
vt 0.968128 0.186618
vt 0.962740 0.186006
vt 0.960030 0.185701
vt 0.957310 0.185497
vt 0.954597 0.185326
vt 0.951902 0.185096
vt 0.965668 0.183649
vt 0.968215 0.184043
vt 0.963009 0.183231
vt 0.960292 0.182902
vt 0.957562 0.182720
vt 0.954872 0.182636
vt 0.952296 0.182549
vt 0.969137 0.200359
vt 0.948355 0.198409
vt 0.948141 0.195846
vt 0.948104 0.193054
vt 0.948288 0.190202
vt 0.948638 0.187366
vt 0.949193 0.184630
vt 0.949881 0.182151
vt 0.950488 0.180366
vt 0.952354 0.180102
vt 0.954918 0.179887
vt 0.957709 0.179851
vt 0.960562 0.180034
vt 0.963398 0.180384
vt 0.966134 0.180939
vt 0.968612 0.181627
vt 0.970662 0.184101
vt 0.970398 0.182234
vt 0.970877 0.186665
vt 0.970913 0.189456
vt 0.970730 0.192308
vt 0.970380 0.195144
vt 0.969824 0.197880
vt 0.969766 0.179296
vt 0.967052 0.178126
vt 0.968447 0.175032
vt 0.971607 0.176748
vt 0.964025 0.177327
vt 0.964917 0.173884
vt 0.960857 0.176881
vt 0.961194 0.173292
vt 0.957661 0.176730
vt 0.957426 0.173181
vt 0.954539 0.176952
vt 0.953744 0.173652
vt 0.951655 0.177597
vt 0.950320 0.174751
vt 0.970307 0.171470
vt 0.973998 0.173788
vt 0.966109 0.169854
vt 0.961594 0.169029
vt 0.957004 0.169000
vt 0.952579 0.169807
vt 0.948521 0.171397
vt 0.972669 0.167272
vt 0.976940 0.170318
vt 0.967671 0.165006
vt 0.962090 0.163741
vt 0.956371 0.163946
vt 0.951038 0.165243
vt 0.946276 0.167441
vt 0.936000 0.375162
vt 0.933801 0.370399
vt 0.938366 0.368859
vt 0.939956 0.372917
vt 0.932505 0.365066
vt 0.937559 0.364433
vt 0.932300 0.359348
vt 0.937588 0.359844
vt 0.933565 0.353767
vt 0.938413 0.355329
vt 0.935831 0.348768
vt 0.940029 0.351131
vt 0.938876 0.344498
vt 0.942346 0.347440
vt 0.942211 0.367694
vt 0.943310 0.371118
vt 0.941740 0.364012
vt 0.941850 0.360244
vt 0.942442 0.356521
vt 0.943590 0.352991
vt 0.945307 0.349831
vt 0.945510 0.366899
vt 0.946155 0.369783
vt 0.945288 0.363776
vt 0.945440 0.360580
vt 0.945885 0.357412
vt 0.946684 0.354386
vt 0.947854 0.351672
vt 0.971911 0.180981
vt 0.949234 0.178853
vt 0.947335 0.176560
vt 0.944977 0.173715
vt 0.942186 0.170346
vt 0.942491 0.341020
vt 0.945283 0.344389
vt 0.947640 0.347234
vt 0.949539 0.349527
vt 0.950793 0.351040
vt 0.950186 0.352825
vt 0.949498 0.355304
vt 0.948943 0.358040
vt 0.948593 0.360876
vt 0.948409 0.363728
vt 0.948446 0.366520
vt 0.948660 0.369083
vt 0.947412 0.372204
vt 0.948925 0.370950
vt 0.945119 0.374103
vt 0.942274 0.376460
vt 0.938905 0.379252
vt 0.977049 0.176724
vt 0.980418 0.173933
vt 0.974204 0.179081
vt 0.951108 0.369142
vt 0.951195 0.366566
vt 0.953885 0.366841
vt 0.953655 0.369535
vt 0.951279 0.363876
vt 0.954055 0.364128
vt 0.951461 0.361145
vt 0.954260 0.361408
vt 0.951790 0.358429
vt 0.954565 0.358697
vt 0.952208 0.355770
vt 0.954902 0.356000
vt 0.952601 0.353223
vt 0.955177 0.353310
vt 0.956582 0.367178
vt 0.956314 0.369953
vt 0.956805 0.364422
vt 0.957036 0.361668
vt 0.957321 0.358921
vt 0.957614 0.356171
vt 0.957867 0.353394
vt 0.959293 0.367483
vt 0.959030 0.370282
vt 0.959553 0.364707
vt 0.959814 0.361929
vt 0.960074 0.359151
vt 0.960335 0.356375
vt 0.960597 0.353576
vt 0.962013 0.367687
vt 0.961760 0.370464
vt 0.962306 0.364938
vt 0.962592 0.362190
vt 0.962822 0.359437
vt 0.963046 0.356680
vt 0.963314 0.353905
vt 0.964726 0.367858
vt 0.964451 0.370548
vt 0.965063 0.365161
vt 0.965368 0.362450
vt 0.965572 0.359730
vt 0.965743 0.357017
vt 0.965973 0.354323
vt 0.967420 0.368088
vt 0.967026 0.370635
vt 0.967838 0.365429
vt 0.968167 0.362713
vt 0.968348 0.359983
vt 0.968433 0.357292
vt 0.968520 0.354717
vt 0.950710 0.371557
vt 0.952660 0.350776
vt 0.955223 0.350561
vt 0.958014 0.350525
vt 0.960867 0.350708
vt 0.963703 0.351058
vt 0.966439 0.351613
vt 0.968918 0.352301
vt 0.966968 0.373082
vt 0.964404 0.373297
vt 0.961613 0.373334
vt 0.958761 0.373150
vt 0.955925 0.372800
vt 0.953189 0.372245
vt 0.971468 0.201512
vt 0.972638 0.198798
vt 0.975732 0.200193
vt 0.974016 0.203353
vt 0.973437 0.195772
vt 0.976880 0.196663
vt 0.973883 0.192604
vt 0.977472 0.192940
vt 0.974034 0.189408
vt 0.977583 0.189172
vt 0.973812 0.186285
vt 0.977111 0.185490
vt 0.973167 0.183401
vt 0.976013 0.182066
vt 0.979294 0.202053
vt 0.976976 0.205744
vt 0.980910 0.197855
vt 0.981735 0.193340
vt 0.981764 0.188751
vt 0.980957 0.184325
vt 0.979366 0.180267
vt 0.983492 0.204416
vt 0.980446 0.208686
vt 0.985758 0.199417
vt 0.987023 0.193836
vt 0.986818 0.188118
vt 0.985521 0.182785
vt 0.983323 0.178022
vt 0.973046 0.385743
vt 0.968284 0.387941
vt 0.966744 0.383377
vt 0.970801 0.381787
vt 0.962951 0.389238
vt 0.962318 0.384184
vt 0.957232 0.389443
vt 0.957729 0.384155
vt 0.951652 0.388178
vt 0.953214 0.383330
vt 0.946653 0.385912
vt 0.949016 0.381714
vt 0.942383 0.382866
vt 0.945324 0.379397
vt 0.965579 0.379532
vt 0.969003 0.378433
vt 0.961896 0.380003
vt 0.958128 0.379893
vt 0.954406 0.379300
vt 0.950875 0.378152
vt 0.947715 0.376436
vt 0.964783 0.376232
vt 0.967668 0.375588
vt 0.961661 0.376455
vt 0.958465 0.376303
vt 0.955297 0.375858
vt 0.952270 0.375058
vt 0.949556 0.373888
vt 0.947549 0.180998
vt 0.946379 0.183712
vt 0.943285 0.182317
vt 0.945002 0.179157
vt 0.945580 0.186738
vt 0.942137 0.185847
vt 0.945135 0.189907
vt 0.941545 0.189570
vt 0.944983 0.193102
vt 0.941435 0.193338
vt 0.945206 0.196225
vt 0.941906 0.197020
vt 0.945850 0.199109
vt 0.943005 0.200444
vt 0.939724 0.180457
vt 0.942041 0.176766
vt 0.938108 0.184655
vt 0.937283 0.189170
vt 0.937254 0.193759
vt 0.938061 0.198185
vt 0.939651 0.202243
vt 0.935526 0.178094
vt 0.938571 0.173824
vt 0.933260 0.183093
vt 0.931995 0.188674
vt 0.932200 0.194393
vt 0.933496 0.199726
vt 0.935695 0.204488
vt 0.946581 0.338115
vt 0.951343 0.335917
vt 0.952884 0.340481
vt 0.948826 0.342071
vt 0.956676 0.334620
vt 0.957310 0.339674
vt 0.962395 0.334415
vt 0.961899 0.339703
vt 0.967976 0.335680
vt 0.966414 0.340528
vt 0.972974 0.337946
vt 0.970612 0.342144
vt 0.977245 0.340992
vt 0.974303 0.344461
vt 0.954049 0.344326
vt 0.950625 0.345425
vt 0.957731 0.343855
vt 0.961499 0.343966
vt 0.965222 0.344558
vt 0.968752 0.345706
vt 0.971912 0.347422
vt 0.954844 0.347626
vt 0.951960 0.348270
vt 0.957966 0.347404
vt 0.961162 0.347555
vt 0.964330 0.348001
vt 0.967357 0.348800
vt 0.970071 0.349970
s 0
usemtl lay_figure_material
f 1/1/1 2/2/1 3/3/1 4/4/1
f 2/2/2 5/5/2 6/6/2 3/3/2
f 5/5/3 7/7/3 8/8/3 6/6/3
f 7/7/4 9/9/4 10/10/4 8/8/4
f 9/9/5 11/11/5 12/12/5 10/10/5
f 11/11/6 13/13/6 14/14/6 12/12/6
f 4/4/7 3/3/7 15/15/7 16/16/7
f 3/3/8 6/6/8 17/17/8 15/15/8
f 6/6/9 8/8/9 18/18/9 17/17/9
f 8/8/10 10/10/10 19/19/10 18/18/10
f 10/10/11 12/12/11 20/20/11 19/19/11
f 12/12/12 14/14/12 21/21/12 20/20/12
f 16/16/13 15/15/13 22/22/13 23/23/13
f 15/15/14 17/17/14 24/24/14 22/22/14
f 17/17/15 18/18/15 25/25/15 24/24/15
f 18/18/16 19/19/16 26/26/16 25/25/16
f 19/19/17 20/20/17 27/27/17 26/26/17
f 20/20/18 21/21/18 28/28/18 27/27/18
f 23/29/19 22/30/19 29/31/19 30/32/19
f 22/30/20 24/33/20 31/34/20 29/31/20
f 24/33/21 25/35/21 32/36/21 31/34/21
f 25/35/22 26/37/22 33/38/22 32/36/22
f 26/37/23 27/39/23 34/40/23 33/38/23
f 27/39/24 28/41/24 35/42/24 34/40/24
f 30/32/25 29/31/25 36/43/25 37/44/25
f 29/31/26 31/34/26 38/45/26 36/43/26
f 31/34/27 32/36/27 39/46/27 38/45/27
f 32/36/28 33/38/28 40/47/28 39/46/28
f 33/38/29 34/40/29 41/48/29 40/47/29
f 34/40/30 35/42/30 42/49/30 41/48/30
f 37/44/31 36/43/31 43/50/31 44/51/31
f 36/43/32 38/45/32 45/52/32 43/50/32
f 38/45/33 39/46/33 46/53/33 45/52/33
f 39/46/34 40/47/34 47/54/34 46/53/34
f 40/47/35 41/48/35 48/55/35 47/54/35
f 41/48/36 42/49/36 49/56/36 48/55/36
f 50/57/37 51/58/37 1/1/37 52/59/37
f 51/58/38 53/60/38 2/2/38 1/1/38
f 53/60/39 54/61/39 5/5/39 2/2/39
f 54/61/40 55/62/40 7/7/40 5/5/40
f 55/62/41 56/63/41 9/9/41 7/7/41
f 56/63/42 57/64/42 11/11/42 9/9/42
f 57/64/43 58/65/43 13/13/43 11/11/43
f 58/65/44 59/66/44 60/67/44 13/13/44
f 13/13/45 60/67/45 61/68/45 14/14/45
f 14/14/46 61/68/46 62/69/46 21/21/46
f 21/21/47 62/69/47 63/70/47 28/28/47
f 28/41/48 63/71/48 64/72/48 35/42/48
f 35/42/49 64/72/49 65/73/49 42/49/49
f 42/49/50 65/73/50 66/74/50 49/56/50
f 49/56/51 66/74/51 67/75/51 68/76/51
f 48/55/52 49/56/52 68/76/52 69/77/52
f 47/54/53 48/55/53 69/77/53 70/78/53
f 46/53/54 47/54/54 70/78/54 71/79/54
f 45/52/55 46/53/55 71/79/55 72/80/55
f 43/50/56 45/52/56 72/80/56 73/81/56
f 44/51/57 43/50/57 73/81/57 74/82/57
f 75/83/58 44/51/58 74/82/58 76/84/58
f 77/85/59 37/44/59 44/51/59 75/83/59
f 78/86/60 30/32/60 37/44/60 77/85/60
f 79/87/61 23/29/61 30/32/61 78/86/61
f 80/88/62 16/16/62 23/23/62 79/89/62
f 81/90/63 4/4/63 16/16/63 80/88/63
f 52/59/64 1/1/64 4/4/64 81/90/64
f 82/91/65 83/92/65 84/93/65 85/94/65
f 83/92/66 86/95/66 87/96/66 84/93/66
f 86/95/67 88/97/67 89/98/67 87/96/67
f 88/97/68 90/99/68 91/100/68 89/98/68
f 90/99/69 92/101/69 93/102/69 91/100/69
f 92/101/70 94/103/70 95/104/70 93/102/70
f 85/94/71 84/93/71 96/105/71 97/106/71
f 84/93/72 87/96/72 98/107/72 96/105/72
f 87/96/73 89/98/73 99/108/73 98/107/73
f 89/98/74 91/100/74 100/109/74 99/108/74
f 91/100/75 93/102/75 101/110/75 100/109/75
f 93/102/76 95/104/76 102/111/76 101/110/76
f 97/106/77 96/105/77 103/112/77 104/113/77
f 96/105/78 98/107/78 105/114/78 103/112/78
f 98/107/79 99/108/79 106/115/79 105/114/79
f 99/108/80 100/109/80 107/116/80 106/115/80
f 100/109/81 101/110/81 108/117/81 107/116/81
f 101/110/82 102/111/82 109/118/82 108/117/82
f 104/113/83 103/112/83 110/119/83 111/120/83
f 103/112/84 105/114/84 112/121/84 110/119/84
f 105/114/85 106/115/85 113/122/85 112/121/85
f 106/115/86 107/116/86 114/123/86 113/122/86
f 107/116/87 108/117/87 115/124/87 114/123/87
f 108/117/88 109/118/88 116/125/88 115/124/88
f 111/120/89 110/119/89 117/126/89 118/127/89
f 110/119/90 112/121/90 119/128/90 117/126/90
f 112/121/91 113/122/91 120/129/91 119/128/91
f 113/122/92 114/123/92 121/130/92 120/129/92
f 114/123/93 115/124/93 122/131/93 121/130/93
f 115/124/94 116/125/94 123/132/94 122/131/94
f 118/127/95 117/126/95 124/133/95 125/134/95
f 117/126/96 119/128/96 126/135/96 124/133/96
f 119/128/97 120/129/97 127/136/97 126/135/97
f 120/129/98 121/130/98 128/137/98 127/136/98
f 121/130/99 122/131/99 129/138/99 128/137/99
f 122/131/100 123/132/100 130/139/100 129/138/100
f 76/84/101 74/82/101 82/91/101 131/140/101
f 74/82/102 73/81/102 83/92/102 82/91/102
f 73/81/103 72/80/103 86/95/103 83/92/103
f 72/80/104 71/79/104 88/97/104 86/95/104
f 71/79/105 70/78/105 90/99/105 88/97/105
f 70/78/106 69/77/106 92/101/106 90/99/106
f 69/77/107 68/76/107 94/103/107 92/101/107
f 68/76/108 67/75/108 132/141/108 94/103/108
f 94/103/109 132/141/109 133/142/109 95/104/109
f 95/104/110 133/142/110 134/143/110 102/111/110
f 102/111/111 134/143/111 135/144/111 109/118/111
f 109/118/112 135/144/112 136/145/112 116/125/112
f 116/125/113 136/145/113 137/146/113 123/132/113
f 123/132/114 137/146/114 138/147/114 130/139/114
f 130/139/115 138/147/115 139/148/115 140/149/115
f 129/138/116 130/139/116 140/149/116 141/150/116
f 128/137/117 129/138/117 141/150/117 142/151/117
f 127/136/118 128/137/118 142/151/118 143/152/118
f 126/135/119 127/136/119 143/152/119 144/153/119
f 124/133/120 126/135/120 144/153/120 145/154/120
f 125/134/121 124/133/121 145/154/121 146/155/121
f 147/156/122 125/134/122 146/155/122 148/157/122
f 149/158/123 118/127/123 125/134/123 147/156/123
f 150/159/124 111/120/124 118/127/124 149/158/124
f 151/160/125 104/113/125 111/120/125 150/159/125
f 152/161/126 97/106/126 104/113/126 151/160/126
f 153/162/127 85/94/127 97/106/127 152/161/127
f 131/140/128 82/91/128 85/94/128 153/162/128
f 154/163/129 155/164/129 156/165/129 157/166/129
f 155/164/130 158/167/130 159/168/130 156/165/130
f 158/167/131 160/169/131 161/170/131 159/168/131
f 160/169/132 162/171/132 163/172/132 161/170/132
f 162/171/133 164/173/133 165/174/133 163/172/133
f 164/173/134 166/175/134 167/176/134 165/174/134
f 157/166/135 156/165/135 168/177/135 169/178/135
f 156/165/136 159/168/136 170/179/136 168/177/136
f 159/168/137 161/170/137 171/180/137 170/179/137
f 161/170/138 163/172/138 172/181/138 171/180/138
f 163/172/139 165/174/139 173/182/139 172/181/139
f 165/174/140 167/176/140 174/183/140 173/182/140
f 169/178/141 168/177/141 175/184/141 176/185/141
f 168/177/142 170/179/142 177/186/142 175/184/142
f 170/179/143 171/180/143 178/187/143 177/186/143
f 171/180/144 172/181/144 179/188/144 178/187/144
f 172/181/145 173/182/145 180/189/145 179/188/145
f 173/182/146 174/183/146 181/190/146 180/189/146
f 176/191/147 175/192/147 182/193/147 183/194/147
f 175/192/148 177/195/148 184/196/148 182/193/148
f 177/195/149 178/197/149 185/198/149 184/196/149
f 178/197/150 179/199/150 186/200/150 185/198/150
f 179/199/151 180/201/151 187/202/151 186/200/151
f 180/201/152 181/203/152 188/204/152 187/202/152
f 183/194/153 182/193/153 189/205/153 190/206/153
f 182/193/154 184/196/154 191/207/154 189/205/154
f 184/196/155 185/198/155 192/208/155 191/207/155
f 185/198/156 186/200/156 193/209/156 192/208/156
f 186/200/157 187/202/157 194/210/157 193/209/157
f 187/202/158 188/204/158 195/211/158 194/210/158
f 190/206/159 189/205/159 196/212/159 197/213/159
f 189/205/160 191/207/160 198/214/160 196/212/160
f 191/207/161 192/208/161 199/215/161 198/214/161
f 192/208/162 193/209/162 200/216/162 199/215/162
f 193/209/163 194/210/163 201/217/163 200/216/163
f 194/210/164 195/211/164 202/218/164 201/217/164
f 148/157/165 146/155/165 154/163/165 203/219/165
f 146/155/166 145/154/166 155/164/166 154/163/166
f 145/154/167 144/153/167 158/167/167 155/164/167
f 144/153/168 143/152/168 160/169/168 158/167/168
f 143/152/169 142/151/169 162/171/169 160/169/169
f 142/151/170 141/150/170 164/173/170 162/171/170
f 141/150/171 140/149/171 166/175/171 164/173/171
f 140/149/172 139/148/172 204/220/172 166/175/172
f 166/175/173 204/220/173 205/221/173 167/176/173
f 167/176/174 205/221/174 206/222/174 174/183/174
f 174/183/175 206/222/175 207/223/175 181/190/175
f 181/203/176 207/224/176 208/225/176 188/204/176
f 188/204/177 208/225/177 209/226/177 195/211/177
f 195/211/178 209/226/178 210/227/178 202/218/178
f 202/218/179 210/227/179 211/228/179 212/229/179
f 201/217/180 202/218/180 212/229/180 213/230/180
f 200/216/181 201/217/181 213/230/181 214/231/181
f 199/215/182 200/216/182 214/231/182 215/232/182
f 198/214/183 199/215/183 215/232/183 216/233/183
f 196/212/184 198/214/184 216/233/184 217/234/184
f 197/213/185 196/212/185 217/234/185 218/235/185
f 219/236/186 197/213/186 218/235/186 220/237/186
f 221/238/187 190/206/187 197/213/187 219/236/187
f 222/239/188 183/194/188 190/206/188 221/238/188
f 223/240/189 176/191/189 183/194/189 222/239/189
f 224/241/190 169/178/190 176/185/190 223/242/190
f 225/243/191 157/166/191 169/178/191 224/241/191
f 203/219/192 154/163/192 157/166/192 225/243/192
f 226/244/193 227/245/193 228/246/193 229/247/193
f 227/245/194 230/248/194 231/249/194 228/246/194
f 230/248/195 232/250/195 233/251/195 231/249/195
f 232/250/196 234/252/196 235/253/196 233/251/196
f 234/252/197 236/254/197 237/255/197 235/253/197
f 236/254/198 238/256/198 239/257/198 237/255/198
f 229/247/199 228/246/199 240/258/199 241/259/199
f 228/246/200 231/249/200 242/260/200 240/258/200
f 231/249/201 233/251/201 243/261/201 242/260/201
f 233/251/202 235/253/202 244/262/202 243/261/202
f 235/253/203 237/255/203 245/263/203 244/262/203
f 237/255/204 239/257/204 246/264/204 245/263/204
f 241/259/205 240/258/205 247/265/205 248/266/205
f 240/258/206 242/260/206 249/267/206 247/265/206
f 242/260/207 243/261/207 250/268/207 249/267/207
f 243/261/208 244/262/208 251/269/208 250/268/208
f 244/262/209 245/263/209 252/270/209 251/269/209
f 245/263/210 246/264/210 253/271/210 252/270/210
f 248/266/211 247/265/211 254/272/211 255/273/211
f 247/265/212 249/267/212 256/274/212 254/272/212
f 249/267/213 250/268/213 257/275/213 256/274/213
f 250/268/214 251/269/214 258/276/214 257/275/214
f 251/269/215 252/270/215 259/277/215 258/276/215
f 252/270/216 253/271/216 260/278/216 259/277/216
f 255/273/217 254/272/217 261/279/217 262/280/217
f 254/272/218 256/274/218 263/281/218 261/279/218
f 256/274/219 257/275/219 264/282/219 263/281/219
f 257/275/220 258/276/220 265/283/220 264/282/220
f 258/276/221 259/277/221 266/284/221 265/283/221
f 259/277/222 260/278/222 267/285/222 266/284/222
f 262/280/223 261/279/223 268/286/223 269/287/223
f 261/279/224 263/281/224 270/288/224 268/286/224
f 263/281/225 264/282/225 271/289/225 270/288/225
f 264/282/226 265/283/226 272/290/226 271/289/226
f 265/283/227 266/284/227 273/291/227 272/290/227
f 266/284/228 267/285/228 274/292/228 273/291/228
f 220/237/229 218/235/229 226/244/229 275/293/229
f 218/235/230 217/234/230 227/245/230 226/244/230
f 217/234/231 216/233/231 230/248/231 227/245/231
f 216/233/232 215/232/232 232/250/232 230/248/232
f 215/232/233 214/231/233 234/252/233 232/250/233
f 214/231/234 213/230/234 236/254/234 234/252/234
f 213/230/235 212/229/235 238/256/235 236/254/235
f 212/229/236 211/228/236 276/294/236 238/256/236
f 238/256/237 276/294/237 277/295/237 239/257/237
f 239/257/238 277/295/238 278/296/238 246/264/238
f 246/264/239 278/296/239 279/297/239 253/271/239
f 253/271/240 279/297/240 280/298/240 260/278/240
f 260/278/241 280/298/241 281/299/241 267/285/241
f 267/285/242 281/299/242 282/300/242 274/292/242
f 274/292/243 282/300/243 59/66/243 58/65/243
f 273/291/244 274/292/244 58/65/244 57/64/244
f 272/290/245 273/291/245 57/64/245 56/63/245
f 271/289/246 272/290/246 56/63/246 55/62/246
f 270/288/247 271/289/247 55/62/247 54/61/247
f 268/286/248 270/288/248 54/61/248 53/60/248
f 269/287/249 268/286/249 53/60/249 51/58/249
f 283/301/250 269/287/250 51/58/250 50/57/250
f 284/302/251 262/280/251 269/287/251 283/301/251
f 285/303/252 255/273/252 262/280/252 284/302/252
f 286/304/253 248/266/253 255/273/253 285/303/253
f 287/305/254 241/259/254 248/266/254 286/304/254
f 288/306/255 229/247/255 241/259/255 287/305/255
f 275/293/256 226/244/256 229/247/256 288/306/256
f 289/307/257 290/308/257 291/309/257 292/310/257
f 290/308/258 293/311/258 294/312/258 291/309/258
f 293/311/259 295/313/259 296/314/259 294/312/259
f 295/313/260 297/315/260 298/316/260 296/314/260
f 297/315/261 299/317/261 300/318/261 298/316/261
f 299/317/262 301/319/262 302/320/262 300/318/262
f 292/310/263 291/309/263 303/321/263 304/322/263
f 291/309/264 294/312/264 305/323/264 303/321/264
f 294/312/265 296/314/265 306/324/265 305/323/265
f 296/314/266 298/316/266 307/325/266 306/324/266
f 298/316/267 300/318/267 308/326/267 307/325/267
f 300/318/268 302/320/268 309/327/268 308/326/268
f 304/322/269 303/321/269 310/328/269 311/329/269
f 303/321/270 305/323/270 312/330/270 310/328/270
f 305/323/271 306/324/271 313/331/271 312/330/271
f 306/324/272 307/325/272 314/332/272 313/331/272
f 307/325/273 308/326/273 315/333/273 314/332/273
f 308/326/274 309/327/274 316/334/274 315/333/274
f 311/335/275 310/336/275 317/337/275 318/338/275
f 310/336/276 312/339/276 319/340/276 317/337/276
f 312/339/277 313/341/277 320/342/277 319/340/277
f 313/341/278 314/343/278 321/344/278 320/342/278
f 314/343/279 315/345/279 322/346/279 321/344/279
f 315/345/280 316/347/280 323/348/280 322/346/280
f 318/338/281 317/337/281 324/349/281 325/350/281
f 317/337/282 319/340/282 326/351/282 324/349/282
f 319/340/283 320/342/283 327/352/283 326/351/283
f 320/342/284 321/344/284 328/353/284 327/352/284
f 321/344/285 322/346/285 329/354/285 328/353/285
f 322/346/286 323/348/286 330/355/286 329/354/286
f 325/350/287 324/349/287 331/356/287 332/357/287
f 324/349/288 326/351/288 333/358/288 331/356/288
f 326/351/289 327/352/289 334/359/289 333/358/289
f 327/352/290 328/353/290 335/360/290 334/359/290
f 328/353/291 329/354/291 336/361/291 335/360/291
f 329/354/292 330/355/292 337/362/292 336/361/292
f 76/84/293 131/140/293 289/307/293 75/83/293
f 131/140/294 153/162/294 290/308/294 289/307/294
f 153/162/295 152/161/295 293/311/295 290/308/295
f 152/161/296 151/160/296 295/313/296 293/311/296
f 151/160/297 150/159/297 297/315/297 295/313/297
f 150/159/298 149/158/298 299/317/298 297/315/298
f 149/158/299 147/156/299 301/319/299 299/317/299
f 147/156/300 148/157/300 203/219/300 301/319/300
f 301/319/301 203/219/301 225/243/301 302/320/301
f 302/320/302 225/243/302 224/241/302 309/327/302
f 309/327/303 224/241/303 223/242/303 316/334/303
f 316/347/304 223/240/304 222/239/304 323/348/304
f 323/348/305 222/239/305 221/238/305 330/355/305
f 330/355/306 221/238/306 219/236/306 337/362/306
f 337/362/307 219/236/307 220/237/307 275/293/307
f 336/361/308 337/362/308 275/293/308 288/306/308
f 335/360/309 336/361/309 288/306/309 287/305/309
f 334/359/310 335/360/310 287/305/310 286/304/310
f 333/358/311 334/359/311 286/304/311 285/303/311
f 331/356/312 333/358/312 285/303/312 284/302/312
f 332/357/313 331/356/313 284/302/313 283/301/313
f 52/59/314 332/357/314 283/301/314 50/57/314
f 81/90/315 325/350/315 332/357/315 52/59/315
f 80/88/316 318/338/316 325/350/316 81/90/316
f 79/89/317 311/335/317 318/338/317 80/88/317
f 78/86/318 304/322/318 311/329/318 79/87/318
f 77/85/319 292/310/319 304/322/319 78/86/319
f 75/83/320 289/307/320 292/310/320 77/85/320
f 338/363/321 339/364/321 340/365/321 341/366/321
f 339/364/322 342/367/322 343/368/322 340/365/322
f 342/367/323 344/369/323 345/370/323 343/368/323
f 344/369/324 346/371/324 347/372/324 345/370/324
f 346/371/325 348/373/325 349/374/325 347/372/325
f 348/373/326 350/375/326 351/376/326 349/374/326
f 341/366/327 340/365/327 352/377/327 353/378/327
f 340/365/328 343/368/328 354/379/328 352/377/328
f 343/368/329 345/370/329 355/380/329 354/379/329
f 345/370/330 347/372/330 356/381/330 355/380/330
f 347/372/331 349/374/331 357/382/331 356/381/331
f 349/374/332 351/376/332 358/383/332 357/382/332
f 353/378/333 352/377/333 359/384/333 360/385/333
f 352/377/334 354/379/334 361/386/334 359/384/334
f 354/379/335 355/380/335 362/387/335 361/386/335
f 355/380/336 356/381/336 363/388/336 362/387/336
f 356/381/337 357/382/337 364/389/337 363/388/337
f 357/382/338 358/383/338 365/390/338 364/389/338
f 360/391/339 359/392/339 366/393/339 367/394/339
f 359/392/340 361/395/340 368/396/340 366/393/340
f 361/395/341 362/397/341 369/398/341 368/396/341
f 362/397/342 363/399/342 370/400/342 369/398/342
f 363/399/343 364/401/343 371/402/343 370/400/343
f 364/401/344 365/403/344 372/404/344 371/402/344
f 367/394/345 366/393/345 373/405/345 374/406/345
f 366/393/346 368/396/346 375/407/346 373/405/346
f 368/396/347 369/398/347 376/408/347 375/407/347
f 369/398/348 370/400/348 377/409/348 376/408/348
f 370/400/349 371/402/349 378/410/349 377/409/349
f 371/402/350 372/404/350 379/411/350 378/410/350
f 374/406/351 373/405/351 380/412/351 381/413/351
f 373/405/352 375/407/352 382/414/352 380/412/352
f 375/407/353 376/408/353 383/415/353 382/414/353
f 376/408/354 377/409/354 384/416/354 383/415/354
f 377/409/355 378/410/355 385/417/355 384/416/355
f 378/410/356 379/411/356 386/418/356 385/417/356
f 139/148/357 138/147/357 338/363/357 204/220/357
f 138/147/358 137/146/358 339/364/358 338/363/358
f 137/146/359 136/145/359 342/367/359 339/364/359
f 136/145/360 135/144/360 344/369/360 342/367/360
f 135/144/361 134/143/361 346/371/361 344/369/361
f 134/143/362 133/142/362 348/373/362 346/371/362
f 133/142/363 132/141/363 350/375/363 348/373/363
f 132/141/364 67/75/364 66/74/364 350/375/364
f 350/375/365 66/74/365 65/73/365 351/376/365
f 351/376/366 65/73/366 64/72/366 358/383/366
f 358/383/367 64/72/367 63/71/367 365/390/367
f 365/403/368 63/70/368 62/69/368 372/404/368
f 372/404/369 62/69/369 61/68/369 379/411/369
f 379/411/370 61/68/370 60/67/370 386/418/370
f 386/418/371 60/67/371 59/66/371 282/300/371
f 385/417/372 386/418/372 282/300/372 281/299/372
f 384/416/373 385/417/373 281/299/373 280/298/373
f 383/415/374 384/416/374 280/298/374 279/297/374
f 382/414/375 383/415/375 279/297/375 278/296/375
f 380/412/376 382/414/376 278/296/376 277/295/376
f 381/413/377 380/412/377 277/295/377 276/294/377
f 210/227/378 381/413/378 276/294/378 211/228/378
f 209/226/379 374/406/379 381/413/379 210/227/379
f 208/225/380 367/394/380 374/406/380 209/226/380
f 207/224/381 360/391/381 367/394/381 208/225/381
f 206/222/382 353/378/382 360/385/382 207/223/382
f 205/221/383 341/366/383 353/378/383 206/222/383
f 204/220/384 338/363/384 341/366/384 205/221/384
