# Blender 5.1.1
# www.blender.org
mtllib l_shin.mtl
o export_l_shin_part
v 0.026166 0.038912 -0.413740
v 0.026166 0.021223 -0.413740
v 0.022032 0.020816 -0.413973
v 0.018587 0.038164 -0.414167
v 0.011472 0.041517 -0.315340
v 0.019717 0.042331 -0.314875
v 0.033746 0.038164 -0.413312
v 0.030300 0.020816 -0.413506
v 0.027962 0.041517 -0.314410
v 0.026166 -0.000000 -0.413740
v 0.034275 0.019608 -0.413282
v 0.037939 0.017647 -0.413075
v 0.041034 0.035950 -0.412901
v 0.037939 -0.017647 -0.413075
v 0.043785 -0.011791 -0.412745
v 0.041150 -0.015007 -0.412894
v 0.034275 -0.019608 -0.413282
v 0.030300 -0.020816 -0.413506
v 0.006589 0.008122 -0.414844
v 0.008548 0.011791 -0.414734
v 0.005384 0.004140 -0.414912
v 0.011183 0.015007 -0.414585
v 0.014394 0.017647 -0.414404
v 0.026166 -0.021224 -0.413740
v 0.022032 -0.020816 -0.413973
v 0.018057 0.019608 -0.414197
v 0.041150 0.015007 -0.412894
v 0.043785 0.011791 -0.412745
v 0.045743 0.008122 -0.412635
v 0.046949 0.004140 -0.412567
v 0.018057 -0.019608 -0.414197
v 0.014394 -0.017647 -0.414404
v 0.011183 -0.015007 -0.414585
v 0.008548 -0.011791 -0.414734
v 0.047356 -0.000000 -0.412544
v 0.046949 -0.004141 -0.412567
v 0.006589 -0.008122 -0.414844
v 0.005384 -0.004141 -0.414912
v 0.045743 -0.008122 -0.412635
v 0.004976 -0.000000 -0.414935
v 0.011299 -0.035950 -0.414578
v 0.018587 -0.038165 -0.414167
v 0.026166 -0.038912 -0.413740
v 0.011472 -0.041518 -0.315340
v 0.003543 -0.039109 -0.315787
v 0.019717 -0.042331 -0.314875
v 0.033746 -0.038165 -0.413312
v 0.027962 -0.041518 -0.314410
v 0.041034 -0.035950 -0.412901
v 0.035891 -0.039109 -0.313962
v 0.047750 -0.032355 -0.412522
v 0.043198 -0.035197 -0.313550
v 0.053638 -0.027515 -0.412190
v 0.049602 -0.029933 -0.313189
v 0.058469 -0.021619 -0.411917
v 0.054858 -0.023518 -0.312892
v 0.062059 -0.014891 -0.411714
v 0.058764 -0.016200 -0.312672
v 0.064270 -0.007592 -0.411590
v 0.061169 -0.008258 -0.312536
v 0.065017 -0.000000 -0.411547
v 0.061981 -0.000000 -0.312490
v 0.064270 0.007591 -0.411590
v 0.061169 0.008258 -0.312536
v 0.062059 0.014891 -0.411714
v 0.058764 0.016199 -0.312672
v 0.058469 0.021618 -0.411917
v 0.054858 0.023518 -0.312892
v 0.053638 0.027515 -0.412190
v 0.049602 0.029932 -0.313189
v 0.047750 0.032354 -0.412522
v 0.043198 0.035197 -0.313550
v 0.035891 0.039109 -0.313962
v 0.033715 0.042767 -0.257327
v 0.041705 0.038489 -0.256876
v 0.025045 0.045401 -0.257816
v 0.016028 0.046291 -0.258325
v 0.022208 0.052528 -0.192549
v 0.032239 0.049480 -0.191983
v 0.011776 0.053557 -0.193137
v 0.007012 0.045401 -0.258834
v 0.001344 0.052528 -0.193726
v 0.007425 0.057289 -0.126433
v 0.018584 0.056188 -0.125803
v -0.003734 0.056188 -0.127062
v 0.003303 0.055088 -0.063240
v 0.014033 0.054029 -0.062635
v -0.007428 0.054029 -0.063846
v -0.001266 0.046285 -0.010776
v 0.007750 0.045396 -0.010268
v -0.010281 0.045396 -0.011285
v -0.014464 0.052928 -0.127668
v -0.017745 0.050895 -0.064428
v -0.018950 0.042762 -0.011774
v -0.024353 0.047634 -0.128226
v -0.027254 0.045804 -0.064964
v -0.026940 0.038485 -0.012225
v -0.033021 0.040510 -0.128715
v -0.035589 0.038953 -0.065434
v -0.033942 0.032729 -0.012620
v -0.040134 0.031828 -0.129116
v -0.042429 0.030605 -0.065820
v -0.039689 0.025715 -0.012944
v -0.045420 0.021924 -0.129414
v -0.047511 0.021081 -0.066107
v -0.043960 0.017712 -0.013185
v -0.048675 0.011176 -0.129598
v -0.050641 0.010747 -0.066284
v -0.046590 0.009030 -0.013334
v -0.049774 -0.000000 -0.129660
v -0.051698 -0.000000 -0.066343
v -0.047478 -0.000000 -0.013384
v -0.048675 -0.011177 -0.129598
v -0.050641 -0.010747 -0.066284
v -0.046590 -0.009030 -0.013334
v -0.045420 -0.021924 -0.129414
v -0.047511 -0.021081 -0.066107
v -0.043960 -0.017713 -0.013185
v -0.040134 -0.031828 -0.129116
v -0.042429 -0.030605 -0.065820
v -0.039689 -0.025715 -0.012944
v -0.033021 -0.040510 -0.128715
v -0.035589 -0.038953 -0.065434
v -0.033942 -0.032729 -0.012620
v -0.024353 -0.047635 -0.128226
v -0.027254 -0.045804 -0.064964
v -0.026940 -0.038485 -0.012225
v -0.014464 -0.052929 -0.127668
v -0.017745 -0.050895 -0.064428
v -0.018950 -0.042762 -0.011774
v -0.003734 -0.056189 -0.127062
v -0.007428 -0.054030 -0.063846
v -0.010281 -0.045396 -0.011285
v 0.007425 -0.057290 -0.126433
v 0.003303 -0.055088 -0.063240
v -0.001266 -0.046285 -0.010776
v 0.018584 -0.056189 -0.125803
v 0.014033 -0.054030 -0.062635
v 0.007750 -0.045396 -0.010268
v 0.029314 -0.052929 -0.125198
v 0.024350 -0.050895 -0.062052
v 0.016419 -0.042762 -0.009778
v 0.039202 -0.047635 -0.124640
v 0.033859 -0.045804 -0.061516
v 0.024408 -0.038485 -0.009328
v 0.047870 -0.040510 -0.124151
v 0.042194 -0.038953 -0.061046
v 0.031411 -0.032729 -0.008933
v 0.054983 -0.031828 -0.123749
v 0.049034 -0.030605 -0.060660
v 0.037158 -0.025715 -0.008608
v 0.060269 -0.021924 -0.123451
v 0.054116 -0.021081 -0.060373
v 0.041428 -0.017713 -0.008367
v 0.063524 -0.011177 -0.123267
v 0.057246 -0.010747 -0.060196
v 0.044058 -0.009030 -0.008219
v 0.064623 -0.000000 -0.123205
v 0.058303 -0.000000 -0.060137
v 0.044946 -0.000000 -0.008169
v 0.063524 0.011176 -0.123267
v 0.057246 0.010747 -0.060196
v 0.044058 0.009030 -0.008219
v 0.060269 0.021924 -0.123451
v 0.054116 0.021081 -0.060373
v 0.041428 0.017713 -0.008367
v 0.054983 0.031828 -0.123749
v 0.049034 0.030605 -0.060660
v 0.037158 0.025715 -0.008608
v 0.047870 0.040510 -0.124151
v 0.042194 0.038953 -0.061046
v 0.031411 0.032729 -0.008933
v 0.039202 0.047634 -0.124640
v 0.033859 0.045804 -0.061516
v 0.024408 0.038485 -0.009328
v 0.029314 0.052928 -0.125198
v 0.024350 0.050895 -0.062052
v 0.016419 0.042762 -0.009778
v 0.008359 0.023274 -0.010233
v 0.012708 0.020946 -0.009988
v 0.003641 0.024708 -0.010499
v -0.001266 -0.000000 -0.010776
v -0.006173 0.024708 -0.011053
v -0.001266 0.025192 -0.010776
v -0.010891 0.023274 -0.011319
v -0.015239 0.020946 -0.011565
v 0.019647 0.013996 -0.009596
v 0.016519 0.017813 -0.009773
v 0.023403 0.004915 -0.009384
v 0.021971 0.009640 -0.009465
v -0.006173 -0.024708 -0.011053
v -0.015239 -0.020946 -0.011565
v -0.010891 -0.023274 -0.011319
v -0.022179 -0.013996 -0.011956
v -0.019051 -0.017813 -0.011780
v 0.023403 -0.004915 -0.009384
v 0.023886 -0.000000 -0.009357
v -0.025934 -0.004915 -0.012168
v -0.024503 -0.009641 -0.012087
v 0.019647 -0.013996 -0.009596
v 0.021971 -0.009641 -0.009465
v -0.025934 0.004915 -0.012168
v -0.026417 -0.000000 -0.012195
v 0.012708 -0.020946 -0.009988
v 0.016519 -0.017813 -0.009773
v -0.022179 0.013996 -0.011956
v -0.024503 0.009640 -0.012087
v -0.019051 0.017813 -0.011780
v 0.003641 -0.024708 -0.010499
v -0.001266 -0.025192 -0.010776
v 0.008359 -0.023274 -0.010233
v 0.041483 0.044531 -0.191461
v 0.048709 0.032733 -0.256481
v 0.049586 0.037870 -0.191004
v 0.054457 0.025718 -0.256157
v 0.056236 0.029754 -0.190629
v 0.058728 0.017715 -0.255916
v 0.061177 0.020495 -0.190350
v 0.061358 0.009031 -0.255768
v 0.064220 0.010448 -0.190178
v 0.062246 -0.000000 -0.255717
v 0.065248 -0.000000 -0.190120
v 0.061358 -0.009031 -0.255768
v 0.064220 -0.010449 -0.190178
v 0.058728 -0.017715 -0.255916
v 0.061177 -0.020495 -0.190350
v 0.054457 -0.025718 -0.256157
v 0.056236 -0.029755 -0.190629
v 0.048709 -0.032733 -0.256481
v 0.049586 -0.037871 -0.191004
v 0.041705 -0.038490 -0.256876
v 0.041483 -0.044531 -0.191461
v 0.033715 -0.042767 -0.257327
v 0.032239 -0.049480 -0.191983
v 0.025045 -0.045402 -0.257816
v 0.022208 -0.052528 -0.192549
v 0.016028 -0.046291 -0.258325
v 0.011776 -0.053557 -0.193137
v 0.007012 -0.045402 -0.258834
v 0.001344 -0.052528 -0.193726
v -0.001658 -0.042767 -0.259323
v -0.008687 -0.049480 -0.194292
v -0.009649 -0.038490 -0.259774
v -0.017931 -0.044531 -0.194813
v -0.016652 -0.032733 -0.260169
v -0.026034 -0.037870 -0.195271
v -0.022400 -0.025718 -0.260493
v -0.032684 -0.029755 -0.195646
v -0.026671 -0.017715 -0.260734
v -0.037625 -0.020495 -0.195925
v -0.029301 -0.009031 -0.260883
v -0.040668 -0.010449 -0.196096
v -0.030189 -0.000000 -0.260933
v -0.041696 -0.000000 -0.196154
v -0.029301 0.009031 -0.260883
v -0.040668 0.010448 -0.196096
v -0.026671 0.017715 -0.260734
v -0.037625 0.020495 -0.195925
v -0.022400 0.025718 -0.260493
v -0.032684 0.029754 -0.195646
v -0.016652 0.032733 -0.260169
v -0.026034 0.037870 -0.195271
v -0.009649 0.038489 -0.259774
v -0.017931 0.044531 -0.194813
v -0.001658 0.042767 -0.259323
v -0.008687 0.049480 -0.194292
v 0.003543 0.039109 -0.315787
v -0.003763 0.035197 -0.316200
v 0.011299 0.035950 -0.414578
v 0.004582 0.032354 -0.414957
v -0.001305 0.027515 -0.415290
v -0.010168 0.029932 -0.316561
v -0.006137 0.021618 -0.415562
v -0.015424 0.023518 -0.316858
v -0.009727 0.014891 -0.415765
v -0.019329 0.016199 -0.317078
v -0.011938 0.007591 -0.415890
v -0.021735 0.008258 -0.317214
v -0.012684 -0.000000 -0.415932
v -0.022547 -0.000000 -0.317259
v -0.011938 -0.007592 -0.415890
v -0.021735 -0.008258 -0.317214
v -0.009727 -0.014891 -0.415765
v -0.019329 -0.016200 -0.317078
v -0.006137 -0.021619 -0.415562
v -0.015424 -0.023518 -0.316858
v -0.001305 -0.027515 -0.415290
v -0.010168 -0.029933 -0.316561
v 0.004582 -0.032355 -0.414957
v -0.003763 -0.035197 -0.316200
v -0.027187 -0.020545 -0.021901
v -0.030705 -0.021666 -0.016271
v -0.033648 -0.015044 -0.017392
v -0.029525 -0.014418 -0.023422
v -0.033435 -0.022574 -0.009637
v -0.036695 -0.015611 -0.010456
v -0.035204 -0.022935 -0.002401
v -0.038579 -0.015853 -0.002958
v -0.035854 -0.022574 0.005020
v -0.039205 -0.015611 0.004747
v -0.035401 -0.021666 0.012179
v -0.038548 -0.015044 0.012295
v -0.033879 -0.020545 0.018641
v -0.036581 -0.014418 0.019330
v -0.035408 -0.007705 -0.018257
v -0.030968 -0.007428 -0.024582
v -0.038643 -0.007975 -0.011051
v -0.040608 -0.008095 -0.003293
v -0.041240 -0.007975 0.004685
v -0.040492 -0.007705 0.012548
v -0.038320 -0.007428 0.019964
v -0.035997 -0.000000 -0.018599
v -0.031469 -0.000000 -0.025030
v -0.039290 -0.000000 -0.011280
v -0.041287 -0.000000 -0.003405
v -0.041927 -0.000000 0.004694
v -0.041160 -0.000000 0.012683
v -0.038939 -0.000000 0.020228
v -0.035408 0.007705 -0.018257
v -0.030968 0.007427 -0.024582
v -0.038643 0.007974 -0.011051
v -0.040608 0.008095 -0.003293
v -0.041240 0.007974 0.004685
v -0.040492 0.007705 0.012548
v -0.038320 0.007427 0.019964
v -0.033648 0.015044 -0.017392
v -0.029525 0.014417 -0.023422
v -0.036695 0.015611 -0.010456
v -0.038579 0.015852 -0.002958
v -0.039205 0.015611 0.004747
v -0.038548 0.015044 0.012295
v -0.036581 0.014417 0.019330
v -0.030705 0.021665 -0.016271
v -0.027187 0.020545 -0.021901
v -0.033435 0.022574 -0.009637
v -0.035204 0.022935 -0.002401
v -0.035854 0.022574 0.005020
v -0.035401 0.021665 0.012179
v -0.033879 0.020545 0.018641
v -0.021472 -0.023793 -0.024249
v -0.023750 -0.025464 -0.020711
v -0.022849 -0.019931 -0.026170
v -0.026472 -0.027263 -0.015267
v -0.028836 -0.028534 -0.008748
v -0.030491 -0.029006 -0.001623
v -0.031213 -0.028534 0.005656
v -0.031070 -0.027263 0.012588
v -0.030241 -0.025464 0.018618
v -0.029221 -0.023793 0.022701
v -0.031142 -0.019931 0.024077
v -0.033211 -0.014116 0.025560
v -0.034671 -0.007300 0.026606
v -0.035215 -0.000000 0.026996
v -0.034671 0.007299 0.026606
v -0.033211 0.014116 0.025560
v -0.031142 0.019931 0.024077
v -0.029221 0.023792 0.022701
v -0.030241 0.025463 0.018618
v -0.031070 0.027263 0.012588
v -0.031213 0.028533 0.005656
v -0.030491 0.029006 -0.001623
v -0.028836 0.028533 -0.008748
v -0.026472 0.027263 -0.015267
v -0.023750 0.025463 -0.020711
v -0.022849 0.019931 -0.026170
v -0.021472 0.023792 -0.024249
v -0.024331 0.014116 -0.028238
v -0.025378 0.007299 -0.029699
v -0.025768 -0.000000 -0.030242
v -0.025378 -0.007300 -0.029699
v -0.024331 -0.014116 -0.028238
v -0.018797 0.029048 -0.020516
v -0.020901 0.031602 -0.014653
v -0.014266 0.034689 -0.014193
v -0.012569 0.031602 -0.020624
v -0.022935 0.033215 -0.007904
v -0.016020 0.036566 -0.007044
v -0.024501 0.033783 -0.000635
v -0.017513 0.037203 0.000519
v -0.025355 0.033215 0.006753
v -0.018530 0.036566 0.008160
v -0.025596 0.031602 0.013797
v -0.019165 0.034689 0.015494
v -0.025489 0.029048 0.020025
v -0.019625 0.031602 0.022129
v -0.006932 0.036566 -0.013557
v -0.005524 0.033215 -0.020382
v -0.008441 0.038584 -0.006066
v -0.009859 0.039260 0.001782
v -0.011039 0.038584 0.009670
v -0.012016 0.036566 0.017248
v -0.012877 0.033215 0.024164
v 0.000709 0.037203 -0.012540
v 0.001863 0.033783 -0.019529
v -0.000554 0.039260 -0.004887
v -0.001872 0.039947 0.003100
v -0.003190 0.039260 0.011087
v -0.004454 0.037203 0.018741
v -0.005607 0.033783 0.025729
v 0.008272 0.036566 -0.011048
v 0.009132 0.033215 -0.017963
v 0.007294 0.038584 -0.003469
v 0.006115 0.039260 0.004418
v 0.004697 0.038584 0.012267
v 0.003187 0.036566 0.019758
v 0.001780 0.033215 0.026583
v 0.015421 0.034689 -0.009293
v 0.015881 0.031602 -0.015928
v 0.014785 0.036566 -0.001959
v 0.013769 0.037203 0.005682
v 0.012276 0.036566 0.013244
v 0.010521 0.034689 0.020394
v 0.008825 0.031602 0.026824
v 0.021852 0.031602 -0.007596
v 0.021744 0.029048 -0.013825
v 0.021610 0.033215 -0.000552
v 0.020757 0.033783 0.006835
v 0.019191 0.033215 0.014105
v 0.017156 0.031602 0.020853
v 0.015053 0.029048 0.026717
v -0.017390 0.025463 -0.025269
v -0.025684 0.025463 0.024978
v -0.020239 0.027263 0.027700
v -0.013721 0.028533 0.030064
v -0.006596 0.029006 0.031719
v 0.000683 0.028533 0.032442
v 0.007616 0.027263 0.032298
v 0.013646 0.025463 0.031469
v 0.017728 0.023792 0.030450
v 0.020006 0.025463 0.026912
v 0.022728 0.027263 0.021468
v 0.025092 0.028533 0.014949
v 0.026747 0.029006 0.007824
v 0.027469 0.028533 0.000545
v 0.027326 0.027263 -0.006388
v 0.026497 0.025463 -0.012418
v 0.021939 0.025463 -0.018778
v 0.025477 0.023792 -0.016500
v 0.016495 0.027263 -0.021500
v 0.009977 0.028533 -0.023864
v 0.002851 0.029006 -0.025519
v -0.004428 0.028533 -0.026241
v -0.011360 0.027263 -0.026097
v 0.030134 0.020545 -0.012440
v 0.031656 0.021665 -0.005978
v 0.034803 0.015044 -0.006094
v 0.032837 0.014417 -0.013129
v 0.032109 0.022574 0.001181
v 0.035461 0.015611 0.001453
v 0.031460 0.022935 0.008602
v 0.034834 0.015852 0.009159
v 0.029690 0.022574 0.015838
v 0.032951 0.015611 0.016657
v 0.026961 0.021665 0.022472
v 0.029904 0.015044 0.023593
v 0.023443 0.020545 0.028102
v 0.025780 0.014417 0.029623
v 0.036748 0.007705 -0.006348
v 0.034576 0.007427 -0.013763
v 0.037496 0.007974 0.001516
v 0.036864 0.008095 0.009494
v 0.034899 0.007974 0.017252
v 0.031664 0.007705 0.024458
v 0.027224 0.007427 0.030782
v 0.037416 -0.000000 -0.006482
v 0.035195 -0.000000 -0.014027
v 0.038182 -0.000000 0.001507
v 0.037542 -0.000000 0.009606
v 0.035546 -0.000000 0.017481
v 0.032253 -0.000000 0.024800
v 0.027725 -0.000000 0.031231
v 0.036748 -0.007705 -0.006348
v 0.034576 -0.007428 -0.013763
v 0.037496 -0.007975 0.001516
v 0.036864 -0.008095 0.009494
v 0.034899 -0.007975 0.017252
v 0.031664 -0.007705 0.024458
v 0.027224 -0.007428 0.030782
v 0.034803 -0.015044 -0.006094
v 0.032837 -0.014418 -0.013130
v 0.035461 -0.015611 0.001453
v 0.034834 -0.015853 0.009159
v 0.032951 -0.015611 0.016657
v 0.029904 -0.015044 0.023593
v 0.025780 -0.014418 0.029623
v 0.031656 -0.021666 -0.005978
v 0.030134 -0.020545 -0.012440
v 0.032109 -0.022574 0.001181
v 0.031460 -0.022935 0.008602
v 0.029690 -0.022574 0.015838
v 0.026961 -0.021666 0.022472
v 0.023443 -0.020545 0.028102
v 0.027398 0.019931 -0.017877
v 0.019105 0.019931 0.032371
v 0.020587 0.014116 0.034439
v 0.021634 0.007299 0.035900
v 0.022023 -0.000000 0.036443
v 0.021634 -0.007300 0.035900
v 0.020587 -0.014116 0.034439
v 0.019105 -0.019931 0.032370
v 0.017728 -0.023793 0.030450
v 0.020006 -0.025464 0.026912
v 0.022728 -0.027263 0.021468
v 0.025092 -0.028534 0.014949
v 0.026747 -0.029006 0.007824
v 0.027469 -0.028534 0.000545
v 0.027326 -0.027263 -0.006388
v 0.026497 -0.025464 -0.012418
v 0.027398 -0.019931 -0.017877
v 0.025477 -0.023793 -0.016500
v 0.029466 -0.014116 -0.019359
v 0.030927 -0.007300 -0.020406
v 0.031470 -0.000000 -0.020795
v 0.030927 0.007299 -0.020406
v 0.029466 0.014116 -0.019359
v 0.021744 -0.029049 -0.013825
v 0.021852 -0.031603 -0.007596
v 0.015421 -0.034689 -0.009293
v 0.015881 -0.031603 -0.015928
v 0.021610 -0.033216 -0.000552
v 0.014785 -0.036566 -0.001959
v 0.020757 -0.033783 0.006835
v 0.013769 -0.037203 0.005682
v 0.019191 -0.033216 0.014105
v 0.012276 -0.036566 0.013244
v 0.017156 -0.031603 0.020853
v 0.010521 -0.034689 0.020394
v 0.015053 -0.029049 0.026717
v 0.008825 -0.031603 0.026824
v 0.008272 -0.036566 -0.011048
v 0.009132 -0.033216 -0.017963
v 0.007294 -0.038585 -0.003469
v 0.006115 -0.039261 0.004419
v 0.004697 -0.038585 0.012267
v 0.003187 -0.036566 0.019758
v 0.001780 -0.033216 0.026583
v 0.000709 -0.037203 -0.012541
v 0.001863 -0.033783 -0.019529
v -0.000554 -0.039261 -0.004887
v -0.001872 -0.039948 0.003100
v -0.003190 -0.039261 0.011087
v -0.004454 -0.037203 0.018741
v -0.005607 -0.033783 0.025729
v -0.006932 -0.036566 -0.013557
v -0.005524 -0.033216 -0.020382
v -0.008441 -0.038585 -0.006066
v -0.009859 -0.039261 0.001782
v -0.011039 -0.038585 0.009670
v -0.012016 -0.036566 0.017248
v -0.012877 -0.033216 0.024164
v -0.014266 -0.034689 -0.014193
v -0.012569 -0.031603 -0.020624
v -0.016020 -0.036566 -0.007044
v -0.017513 -0.037203 0.000519
v -0.018530 -0.036566 0.008160
v -0.019165 -0.034689 0.015494
v -0.019625 -0.031603 0.022129
v -0.020901 -0.031603 -0.014653
v -0.018797 -0.029049 -0.020516
v -0.022935 -0.033216 -0.007904
v -0.024501 -0.033783 -0.000635
v -0.025355 -0.033216 0.006753
v -0.025596 -0.031603 0.013797
v -0.025489 -0.029049 0.020025
v 0.021939 -0.025464 -0.018777
v 0.013646 -0.025464 0.031470
v 0.007616 -0.027263 0.032298
v 0.000683 -0.028534 0.032442
v -0.006596 -0.029006 0.031719
v -0.013721 -0.028534 0.030064
v -0.020239 -0.027263 0.027700
v -0.025684 -0.025464 0.024978
v -0.017390 -0.025464 -0.025269
v -0.011360 -0.027263 -0.026097
v -0.004428 -0.028534 -0.026241
v 0.002851 -0.029006 -0.025519
v 0.009977 -0.028534 -0.023864
v 0.016495 -0.027263 -0.021500
v -0.017413 0.020545 -0.028906
v -0.010951 0.021665 -0.030428
v -0.011067 0.015044 -0.033575
v -0.018102 0.014417 -0.031609
v -0.003792 0.022574 -0.030881
v -0.003519 0.015611 -0.034232
v 0.003629 0.022935 -0.030231
v 0.004186 0.015852 -0.033606
v 0.010865 0.022574 -0.028462
v 0.011684 0.015611 -0.031723
v 0.017499 0.021665 -0.025732
v 0.018620 0.015044 -0.028675
v 0.023129 0.020545 -0.022215
v 0.024650 0.014417 -0.024552
v -0.011320 0.007705 -0.035520
v -0.018736 0.007427 -0.033348
v -0.003457 0.007974 -0.036268
v 0.004521 0.008095 -0.035636
v 0.012279 0.007974 -0.033671
v 0.019485 0.007705 -0.030435
v 0.025810 0.007427 -0.025995
v -0.011455 -0.000000 -0.036188
v -0.019000 -0.000000 -0.033966
v -0.003466 -0.000000 -0.036954
v 0.004633 -0.000000 -0.036314
v 0.012508 -0.000000 -0.034318
v 0.019827 -0.000000 -0.031025
v 0.026258 -0.000000 -0.026496
v -0.011320 -0.007705 -0.035520
v -0.018736 -0.007428 -0.033348
v -0.003457 -0.007975 -0.036268
v 0.004521 -0.008095 -0.035636
v 0.012279 -0.007975 -0.033671
v 0.019485 -0.007705 -0.030435
v 0.025810 -0.007428 -0.025996
v -0.011067 -0.015044 -0.033575
v -0.018102 -0.014418 -0.031609
v -0.003519 -0.015611 -0.034232
v 0.004186 -0.015853 -0.033606
v 0.011684 -0.015611 -0.031723
v 0.018620 -0.015044 -0.028675
v 0.024650 -0.014418 -0.024552
v -0.010951 -0.021666 -0.030428
v -0.017413 -0.020545 -0.028906
v -0.003792 -0.022574 -0.030881
v 0.003629 -0.022935 -0.030231
v 0.010865 -0.022574 -0.028462
v 0.017499 -0.021666 -0.025733
v 0.023129 -0.020545 -0.022215
v 0.013668 0.020545 0.035107
v 0.007206 0.021665 0.036629
v 0.007322 0.015044 0.039776
v 0.014358 0.014417 0.037809
v 0.000047 0.022574 0.037082
v -0.000225 0.015611 0.040433
v -0.007374 0.022935 0.036432
v -0.007931 0.015852 0.039807
v -0.014610 0.022574 0.034663
v -0.015429 0.015611 0.037924
v -0.021243 0.021665 0.031933
v -0.022365 0.015044 0.034876
v -0.026873 0.020545 0.028416
v -0.028395 0.014417 0.030753
v 0.007576 0.007705 0.041720
v 0.014992 0.007427 0.039548
v -0.000288 0.007974 0.042468
v -0.008266 0.008095 0.041837
v -0.016023 0.007974 0.039871
v -0.023230 0.007705 0.036636
v -0.029554 0.007427 0.032196
v 0.007710 -0.000000 0.042388
v 0.015256 -0.000000 0.040167
v -0.000279 -0.000000 0.043155
v -0.008378 -0.000000 0.042515
v -0.016252 -0.000000 0.040518
v -0.023571 -0.000000 0.037225
v -0.030003 -0.000000 0.032697
v 0.007576 -0.007705 0.041721
v 0.014992 -0.007428 0.039548
v -0.000288 -0.007975 0.042469
v -0.008266 -0.008095 0.041837
v -0.016023 -0.007975 0.039871
v -0.023230 -0.007705 0.036636
v -0.029554 -0.007428 0.032196
v 0.007322 -0.015044 0.039776
v 0.014358 -0.014418 0.037809
v -0.000225 -0.015611 0.040433
v -0.007931 -0.015853 0.039807
v -0.015429 -0.015611 0.037924
v -0.022365 -0.015044 0.034876
v -0.028395 -0.014418 0.030753
v 0.007206 -0.021666 0.036629
v 0.013668 -0.020545 0.035107
v 0.000047 -0.022574 0.037082
v -0.007374 -0.022935 0.036432
v -0.014610 -0.022574 0.034663
v -0.021243 -0.021666 0.031933
v -0.026873 -0.020545 0.028415
vn 0.0563 -0.0000 -0.9984
vn -0.0958 0.9946 -0.0406
vn 0.0997 0.9946 -0.0279
vn -0.2876 -0.9563 -0.0531
vn -0.0958 -0.9946 -0.0406
vn 0.0997 -0.9946 -0.0279
vn 0.2915 -0.9565 -0.0154
vn 0.4721 -0.8815 -0.0036
vn 0.6347 -0.7727 0.0070
vn 0.7730 -0.6342 0.0160
vn 0.8817 -0.4712 0.0231
vn 0.9566 -0.2902 0.0280
vn 0.9947 -0.0980 0.0305
vn 0.9947 0.0980 0.0305
vn 0.9566 0.2902 0.0280
vn 0.8817 0.4712 0.0231
vn 0.7730 0.6342 0.0160
vn 0.6347 0.7727 0.0070
vn 0.4721 0.8815 -0.0036
vn 0.2915 0.9565 -0.0154
vn 0.4733 0.8800 -0.0387
vn 0.2929 0.9548 -0.0504
vn 0.1015 0.9928 -0.0629
vn 0.2942 0.9514 -0.0911
vn 0.1034 0.9892 -0.1035
vn -0.0937 0.9927 -0.0756
vn -0.0910 0.9891 -0.1162
vn 0.1008 0.9937 -0.0490
vn -0.0945 0.9936 -0.0618
vn 0.0958 0.9946 0.0409
vn -0.0997 0.9946 0.0281
vn 0.0871 0.9812 0.1722
vn -0.1057 0.9822 0.1556
vn -0.2915 0.9564 0.0156
vn -0.2951 0.9453 0.1393
vn -0.4721 0.8815 0.0039
vn -0.4738 0.8719 0.1238
vn -0.6348 0.7727 -0.0068
vn -0.6348 0.7648 0.1099
vn -0.7731 0.6341 -0.0158
vn -0.7720 0.6280 0.0981
vn -0.8817 0.4712 -0.0229
vn -0.8799 0.4669 0.0888
vn -0.9566 0.2902 -0.0277
vn -0.9542 0.2876 0.0823
vn -0.9947 0.0980 -0.0302
vn -0.9921 0.0971 0.0791
vn -0.9947 -0.0980 -0.0302
vn -0.9921 -0.0971 0.0791
vn -0.9566 -0.2902 -0.0277
vn -0.9542 -0.2876 0.0823
vn -0.8817 -0.4712 -0.0229
vn -0.8799 -0.4669 0.0888
vn -0.7731 -0.6341 -0.0158
vn -0.7720 -0.6280 0.0981
vn -0.6348 -0.7727 -0.0068
vn -0.6348 -0.7648 0.1099
vn -0.4721 -0.8815 0.0039
vn -0.4738 -0.8719 0.1238
vn -0.2915 -0.9564 0.0156
vn -0.2951 -0.9453 0.1393
vn -0.0997 -0.9946 0.0281
vn -0.1057 -0.9822 0.1556
vn 0.0958 -0.9946 0.0409
vn 0.0871 -0.9812 0.1722
vn 0.2875 -0.9563 0.0534
vn 0.2757 -0.9426 0.1885
vn 0.4681 -0.8813 0.0652
vn 0.4531 -0.8679 0.2038
vn 0.6306 -0.7724 0.0758
vn 0.6124 -0.7600 0.2175
vn 0.7688 -0.6339 0.0848
vn 0.7477 -0.6232 0.2291
vn 0.8773 -0.4710 0.0919
vn 0.8538 -0.4628 0.2383
vn 0.9521 -0.2900 0.0967
vn 0.9268 -0.2849 0.2446
vn 0.9902 -0.0979 0.0992
vn 0.9640 -0.0962 0.2478
vn 0.9902 0.0979 0.0992
vn 0.9640 0.0962 0.2478
vn 0.9521 0.2900 0.0967
vn 0.9268 0.2849 0.2446
vn 0.8774 0.4710 0.0919
vn 0.8538 0.4628 0.2383
vn 0.7688 0.6339 0.0848
vn 0.7477 0.6232 0.2292
vn 0.6306 0.7724 0.0758
vn 0.6124 0.7600 0.2175
vn 0.4681 0.8813 0.0652
vn 0.4531 0.8679 0.2038
vn 0.2875 0.9563 0.0534
vn 0.2757 0.9426 0.1885
vn -0.0563 -0.0000 0.9984
vn 0.4729 0.8808 -0.0248
vn 0.2924 0.9556 -0.0365
vn 0.4740 0.8770 -0.0794
vn 0.6358 0.7688 -0.0688
vn 0.6354 0.7720 -0.0142
vn 0.7735 0.6310 -0.0599
vn 0.7736 0.6336 -0.0052
vn 0.8817 0.4689 -0.0528
vn 0.8822 0.4709 0.0019
vn 0.9562 0.2888 -0.0480
vn 0.9570 0.2900 0.0068
vn 0.9942 0.0975 -0.0455
vn 0.9952 0.0979 0.0093
vn 0.9942 -0.0975 -0.0455
vn 0.9952 -0.0979 0.0093
vn 0.9562 -0.2888 -0.0480
vn 0.9570 -0.2900 0.0068
vn 0.8817 -0.4689 -0.0528
vn 0.8822 -0.4709 0.0019
vn 0.7735 -0.6310 -0.0599
vn 0.7736 -0.6336 -0.0052
vn 0.6358 -0.7688 -0.0688
vn 0.6354 -0.7720 -0.0142
vn 0.4740 -0.8770 -0.0794
vn 0.4729 -0.8808 -0.0248
vn 0.2942 -0.9514 -0.0911
vn 0.2924 -0.9556 -0.0365
vn 0.1034 -0.9892 -0.1035
vn 0.1008 -0.9937 -0.0490
vn -0.0910 -0.9891 -0.1162
vn -0.0945 -0.9936 -0.0618
vn -0.2816 -0.9509 -0.1286
vn -0.2861 -0.9553 -0.0743
vn -0.4611 -0.8762 -0.1403
vn -0.4665 -0.8804 -0.0860
vn -0.6226 -0.7678 -0.1508
vn -0.6288 -0.7716 -0.0966
vn -0.7599 -0.6301 -0.1597
vn -0.7668 -0.6332 -0.1056
vn -0.8678 -0.4681 -0.1668
vn -0.8752 -0.4705 -0.1127
vn -0.9421 -0.2882 -0.1716
vn -0.9499 -0.2897 -0.1175
vn -0.9799 -0.0973 -0.1741
vn -0.9879 -0.0978 -0.1200
vn -0.9799 0.0973 -0.1741
vn -0.9879 0.0978 -0.1200
vn -0.9421 0.2882 -0.1716
vn -0.9499 0.2897 -0.1175
vn -0.8678 0.4681 -0.1668
vn -0.8752 0.4705 -0.1127
vn -0.7599 0.6301 -0.1597
vn -0.7668 0.6332 -0.1056
vn -0.6226 0.7678 -0.1508
vn -0.6288 0.7716 -0.0966
vn -0.4611 0.8762 -0.1403
vn -0.4665 0.8804 -0.0860
vn -0.2816 0.9509 -0.1286
vn -0.2861 0.9553 -0.0743
vn -0.2850 0.9545 -0.0881
vn -0.4652 0.8795 -0.0999
vn -0.2876 0.9563 -0.0531
vn -0.4681 0.8813 -0.0649
vn -0.6306 0.7724 -0.0755
vn -0.6274 0.7708 -0.1104
vn -0.7688 0.6339 -0.0845
vn -0.7653 0.6326 -0.1194
vn -0.8774 0.4710 -0.0916
vn -0.8736 0.4700 -0.1265
vn -0.9521 0.2900 -0.0965
vn -0.9482 0.2894 -0.1313
vn -0.9903 0.0979 -0.0990
vn -0.9862 0.0977 -0.1338
vn -0.9903 -0.0979 -0.0990
vn -0.9862 -0.0977 -0.1338
vn -0.9521 -0.2900 -0.0965
vn -0.9482 -0.2894 -0.1313
vn -0.8774 -0.4710 -0.0916
vn -0.8736 -0.4700 -0.1265
vn -0.7688 -0.6339 -0.0845
vn -0.7653 -0.6326 -0.1194
vn -0.6306 -0.7724 -0.0755
vn -0.6274 -0.7708 -0.1104
vn -0.4681 -0.8813 -0.0649
vn -0.4652 -0.8795 -0.0999
vn -0.2850 -0.9545 -0.0881
vn -0.0937 -0.9927 -0.0756
vn 0.1015 -0.9928 -0.0629
vn 0.2929 -0.9548 -0.0504
vn 0.4733 -0.8800 -0.0387
vn 0.6357 -0.7714 -0.0281
vn 0.7738 -0.6331 -0.0191
vn 0.8823 -0.4705 -0.0120
vn 0.9571 -0.2897 -0.0071
vn 0.9952 -0.0978 -0.0046
vn 0.9952 0.0978 -0.0046
vn 0.9571 0.2897 -0.0071
vn 0.8823 0.4705 -0.0120
vn 0.7738 0.6331 -0.0191
vn 0.6357 0.7714 -0.0281
vn -0.7312 -0.4151 -0.5414
vn -0.8139 -0.4278 -0.3930
vn -0.8702 -0.4340 -0.2334
vn -0.8990 -0.4340 -0.0586
vn -0.8971 -0.4278 0.1106
vn -0.8664 -0.4151 0.2777
vn -0.7858 -0.2552 -0.5633
vn -0.8775 -0.2567 -0.4050
vn -0.9358 -0.2564 -0.2421
vn -0.9639 -0.2564 -0.0714
vn -0.9611 -0.2567 0.1016
vn -0.9252 -0.2552 0.2809
vn -0.8139 -0.0886 -0.5742
vn -0.9081 -0.0865 -0.4097
vn -0.9657 -0.0848 -0.2454
vn -0.9933 -0.0848 -0.0780
vn -0.9916 -0.0865 0.0962
vn -0.9553 -0.0886 0.2822
vn -0.8139 0.0886 -0.5742
vn -0.9081 0.0865 -0.4097
vn -0.9657 0.0848 -0.2454
vn -0.9933 0.0848 -0.0780
vn -0.9916 0.0865 0.0962
vn -0.9553 0.0886 0.2822
vn -0.7858 0.2552 -0.5633
vn -0.8775 0.2567 -0.4050
vn -0.9358 0.2564 -0.2421
vn -0.9639 0.2564 -0.0714
vn -0.9611 0.2567 0.1016
vn -0.9252 0.2552 0.2809
vn -0.7312 0.4151 -0.5414
vn -0.8139 0.4278 -0.3930
vn -0.8702 0.4340 -0.2335
vn -0.8990 0.4340 -0.0586
vn -0.8971 0.4278 0.1106
vn -0.8664 0.4151 0.2777
vn -0.5624 -0.5325 -0.6325
vn -0.6398 -0.5734 -0.5117
vn -0.7066 -0.6011 -0.3733
vn -0.7573 -0.6161 -0.2164
vn -0.7867 -0.6161 -0.0385
vn -0.7891 -0.6011 0.1264
vn -0.7703 -0.5734 0.2790
vn -0.7359 -0.5325 0.4182
vn -0.7984 -0.4007 0.4494
vn -0.8458 -0.2532 0.4697
vn -0.8723 -0.0901 0.4805
vn -0.8723 0.0901 0.4805
vn -0.8458 0.2532 0.4697
vn -0.7984 0.4007 0.4494
vn -0.7359 0.5325 0.4182
vn -0.7703 0.5734 0.2790
vn -0.7891 0.6011 0.1264
vn -0.7867 0.6161 -0.0385
vn -0.7573 0.6161 -0.2164
vn -0.7066 0.6011 -0.3733
vn -0.6398 0.5734 -0.5117
vn -0.5624 0.5325 -0.6325
vn -0.6117 0.4007 -0.6821
vn -0.6500 0.2532 -0.7165
vn -0.6717 0.0901 -0.7353
vn -0.6717 -0.0901 -0.7353
vn -0.6500 -0.2532 -0.7165
vn -0.6117 -0.4007 -0.6821
vn -0.3419 0.8096 -0.4771
vn -0.3806 0.8671 -0.3215
vn -0.4137 0.8966 -0.1581
vn -0.4426 0.8966 0.0168
vn -0.4637 0.8671 0.1822
vn -0.4771 0.8096 0.3419
vn -0.1822 0.8671 -0.4637
vn -0.2115 0.9318 -0.2951
vn -0.2389 0.9627 -0.1271
vn -0.2671 0.9627 0.0436
vn -0.2951 0.9318 0.2115
vn -0.3215 0.8671 0.3806
vn -0.0168 0.8966 -0.4426
vn -0.0436 0.9627 -0.2671
vn -0.0699 0.9928 -0.0975
vn -0.0975 0.9928 0.0699
vn -0.1271 0.9627 0.2389
vn -0.1581 0.8966 0.4137
vn 0.1581 0.8966 -0.4137
vn 0.1271 0.9627 -0.2389
vn 0.0975 0.9928 -0.0699
vn 0.0699 0.9928 0.0975
vn 0.0436 0.9627 0.2671
vn 0.0168 0.8966 0.4426
vn 0.3215 0.8671 -0.3806
vn 0.2951 0.9318 -0.2115
vn 0.2671 0.9627 -0.0436
vn 0.2389 0.9627 0.1271
vn 0.2115 0.9318 0.2951
vn 0.1822 0.8671 0.4637
vn 0.4771 0.8096 -0.3419
vn 0.4637 0.8671 -0.1822
vn 0.4426 0.8966 -0.0168
vn 0.4137 0.8966 0.1581
vn 0.3806 0.8671 0.3215
vn 0.3419 0.8096 0.4771
vn -0.4387 0.6579 -0.6121
vn -0.5005 0.7146 -0.4887
vn -0.5519 0.7580 -0.3477
vn -0.5932 0.7825 -0.1893
vn -0.6226 0.7825 -0.0114
vn -0.6343 0.7580 0.1519
vn -0.6310 0.7146 0.3019
vn -0.6121 0.6579 0.4387
vn -0.4887 0.7146 0.5005
vn -0.3477 0.7580 0.5519
vn -0.1893 0.7825 0.5932
vn -0.0114 0.7825 0.6226
vn 0.1519 0.7580 0.6343
vn 0.3019 0.7146 0.6310
vn 0.4387 0.6579 0.6121
vn 0.5005 0.7146 0.4887
vn 0.5519 0.7580 0.3477
vn 0.5932 0.7825 0.1893
vn 0.6226 0.7825 0.0114
vn 0.6343 0.7580 -0.1519
vn 0.6310 0.7146 -0.3020
vn 0.6121 0.6579 -0.4387
vn 0.4887 0.7146 -0.5005
vn 0.3477 0.7580 -0.5519
vn 0.1893 0.7825 -0.5932
vn 0.0114 0.7825 -0.6226
vn -0.1519 0.7580 -0.6343
vn -0.3019 0.7146 -0.6310
vn 0.8664 0.4151 -0.2777
vn 0.8971 0.4278 -0.1106
vn 0.8990 0.4340 0.0586
vn 0.8702 0.4340 0.2335
vn 0.8139 0.4278 0.3930
vn 0.7312 0.4151 0.5414
vn 0.9252 0.2552 -0.2809
vn 0.9611 0.2567 -0.1016
vn 0.9639 0.2564 0.0714
vn 0.9358 0.2564 0.2421
vn 0.8775 0.2567 0.4050
vn 0.7858 0.2552 0.5633
vn 0.9553 0.0886 -0.2822
vn 0.9916 0.0865 -0.0962
vn 0.9933 0.0848 0.0780
vn 0.9657 0.0848 0.2454
vn 0.9081 0.0865 0.4097
vn 0.8139 0.0886 0.5742
vn 0.9553 -0.0886 -0.2822
vn 0.9916 -0.0865 -0.0962
vn 0.9933 -0.0848 0.0780
vn 0.9657 -0.0848 0.2454
vn 0.9081 -0.0865 0.4097
vn 0.8139 -0.0886 0.5742
vn 0.9252 -0.2552 -0.2809
vn 0.9611 -0.2567 -0.1016
vn 0.9639 -0.2564 0.0714
vn 0.9358 -0.2564 0.2421
vn 0.8775 -0.2567 0.4050
vn 0.7858 -0.2552 0.5633
vn 0.8664 -0.4151 -0.2777
vn 0.8971 -0.4278 -0.1106
vn 0.8990 -0.4340 0.0586
vn 0.8702 -0.4340 0.2335
vn 0.8139 -0.4278 0.3930
vn 0.7312 -0.4151 0.5414
vn 0.7359 0.5325 -0.4182
vn 0.7703 0.5734 -0.2790
vn 0.7891 0.6011 -0.1264
vn 0.7867 0.6161 0.0385
vn 0.7573 0.6161 0.2164
vn 0.7066 0.6011 0.3733
vn 0.6398 0.5734 0.5117
vn 0.5624 0.5325 0.6325
vn 0.6117 0.4007 0.6821
vn 0.6500 0.2532 0.7165
vn 0.6717 0.0901 0.7353
vn 0.6717 -0.0901 0.7353
vn 0.6500 -0.2532 0.7165
vn 0.6117 -0.4007 0.6821
vn 0.5624 -0.5325 0.6325
vn 0.6398 -0.5734 0.5117
vn 0.7066 -0.6011 0.3733
vn 0.7573 -0.6162 0.2164
vn 0.7867 -0.6161 0.0385
vn 0.7891 -0.6011 -0.1264
vn 0.7703 -0.5734 -0.2790
vn 0.7359 -0.5325 -0.4182
vn 0.7984 -0.4007 -0.4494
vn 0.8458 -0.2532 -0.4697
vn 0.8723 -0.0901 -0.4805
vn 0.8723 0.0901 -0.4805
vn 0.8458 0.2532 -0.4697
vn 0.7984 0.4007 -0.4494
vn 0.4771 -0.8096 -0.3419
vn 0.4637 -0.8671 -0.1822
vn 0.4426 -0.8966 -0.0168
vn 0.4137 -0.8966 0.1581
vn 0.3806 -0.8671 0.3215
vn 0.3419 -0.8096 0.4771
vn 0.3215 -0.8671 -0.3806
vn 0.2951 -0.9318 -0.2115
vn 0.2671 -0.9627 -0.0436
vn 0.2389 -0.9627 0.1271
vn 0.2115 -0.9318 0.2951
vn 0.1822 -0.8671 0.4637
vn 0.1581 -0.8966 -0.4137
vn 0.1271 -0.9627 -0.2389
vn 0.0975 -0.9928 -0.0699
vn 0.0699 -0.9928 0.0975
vn 0.0436 -0.9627 0.2671
vn 0.0168 -0.8966 0.4426
vn -0.0168 -0.8966 -0.4426
vn -0.0436 -0.9627 -0.2671
vn -0.0699 -0.9928 -0.0975
vn -0.0975 -0.9928 0.0699
vn -0.1271 -0.9627 0.2389
vn -0.1581 -0.8966 0.4137
vn -0.1822 -0.8671 -0.4637
vn -0.2115 -0.9318 -0.2951
vn -0.2389 -0.9627 -0.1271
vn -0.2671 -0.9627 0.0436
vn -0.2951 -0.9318 0.2115
vn -0.3215 -0.8671 0.3806
vn -0.3419 -0.8096 -0.4771
vn -0.3806 -0.8671 -0.3215
vn -0.4137 -0.8966 -0.1581
vn -0.4426 -0.8966 0.0168
vn -0.4637 -0.8671 0.1822
vn -0.4771 -0.8096 0.3419
vn 0.6121 -0.6579 -0.4387
vn 0.6310 -0.7146 -0.3019
vn 0.6343 -0.7580 -0.1519
vn 0.6226 -0.7825 0.0114
vn 0.5932 -0.7825 0.1893
vn 0.5519 -0.7580 0.3477
vn 0.5005 -0.7146 0.4887
vn 0.4387 -0.6579 0.6121
vn 0.3019 -0.7146 0.6310
vn 0.1519 -0.7580 0.6343
vn -0.0114 -0.7825 0.6226
vn -0.1893 -0.7825 0.5932
vn -0.3477 -0.7580 0.5519
vn -0.4887 -0.7146 0.5005
vn -0.6121 -0.6579 0.4387
vn -0.6310 -0.7146 0.3019
vn -0.6343 -0.7580 0.1519
vn -0.6226 -0.7825 -0.0114
vn -0.5932 -0.7825 -0.1893
vn -0.5519 -0.7580 -0.3477
vn -0.5005 -0.7146 -0.4887
vn -0.4387 -0.6579 -0.6121
vn -0.3019 -0.7146 -0.6310
vn -0.1519 -0.7580 -0.6343
vn 0.0114 -0.7825 -0.6226
vn 0.1893 -0.7825 -0.5932
vn 0.3477 -0.7580 -0.5519
vn 0.4887 -0.7146 -0.5005
vn -0.2777 0.4151 -0.8664
vn -0.1106 0.4278 -0.8971
vn 0.0586 0.4340 -0.8990
vn 0.2335 0.4340 -0.8702
vn 0.3930 0.4278 -0.8139
vn 0.5414 0.4151 -0.7312
vn -0.2809 0.2552 -0.9252
vn -0.1016 0.2567 -0.9611
vn 0.0714 0.2564 -0.9639
vn 0.2421 0.2564 -0.9358
vn 0.4050 0.2567 -0.8775
vn 0.5633 0.2552 -0.7858
vn -0.2822 0.0886 -0.9553
vn -0.0962 0.0865 -0.9916
vn 0.0780 0.0848 -0.9933
vn 0.2454 0.0848 -0.9657
vn 0.4097 0.0865 -0.9081
vn 0.5742 0.0886 -0.8139
vn -0.2822 -0.0886 -0.9553
vn -0.0962 -0.0865 -0.9916
vn 0.0780 -0.0848 -0.9933
vn 0.2454 -0.0848 -0.9657
vn 0.4097 -0.0865 -0.9081
vn 0.5742 -0.0886 -0.8139
vn -0.2809 -0.2552 -0.9252
vn -0.1016 -0.2567 -0.9611
vn 0.0714 -0.2564 -0.9639
vn 0.2421 -0.2564 -0.9357
vn 0.4050 -0.2567 -0.8775
vn 0.5633 -0.2553 -0.7858
vn -0.2777 -0.4150 -0.8664
vn -0.1106 -0.4278 -0.8971
vn 0.0586 -0.4340 -0.8990
vn 0.2334 -0.4340 -0.8702
vn 0.3930 -0.4278 -0.8139
vn 0.5414 -0.4151 -0.7312
vn -0.4182 0.5325 -0.7359
vn -0.2790 0.5734 -0.7703
vn -0.1264 0.6011 -0.7891
vn 0.0385 0.6161 -0.7867
vn 0.2164 0.6161 -0.7573
vn 0.3733 0.6011 -0.7066
vn 0.5117 0.5734 -0.6398
vn 0.6325 0.5325 -0.5624
vn 0.6821 0.4007 -0.6117
vn 0.7165 0.2532 -0.6500
vn 0.7353 0.0901 -0.6717
vn 0.7353 -0.0901 -0.6717
vn 0.7165 -0.2532 -0.6500
vn 0.6821 -0.4007 -0.6117
vn 0.6325 -0.5325 -0.5624
vn 0.5117 -0.5734 -0.6398
vn 0.3733 -0.6011 -0.7066
vn 0.2163 -0.6161 -0.7573
vn 0.0385 -0.6162 -0.7867
vn -0.1264 -0.6011 -0.7891
vn -0.2790 -0.5734 -0.7703
vn -0.4183 -0.5325 -0.7359
vn -0.4494 -0.4007 -0.7984
vn -0.4697 -0.2532 -0.8458
vn -0.4805 -0.0901 -0.8724
vn -0.4805 0.0901 -0.8723
vn -0.4697 0.2532 -0.8458
vn -0.4494 0.4007 -0.7984
vn 0.2777 0.4151 0.8664
vn 0.1106 0.4278 0.8971
vn -0.0586 0.4340 0.8990
vn -0.2335 0.4340 0.8702
vn -0.3930 0.4278 0.8139
vn -0.5414 0.4150 0.7312
vn 0.2809 0.2552 0.9252
vn 0.1016 0.2567 0.9611
vn -0.0714 0.2564 0.9639
vn -0.2421 0.2564 0.9357
vn -0.4050 0.2567 0.8775
vn -0.5633 0.2553 0.7858
vn 0.2822 0.0886 0.9553
vn 0.0962 0.0865 0.9916
vn -0.0780 0.0848 0.9933
vn -0.2454 0.0848 0.9657
vn -0.4097 0.0865 0.9081
vn -0.5742 0.0886 0.8139
vn 0.2822 -0.0886 0.9553
vn 0.0962 -0.0865 0.9916
vn -0.0780 -0.0848 0.9933
vn -0.2454 -0.0848 0.9657
vn -0.4097 -0.0865 0.9081
vn -0.5742 -0.0886 0.8139
vn 0.2809 -0.2552 0.9252
vn 0.1016 -0.2567 0.9611
vn -0.0714 -0.2564 0.9639
vn -0.2421 -0.2564 0.9357
vn -0.4050 -0.2567 0.8775
vn -0.5633 -0.2552 0.7858
vn 0.2777 -0.4150 0.8664
vn 0.1106 -0.4278 0.8971
vn -0.0586 -0.4340 0.8990
vn -0.2335 -0.4340 0.8702
vn -0.3930 -0.4278 0.8139
vn -0.5414 -0.4151 0.7312
vn 0.4182 0.5325 0.7359
vn 0.2790 0.5734 0.7703
vn 0.1264 0.6011 0.7891
vn -0.0385 0.6162 0.7867
vn -0.2164 0.6162 0.7573
vn -0.3733 0.6011 0.7066
vn -0.5117 0.5734 0.6398
vn -0.6325 0.5325 0.5624
vn -0.6821 0.4007 0.6117
vn -0.7165 0.2532 0.6500
vn -0.7353 0.0901 0.6717
vn -0.7353 -0.0901 0.6717
vn -0.7165 -0.2532 0.6500
vn -0.6821 -0.4007 0.6117
vn -0.6325 -0.5325 0.5624
vn -0.5117 -0.5734 0.6398
vn -0.3732 -0.6011 0.7066
vn -0.2164 -0.6162 0.7573
vn -0.0385 -0.6161 0.7867
vn 0.1264 -0.6011 0.7891
vn 0.2790 -0.5734 0.7703
vn 0.4183 -0.5325 0.7359
vn 0.4494 -0.4007 0.7984
vn 0.4697 -0.2532 0.8458
vn 0.4805 -0.0901 0.8723
vn 0.4805 0.0901 0.8723
vn 0.4697 0.2532 0.8458
vn 0.4494 0.4007 0.7984
vt 0.956686 0.255578
vt 0.965695 0.260394
vt 0.964776 0.262614
vt 0.955000 0.259648
vt 0.485361 0.419014
vt 0.490075 0.419500
vt 0.484404 0.481025
vt 0.479305 0.480442
vt 0.959133 0.251915
vt 0.967030 0.258396
vt 0.480645 0.418495
vt 0.474223 0.479813
vt 0.976505 0.266172
vt 0.968729 0.256697
vt 0.970727 0.255362
vt 0.962249 0.248800
vt 0.988703 0.264970
vt 0.987315 0.260394
vt 0.988235 0.262614
vt 0.988703 0.267373
vt 0.988235 0.269730
vt 0.967030 0.273948
vt 0.965695 0.271950
vt 0.968729 0.275646
vt 0.964776 0.269730
vt 0.964307 0.267373
vt 0.987315 0.271950
vt 0.985980 0.273948
vt 0.964307 0.264970
vt 0.972947 0.254442
vt 0.975304 0.253973
vt 0.977707 0.253974
vt 0.980063 0.254442
vt 0.984281 0.275647
vt 0.982283 0.276981
vt 0.980063 0.277901
vt 0.977707 0.278370
vt 0.982283 0.255362
vt 0.984281 0.256697
vt 0.975304 0.278370
vt 0.972947 0.277901
vt 0.985980 0.258396
vt 0.970727 0.276981
vt 0.990762 0.283543
vt 0.993877 0.280428
vt 0.996324 0.276765
vt 0.551778 0.422547
vt 0.556528 0.422534
vt 0.556768 0.484483
vt 0.551579 0.484524
vt 0.561273 0.422485
vt 0.561954 0.484402
vt 0.566014 0.422401
vt 0.567139 0.484282
vt 0.998010 0.272695
vt 0.570751 0.422283
vt 0.572322 0.484126
vt 0.998870 0.268374
vt 0.575483 0.422134
vt 0.577501 0.483934
vt 0.998870 0.263969
vt 0.580211 0.421953
vt 0.582678 0.483708
vt 0.998010 0.259648
vt 0.584935 0.421742
vt 0.587851 0.483449
vt 0.996324 0.255578
vt 0.589655 0.421502
vt 0.593019 0.483157
vt 0.993877 0.251915
vt 0.594371 0.421234
vt 0.598183 0.482833
vt 0.990762 0.248800
vt 0.599083 0.420938
vt 0.603340 0.482477
vt 0.987099 0.246352
vt 0.603791 0.420615
vt 0.608489 0.482072
vt 0.983029 0.244667
vt 0.608494 0.420263
vt 0.613628 0.481633
vt 0.978708 0.243807
vt 0.613193 0.419884
vt 0.618756 0.481160
vt 0.974303 0.243807
vt 0.617887 0.419477
vt 0.623870 0.480651
vt 0.969982 0.244666
vt 0.622577 0.419041
vt 0.628970 0.480106
vt 0.965912 0.246352
vt 0.627263 0.418576
vt 0.634051 0.479523
vt 0.631945 0.418080
vt 0.639111 0.478906
vt 0.638829 0.513902
vt 0.633373 0.514599
vt 0.644272 0.513136
vt 0.475008 0.514940
vt 0.469587 0.514167
vt 0.650576 0.552059
vt 0.644391 0.552663
vt 0.469948 0.553587
vt 0.463820 0.552928
vt 0.480454 0.515638
vt 0.476019 0.554171
vt 0.467981 0.592206
vt 0.461477 0.592163
vt 0.474371 0.592255
vt 0.470215 0.628443
vt 0.463969 0.629121
vt 0.476356 0.627892
vt 0.475898 0.659129
vt 0.470581 0.660016
vt 0.481242 0.658384
vt 0.480655 0.592297
vt 0.482411 0.627430
vt 0.486607 0.657757
vt 0.486846 0.592333
vt 0.488396 0.627042
vt 0.491987 0.657227
vt 0.492957 0.592362
vt 0.494322 0.626714
vt 0.497381 0.656777
vt 0.499001 0.592383
vt 0.500200 0.626434
vt 0.502783 0.656393
vt 0.504986 0.592396
vt 0.506036 0.626193
vt 0.508193 0.656061
vt 0.510922 0.592400
vt 0.511838 0.625984
vt 0.513608 0.655771
vt 0.516815 0.592396
vt 0.517609 0.625801
vt 0.519028 0.655516
vt 0.522673 0.592330
vt 0.523355 0.625576
vt 0.524452 0.655278
vt 0.528500 0.592257
vt 0.529082 0.625370
vt 0.529887 0.655064
vt 0.534301 0.592176
vt 0.534792 0.625179
vt 0.535332 0.654871
vt 0.540081 0.592088
vt 0.540489 0.625004
vt 0.540785 0.654700
vt 0.545847 0.591995
vt 0.546173 0.624843
vt 0.546248 0.654550
vt 0.551601 0.591897
vt 0.551848 0.624697
vt 0.551718 0.654423
vt 0.557350 0.591797
vt 0.557516 0.624569
vt 0.557197 0.654321
vt 0.563096 0.591696
vt 0.563179 0.624461
vt 0.562685 0.654248
vt 0.568846 0.591597
vt 0.568841 0.624376
vt 0.568180 0.654207
vt 0.574604 0.591501
vt 0.574504 0.624318
vt 0.573685 0.654203
vt 0.580374 0.591411
vt 0.580173 0.624290
vt 0.579197 0.654240
vt 0.586162 0.591329
vt 0.585852 0.624298
vt 0.584718 0.654325
vt 0.591973 0.591257
vt 0.591546 0.624344
vt 0.590247 0.654461
vt 0.597814 0.591195
vt 0.597260 0.624434
vt 0.595784 0.654655
vt 0.603691 0.591146
vt 0.602999 0.624570
vt 0.601329 0.654912
vt 0.609611 0.591110
vt 0.608771 0.624758
vt 0.606881 0.655238
vt 0.615586 0.591141
vt 0.614574 0.625091
vt 0.612397 0.655595
vt 0.621626 0.591188
vt 0.620419 0.625492
vt 0.617884 0.656042
vt 0.627741 0.591248
vt 0.626316 0.625969
vt 0.623342 0.656590
vt 0.633946 0.591321
vt 0.632275 0.626534
vt 0.628766 0.657248
vt 0.640252 0.591405
vt 0.638311 0.627198
vt 0.634153 0.658029
vt 0.646676 0.591495
vt 0.644440 0.627974
vt 0.639497 0.658947
vt 0.653233 0.591573
vt 0.650679 0.628856
vt 0.644774 0.660016
vt 0.968871 0.782771
vt 0.965335 0.794428
vt 0.962538 0.793872
vt 0.963732 0.781749
vt 0.973713 0.784776
vt 0.967970 0.795520
vt 0.961112 0.808351
vt 0.972358 0.799121
vt 0.970342 0.797104
vt 0.978070 0.787687
vt 0.973943 0.801493
vt 0.975034 0.804128
vt 0.956889 0.794428
vt 0.959686 0.793872
vt 0.951882 0.797104
vt 0.954254 0.795520
vt 0.954254 0.821182
vt 0.959686 0.822830
vt 0.956888 0.822273
vt 0.965335 0.822273
vt 0.962538 0.822830
vt 0.948281 0.801493
vt 0.949865 0.799121
vt 0.970342 0.819597
vt 0.967970 0.821182
vt 0.946633 0.806925
vt 0.947189 0.804127
vt 0.973943 0.815209
vt 0.972358 0.817580
vt 0.947189 0.812574
vt 0.946633 0.809777
vt 0.975591 0.809777
vt 0.975034 0.812574
vt 0.975591 0.806925
vt 0.949865 0.817580
vt 0.951882 0.819597
vt 0.948281 0.815209
vt 0.935532 0.816110
vt 0.937537 0.820952
vt 0.934510 0.810971
vt 0.934510 0.805731
vt 0.940449 0.825309
vt 0.948511 0.831925
vt 0.953352 0.833931
vt 0.944154 0.829014
vt 0.958492 0.834953
vt 0.986692 0.800591
vt 0.984687 0.795750
vt 0.987714 0.805731
vt 0.987714 0.810971
vt 0.981775 0.791393
vt 0.986692 0.816110
vt 0.984686 0.820952
vt 0.981775 0.825309
vt 0.978070 0.829014
vt 0.935532 0.800591
vt 0.937537 0.795750
vt 0.973713 0.831925
vt 0.968871 0.833931
vt 0.940449 0.791393
vt 0.944154 0.787687
vt 0.963732 0.834953
vt 0.948511 0.784776
vt 0.953352 0.782771
vt 0.958492 0.781749
vt 0.638283 0.553180
vt 0.627909 0.515231
vt 0.632243 0.553629
vt 0.622441 0.515804
vt 0.626264 0.554023
vt 0.616973 0.516324
vt 0.620339 0.554369
vt 0.611506 0.516796
vt 0.614464 0.554677
vt 0.606044 0.517226
vt 0.608632 0.554950
vt 0.600584 0.517599
vt 0.602839 0.555228
vt 0.595127 0.517935
vt 0.597074 0.555480
vt 0.589672 0.518237
vt 0.591334 0.555709
vt 0.584220 0.518504
vt 0.585614 0.555917
vt 0.578770 0.518738
vt 0.579910 0.556104
vt 0.573321 0.518938
vt 0.574219 0.556271
vt 0.567873 0.519103
vt 0.568537 0.556417
vt 0.562425 0.519232
vt 0.562861 0.556541
vt 0.556977 0.519323
vt 0.557187 0.556642
vt 0.551527 0.519376
vt 0.551511 0.556718
vt 0.546075 0.519387
vt 0.545830 0.556768
vt 0.540620 0.519355
vt 0.540141 0.556789
vt 0.535162 0.519277
vt 0.534440 0.556779
vt 0.529699 0.519151
vt 0.528723 0.556737
vt 0.524231 0.518975
vt 0.522986 0.556659
vt 0.518758 0.518746
vt 0.517226 0.556543
vt 0.513283 0.518480
vt 0.511442 0.556354
vt 0.507806 0.518157
vt 0.505632 0.556121
vt 0.502330 0.517776
vt 0.499790 0.555842
vt 0.496854 0.517335
vt 0.493914 0.555512
vt 0.491381 0.516834
vt 0.487996 0.555127
vt 0.485913 0.516269
vt 0.482033 0.554682
vt 0.489520 0.481567
vt 0.494651 0.482064
vt 0.494793 0.419950
vt 0.499515 0.420362
vt 0.504242 0.420734
vt 0.499795 0.482516
vt 0.508974 0.421066
vt 0.504950 0.482921
vt 0.513711 0.421356
vt 0.510113 0.483277
vt 0.518453 0.421602
vt 0.515284 0.483586
vt 0.523201 0.421805
vt 0.520460 0.483846
vt 0.527972 0.422029
vt 0.525641 0.484075
vt 0.532740 0.422213
vt 0.530826 0.484257
vt 0.537506 0.422356
vt 0.536013 0.484391
vt 0.542267 0.422459
vt 0.541201 0.484480
vt 0.547025 0.422522
vt 0.546390 0.484523
vt 0.983029 0.287677
vt 0.987099 0.285991
vt 0.978708 0.288536
vt 0.974302 0.288536
vt 0.969982 0.287677
vt 0.965912 0.285991
vt 0.962249 0.283543
vt 0.959133 0.280428
vt 0.956686 0.276765
vt 0.955000 0.272695
vt 0.954141 0.268374
vt 0.954141 0.263969
vt 0.674405 0.925581
vt 0.677639 0.927130
vt 0.675799 0.930814
vt 0.672050 0.928581
vt 0.681270 0.928244
vt 0.680024 0.932376
vt 0.685090 0.928936
vt 0.684510 0.933272
vt 0.688958 0.929274
vt 0.689073 0.933587
vt 0.692754 0.929154
vt 0.693560 0.933192
vt 0.696282 0.928511
vt 0.697764 0.932024
vt 0.673373 0.935043
vt 0.669009 0.932056
vt 0.678386 0.937204
vt 0.683820 0.938421
vt 0.689383 0.938677
vt 0.694788 0.937911
vt 0.699784 0.936177
vt 0.670307 0.940020
vt 0.665276 0.936122
vt 0.676259 0.943007
vt 0.682965 0.944809
vt 0.689908 0.944835
vt 0.696437 0.943518
vt 0.702316 0.941082
vt 0.894740 0.753053
vt 0.891461 0.747598
vt 0.896763 0.745138
vt 0.899216 0.749823
vt 0.889193 0.741337
vt 0.895206 0.739906
vt 0.888192 0.734466
vt 0.894635 0.734367
vt 0.888981 0.727567
vt 0.895035 0.728812
vt 0.891056 0.721239
vt 0.896431 0.723535
vt 0.894166 0.715687
vt 0.898739 0.718777
vt 0.901248 0.743226
vt 0.903025 0.747211
vt 0.900193 0.738847
vt 0.899830 0.734287
vt 0.900053 0.729718
vt 0.900972 0.725309
vt 0.902626 0.721271
vt 0.905123 0.741832
vt 0.906281 0.745225
vt 0.904443 0.738095
vt 0.904204 0.734220
vt 0.904323 0.730339
vt 0.904888 0.726583
vt 0.905941 0.723155
vt 0.673780 0.921988
vt 0.675915 0.922810
vt 0.671885 0.923435
vt 0.678888 0.923763
vt 0.682178 0.924567
vt 0.685600 0.925128
vt 0.689049 0.925487
vt 0.692435 0.925577
vt 0.695554 0.925439
vt 0.697830 0.925208
vt 0.699277 0.927103
vt 0.701470 0.929974
vt 0.704192 0.933537
vt 0.707414 0.937756
vt 0.898068 0.711014
vt 0.901879 0.714710
vt 0.905097 0.717831
vt 0.907691 0.720347
vt 0.909403 0.722006
vt 0.908906 0.724239
vt 0.908403 0.727320
vt 0.908094 0.730693
vt 0.908046 0.734161
vt 0.908201 0.737625
vt 0.908613 0.740987
vt 0.909210 0.744051
vt 0.908116 0.747980
vt 0.909775 0.746268
vt 0.905600 0.750573
vt 0.902479 0.753792
vt 0.898784 0.757603
vt 0.665451 0.928350
vt 0.661233 0.931572
vt 0.669014 0.925628
vt 0.912170 0.743798
vt 0.911935 0.740680
vt 0.915216 0.740657
vt 0.915294 0.743938
vt 0.911682 0.737424
vt 0.915064 0.737363
vt 0.911541 0.734107
vt 0.914952 0.734055
vt 0.911580 0.730787
vt 0.914962 0.730745
vt 0.911733 0.727525
vt 0.915013 0.727447
vt 0.911872 0.724401
vt 0.914990 0.724166
vt 0.918514 0.740708
vt 0.918556 0.744091
vt 0.918420 0.737354
vt 0.918335 0.734003
vt 0.918317 0.730651
vt 0.918308 0.727295
vt 0.918246 0.723913
vt 0.921824 0.740719
vt 0.921876 0.744129
vt 0.921772 0.737336
vt 0.921720 0.733951
vt 0.921668 0.730565
vt 0.921616 0.727183
vt 0.921563 0.723772
vt 0.925132 0.740606
vt 0.925193 0.743989
vt 0.925123 0.737251
vt 0.925105 0.733899
vt 0.925020 0.730548
vt 0.924926 0.727193
vt 0.924883 0.723811
vt 0.928427 0.740454
vt 0.928450 0.743736
vt 0.928477 0.737157
vt 0.928488 0.733847
vt 0.928376 0.730539
vt 0.928224 0.727244
vt 0.928146 0.723964
vt 0.931707 0.740377
vt 0.931568 0.743500
vt 0.931860 0.737114
vt 0.931899 0.733794
vt 0.931758 0.730477
vt 0.931505 0.727221
vt 0.931270 0.724103
vt 0.912008 0.746765
vt 0.911619 0.721441
vt 0.914683 0.720844
vt 0.918045 0.720432
vt 0.921510 0.720277
vt 0.924977 0.720325
vt 0.928350 0.720634
vt 0.931431 0.721137
vt 0.933664 0.721633
vt 0.934229 0.723850
vt 0.934826 0.726914
vt 0.935239 0.730276
vt 0.935394 0.733741
vt 0.935345 0.737208
vt 0.935036 0.740581
vt 0.934534 0.743662
vt 0.931820 0.746460
vt 0.934037 0.745895
vt 0.928756 0.747057
vt 0.925394 0.747470
vt 0.921930 0.747624
vt 0.918463 0.747576
vt 0.915090 0.747267
vt 0.937498 0.744746
vt 0.938551 0.741318
vt 0.942467 0.742593
vt 0.940814 0.746631
vt 0.939116 0.737562
vt 0.943386 0.738183
vt 0.939236 0.733682
vt 0.943610 0.733614
vt 0.938997 0.729807
vt 0.943246 0.729055
vt 0.938317 0.726070
vt 0.942192 0.724676
vt 0.937159 0.722676
vt 0.940415 0.720690
vt 0.947009 0.744366
vt 0.944700 0.749124
vt 0.948404 0.739089
vt 0.948804 0.733535
vt 0.948234 0.727995
vt 0.946677 0.722763
vt 0.944223 0.718078
vt 0.952384 0.746662
vt 0.949274 0.752215
vt 0.954458 0.740334
vt 0.955248 0.733435
vt 0.954247 0.726565
vt 0.951979 0.720303
vt 0.948699 0.714849
vt 0.672514 0.882065
vt 0.678394 0.879628
vt 0.680043 0.885236
vt 0.675046 0.886970
vt 0.684922 0.878312
vt 0.685447 0.884470
vt 0.691865 0.878338
vt 0.691010 0.884726
vt 0.698571 0.880139
vt 0.696444 0.885943
vt 0.704523 0.883127
vt 0.701457 0.888103
vt 0.709554 0.887025
vt 0.705821 0.891090
vt 0.681271 0.889954
vt 0.677066 0.891122
vt 0.685757 0.889559
vt 0.690320 0.889874
vt 0.694806 0.890771
vt 0.699031 0.892332
vt 0.702780 0.894565
vt 0.682076 0.893993
vt 0.678548 0.894636
vt 0.685872 0.893873
vt 0.689740 0.894210
vt 0.693560 0.894902
vt 0.697191 0.896017
vt 0.700426 0.897565
vt 0.935749 0.747555
vt 0.935324 0.719922
vt 0.937839 0.717328
vt 0.940960 0.714110
vt 0.944656 0.710299
vt 0.713598 0.891574
vt 0.709379 0.894797
vt 0.705816 0.897518
vt 0.702945 0.899711
vt 0.701050 0.901158
vt 0.698915 0.900337
vt 0.695942 0.899384
vt 0.692652 0.898580
vt 0.689230 0.898019
vt 0.685781 0.897659
vt 0.682395 0.897570
vt 0.679276 0.897707
vt 0.675553 0.896043
vt 0.677000 0.897938
vt 0.673360 0.893172
vt 0.670639 0.889610
vt 0.667416 0.885391
vt 0.941561 0.753191
vt 0.945372 0.756887
vt 0.938342 0.750070
vt 0.679088 0.900672
vt 0.682207 0.900901
vt 0.681744 0.904149
vt 0.678489 0.903741
vt 0.685465 0.901132
vt 0.685025 0.904486
vt 0.688766 0.901483
vt 0.688313 0.904864
vt 0.692044 0.902013
vt 0.691585 0.905364
vt 0.695248 0.902647
vt 0.694839 0.905902
vt 0.698317 0.903246
vt 0.698088 0.906365
vt 0.681206 0.907403
vt 0.677855 0.906945
vt 0.684538 0.907806
vt 0.687864 0.908218
vt 0.691182 0.908696
vt 0.694502 0.909183
vt 0.697856 0.909623
vt 0.680706 0.910675
vt 0.677325 0.910222
vt 0.684060 0.911124
vt 0.687415 0.911573
vt 0.690771 0.912023
vt 0.694124 0.912472
vt 0.697505 0.912924
vt 0.680328 0.913963
vt 0.676974 0.913524
vt 0.683648 0.914451
vt 0.686966 0.914929
vt 0.690293 0.915341
vt 0.693624 0.915744
vt 0.696976 0.916202
vt 0.679991 0.917244
vt 0.676742 0.916781
vt 0.683245 0.917782
vt 0.686517 0.918282
vt 0.689805 0.918660
vt 0.693086 0.918998
vt 0.696342 0.919406
vt 0.679583 0.920500
vt 0.676514 0.919900
vt 0.682787 0.921134
vt 0.686064 0.921663
vt 0.689365 0.922015
vt 0.692623 0.922246
vt 0.695742 0.922475
vt 0.676179 0.900073
vt 0.701281 0.903435
vt 0.701418 0.906553
vt 0.701329 0.909939
vt 0.700970 0.913388
vt 0.700409 0.916810
vt 0.699605 0.920101
vt 0.698652 0.923073
vt 0.673549 0.919712
vt 0.673412 0.916594
vt 0.673501 0.913208
vt 0.673861 0.909758
vt 0.674421 0.906336
vt 0.675226 0.903046
vt 0.910924 0.749729
vt 0.914352 0.750782
vt 0.913078 0.754698
vt 0.909040 0.753045
vt 0.918109 0.751347
vt 0.917488 0.755617
vt 0.921989 0.751467
vt 0.922056 0.755841
vt 0.925864 0.751228
vt 0.926616 0.755477
vt 0.929601 0.750548
vt 0.930995 0.754423
vt 0.932995 0.749390
vt 0.934980 0.752646
vt 0.911304 0.759240
vt 0.906546 0.756931
vt 0.916582 0.760635
vt 0.922136 0.761035
vt 0.927676 0.760465
vt 0.932907 0.758908
vt 0.937592 0.756454
vt 0.909008 0.764615
vt 0.903456 0.761504
vt 0.915337 0.766689
vt 0.922235 0.767479
vt 0.929106 0.766478
vt 0.935368 0.764210
vt 0.940822 0.760930
vt 0.657907 0.926474
vt 0.655470 0.920595
vt 0.661078 0.918946
vt 0.662811 0.923942
vt 0.654154 0.914066
vt 0.660312 0.913541
vt 0.654180 0.907123
vt 0.660567 0.907978
vt 0.655981 0.900418
vt 0.661784 0.902544
vt 0.658969 0.894466
vt 0.663945 0.897532
vt 0.662866 0.889434
vt 0.666932 0.893167
vt 0.665796 0.917718
vt 0.666964 0.921923
vt 0.665401 0.913231
vt 0.665716 0.908668
vt 0.666613 0.904182
vt 0.668174 0.899957
vt 0.670407 0.896208
vt 0.669835 0.916912
vt 0.670478 0.920440
vt 0.669715 0.913116
vt 0.670052 0.909248
vt 0.670744 0.905428
vt 0.671859 0.901797
vt 0.673407 0.898563
vt 0.932515 0.718172
vt 0.929087 0.717119
vt 0.930362 0.713203
vt 0.934400 0.714857
vt 0.925331 0.716554
vt 0.925952 0.712284
vt 0.921451 0.716435
vt 0.921384 0.712061
vt 0.917576 0.716673
vt 0.916824 0.712424
vt 0.913839 0.717353
vt 0.912445 0.713479
vt 0.910445 0.718511
vt 0.908459 0.715255
vt 0.932135 0.708662
vt 0.936893 0.710970
vt 0.926858 0.707266
vt 0.921304 0.706866
vt 0.915764 0.707437
vt 0.910532 0.708993
vt 0.905848 0.711447
vt 0.934431 0.703286
vt 0.939984 0.706397
vt 0.928103 0.701212
vt 0.921205 0.700423
vt 0.914334 0.701424
vt 0.908072 0.703692
vt 0.902618 0.706971
vt 0.716924 0.896672
vt 0.719360 0.902552
vt 0.713753 0.904201
vt 0.712019 0.899204
vt 0.720677 0.909080
vt 0.714518 0.909605
vt 0.720650 0.916023
vt 0.714263 0.915168
vt 0.718849 0.922729
vt 0.713046 0.920602
vt 0.715862 0.928681
vt 0.710885 0.925615
vt 0.711964 0.933712
vt 0.707898 0.929979
vt 0.709034 0.905429
vt 0.707866 0.901224
vt 0.709429 0.909916
vt 0.709114 0.914479
vt 0.708217 0.918964
vt 0.706656 0.923189
vt 0.704423 0.926938
vt 0.704996 0.906234
vt 0.704352 0.902706
vt 0.705115 0.910031
vt 0.704778 0.913898
vt 0.704086 0.917718
vt 0.702972 0.921349
vt 0.701423 0.924584
s 0
usemtl lay_figure_material
f 1/1/1 2/2/1 3/3/1 4/4/1
f 1/5/2 4/6/2 5/7/2 6/8/2
f 7/9/1 8/10/1 2/2/1 1/1/1
f 7/11/3 1/5/3 6/8/3 9/12/3
f 8/10/1 10/13/1 3/3/1 2/2/1
f 11/14/1 12/15/1 10/13/1 8/10/1
f 13/16/1 11/14/1 8/10/1 7/9/1
f 14/17/1 10/13/1 15/18/1 16/19/1
f 17/20/1 18/21/1 10/13/1 14/17/1
f 19/22/1 20/23/1 10/13/1 21/24/1
f 22/25/1 23/26/1 10/13/1 20/23/1
f 24/27/1 25/28/1 10/13/1 18/21/1
f 26/29/1 3/3/1 10/13/1 23/26/1
f 27/30/1 28/31/1 10/13/1 12/15/1
f 29/32/1 30/33/1 10/13/1 28/31/1
f 31/34/1 32/35/1 10/13/1 25/28/1
f 33/36/1 34/37/1 10/13/1 32/35/1
f 35/38/1 36/39/1 10/13/1 30/33/1
f 37/40/1 38/41/1 10/13/1 34/37/1
f 39/42/1 15/18/1 10/13/1 36/39/1
f 40/43/1 21/24/1 10/13/1 38/41/1
f 41/44/1 31/34/1 25/28/1 42/45/1
f 42/45/1 25/28/1 24/27/1 43/46/1
f 41/47/4 42/48/4 44/49/4 45/50/4
f 42/48/5 43/51/5 46/52/5 44/49/5
f 43/51/6 47/53/6 48/54/6 46/52/6
f 43/46/1 24/27/1 18/21/1 47/55/1
f 47/53/7 49/56/7 50/57/7 48/54/7
f 47/55/1 18/21/1 17/20/1 49/58/1
f 49/56/8 51/59/8 52/60/8 50/57/8
f 49/58/1 17/20/1 14/17/1 51/61/1
f 51/59/9 53/62/9 54/63/9 52/60/9
f 51/61/1 14/17/1 16/19/1 53/64/1
f 53/62/10 55/65/10 56/66/10 54/63/10
f 53/64/1 16/19/1 15/18/1 55/67/1
f 55/65/11 57/68/11 58/69/11 56/66/11
f 55/67/1 15/18/1 39/42/1 57/70/1
f 57/68/12 59/71/12 60/72/12 58/69/12
f 57/70/1 39/42/1 36/39/1 59/73/1
f 59/71/13 61/74/13 62/75/13 60/72/13
f 59/73/1 36/39/1 35/38/1 61/76/1
f 61/74/14 63/77/14 64/78/14 62/75/14
f 61/76/1 35/38/1 30/33/1 63/79/1
f 63/77/15 65/80/15 66/81/15 64/78/15
f 63/79/1 30/33/1 29/32/1 65/82/1
f 65/80/16 67/83/16 68/84/16 66/81/16
f 65/82/1 29/32/1 28/31/1 67/85/1
f 67/83/17 69/86/17 70/87/17 68/84/17
f 67/85/1 28/31/1 27/30/1 69/88/1
f 69/86/18 71/89/18 72/90/18 70/87/18
f 69/88/1 27/30/1 12/15/1 71/91/1
f 71/89/19 13/92/19 73/93/19 72/90/19
f 71/91/1 12/15/1 11/14/1 13/16/1
f 13/92/20 7/94/20 9/95/20 73/93/20
f 72/90/21 73/93/21 74/96/21 75/97/21
f 73/93/22 9/95/22 76/98/22 74/96/22
f 9/12/23 6/8/23 77/99/23 76/100/23
f 74/96/24 76/98/24 78/101/24 79/102/24
f 76/100/25 77/99/25 80/103/25 78/104/25
f 6/8/26 5/7/26 81/105/26 77/99/26
f 77/99/27 81/105/27 82/106/27 80/103/27
f 78/104/28 80/103/28 83/107/28 84/108/28
f 80/103/29 82/106/29 85/109/29 83/107/29
f 84/108/30 83/107/30 86/110/30 87/111/30
f 83/107/31 85/109/31 88/112/31 86/110/31
f 87/111/32 86/110/32 89/113/32 90/114/32
f 86/110/33 88/112/33 91/115/33 89/113/33
f 85/109/34 92/116/34 93/117/34 88/112/34
f 88/112/35 93/117/35 94/118/35 91/115/35
f 92/116/36 95/119/36 96/120/36 93/117/36
f 93/117/37 96/120/37 97/121/37 94/118/37
f 95/119/38 98/122/38 99/123/38 96/120/38
f 96/120/39 99/123/39 100/124/39 97/121/39
f 98/122/40 101/125/40 102/126/40 99/123/40
f 99/123/41 102/126/41 103/127/41 100/124/41
f 101/125/42 104/128/42 105/129/42 102/126/42
f 102/126/43 105/129/43 106/130/43 103/127/43
f 104/128/44 107/131/44 108/132/44 105/129/44
f 105/129/45 108/132/45 109/133/45 106/130/45
f 107/131/46 110/134/46 111/135/46 108/132/46
f 108/132/47 111/135/47 112/136/47 109/133/47
f 110/134/48 113/137/48 114/138/48 111/135/48
f 111/135/49 114/138/49 115/139/49 112/136/49
f 113/137/50 116/140/50 117/141/50 114/138/50
f 114/138/51 117/141/51 118/142/51 115/139/51
f 116/140/52 119/143/52 120/144/52 117/141/52
f 117/141/53 120/144/53 121/145/53 118/142/53
f 119/143/54 122/146/54 123/147/54 120/144/54
f 120/144/55 123/147/55 124/148/55 121/145/55
f 122/146/56 125/149/56 126/150/56 123/147/56
f 123/147/57 126/150/57 127/151/57 124/148/57
f 125/149/58 128/152/58 129/153/58 126/150/58
f 126/150/59 129/153/59 130/154/59 127/151/59
f 128/152/60 131/155/60 132/156/60 129/153/60
f 129/153/61 132/156/61 133/157/61 130/154/61
f 131/155/62 134/158/62 135/159/62 132/156/62
f 132/156/63 135/159/63 136/160/63 133/157/63
f 134/158/64 137/161/64 138/162/64 135/159/64
f 135/159/65 138/162/65 139/163/65 136/160/65
f 137/161/66 140/164/66 141/165/66 138/162/66
f 138/162/67 141/165/67 142/166/67 139/163/67
f 140/164/68 143/167/68 144/168/68 141/165/68
f 141/165/69 144/168/69 145/169/69 142/166/69
f 143/167/70 146/170/70 147/171/70 144/168/70
f 144/168/71 147/171/71 148/172/71 145/169/71
f 146/170/72 149/173/72 150/174/72 147/171/72
f 147/171/73 150/174/73 151/175/73 148/172/73
f 149/173/74 152/176/74 153/177/74 150/174/74
f 150/174/75 153/177/75 154/178/75 151/175/75
f 152/176/76 155/179/76 156/180/76 153/177/76
f 153/177/77 156/180/77 157/181/77 154/178/77
f 155/179/78 158/182/78 159/183/78 156/180/78
f 156/180/79 159/183/79 160/184/79 157/181/79
f 158/182/80 161/185/80 162/186/80 159/183/80
f 159/183/81 162/186/81 163/187/81 160/184/81
f 161/185/82 164/188/82 165/189/82 162/186/82
f 162/186/83 165/189/83 166/190/83 163/187/83
f 164/188/84 167/191/84 168/192/84 165/189/84
f 165/189/85 168/192/85 169/193/85 166/190/85
f 167/191/86 170/194/86 171/195/86 168/192/86
f 168/192/87 171/195/87 172/196/87 169/193/87
f 170/194/88 173/197/88 174/198/88 171/195/88
f 171/195/89 174/198/89 175/199/89 172/196/89
f 173/197/90 176/200/90 177/201/90 174/198/90
f 174/198/91 177/201/91 178/202/91 175/199/91
f 176/200/92 84/203/92 87/204/92 177/201/92
f 177/201/93 87/204/93 90/205/93 178/202/93
f 178/206/94 179/207/94 180/208/94 175/209/94
f 90/210/94 181/211/94 179/207/94 178/206/94
f 181/211/94 182/212/94 180/208/94 179/207/94
f 183/213/94 182/212/94 181/211/94 184/214/94
f 89/215/94 184/214/94 181/211/94 90/210/94
f 185/216/94 186/217/94 182/212/94 183/213/94
f 180/208/94 182/212/94 187/218/94 188/219/94
f 187/218/94 182/212/94 189/220/94 190/221/94
f 191/222/94 182/212/94 192/223/94 193/224/94
f 192/223/94 182/212/94 194/225/94 195/226/94
f 189/220/94 182/212/94 196/227/94 197/228/94
f 194/225/94 182/212/94 198/229/94 199/230/94
f 196/227/94 182/212/94 200/231/94 201/232/94
f 198/229/94 182/212/94 202/233/94 203/234/94
f 200/231/94 182/212/94 204/235/94 205/236/94
f 202/233/94 182/212/94 206/237/94 207/238/94
f 206/237/94 182/212/94 186/217/94 208/239/94
f 209/240/94 182/212/94 191/222/94 210/241/94
f 204/235/94 182/212/94 209/240/94 211/242/94
f 145/243/94 204/235/94 211/242/94 142/244/94
f 148/245/94 205/236/94 204/235/94 145/243/94
f 151/246/94 200/231/94 205/236/94 148/245/94
f 142/244/94 211/242/94 209/240/94 139/247/94
f 133/248/94 191/222/94 193/224/94 130/249/94
f 136/250/94 210/241/94 191/222/94 133/248/94
f 139/247/94 209/240/94 210/241/94 136/250/94
f 130/249/94 193/224/94 192/223/94 127/251/94
f 97/252/94 186/217/94 185/216/94 94/253/94
f 100/254/94 208/239/94 186/217/94 97/252/94
f 103/255/94 206/237/94 208/239/94 100/254/94
f 94/253/94 185/216/94 183/213/94 91/256/94
f 106/257/94 207/238/94 206/237/94 103/255/94
f 109/258/94 202/233/94 207/238/94 106/257/94
f 112/259/94 203/234/94 202/233/94 109/258/94
f 115/260/94 198/229/94 203/234/94 112/259/94
f 154/261/94 201/232/94 200/231/94 151/246/94
f 157/262/94 196/227/94 201/232/94 154/261/94
f 118/263/94 199/230/94 198/229/94 115/260/94
f 121/264/94 194/225/94 199/230/94 118/263/94
f 160/265/94 197/228/94 196/227/94 157/262/94
f 163/266/94 189/220/94 197/228/94 160/265/94
f 124/267/94 195/226/94 194/225/94 121/264/94
f 127/251/94 192/223/94 195/226/94 124/267/94
f 166/268/94 190/221/94 189/220/94 163/266/94
f 169/269/94 187/218/94 190/221/94 166/268/94
f 172/270/94 188/219/94 187/218/94 169/269/94
f 175/209/94 180/208/94 188/219/94 172/270/94
f 91/256/94 183/213/94 184/214/94 89/215/94
f 212/271/95 79/102/95 176/200/95 173/197/95
f 79/102/96 78/101/96 84/203/96 176/200/96
f 75/97/97 74/96/97 79/102/97 212/271/97
f 213/272/98 75/97/98 212/271/98 214/273/98
f 214/273/99 212/271/99 173/197/99 170/194/99
f 215/274/100 213/272/100 214/273/100 216/275/100
f 216/275/101 214/273/101 170/194/101 167/191/101
f 217/276/102 215/274/102 216/275/102 218/277/102
f 218/277/103 216/275/103 167/191/103 164/188/103
f 219/278/104 217/276/104 218/277/104 220/279/104
f 220/279/105 218/277/105 164/188/105 161/185/105
f 221/280/106 219/278/106 220/279/106 222/281/106
f 222/281/107 220/279/107 161/185/107 158/182/107
f 223/282/108 221/280/108 222/281/108 224/283/108
f 224/283/109 222/281/109 158/182/109 155/179/109
f 225/284/110 223/282/110 224/283/110 226/285/110
f 226/285/111 224/283/111 155/179/111 152/176/111
f 227/286/112 225/284/112 226/285/112 228/287/112
f 228/287/113 226/285/113 152/176/113 149/173/113
f 229/288/114 227/286/114 228/287/114 230/289/114
f 230/289/115 228/287/115 149/173/115 146/170/115
f 231/290/116 229/288/116 230/289/116 232/291/116
f 232/291/117 230/289/117 146/170/117 143/167/117
f 233/292/118 231/290/118 232/291/118 234/293/118
f 234/293/119 232/291/119 143/167/119 140/164/119
f 235/294/120 233/292/120 234/293/120 236/295/120
f 236/295/121 234/293/121 140/164/121 137/161/121
f 237/296/122 235/294/122 236/295/122 238/297/122
f 238/297/123 236/295/123 137/161/123 134/158/123
f 239/298/124 237/296/124 238/297/124 240/299/124
f 240/299/125 238/297/125 134/158/125 131/155/125
f 241/300/126 239/298/126 240/299/126 242/301/126
f 242/301/127 240/299/127 131/155/127 128/152/127
f 243/302/128 241/300/128 242/301/128 244/303/128
f 244/303/129 242/301/129 128/152/129 125/149/129
f 245/304/130 243/302/130 244/303/130 246/305/130
f 246/305/131 244/303/131 125/149/131 122/146/131
f 247/306/132 245/304/132 246/305/132 248/307/132
f 248/307/133 246/305/133 122/146/133 119/143/133
f 249/308/134 247/306/134 248/307/134 250/309/134
f 250/309/135 248/307/135 119/143/135 116/140/135
f 251/310/136 249/308/136 250/309/136 252/311/136
f 252/311/137 250/309/137 116/140/137 113/137/137
f 253/312/138 251/310/138 252/311/138 254/313/138
f 254/313/139 252/311/139 113/137/139 110/134/139
f 255/314/140 253/312/140 254/313/140 256/315/140
f 256/315/141 254/313/141 110/134/141 107/131/141
f 257/316/142 255/314/142 256/315/142 258/317/142
f 258/317/143 256/315/143 107/131/143 104/128/143
f 259/318/144 257/316/144 258/317/144 260/319/144
f 260/319/145 258/317/145 104/128/145 101/125/145
f 261/320/146 259/318/146 260/319/146 262/321/146
f 262/321/147 260/319/147 101/125/147 98/122/147
f 263/322/148 261/320/148 262/321/148 264/323/148
f 264/323/149 262/321/149 98/122/149 95/119/149
f 265/324/150 263/322/150 264/323/150 266/325/150
f 266/325/151 264/323/151 95/119/151 92/116/151
f 81/105/152 265/324/152 266/325/152 82/106/152
f 82/106/153 266/325/153 92/116/153 85/109/153
f 5/7/154 267/326/154 265/324/154 81/105/154
f 267/326/155 268/327/155 263/322/155 265/324/155
f 4/6/156 269/328/156 267/326/156 5/7/156
f 269/328/157 270/329/157 268/327/157 267/326/157
f 270/329/158 271/330/158 272/331/158 268/327/158
f 268/327/159 272/331/159 261/320/159 263/322/159
f 271/330/160 273/332/160 274/333/160 272/331/160
f 272/331/161 274/333/161 259/318/161 261/320/161
f 273/332/162 275/334/162 276/335/162 274/333/162
f 274/333/163 276/335/163 257/316/163 259/318/163
f 275/334/164 277/336/164 278/337/164 276/335/164
f 276/335/165 278/337/165 255/314/165 257/316/165
f 277/336/166 279/338/166 280/339/166 278/337/166
f 278/337/167 280/339/167 253/312/167 255/314/167
f 279/338/168 281/340/168 282/341/168 280/339/168
f 280/339/169 282/341/169 251/310/169 253/312/169
f 281/340/170 283/342/170 284/343/170 282/341/170
f 282/341/171 284/343/171 249/308/171 251/310/171
f 283/342/172 285/344/172 286/345/172 284/343/172
f 284/343/173 286/345/173 247/306/173 249/308/173
f 285/344/174 287/346/174 288/347/174 286/345/174
f 286/345/175 288/347/175 245/304/175 247/306/175
f 287/346/176 289/348/176 290/349/176 288/347/176
f 288/347/177 290/349/177 243/302/177 245/304/177
f 289/348/178 41/47/178 45/50/178 290/349/178
f 290/349/179 45/50/179 241/300/179 243/302/179
f 45/50/180 44/49/180 239/298/180 241/300/180
f 287/350/1 33/36/1 32/35/1 289/351/1
f 289/351/1 32/35/1 31/34/1 41/44/1
f 285/352/1 34/37/1 33/36/1 287/350/1
f 283/353/1 37/40/1 34/37/1 285/352/1
f 281/354/1 38/41/1 37/40/1 283/353/1
f 279/355/1 40/43/1 38/41/1 281/354/1
f 277/356/1 21/24/1 40/43/1 279/355/1
f 275/357/1 19/22/1 21/24/1 277/356/1
f 273/358/1 20/23/1 19/22/1 275/357/1
f 271/359/1 22/25/1 20/23/1 273/358/1
f 270/360/1 23/26/1 22/25/1 271/359/1
f 269/361/1 26/29/1 23/26/1 270/360/1
f 4/4/1 3/3/1 26/29/1 269/361/1
f 44/49/181 46/52/181 237/296/181 239/298/181
f 46/52/182 48/54/182 235/294/182 237/296/182
f 48/54/183 50/57/183 233/292/183 235/294/183
f 50/57/184 52/60/184 231/290/184 233/292/184
f 52/60/185 54/63/185 229/288/185 231/290/185
f 54/63/186 56/66/186 227/286/186 229/288/186
f 56/66/187 58/69/187 225/284/187 227/286/187
f 58/69/188 60/72/188 223/282/188 225/284/188
f 60/72/189 62/75/189 221/280/189 223/282/189
f 62/75/190 64/78/190 219/278/190 221/280/190
f 64/78/191 66/81/191 217/276/191 219/278/191
f 66/81/192 68/84/192 215/274/192 217/276/192
f 68/84/193 70/87/193 213/272/193 215/274/193
f 70/87/194 72/90/194 75/97/194 213/272/194
f 291/362/195 292/363/195 293/364/195 294/365/195
f 292/363/196 295/366/196 296/367/196 293/364/196
f 295/366/197 297/368/197 298/369/197 296/367/197
f 297/368/198 299/370/198 300/371/198 298/369/198
f 299/370/199 301/372/199 302/373/199 300/371/199
f 301/372/200 303/374/200 304/375/200 302/373/200
f 294/365/201 293/364/201 305/376/201 306/377/201
f 293/364/202 296/367/202 307/378/202 305/376/202
f 296/367/203 298/369/203 308/379/203 307/378/203
f 298/369/204 300/371/204 309/380/204 308/379/204
f 300/371/205 302/373/205 310/381/205 309/380/205
f 302/373/206 304/375/206 311/382/206 310/381/206
f 306/377/207 305/376/207 312/383/207 313/384/207
f 305/376/208 307/378/208 314/385/208 312/383/208
f 307/378/209 308/379/209 315/386/209 314/385/209
f 308/379/210 309/380/210 316/387/210 315/386/210
f 309/380/211 310/381/211 317/388/211 316/387/211
f 310/381/212 311/382/212 318/389/212 317/388/212
f 313/390/213 312/391/213 319/392/213 320/393/213
f 312/391/214 314/394/214 321/395/214 319/392/214
f 314/394/215 315/396/215 322/397/215 321/395/215
f 315/396/216 316/398/216 323/399/216 322/397/216
f 316/398/217 317/400/217 324/401/217 323/399/217
f 317/400/218 318/402/218 325/403/218 324/401/218
f 320/393/219 319/392/219 326/404/219 327/405/219
f 319/392/220 321/395/220 328/406/220 326/404/220
f 321/395/221 322/397/221 329/407/221 328/406/221
f 322/397/222 323/399/222 330/408/222 329/407/222
f 323/399/223 324/401/223 331/409/223 330/408/223
f 324/401/224 325/403/224 332/410/224 331/409/224
f 327/405/225 326/404/225 333/411/225 334/412/225
f 326/404/226 328/406/226 335/413/226 333/411/226
f 328/406/227 329/407/227 336/414/227 335/413/227
f 329/407/228 330/408/228 337/415/228 336/414/228
f 330/408/229 331/409/229 338/416/229 337/415/229
f 331/409/230 332/410/230 339/417/230 338/416/230
f 340/418/231 341/419/231 291/362/231 342/420/231
f 341/419/232 343/421/232 292/363/232 291/362/232
f 343/421/233 344/422/233 295/366/233 292/363/233
f 344/422/234 345/423/234 297/368/234 295/366/234
f 345/423/235 346/424/235 299/370/235 297/368/235
f 346/424/236 347/425/236 301/372/236 299/370/236
f 347/425/237 348/426/237 303/374/237 301/372/237
f 348/426/238 349/427/238 350/428/238 303/374/238
f 303/374/239 350/428/239 351/429/239 304/375/239
f 304/375/240 351/429/240 352/430/240 311/382/240
f 311/382/241 352/430/241 353/431/241 318/389/241
f 318/402/242 353/432/242 354/433/242 325/403/242
f 325/403/243 354/433/243 355/434/243 332/410/243
f 332/410/244 355/434/244 356/435/244 339/417/244
f 339/417/245 356/435/245 357/436/245 358/437/245
f 338/416/246 339/417/246 358/437/246 359/438/246
f 337/415/247 338/416/247 359/438/247 360/439/247
f 336/414/248 337/415/248 360/439/248 361/440/248
f 335/413/249 336/414/249 361/440/249 362/441/249
f 333/411/250 335/413/250 362/441/250 363/442/250
f 334/412/251 333/411/251 363/442/251 364/443/251
f 365/444/252 334/412/252 364/443/252 366/445/252
f 367/446/253 327/405/253 334/412/253 365/444/253
f 368/447/254 320/393/254 327/405/254 367/446/254
f 369/448/255 313/390/255 320/393/255 368/447/255
f 370/449/256 306/377/256 313/384/256 369/450/256
f 371/451/257 294/365/257 306/377/257 370/449/257
f 342/420/258 291/362/258 294/365/258 371/451/258
f 372/452/259 373/453/259 374/454/259 375/455/259
f 373/453/260 376/456/260 377/457/260 374/454/260
f 376/456/261 378/458/261 379/459/261 377/457/261
f 378/458/262 380/460/262 381/461/262 379/459/262
f 380/460/263 382/462/263 383/463/263 381/461/263
f 382/462/264 384/464/264 385/465/264 383/463/264
f 375/455/265 374/454/265 386/466/265 387/467/265
f 374/454/266 377/457/266 388/468/266 386/466/266
f 377/457/267 379/459/267 389/469/267 388/468/267
f 379/459/268 381/461/268 390/470/268 389/469/268
f 381/461/269 383/463/269 391/471/269 390/470/269
f 383/463/270 385/465/270 392/472/270 391/471/270
f 387/467/271 386/466/271 393/473/271 394/474/271
f 386/466/272 388/468/272 395/475/272 393/473/272
f 388/468/273 389/469/273 396/476/273 395/475/273
f 389/469/274 390/470/274 397/477/274 396/476/274
f 390/470/275 391/471/275 398/478/275 397/477/275
f 391/471/276 392/472/276 399/479/276 398/478/276
f 394/474/277 393/473/277 400/480/277 401/481/277
f 393/473/278 395/475/278 402/482/278 400/480/278
f 395/475/279 396/476/279 403/483/279 402/482/279
f 396/476/280 397/477/280 404/484/280 403/483/280
f 397/477/281 398/478/281 405/485/281 404/484/281
f 398/478/282 399/479/282 406/486/282 405/485/282
f 401/481/283 400/480/283 407/487/283 408/488/283
f 400/480/284 402/482/284 409/489/284 407/487/284
f 402/482/285 403/483/285 410/490/285 409/489/285
f 403/483/286 404/484/286 411/491/286 410/490/286
f 404/484/287 405/485/287 412/492/287 411/491/287
f 405/485/288 406/486/288 413/493/288 412/492/288
f 408/488/289 407/487/289 414/494/289 415/495/289
f 407/487/290 409/489/290 416/496/290 414/494/290
f 409/489/291 410/490/291 417/497/291 416/496/291
f 410/490/292 411/491/292 418/498/292 417/497/292
f 411/491/293 412/492/293 419/499/293 418/498/293
f 412/492/294 413/493/294 420/500/294 419/499/294
f 366/445/295 364/443/295 372/452/295 421/501/295
f 364/443/296 363/442/296 373/453/296 372/452/296
f 363/442/297 362/441/297 376/456/297 373/453/297
f 362/441/298 361/440/298 378/458/298 376/456/298
f 361/440/299 360/439/299 380/460/299 378/458/299
f 360/439/300 359/438/300 382/462/300 380/460/300
f 359/438/301 358/437/301 384/464/301 382/462/301
f 358/437/302 357/436/302 422/502/302 384/464/302
f 384/464/303 422/502/303 423/503/303 385/465/303
f 385/465/304 423/503/304 424/504/304 392/472/304
f 392/472/305 424/504/305 425/505/305 399/479/305
f 399/479/306 425/505/306 426/506/306 406/486/306
f 406/486/307 426/506/307 427/507/307 413/493/307
f 413/493/308 427/507/308 428/508/308 420/500/308
f 420/500/309 428/508/309 429/509/309 430/510/309
f 419/499/310 420/500/310 430/510/310 431/511/310
f 418/498/311 419/499/311 431/511/311 432/512/311
f 417/497/312 418/498/312 432/512/312 433/513/312
f 416/496/313 417/497/313 433/513/313 434/514/313
f 414/494/314 416/496/314 434/514/314 435/515/314
f 415/495/315 414/494/315 435/515/315 436/516/315
f 437/517/316 415/495/316 436/516/316 438/518/316
f 439/519/317 408/488/317 415/495/317 437/517/317
f 440/520/318 401/481/318 408/488/318 439/519/318
f 441/521/319 394/474/319 401/481/319 440/520/319
f 442/522/320 387/467/320 394/474/320 441/521/320
f 443/523/321 375/455/321 387/467/321 442/522/321
f 421/501/322 372/452/322 375/455/322 443/523/322
f 444/524/323 445/525/323 446/526/323 447/527/323
f 445/525/324 448/528/324 449/529/324 446/526/324
f 448/528/325 450/530/325 451/531/325 449/529/325
f 450/530/326 452/532/326 453/533/326 451/531/326
f 452/532/327 454/534/327 455/535/327 453/533/327
f 454/534/328 456/536/328 457/537/328 455/535/328
f 447/527/329 446/526/329 458/538/329 459/539/329
f 446/526/330 449/529/330 460/540/330 458/538/330
f 449/529/331 451/531/331 461/541/331 460/540/331
f 451/531/332 453/533/332 462/542/332 461/541/332
f 453/533/333 455/535/333 463/543/333 462/542/333
f 455/535/334 457/537/334 464/544/334 463/543/334
f 459/539/335 458/538/335 465/545/335 466/546/335
f 458/538/336 460/540/336 467/547/336 465/545/336
f 460/540/337 461/541/337 468/548/337 467/547/337
f 461/541/338 462/542/338 469/549/338 468/548/338
f 462/542/339 463/543/339 470/550/339 469/549/339
f 463/543/340 464/544/340 471/551/340 470/550/340
f 466/552/341 465/553/341 472/554/341 473/555/341
f 465/553/342 467/556/342 474/557/342 472/554/342
f 467/556/343 468/558/343 475/559/343 474/557/343
f 468/558/344 469/560/344 476/561/344 475/559/344
f 469/560/345 470/562/345 477/563/345 476/561/345
f 470/562/346 471/564/346 478/565/346 477/563/346
f 473/555/347 472/554/347 479/566/347 480/567/347
f 472/554/348 474/557/348 481/568/348 479/566/348
f 474/557/349 475/559/349 482/569/349 481/568/349
f 475/559/350 476/561/350 483/570/350 482/569/350
f 476/561/351 477/563/351 484/571/351 483/570/351
f 477/563/352 478/565/352 485/572/352 484/571/352
f 480/567/353 479/566/353 486/573/353 487/574/353
f 479/566/354 481/568/354 488/575/354 486/573/354
f 481/568/355 482/569/355 489/576/355 488/575/355
f 482/569/356 483/570/356 490/577/356 489/576/356
f 483/570/357 484/571/357 491/578/357 490/577/357
f 484/571/358 485/572/358 492/579/358 491/578/358
f 438/518/359 436/516/359 444/524/359 493/580/359
f 436/516/360 435/515/360 445/525/360 444/524/360
f 435/515/361 434/514/361 448/528/361 445/525/361
f 434/514/362 433/513/362 450/530/362 448/528/362
f 433/513/363 432/512/363 452/532/363 450/530/363
f 432/512/364 431/511/364 454/534/364 452/532/364
f 431/511/365 430/510/365 456/536/365 454/534/365
f 430/510/366 429/509/366 494/581/366 456/536/366
f 456/536/367 494/581/367 495/582/367 457/537/367
f 457/537/368 495/582/368 496/583/368 464/544/368
f 464/544/369 496/583/369 497/584/369 471/551/369
f 471/564/370 497/585/370 498/586/370 478/565/370
f 478/565/371 498/586/371 499/587/371 485/572/371
f 485/572/372 499/587/372 500/588/372 492/579/372
f 492/579/373 500/588/373 501/589/373 502/590/373
f 491/578/374 492/579/374 502/590/374 503/591/374
f 490/577/375 491/578/375 503/591/375 504/592/375
f 489/576/376 490/577/376 504/592/376 505/593/376
f 488/575/377 489/576/377 505/593/377 506/594/377
f 486/573/378 488/575/378 506/594/378 507/595/378
f 487/574/379 486/573/379 507/595/379 508/596/379
f 509/597/380 487/574/380 508/596/380 510/598/380
f 511/599/381 480/567/381 487/574/381 509/597/381
f 512/600/382 473/555/382 480/567/382 511/599/382
f 513/601/383 466/552/383 473/555/383 512/600/383
f 514/602/384 459/539/384 466/546/384 513/603/384
f 515/604/385 447/527/385 459/539/385 514/602/385
f 493/580/386 444/524/386 447/527/386 515/604/386
f 516/605/387 517/606/387 518/607/387 519/608/387
f 517/606/388 520/609/388 521/610/388 518/607/388
f 520/609/389 522/611/389 523/612/389 521/610/389
f 522/611/390 524/613/390 525/614/390 523/612/390
f 524/613/391 526/615/391 527/616/391 525/614/391
f 526/615/392 528/617/392 529/618/392 527/616/392
f 519/608/393 518/607/393 530/619/393 531/620/393
f 518/607/394 521/610/394 532/621/394 530/619/394
f 521/610/395 523/612/395 533/622/395 532/621/395
f 523/612/396 525/614/396 534/623/396 533/622/396
f 525/614/397 527/616/397 535/624/397 534/623/397
f 527/616/398 529/618/398 536/625/398 535/624/398
f 531/620/399 530/619/399 537/626/399 538/627/399
f 530/619/400 532/621/400 539/628/400 537/626/400
f 532/621/401 533/622/401 540/629/401 539/628/401
f 533/622/402 534/623/402 541/630/402 540/629/402
f 534/623/403 535/624/403 542/631/403 541/630/403
f 535/624/404 536/625/404 543/632/404 542/631/404
f 538/627/405 537/626/405 544/633/405 545/634/405
f 537/626/406 539/628/406 546/635/406 544/633/406
f 539/628/407 540/629/407 547/636/407 546/635/407
f 540/629/408 541/630/408 548/637/408 547/636/408
f 541/630/409 542/631/409 549/638/409 548/637/409
f 542/631/410 543/632/410 550/639/410 549/638/410
f 545/634/411 544/633/411 551/640/411 552/641/411
f 544/633/412 546/635/412 553/642/412 551/640/412
f 546/635/413 547/636/413 554/643/413 553/642/413
f 547/636/414 548/637/414 555/644/414 554/643/414
f 548/637/415 549/638/415 556/645/415 555/644/415
f 549/638/416 550/639/416 557/646/416 556/645/416
f 552/641/417 551/640/417 558/647/417 559/648/417
f 551/640/418 553/642/418 560/649/418 558/647/418
f 553/642/419 554/643/419 561/650/419 560/649/419
f 554/643/420 555/644/420 562/651/420 561/650/420
f 555/644/421 556/645/421 563/652/421 562/651/421
f 556/645/422 557/646/422 564/653/422 563/652/422
f 510/598/423 508/596/423 516/605/423 565/654/423
f 508/596/424 507/595/424 517/606/424 516/605/424
f 507/595/425 506/594/425 520/609/425 517/606/425
f 506/594/426 505/593/426 522/611/426 520/609/426
f 505/593/427 504/592/427 524/613/427 522/611/427
f 504/592/428 503/591/428 526/615/428 524/613/428
f 503/591/429 502/590/429 528/617/429 526/615/429
f 502/590/430 501/589/430 566/655/430 528/617/430
f 528/617/431 566/655/431 567/656/431 529/618/431
f 529/618/432 567/656/432 568/657/432 536/625/432
f 536/625/433 568/657/433 569/658/433 543/632/433
f 543/632/434 569/658/434 570/659/434 550/639/434
f 550/639/435 570/659/435 571/660/435 557/646/435
f 557/646/436 571/660/436 572/661/436 564/653/436
f 564/653/437 572/661/437 349/427/437 348/426/437
f 563/652/438 564/653/438 348/426/438 347/425/438
f 562/651/439 563/652/439 347/425/439 346/424/439
f 561/650/440 562/651/440 346/424/440 345/423/440
f 560/649/441 561/650/441 345/423/441 344/422/441
f 558/647/442 560/649/442 344/422/442 343/421/442
f 559/648/443 558/647/443 343/421/443 341/419/443
f 573/662/444 559/648/444 341/419/444 340/418/444
f 574/663/445 552/641/445 559/648/445 573/662/445
f 575/664/446 545/634/446 552/641/446 574/663/446
f 576/665/447 538/627/447 545/634/447 575/664/447
f 577/666/448 531/620/448 538/627/448 576/665/448
f 578/667/449 519/608/449 531/620/449 577/666/449
f 565/654/450 516/605/450 519/608/450 578/667/450
f 579/668/451 580/669/451 581/670/451 582/671/451
f 580/669/452 583/672/452 584/673/452 581/670/452
f 583/672/453 585/674/453 586/675/453 584/673/453
f 585/674/454 587/676/454 588/677/454 586/675/454
f 587/676/455 589/678/455 590/679/455 588/677/455
f 589/678/456 591/680/456 592/681/456 590/679/456
f 582/671/457 581/670/457 593/682/457 594/683/457
f 581/670/458 584/673/458 595/684/458 593/682/458
f 584/673/459 586/675/459 596/685/459 595/684/459
f 586/675/460 588/677/460 597/686/460 596/685/460
f 588/677/461 590/679/461 598/687/461 597/686/461
f 590/679/462 592/681/462 599/688/462 598/687/462
f 594/683/463 593/682/463 600/689/463 601/690/463
f 593/682/464 595/684/464 602/691/464 600/689/464
f 595/684/465 596/685/465 603/692/465 602/691/465
f 596/685/466 597/686/466 604/693/466 603/692/466
f 597/686/467 598/687/467 605/694/467 604/693/467
f 598/687/468 599/688/468 606/695/468 605/694/468
f 601/696/469 600/697/469 607/698/469 608/699/469
f 600/697/470 602/700/470 609/701/470 607/698/470
f 602/700/471 603/702/471 610/703/471 609/701/471
f 603/702/472 604/704/472 611/705/472 610/703/472
f 604/704/473 605/706/473 612/707/473 611/705/473
f 605/706/474 606/708/474 613/709/474 612/707/474
f 608/699/475 607/698/475 614/710/475 615/711/475
f 607/698/476 609/701/476 616/712/476 614/710/476
f 609/701/477 610/703/477 617/713/477 616/712/477
f 610/703/478 611/705/478 618/714/478 617/713/478
f 611/705/479 612/707/479 619/715/479 618/714/479
f 612/707/480 613/709/480 620/716/480 619/715/480
f 615/711/481 614/710/481 621/717/481 622/718/481
f 614/710/482 616/712/482 623/719/482 621/717/482
f 616/712/483 617/713/483 624/720/483 623/719/483
f 617/713/484 618/714/484 625/721/484 624/720/484
f 618/714/485 619/715/485 626/722/485 625/721/485
f 619/715/486 620/716/486 627/723/486 626/722/486
f 366/445/487 421/501/487 579/668/487 365/444/487
f 421/501/488 443/523/488 580/669/488 579/668/488
f 443/523/489 442/522/489 583/672/489 580/669/489
f 442/522/490 441/521/490 585/674/490 583/672/490
f 441/521/491 440/520/491 587/676/491 585/674/491
f 440/520/492 439/519/492 589/678/492 587/676/492
f 439/519/493 437/517/493 591/680/493 589/678/493
f 437/517/494 438/518/494 493/580/494 591/680/494
f 591/680/495 493/580/495 515/604/495 592/681/495
f 592/681/496 515/604/496 514/602/496 599/688/496
f 599/688/497 514/602/497 513/603/497 606/695/497
f 606/708/498 513/601/498 512/600/498 613/709/498
f 613/709/499 512/600/499 511/599/499 620/716/499
f 620/716/500 511/599/500 509/597/500 627/723/500
f 627/723/501 509/597/501 510/598/501 565/654/501
f 626/722/502 627/723/502 565/654/502 578/667/502
f 625/721/503 626/722/503 578/667/503 577/666/503
f 624/720/504 625/721/504 577/666/504 576/665/504
f 623/719/505 624/720/505 576/665/505 575/664/505
f 621/717/506 623/719/506 575/664/506 574/663/506
f 622/718/507 621/717/507 574/663/507 573/662/507
f 342/420/508 622/718/508 573/662/508 340/418/508
f 371/451/509 615/711/509 622/718/509 342/420/509
f 370/449/510 608/699/510 615/711/510 371/451/510
f 369/450/511 601/696/511 608/699/511 370/449/511
f 368/447/512 594/683/512 601/690/512 369/448/512
f 367/446/513 582/671/513 594/683/513 368/447/513
f 365/444/514 579/668/514 582/671/514 367/446/514
f 628/724/515 629/725/515 630/726/515 631/727/515
f 629/725/516 632/728/516 633/729/516 630/726/516
f 632/728/517 634/730/517 635/731/517 633/729/517
f 634/730/518 636/732/518 637/733/518 635/731/518
f 636/732/519 638/734/519 639/735/519 637/733/519
f 638/734/520 640/736/520 641/737/520 639/735/520
f 631/727/521 630/726/521 642/738/521 643/739/521
f 630/726/522 633/729/522 644/740/522 642/738/522
f 633/729/523 635/731/523 645/741/523 644/740/523
f 635/731/524 637/733/524 646/742/524 645/741/524
f 637/733/525 639/735/525 647/743/525 646/742/525
f 639/735/526 641/737/526 648/744/526 647/743/526
f 643/739/527 642/738/527 649/745/527 650/746/527
f 642/738/528 644/740/528 651/747/528 649/745/528
f 644/740/529 645/741/529 652/748/529 651/747/529
f 645/741/530 646/742/530 653/749/530 652/748/530
f 646/742/531 647/743/531 654/750/531 653/749/531
f 647/743/532 648/744/532 655/751/532 654/750/532
f 650/752/533 649/753/533 656/754/533 657/755/533
f 649/753/534 651/756/534 658/757/534 656/754/534
f 651/756/535 652/758/535 659/759/535 658/757/535
f 652/758/536 653/760/536 660/761/536 659/759/536
f 653/760/537 654/762/537 661/763/537 660/761/537
f 654/762/538 655/764/538 662/765/538 661/763/538
f 657/755/539 656/754/539 663/766/539 664/767/539
f 656/754/540 658/757/540 665/768/540 663/766/540
f 658/757/541 659/759/541 666/769/541 665/768/541
f 659/759/542 660/761/542 667/770/542 666/769/542
f 660/761/543 661/763/543 668/771/543 667/770/543
f 661/763/544 662/765/544 669/772/544 668/771/544
f 664/767/545 663/766/545 670/773/545 671/774/545
f 663/766/546 665/768/546 672/775/546 670/773/546
f 665/768/547 666/769/547 673/776/547 672/775/547
f 666/769/548 667/770/548 674/777/548 673/776/548
f 667/770/549 668/771/549 675/778/549 674/777/549
f 668/771/550 669/772/550 676/779/550 675/778/550
f 429/509/551 428/508/551 628/724/551 494/581/551
f 428/508/552 427/507/552 629/725/552 628/724/552
f 427/507/553 426/506/553 632/728/553 629/725/553
f 426/506/554 425/505/554 634/730/554 632/728/554
f 425/505/555 424/504/555 636/732/555 634/730/555
f 424/504/556 423/503/556 638/734/556 636/732/556
f 423/503/557 422/502/557 640/736/557 638/734/557
f 422/502/558 357/436/558 356/435/558 640/736/558
f 640/736/559 356/435/559 355/434/559 641/737/559
f 641/737/560 355/434/560 354/433/560 648/744/560
f 648/744/561 354/433/561 353/432/561 655/751/561
f 655/764/562 353/431/562 352/430/562 662/765/562
f 662/765/563 352/430/563 351/429/563 669/772/563
f 669/772/564 351/429/564 350/428/564 676/779/564
f 676/779/565 350/428/565 349/427/565 572/661/565
f 675/778/566 676/779/566 572/661/566 571/660/566
f 674/777/567 675/778/567 571/660/567 570/659/567
f 673/776/568 674/777/568 570/659/568 569/658/568
f 672/775/569 673/776/569 569/658/569 568/657/569
f 670/773/570 672/775/570 568/657/570 567/656/570
f 671/774/571 670/773/571 567/656/571 566/655/571
f 500/588/572 671/774/572 566/655/572 501/589/572
f 499/587/573 664/767/573 671/774/573 500/588/573
f 498/586/574 657/755/574 664/767/574 499/587/574
f 497/585/575 650/752/575 657/755/575 498/586/575
f 496/583/576 643/739/576 650/746/576 497/584/576
f 495/582/577 631/727/577 643/739/577 496/583/577
f 494/581/578 628/724/578 631/727/578 495/582/578
