# Blender 5.1.1
# www.blender.org
mtllib l_thigh.mtl
o export_l_thigh_part
v 0.050757 0.044126 -0.392265
v 0.042211 0.043279 -0.393304
v 0.037528 0.047357 -0.367983
v 0.046879 0.048285 -0.366846
v 0.050757 0.024067 -0.392265
v 0.046096 0.023605 -0.392832
v 0.059302 0.043279 -0.391226
v 0.056230 0.047357 -0.365709
v 0.055418 0.023605 -0.391698
v 0.043556 0.052964 -0.255827
v 0.033098 0.054002 -0.257099
v 0.022640 0.052964 -0.258371
v 0.067520 0.040767 -0.390227
v 0.065222 0.044610 -0.364616
v 0.053613 0.049891 -0.254604
v 0.075093 0.036690 -0.389306
v 0.073509 0.040148 -0.363608
v 0.062881 0.044901 -0.253477
v 0.081731 0.031202 -0.388499
v 0.080772 0.034143 -0.362725
v 0.071004 0.038185 -0.252490
v 0.087178 0.024515 -0.387836
v 0.086733 0.026826 -0.362000
v 0.077671 0.030002 -0.251679
v 0.091226 0.016886 -0.387344
v 0.091162 0.018478 -0.361461
v 0.082625 0.020665 -0.251077
v 0.093719 0.008609 -0.387041
v 0.093890 0.009420 -0.361130
v 0.085675 0.010535 -0.250706
v 0.094561 -0.000000 -0.386939
v 0.094811 -0.000000 -0.361018
v 0.086705 -0.000000 -0.250581
v 0.093719 -0.008609 -0.387041
v 0.093890 -0.009420 -0.361130
v 0.085675 -0.010535 -0.250706
v 0.091226 -0.016887 -0.387344
v 0.091162 -0.018478 -0.361461
v 0.082625 -0.020666 -0.251077
v 0.087178 -0.024516 -0.387836
v 0.086733 -0.026826 -0.362000
v 0.077671 -0.030002 -0.251679
v 0.081731 -0.031202 -0.388499
v 0.080772 -0.034143 -0.362725
v 0.071004 -0.038185 -0.252490
v 0.075093 -0.036690 -0.389306
v 0.073509 -0.040148 -0.363608
v 0.062881 -0.044901 -0.253477
v 0.067520 -0.040768 -0.390227
v 0.065222 -0.044610 -0.364616
v 0.053613 -0.049891 -0.254604
v 0.059302 -0.043279 -0.391226
v 0.056230 -0.047357 -0.365709
v 0.043556 -0.052964 -0.255827
v 0.050757 -0.044127 -0.392265
v 0.046879 -0.048285 -0.366846
v 0.033098 -0.054002 -0.257099
v 0.042211 -0.043279 -0.393304
v 0.037528 -0.047357 -0.367983
v 0.022640 -0.052964 -0.258371
v 0.033994 -0.040768 -0.394303
v 0.028536 -0.044610 -0.369077
v 0.012584 -0.049891 -0.259593
v 0.026421 -0.036690 -0.395224
v 0.020249 -0.040148 -0.370084
v 0.003316 -0.044901 -0.260720
v 0.019783 -0.031202 -0.396031
v 0.012986 -0.034143 -0.370967
v -0.004808 -0.038185 -0.261708
v 0.014335 -0.024516 -0.396694
v 0.007025 -0.026826 -0.371692
v -0.011474 -0.030002 -0.262519
v 0.010287 -0.016887 -0.397186
v 0.002595 -0.018478 -0.372231
v -0.016428 -0.020666 -0.263121
v 0.007795 -0.008609 -0.397489
v -0.000132 -0.009420 -0.372562
v -0.019479 -0.010535 -0.263492
v 0.006953 -0.000000 -0.397591
v -0.001053 -0.000000 -0.372674
v -0.020509 -0.000000 -0.263617
v 0.007795 0.008609 -0.397489
v -0.000132 0.009420 -0.372562
v -0.019479 0.010535 -0.263492
v 0.010287 0.016886 -0.397186
v 0.002595 0.018478 -0.372231
v -0.016428 0.020665 -0.263121
v 0.014335 0.024515 -0.396694
v 0.007025 0.026826 -0.371692
v -0.011474 0.030002 -0.262519
v 0.019783 0.031202 -0.396031
v 0.012986 0.034143 -0.370967
v -0.004808 0.038185 -0.261708
v 0.026421 0.036690 -0.395224
v 0.020249 0.040148 -0.370084
v 0.003316 0.044901 -0.260720
v 0.033994 0.040767 -0.394303
v 0.028536 0.044610 -0.369077
v 0.012584 0.049891 -0.259593
v 0.001769 0.057604 -0.201342
v 0.013380 0.061152 -0.199930
v -0.008931 0.051842 -0.202643
v 0.025455 0.062350 -0.198462
v 0.003695 0.070596 -0.140155
v 0.017634 0.071979 -0.138461
v -0.009709 0.066500 -0.141785
v 0.037530 0.061152 -0.196994
v 0.031574 0.070596 -0.136765
v 0.013964 0.073070 -0.110301
v 0.028115 0.071666 -0.108581
v -0.000187 0.071666 -0.112022
v 0.008511 0.069428 -0.072396
v 0.021957 0.068094 -0.070762
v -0.004934 0.068094 -0.074031
v 0.003058 0.059429 -0.034491
v 0.014568 0.058287 -0.033092
v -0.008451 0.058287 -0.035891
v -0.013794 0.067508 -0.113677
v -0.017863 0.064143 -0.075603
v -0.019518 0.054905 -0.037237
v -0.026335 0.060755 -0.115201
v -0.029779 0.057727 -0.077052
v -0.029717 0.049413 -0.038477
v -0.037327 0.051668 -0.116538
v -0.040223 0.049093 -0.078322
v -0.038657 0.042023 -0.039564
v -0.046347 0.040595 -0.117635
v -0.048794 0.038572 -0.079364
v -0.045994 0.033017 -0.040456
v -0.053050 0.027963 -0.118450
v -0.055163 0.026569 -0.080139
v -0.051445 0.022742 -0.041119
v -0.057178 0.014255 -0.118952
v -0.059085 0.013545 -0.080616
v -0.054802 0.011594 -0.041527
v -0.058572 -0.000000 -0.119121
v -0.060409 -0.000000 -0.080777
v -0.055936 -0.000000 -0.041665
v -0.057178 -0.014255 -0.118952
v -0.059085 -0.013545 -0.080616
v -0.054802 -0.011594 -0.041527
v -0.053050 -0.027963 -0.118450
v -0.055163 -0.026569 -0.080139
v -0.051445 -0.022743 -0.041119
v -0.046347 -0.040596 -0.117635
v -0.048794 -0.038572 -0.079364
v -0.045994 -0.033017 -0.040456
v -0.037327 -0.051669 -0.116538
v -0.040223 -0.049093 -0.078322
v -0.038657 -0.042023 -0.039564
v -0.026335 -0.060756 -0.115201
v -0.029779 -0.057727 -0.077052
v -0.029717 -0.049414 -0.038477
v -0.013794 -0.067508 -0.113677
v -0.017863 -0.064143 -0.075603
v -0.019518 -0.054905 -0.037237
v -0.000187 -0.071666 -0.112022
v -0.004934 -0.068094 -0.074031
v -0.008451 -0.058287 -0.035891
v 0.013964 -0.073070 -0.110301
v 0.008511 -0.069428 -0.072396
v 0.003058 -0.059429 -0.034491
v 0.028115 -0.071666 -0.108581
v 0.021957 -0.068094 -0.070762
v 0.014568 -0.058287 -0.033092
v 0.041722 -0.067508 -0.106926
v 0.034886 -0.064143 -0.069189
v 0.025635 -0.054905 -0.031746
v 0.054263 -0.060756 -0.105401
v 0.046801 -0.057727 -0.067740
v 0.035834 -0.049414 -0.030506
v 0.065255 -0.051669 -0.104065
v 0.057245 -0.049093 -0.066471
v 0.044774 -0.042023 -0.029419
v 0.074276 -0.040596 -0.102968
v 0.065816 -0.038572 -0.065428
v 0.052111 -0.033017 -0.028527
v 0.080979 -0.027963 -0.102153
v 0.072185 -0.026569 -0.064654
v 0.057562 -0.022743 -0.027864
v 0.085106 -0.014255 -0.101651
v 0.076107 -0.013545 -0.064177
v 0.060919 -0.011594 -0.027456
v 0.086500 -0.000000 -0.101481
v 0.077431 -0.000000 -0.064016
v 0.062053 -0.000000 -0.027318
v 0.085106 0.014255 -0.101651
v 0.076107 0.013545 -0.064177
v 0.060919 0.011594 -0.027456
v 0.080979 0.027963 -0.102153
v 0.072185 0.026569 -0.064654
v 0.057562 0.022742 -0.027864
v 0.074276 0.040595 -0.102968
v 0.065816 0.038572 -0.065428
v 0.052111 0.033017 -0.028527
v 0.065255 0.051668 -0.104065
v 0.057245 0.049093 -0.066471
v 0.044774 0.042023 -0.029419
v 0.054263 0.060755 -0.105401
v 0.046801 0.057727 -0.067740
v 0.035834 0.049413 -0.030506
v 0.041722 0.067508 -0.106926
v 0.034886 0.064143 -0.069189
v 0.025635 0.054905 -0.031746
v 0.015346 0.029883 -0.032997
v 0.020897 0.026894 -0.032322
v 0.009323 0.031724 -0.033730
v 0.003058 -0.000000 -0.034491
v -0.003206 0.031724 -0.035253
v 0.003058 0.032345 -0.034491
v -0.009229 0.029883 -0.035985
v -0.014780 0.026894 -0.036660
v 0.029756 0.017970 -0.031245
v 0.025763 0.022872 -0.031731
v 0.034550 0.006310 -0.030662
v 0.032723 0.012378 -0.030884
v -0.003206 -0.031724 -0.035253
v -0.014780 -0.026894 -0.036660
v -0.009229 -0.029883 -0.035985
v -0.023639 -0.017970 -0.037738
v -0.019646 -0.022872 -0.037252
v 0.034550 -0.006310 -0.030662
v 0.035167 -0.000000 -0.030587
v -0.028434 -0.006310 -0.038321
v -0.026606 -0.012378 -0.038098
v 0.029756 -0.017970 -0.031245
v 0.032723 -0.012378 -0.030884
v -0.028434 0.006310 -0.038321
v -0.029051 -0.000000 -0.038396
v 0.020897 -0.026894 -0.032322
v 0.025763 -0.022872 -0.031731
v -0.023639 0.017970 -0.037738
v -0.026606 0.012378 -0.038098
v -0.019646 0.022872 -0.037252
v 0.009323 -0.031724 -0.033730
v 0.003058 -0.032346 -0.034491
v 0.015346 -0.029883 -0.032997
v 0.057332 0.059849 -0.133633
v 0.044978 0.066500 -0.135136
v 0.059842 0.051842 -0.194281
v 0.049141 0.057604 -0.195582
v 0.069221 0.044088 -0.193140
v 0.068160 0.050897 -0.132317
v 0.076918 0.034640 -0.192204
v 0.077046 0.039990 -0.131236
v 0.082638 0.023860 -0.191509
v 0.083649 0.027545 -0.130434
v 0.086160 0.012164 -0.191080
v 0.087715 0.014042 -0.129939
v 0.087349 -0.000000 -0.190936
v 0.089088 -0.000000 -0.129772
v 0.086160 -0.012164 -0.191080
v 0.087715 -0.014043 -0.129939
v 0.082638 -0.023860 -0.191509
v 0.083649 -0.027546 -0.130434
v 0.076918 -0.034640 -0.192204
v 0.077046 -0.039990 -0.131236
v 0.069221 -0.044088 -0.193140
v 0.068160 -0.050897 -0.132317
v 0.059842 -0.051842 -0.194281
v 0.057332 -0.059849 -0.133633
v 0.049141 -0.057604 -0.195582
v 0.044978 -0.066501 -0.135136
v 0.037530 -0.061152 -0.196994
v 0.031574 -0.070597 -0.136765
v 0.025455 -0.062350 -0.198462
v 0.017635 -0.071980 -0.138461
v 0.013380 -0.061152 -0.199930
v 0.003695 -0.070597 -0.140155
v 0.001769 -0.057604 -0.201342
v -0.009709 -0.066501 -0.141785
v -0.008931 -0.051842 -0.202643
v -0.022063 -0.059849 -0.143287
v -0.018311 -0.044088 -0.203784
v -0.032891 -0.050897 -0.144604
v -0.026008 -0.034640 -0.204720
v -0.041777 -0.039990 -0.145685
v -0.031727 -0.023860 -0.205415
v -0.048380 -0.027546 -0.146488
v -0.035250 -0.012164 -0.205843
v -0.052446 -0.014043 -0.146982
v -0.036439 -0.000000 -0.205988
v -0.053819 -0.000000 -0.147149
v -0.035250 0.012164 -0.205843
v -0.052446 0.014042 -0.146982
v -0.031727 0.023860 -0.205415
v -0.048380 0.027545 -0.146488
v -0.026008 0.034640 -0.204720
v -0.041777 0.039990 -0.145685
v -0.018311 0.044088 -0.203784
v -0.032891 0.050897 -0.144604
v -0.022063 0.059849 -0.143287
v 0.041614 0.022235 -0.393377
v 0.037483 0.020011 -0.393879
v 0.050757 -0.000000 -0.392265
v 0.033863 0.017018 -0.394319
v 0.030892 0.013371 -0.394680
v 0.064030 -0.020012 -0.390651
v 0.070622 -0.013371 -0.389849
v 0.067651 -0.017018 -0.390211
v 0.059900 -0.022236 -0.391153
v 0.055418 -0.023605 -0.391698
v 0.028684 0.009210 -0.394949
v 0.027324 0.004695 -0.395114
v 0.059900 0.022235 -0.391153
v 0.064030 0.020011 -0.390651
v 0.050757 -0.024068 -0.392265
v 0.046096 -0.023605 -0.392832
v 0.067651 0.017018 -0.390211
v 0.070622 0.013371 -0.389849
v 0.072830 0.009210 -0.389581
v 0.074189 0.004695 -0.389416
v 0.041614 -0.022236 -0.393377
v 0.037483 -0.020012 -0.393879
v 0.033863 -0.017018 -0.394319
v 0.030892 -0.013371 -0.394680
v 0.074648 -0.000000 -0.389360
v 0.074189 -0.004695 -0.389416
v 0.028684 -0.009210 -0.394949
v 0.027324 -0.004695 -0.395114
v 0.072830 -0.009210 -0.389581
v 0.026865 -0.000000 -0.395170
v -0.037754 -0.028752 -0.034214
v -0.042527 -0.030320 -0.026243
v -0.046675 -0.021054 -0.027734
v -0.041065 -0.020177 -0.036281
v -0.046171 -0.031592 -0.016889
v -0.050755 -0.021847 -0.017949
v -0.048455 -0.032097 -0.006717
v -0.053191 -0.022185 -0.007407
v -0.049167 -0.031592 0.003683
v -0.053863 -0.021847 0.003391
v -0.048344 -0.030320 0.013688
v -0.052744 -0.021054 0.013934
v -0.046043 -0.028752 0.022689
v -0.049806 -0.020177 0.023726
v -0.049160 -0.010783 -0.028898
v -0.043115 -0.010395 -0.037865
v -0.053496 -0.011160 -0.018729
v -0.056040 -0.011329 -0.007822
v -0.056713 -0.011160 0.003357
v -0.055458 -0.010783 0.014340
v -0.052223 -0.010395 0.024659
v -0.049993 -0.000000 -0.029360
v -0.043828 -0.000000 -0.038479
v -0.054407 -0.000000 -0.019032
v -0.056992 -0.000000 -0.007961
v -0.057673 -0.000000 0.003388
v -0.056389 -0.000000 0.014546
v -0.053081 -0.000000 0.025044
v -0.049160 0.010782 -0.028898
v -0.043115 0.010394 -0.037865
v -0.053496 0.011160 -0.018729
v -0.056040 0.011328 -0.007822
v -0.056713 0.011160 0.003357
v -0.055458 0.010782 0.014340
v -0.052223 0.010394 0.024659
v -0.046675 0.021054 -0.027734
v -0.041065 0.020176 -0.036281
v -0.050755 0.021847 -0.017949
v -0.053191 0.022185 -0.007407
v -0.053863 0.021847 0.003391
v -0.052744 0.021054 0.013934
v -0.049806 0.020176 0.023726
v -0.042527 0.030320 -0.026243
v -0.037754 0.028752 -0.034214
v -0.046171 0.031591 -0.016889
v -0.048455 0.032097 -0.006717
v -0.049167 0.031591 0.003683
v -0.048344 0.030320 0.013688
v -0.046043 0.028752 0.022689
v -0.029820 -0.033297 -0.037651
v -0.032913 -0.035635 -0.032640
v -0.031797 -0.027893 -0.040302
v -0.036578 -0.038153 -0.024951
v -0.039713 -0.039932 -0.015767
v -0.041840 -0.040593 -0.005754
v -0.042658 -0.039932 0.004450
v -0.042273 -0.038153 0.014146
v -0.040954 -0.035635 0.022562
v -0.039419 -0.033297 0.028247
v -0.042070 -0.027893 0.030224
v -0.044925 -0.019755 0.032353
v -0.046941 -0.010216 0.033856
v -0.047691 -0.000000 0.034415
v -0.046941 0.010215 0.033856
v -0.044925 0.019755 0.032353
v -0.042070 0.027892 0.030223
v -0.039419 0.033296 0.028247
v -0.040954 0.035635 0.022562
v -0.042273 0.038153 0.014146
v -0.042658 0.039931 0.004450
v -0.041840 0.040593 -0.005754
v -0.039713 0.039931 -0.015767
v -0.036578 0.038153 -0.024951
v -0.032913 0.035635 -0.032640
v -0.031797 0.027892 -0.040302
v -0.029820 0.033296 -0.037651
v -0.033926 0.019755 -0.043157
v -0.035429 0.010215 -0.045173
v -0.035989 -0.000000 -0.045923
v -0.035429 -0.010216 -0.045173
v -0.033926 -0.019755 -0.043157
v -0.025978 0.040652 -0.032499
v -0.028766 0.044226 -0.024239
v -0.019470 0.048545 -0.023771
v -0.017266 0.044226 -0.032814
v -0.031434 0.046483 -0.014742
v -0.021736 0.051173 -0.013722
v -0.033433 0.047277 -0.004529
v -0.023624 0.052064 -0.003100
v -0.034431 0.046483 0.005830
v -0.024844 0.051173 0.007618
v -0.034582 0.044226 0.015693
v -0.025539 0.048545 0.017896
v -0.034267 0.040652 0.024405
v -0.026007 0.044226 0.027192
v -0.009191 0.051173 -0.023076
v -0.007403 0.046483 -0.032663
v -0.011105 0.053997 -0.012554
v -0.012881 0.054943 -0.001536
v -0.014323 0.053997 0.009532
v -0.015490 0.051173 0.020162
v -0.016510 0.046483 0.029861
v 0.001527 0.052064 -0.021856
v 0.002956 0.047277 -0.031664
v -0.000038 0.054943 -0.011113
v -0.001671 0.055905 0.000097
v -0.003304 0.054943 0.011307
v -0.004869 0.052064 0.022050
v -0.006297 0.047277 0.031859
v 0.012148 0.051173 -0.019967
v 0.013169 0.046483 -0.029666
v 0.010981 0.053997 -0.009337
v 0.009539 0.054943 0.001730
v 0.007764 0.053997 0.012749
v 0.005850 0.051173 0.023270
v 0.004062 0.046483 0.032857
v 0.022198 0.048545 -0.017702
v 0.022665 0.044226 -0.026998
v 0.021502 0.051173 -0.007423
v 0.020282 0.052064 0.003295
v 0.018394 0.051173 0.013916
v 0.016128 0.048545 0.023966
v 0.013925 0.044226 0.033009
v 0.031241 0.044226 -0.015498
v 0.030925 0.040652 -0.024210
v 0.031089 0.046483 -0.005635
v 0.030091 0.047277 0.004724
v 0.028093 0.046483 0.014937
v 0.025424 0.044226 0.024434
v 0.022637 0.040652 0.032694
v -0.024135 0.035635 -0.039186
v -0.034408 0.035635 0.031340
v -0.026719 0.038153 0.035005
v -0.017535 0.039931 0.038139
v -0.007522 0.040593 0.040266
v 0.002682 0.039931 0.041084
v 0.012378 0.038153 0.040700
v 0.020794 0.035635 0.039381
v 0.026479 0.033296 0.037845
v 0.029572 0.035635 0.032835
v 0.033237 0.038153 0.025145
v 0.036371 0.039931 0.015962
v 0.038498 0.040593 0.005948
v 0.039316 0.039931 -0.004255
v 0.038932 0.038153 -0.013952
v 0.037613 0.035635 -0.022367
v 0.031067 0.035635 -0.031145
v 0.036077 0.033296 -0.028052
v 0.023377 0.038153 -0.034810
v 0.014194 0.039931 -0.037945
v 0.004180 0.040593 -0.040072
v -0.006024 0.039931 -0.040890
v -0.015720 0.038153 -0.040505
v 0.042701 0.028752 -0.022495
v 0.045002 0.030320 -0.013493
v 0.049403 0.021054 -0.013739
v 0.046464 0.020176 -0.023531
v 0.045826 0.031591 -0.003488
v 0.050522 0.021847 -0.003196
v 0.045113 0.032097 0.006912
v 0.049850 0.022185 0.007602
v 0.042829 0.031591 0.017084
v 0.047413 0.021847 0.018143
v 0.039186 0.030320 0.026438
v 0.043333 0.021054 0.027929
v 0.034413 0.028752 0.034409
v 0.037723 0.020176 0.036476
v 0.052117 0.010782 -0.014145
v 0.048881 0.010394 -0.024464
v 0.053372 0.011160 -0.003163
v 0.052699 0.011328 0.008017
v 0.050154 0.011160 0.018924
v 0.045818 0.010782 0.029092
v 0.039774 0.010394 0.038059
v 0.053048 -0.000000 -0.014351
v 0.049740 -0.000000 -0.024850
v 0.054332 -0.000000 -0.003193
v 0.053651 -0.000000 0.008156
v 0.051066 -0.000000 0.019227
v 0.046652 -0.000000 0.029555
v 0.040486 -0.000000 0.038674
v 0.052117 -0.010783 -0.014145
v 0.048881 -0.010395 -0.024464
v 0.053372 -0.011160 -0.003163
v 0.052699 -0.011329 0.008017
v 0.050154 -0.011160 0.018924
v 0.045818 -0.010783 0.029092
v 0.039774 -0.010395 0.038059
v 0.049403 -0.021054 -0.013739
v 0.046464 -0.020177 -0.023531
v 0.050522 -0.021847 -0.003196
v 0.049850 -0.022185 0.007602
v 0.047413 -0.021847 0.018143
v 0.043333 -0.021054 0.027929
v 0.037723 -0.020177 0.036476
v 0.045002 -0.030320 -0.013494
v 0.042701 -0.028752 -0.022495
v 0.045826 -0.031592 -0.003488
v 0.045113 -0.032097 0.006912
v 0.042829 -0.031592 0.017084
v 0.039186 -0.030320 0.026438
v 0.034413 -0.028752 0.034409
v 0.038729 0.027892 -0.030029
v 0.028456 0.027892 0.040497
v 0.030585 0.019755 0.043352
v 0.032088 0.010215 0.045368
v 0.032647 -0.000000 0.046117
v 0.032088 -0.010216 0.045368
v 0.030585 -0.019755 0.043352
v 0.028456 -0.027893 0.040497
v 0.026479 -0.033297 0.037845
v 0.029572 -0.035635 0.032835
v 0.033237 -0.038153 0.025145
v 0.036371 -0.039932 0.015962
v 0.038498 -0.040593 0.005948
v 0.039316 -0.039932 -0.004255
v 0.038932 -0.038153 -0.013952
v 0.037613 -0.035635 -0.022367
v 0.038729 -0.027893 -0.030029
v 0.036077 -0.033297 -0.028052
v 0.041584 -0.019755 -0.032158
v 0.043600 -0.010216 -0.033661
v 0.044349 -0.000000 -0.034220
v 0.043600 0.010215 -0.033661
v 0.041584 0.019755 -0.032158
v 0.030925 -0.040653 -0.024210
v 0.031241 -0.044227 -0.015498
v 0.022198 -0.048546 -0.017702
v 0.022665 -0.044227 -0.026998
v 0.031089 -0.046484 -0.005635
v 0.021502 -0.051173 -0.007424
v 0.030091 -0.047278 0.004724
v 0.020282 -0.052064 0.003295
v 0.028093 -0.046484 0.014937
v 0.018394 -0.051173 0.013916
v 0.025424 -0.044227 0.024434
v 0.016128 -0.048546 0.023966
v 0.022637 -0.040653 0.032694
v 0.013925 -0.044227 0.033009
v 0.012148 -0.051173 -0.019967
v 0.013169 -0.046484 -0.029666
v 0.010981 -0.053998 -0.009337
v 0.009539 -0.054943 0.001730
v 0.007764 -0.053998 0.012749
v 0.005850 -0.051173 0.023270
v 0.004062 -0.046484 0.032857
v 0.001527 -0.052064 -0.021856
v 0.002956 -0.047278 -0.031664
v -0.000038 -0.054943 -0.011113
v -0.001671 -0.055905 0.000097
v -0.003304 -0.054943 0.011307
v -0.004869 -0.052064 0.022050
v -0.006297 -0.047278 0.031859
v -0.009191 -0.051173 -0.023076
v -0.007403 -0.046484 -0.032663
v -0.011105 -0.053998 -0.012554
v -0.012881 -0.054943 -0.001536
v -0.014323 -0.053998 0.009532
v -0.015490 -0.051173 0.020162
v -0.016510 -0.046484 0.029861
v -0.019470 -0.048546 -0.023771
v -0.017266 -0.044227 -0.032814
v -0.021736 -0.051173 -0.013721
v -0.023624 -0.052064 -0.003100
v -0.024844 -0.051173 0.007618
v -0.025539 -0.048546 0.017897
v -0.026007 -0.044227 0.027192
v -0.028766 -0.044227 -0.024239
v -0.025978 -0.040653 -0.032499
v -0.031434 -0.046484 -0.014742
v -0.033433 -0.047278 -0.004529
v -0.034431 -0.046484 0.005830
v -0.034582 -0.044227 0.015693
v -0.034267 -0.040653 0.024405
v 0.031067 -0.035635 -0.031145
v 0.020794 -0.035635 0.039381
v 0.012378 -0.038153 0.040700
v 0.002682 -0.039932 0.041084
v -0.007522 -0.040593 0.040266
v -0.017535 -0.039932 0.038139
v -0.026719 -0.038153 0.035005
v -0.034408 -0.035635 0.031340
v -0.024135 -0.035635 -0.039186
v -0.015720 -0.038153 -0.040505
v -0.006024 -0.039932 -0.040890
v 0.004180 -0.040593 -0.040072
v 0.014194 -0.039932 -0.037945
v 0.023377 -0.038153 -0.034810
v -0.024263 0.028752 -0.044275
v -0.015262 0.030320 -0.046575
v -0.015507 0.021054 -0.050976
v -0.025299 0.020176 -0.048038
v -0.005256 0.031591 -0.047399
v -0.004964 0.021847 -0.052095
v 0.005144 0.032097 -0.046687
v 0.005834 0.022185 -0.051423
v 0.015316 0.031591 -0.044402
v 0.016375 0.021847 -0.048987
v 0.024670 0.030320 -0.040759
v 0.026161 0.021054 -0.044906
v 0.032641 0.028752 -0.035986
v 0.034707 0.020176 -0.039297
v -0.015913 0.010782 -0.053690
v -0.026232 0.010394 -0.050455
v -0.004931 0.011160 -0.054945
v 0.006249 0.011328 -0.054272
v 0.017156 0.011160 -0.051728
v 0.027324 0.010782 -0.047392
v 0.036291 0.010394 -0.041347
v -0.016119 -0.000000 -0.054621
v -0.026618 -0.000000 -0.051313
v -0.004961 -0.000000 -0.055905
v 0.006388 -0.000000 -0.055224
v 0.017459 -0.000000 -0.052639
v 0.027787 -0.000000 -0.048225
v 0.036906 -0.000000 -0.042060
v -0.015913 -0.010783 -0.053690
v -0.026232 -0.010395 -0.050454
v -0.004931 -0.011160 -0.054945
v 0.006249 -0.011329 -0.054272
v 0.017156 -0.011160 -0.051728
v 0.027324 -0.010783 -0.047392
v 0.036291 -0.010395 -0.041347
v -0.015507 -0.021054 -0.050976
v -0.025299 -0.020177 -0.048038
v -0.004964 -0.021847 -0.052095
v 0.005834 -0.022185 -0.051423
v 0.016375 -0.021847 -0.048987
v 0.026161 -0.021054 -0.044906
v 0.034707 -0.020177 -0.039297
v -0.015262 -0.030320 -0.046576
v -0.024263 -0.028752 -0.044275
v -0.005256 -0.031592 -0.047399
v 0.005144 -0.032097 -0.046687
v 0.015316 -0.031592 -0.044402
v 0.024670 -0.030320 -0.040759
v 0.032641 -0.028752 -0.035986
v 0.020921 0.028752 0.044470
v 0.011920 0.030320 0.046770
v 0.012166 0.021054 0.051171
v 0.021958 0.020176 0.048232
v 0.001915 0.031591 0.047594
v 0.001623 0.021847 0.052290
v -0.008485 0.032097 0.046881
v -0.009175 0.022185 0.051618
v -0.018657 0.031591 0.044597
v -0.019717 0.021847 0.049182
v -0.028011 0.030320 0.040954
v -0.029502 0.021054 0.045101
v -0.035982 0.028752 0.036181
v -0.038049 0.020176 0.039492
v 0.012572 0.010782 0.053885
v 0.022891 0.010394 0.050649
v 0.001589 0.011160 0.055140
v -0.009590 0.011328 0.054467
v -0.020497 0.011160 0.051923
v -0.030666 0.010782 0.047587
v -0.039633 0.010394 0.041542
v 0.012778 -0.000000 0.054816
v 0.023276 -0.000000 0.051508
v 0.001620 -0.000000 0.056100
v -0.009729 -0.000000 0.055419
v -0.020801 -0.000000 0.052834
v -0.031129 -0.000000 0.048420
v -0.040247 -0.000000 0.042255
v 0.012572 -0.010783 0.053885
v 0.022891 -0.010395 0.050649
v 0.001589 -0.011160 0.055140
v -0.009590 -0.011329 0.054467
v -0.020497 -0.011160 0.051923
v -0.030666 -0.010783 0.047587
v -0.039633 -0.010395 0.041542
v 0.012166 -0.021054 0.051171
v 0.021958 -0.020177 0.048232
v 0.001623 -0.021847 0.052290
v -0.009175 -0.022185 0.051618
v -0.019717 -0.021847 0.049182
v -0.029502 -0.021054 0.045101
v -0.038049 -0.020177 0.039492
v 0.011920 -0.030320 0.046770
v 0.020921 -0.028752 0.044470
v 0.001915 -0.031592 0.047594
v -0.008485 -0.032097 0.046881
v -0.018657 -0.031592 0.044597
v -0.028011 -0.030320 0.040954
v -0.035982 -0.028752 0.036181
vn -0.0765 0.9821 -0.1723
vn 0.1207 -0.0000 -0.9927
vn 0.1150 0.9830 -0.1433
vn 0.1033 0.9939 -0.0388
vn -0.0909 0.9939 -0.0632
vn 0.3030 0.9460 -0.1147
vn 0.2939 0.9557 -0.0149
vn 0.4805 0.8726 -0.0878
vn 0.4734 0.8808 0.0077
vn 0.6405 0.7654 -0.0635
vn 0.6349 0.7721 0.0279
vn 0.7766 0.6285 -0.0428
vn 0.7723 0.6337 0.0452
vn 0.8837 0.4672 -0.0265
vn 0.8803 0.4709 0.0588
vn 0.9576 0.2878 -0.0153
vn 0.9546 0.2900 0.0681
vn 0.9952 0.0972 -0.0096
vn 0.9925 0.0979 0.0728
vn 0.9952 -0.0972 -0.0096
vn 0.9925 -0.0979 0.0728
vn 0.9576 -0.2878 -0.0153
vn 0.9546 -0.2900 0.0681
vn 0.8837 -0.4672 -0.0265
vn 0.8803 -0.4709 0.0588
vn 0.7766 -0.6285 -0.0428
vn 0.7723 -0.6337 0.0452
vn 0.6405 -0.7654 -0.0635
vn 0.6349 -0.7721 0.0279
vn 0.4805 -0.8726 -0.0878
vn 0.4734 -0.8808 0.0077
vn 0.3030 -0.9460 -0.1147
vn 0.2939 -0.9557 -0.0149
vn 0.1150 -0.9830 -0.1433
vn 0.1033 -0.9939 -0.0388
vn -0.0765 -0.9821 -0.1723
vn -0.0909 -0.9939 -0.0632
vn -0.2639 -0.9434 -0.2008
vn -0.2814 -0.9556 -0.0871
vn -0.4401 -0.8687 -0.2275
vn -0.4609 -0.8807 -0.1096
vn -0.5983 -0.7607 -0.2515
vn -0.6223 -0.7719 -0.1299
vn -0.7327 -0.6239 -0.2719
vn -0.7597 -0.6335 -0.1472
vn -0.8381 -0.4633 -0.2879
vn -0.8675 -0.4707 -0.1607
vn -0.9107 -0.2852 -0.2989
vn -0.9419 -0.2898 -0.1700
vn -0.9476 -0.0963 -0.3045
vn -0.9797 -0.0979 -0.1748
vn -0.9476 0.0963 -0.3045
vn -0.9797 0.0979 -0.1748
vn -0.9107 0.2852 -0.2989
vn -0.9419 0.2898 -0.1700
vn -0.8381 0.4633 -0.2879
vn -0.8675 0.4707 -0.1607
vn -0.7327 0.6239 -0.2719
vn -0.7597 0.6335 -0.1472
vn -0.5983 0.7607 -0.2515
vn -0.6223 0.7719 -0.1299
vn -0.4401 0.8687 -0.2275
vn -0.4609 0.8807 -0.1096
vn -0.2639 0.9434 -0.2008
vn -0.2814 0.9556 -0.0871
vn -0.2682 0.9473 -0.1752
vn -0.4459 0.8728 -0.1983
vn -0.0794 0.9854 -0.1506
vn -0.0771 0.9828 -0.1678
vn -0.2653 0.9448 -0.1923
vn 0.1131 0.9856 -0.1256
vn 0.1149 0.9831 -0.1428
vn 0.1017 0.9945 -0.0253
vn -0.0925 0.9944 -0.0506
vn 0.0852 0.9906 0.1074
vn -0.1080 0.9910 0.0797
vn 0.0635 0.9627 0.2631
vn -0.1243 0.9637 0.2363
vn -0.2977 0.9532 0.0524
vn -0.3090 0.9276 0.2100
vn -0.4764 0.8788 0.0268
vn -0.4833 0.8557 0.1852
vn -0.6374 0.7705 0.0036
vn -0.6404 0.7506 0.1628
vn -0.7744 0.6325 -0.0161
vn -0.7742 0.6165 0.1437
vn -0.8821 0.4701 -0.0315
vn -0.8794 0.4583 0.1287
vn -0.9562 0.2895 -0.0422
vn -0.9520 0.2823 0.1184
vn -0.9941 0.0978 -0.0476
vn -0.9890 0.0954 0.1131
vn -0.9941 -0.0978 -0.0476
vn -0.9890 -0.0954 0.1131
vn -0.9562 -0.2895 -0.0422
vn -0.9520 -0.2823 0.1184
vn -0.8821 -0.4701 -0.0315
vn -0.8794 -0.4583 0.1287
vn -0.7744 -0.6325 -0.0161
vn -0.7742 -0.6165 0.1437
vn -0.6374 -0.7705 0.0036
vn -0.6404 -0.7506 0.1628
vn -0.4764 -0.8788 0.0268
vn -0.4833 -0.8557 0.1852
vn -0.2977 -0.9532 0.0524
vn -0.3090 -0.9276 0.2100
vn -0.1080 -0.9910 0.0797
vn -0.1243 -0.9637 0.2363
vn 0.0852 -0.9906 0.1074
vn 0.0635 -0.9627 0.2631
vn 0.2746 -0.9521 0.1346
vn 0.2474 -0.9247 0.2893
vn 0.4528 -0.8771 0.1602
vn 0.4203 -0.8514 0.3139
vn 0.6131 -0.7685 0.1833
vn 0.5755 -0.7456 0.3360
vn 0.7492 -0.6305 0.2028
vn 0.7073 -0.6114 0.3548
vn 0.8562 -0.4684 0.2182
vn 0.8108 -0.4540 0.3695
vn 0.9298 -0.2884 0.2288
vn 0.8819 -0.2795 0.3796
vn 0.9673 -0.0974 0.2341
vn 0.9182 -0.0943 0.3848
vn 0.9673 0.0974 0.2341
vn 0.9182 0.0943 0.3848
vn 0.9298 0.2884 0.2288
vn 0.8819 0.2795 0.3796
vn 0.8562 0.4684 0.2182
vn 0.8108 0.4540 0.3695
vn 0.7492 0.6305 0.2028
vn 0.7073 0.6114 0.3548
vn 0.6131 0.7685 0.1833
vn 0.5755 0.7456 0.3360
vn 0.4528 0.8771 0.1602
vn 0.4203 0.8514 0.3139
vn 0.2746 0.9521 0.1346
vn 0.2474 0.9247 0.2893
vn -0.1207 -0.0000 0.9927
vn 0.4718 0.8814 0.0230
vn 0.2923 0.9563 -0.0004
vn 0.4809 0.8716 -0.0952
vn 0.3033 0.9455 -0.1183
vn 0.6408 0.7641 -0.0744
vn 0.6334 0.7726 0.0440
vn 0.7768 0.6272 -0.0567
vn 0.7708 0.6341 0.0619
vn 0.8837 0.4661 -0.0427
vn 0.8788 0.4712 0.0760
vn 0.9573 0.2871 -0.0332
vn 0.9531 0.2902 0.0857
vn 0.9949 0.0969 -0.0283
vn 0.9911 0.0980 0.0906
vn 0.9949 -0.0969 -0.0283
vn 0.9911 -0.0980 0.0906
vn 0.9573 -0.2871 -0.0332
vn 0.9531 -0.2902 0.0857
vn 0.8837 -0.4661 -0.0427
vn 0.8788 -0.4712 0.0760
vn 0.7768 -0.6272 -0.0567
vn 0.7708 -0.6341 0.0619
vn 0.6408 -0.7641 -0.0744
vn 0.6334 -0.7726 0.0440
vn 0.4809 -0.8716 -0.0952
vn 0.4718 -0.8814 0.0230
vn 0.3033 -0.9455 -0.1183
vn 0.2923 -0.9563 -0.0004
vn 0.1149 -0.9831 -0.1428
vn 0.1017 -0.9945 -0.0253
vn -0.0771 -0.9828 -0.1678
vn -0.0925 -0.9944 -0.0506
vn -0.2653 -0.9448 -0.1923
vn -0.2830 -0.9561 -0.0754
vn -0.4425 -0.8705 -0.2153
vn -0.4624 -0.8811 -0.0988
vn -0.6020 -0.7628 -0.2361
vn -0.6239 -0.7723 -0.1198
vn -0.7375 -0.6259 -0.2537
vn -0.7612 -0.6338 -0.1377
vn -0.8439 -0.4650 -0.2676
vn -0.8690 -0.4709 -0.1518
vn -0.9172 -0.2863 -0.2771
vn -0.9433 -0.2900 -0.1615
vn -0.9545 -0.0967 -0.2820
vn -0.9812 -0.0979 -0.1664
vn -0.9545 0.0967 -0.2820
vn -0.9812 0.0979 -0.1664
vn -0.9172 0.2863 -0.2771
vn -0.9433 0.2900 -0.1615
vn -0.8439 0.4650 -0.2676
vn -0.8690 0.4709 -0.1518
vn -0.7375 0.6259 -0.2537
vn -0.7612 0.6338 -0.1377
vn -0.6020 0.7628 -0.2361
vn -0.6239 0.7723 -0.1198
vn -0.4425 0.8705 -0.2153
vn -0.4624 0.8811 -0.0988
vn -0.2830 0.9561 -0.0754
vn -0.6057 0.7649 -0.2192
vn -0.7416 0.6276 -0.2368
vn -0.8483 0.4663 -0.2507
vn -0.9218 0.2871 -0.2603
vn -0.9593 0.0969 -0.2652
vn -0.9593 -0.0969 -0.2652
vn -0.9218 -0.2871 -0.2603
vn -0.8483 -0.4663 -0.2507
vn -0.7416 -0.6276 -0.2368
vn -0.6057 -0.7649 -0.2192
vn -0.4459 -0.8728 -0.1983
vn -0.2682 -0.9473 -0.1752
vn -0.0794 -0.9854 -0.1506
vn 0.1131 -0.9856 -0.1256
vn 0.3020 -0.9480 -0.1010
vn 0.4800 -0.8738 -0.0778
vn 0.6402 -0.7661 -0.0570
vn 0.7766 -0.6288 -0.0392
vn 0.8837 -0.4673 -0.0253
vn 0.9576 -0.2878 -0.0156
vn 0.9952 -0.0972 -0.0107
vn 0.9952 0.0972 -0.0107
vn 0.9576 0.2878 -0.0156
vn 0.8837 0.4673 -0.0253
vn 0.7766 0.6288 -0.0392
vn 0.6402 0.7661 -0.0570
vn 0.4800 0.8738 -0.0778
vn 0.3020 0.9480 -0.1010
vn -0.7413 -0.4151 -0.5274
vn -0.8212 -0.4278 -0.3776
vn -0.8744 -0.4340 -0.2169
vn -0.9000 -0.4340 -0.0415
vn -0.8948 -0.4278 0.1276
vn -0.8610 -0.4151 0.2940
vn -0.7963 -0.2552 -0.5484
vn -0.8850 -0.2567 -0.3883
vn -0.9402 -0.2564 -0.2244
vn -0.9651 -0.2564 -0.0532
vn -0.9590 -0.2567 0.1197
vn -0.9197 -0.2552 0.2984
vn -0.8246 -0.0886 -0.5587
vn -0.9157 -0.0865 -0.3925
vn -0.9702 -0.0848 -0.2271
vn -0.9946 -0.0848 -0.0591
vn -0.9896 -0.0865 0.1150
vn -0.9498 -0.0886 0.3002
vn -0.8246 0.0886 -0.5587
vn -0.9157 0.0865 -0.3925
vn -0.9702 0.0848 -0.2271
vn -0.9946 0.0848 -0.0591
vn -0.9896 0.0865 0.1150
vn -0.9498 0.0886 0.3002
vn -0.7963 0.2552 -0.5484
vn -0.8850 0.2567 -0.3883
vn -0.9402 0.2564 -0.2244
vn -0.9651 0.2564 -0.0532
vn -0.9590 0.2567 0.1197
vn -0.9197 0.2552 0.2984
vn -0.7413 0.4151 -0.5274
vn -0.8212 0.4278 -0.3776
vn -0.8744 0.4340 -0.2169
vn -0.9000 0.4340 -0.0415
vn -0.8948 0.4278 0.1276
vn -0.8610 0.4151 0.2940
vn -0.5743 -0.5325 -0.6218
vn -0.6494 -0.5734 -0.4995
vn -0.7136 -0.6011 -0.3598
vn -0.7613 -0.6161 -0.2020
vn -0.7873 -0.6161 -0.0236
vn -0.7866 -0.6011 0.1413
vn -0.7649 -0.5734 0.2935
vn -0.7278 -0.5325 0.4321
vn -0.7898 -0.4007 0.4644
vn -0.8367 -0.2532 0.4856
vn -0.8631 -0.0901 0.4969
vn -0.8631 0.0901 0.4969
vn -0.8367 0.2532 0.4856
vn -0.7898 0.4007 0.4644
vn -0.7278 0.5325 0.4321
vn -0.7649 0.5734 0.2935
vn -0.7866 0.6011 0.1413
vn -0.7873 0.6161 -0.0236
vn -0.7613 0.6161 -0.2020
vn -0.7136 0.6011 -0.3598
vn -0.6494 0.5734 -0.4995
vn -0.5743 0.5325 -0.6218
vn -0.6245 0.4007 -0.6704
vn -0.6634 0.2532 -0.7041
vn -0.6855 0.0901 -0.7225
vn -0.6855 -0.0901 -0.7225
vn -0.6634 -0.2532 -0.7041
vn -0.6245 -0.4007 -0.6704
vn -0.3509 0.8096 -0.4705
vn -0.3866 0.8671 -0.3143
vn -0.4166 0.8966 -0.1503
vn -0.4422 0.8966 0.0252
vn -0.4602 0.8671 0.1909
vn -0.4705 0.8096 0.3509
vn -0.1909 0.8671 -0.4602
vn -0.2170 0.9318 -0.2910
vn -0.2413 0.9627 -0.1226
vn -0.2662 0.9627 0.0487
vn -0.2911 0.9318 0.2170
vn -0.3143 0.8671 0.3866
vn -0.0252 0.8966 -0.4422
vn -0.0487 0.9627 -0.2662
vn -0.0717 0.9928 -0.0962
vn -0.0962 0.9928 0.0717
vn -0.1226 0.9627 0.2413
vn -0.1503 0.8966 0.4166
vn 0.1503 0.8966 -0.4167
vn 0.1226 0.9627 -0.2412
vn 0.0962 0.9928 -0.0717
vn 0.0717 0.9928 0.0962
vn 0.0487 0.9627 0.2662
vn 0.0252 0.8966 0.4422
vn 0.3143 0.8671 -0.3866
vn 0.2910 0.9318 -0.2170
vn 0.2662 0.9627 -0.0487
vn 0.2412 0.9627 0.1226
vn 0.2170 0.9318 0.2910
vn 0.1909 0.8671 0.4602
vn 0.4705 0.8096 -0.3509
vn 0.4602 0.8671 -0.1909
vn 0.4422 0.8966 -0.0252
vn 0.4166 0.8966 0.1503
vn 0.3866 0.8671 0.3142
vn 0.3509 0.8096 0.4705
vn -0.4502 0.6579 -0.6037
vn -0.5097 0.7146 -0.4791
vn -0.5583 0.7580 -0.3372
vn -0.5967 0.7825 -0.1780
vn -0.6227 0.7825 0.0004
vn -0.6313 0.7580 0.1639
vn -0.6252 0.7146 0.3138
vn -0.6037 0.6579 0.4502
vn -0.4791 0.7146 0.5097
vn -0.3372 0.7580 0.5583
vn -0.1780 0.7825 0.5967
vn 0.0004 0.7825 0.6227
vn 0.1639 0.7580 0.6313
vn 0.3138 0.7146 0.6252
vn 0.4502 0.6579 0.6037
vn 0.5097 0.7146 0.4792
vn 0.5583 0.7580 0.3372
vn 0.5967 0.7825 0.1780
vn 0.6227 0.7825 -0.0004
vn 0.6313 0.7580 -0.1639
vn 0.6252 0.7146 -0.3138
vn 0.6037 0.6579 -0.4502
vn 0.4791 0.7146 -0.5097
vn 0.3372 0.7580 -0.5583
vn 0.1780 0.7825 -0.5967
vn -0.0004 0.7825 -0.6227
vn -0.1639 0.7580 -0.6313
vn -0.3138 0.7146 -0.6252
vn 0.8610 0.4151 -0.2940
vn 0.8948 0.4278 -0.1276
vn 0.9000 0.4340 0.0415
vn 0.8744 0.4340 0.2169
vn 0.8212 0.4278 0.3776
vn 0.7413 0.4151 0.5274
vn 0.9197 0.2552 -0.2984
vn 0.9590 0.2567 -0.1197
vn 0.9651 0.2564 0.0532
vn 0.9402 0.2564 0.2244
vn 0.8850 0.2567 0.3883
vn 0.7963 0.2552 0.5484
vn 0.9498 0.0886 -0.3002
vn 0.9896 0.0865 -0.1150
vn 0.9946 0.0848 0.0591
vn 0.9702 0.0848 0.2271
vn 0.9157 0.0865 0.3925
vn 0.8247 0.0886 0.5587
vn 0.9498 -0.0886 -0.3002
vn 0.9896 -0.0865 -0.1150
vn 0.9946 -0.0848 0.0591
vn 0.9702 -0.0848 0.2271
vn 0.9157 -0.0865 0.3925
vn 0.8246 -0.0886 0.5587
vn 0.9197 -0.2552 -0.2984
vn 0.9590 -0.2567 -0.1197
vn 0.9651 -0.2564 0.0532
vn 0.9402 -0.2564 0.2244
vn 0.8850 -0.2567 0.3884
vn 0.7963 -0.2552 0.5484
vn 0.8610 -0.4151 -0.2940
vn 0.8948 -0.4278 -0.1276
vn 0.9000 -0.4340 0.0415
vn 0.8744 -0.4340 0.2169
vn 0.8212 -0.4278 0.3776
vn 0.7413 -0.4151 0.5274
vn 0.7278 0.5325 -0.4321
vn 0.7649 0.5734 -0.2935
vn 0.7866 0.6011 -0.1413
vn 0.7873 0.6161 0.0236
vn 0.7613 0.6162 0.2020
vn 0.7136 0.6011 0.3598
vn 0.6494 0.5734 0.4995
vn 0.5743 0.5325 0.6218
vn 0.6245 0.4007 0.6704
vn 0.6634 0.2532 0.7041
vn 0.6855 0.0901 0.7225
vn 0.6855 -0.0901 0.7225
vn 0.6634 -0.2532 0.7041
vn 0.6245 -0.4007 0.6704
vn 0.5743 -0.5325 0.6218
vn 0.6494 -0.5734 0.4995
vn 0.7136 -0.6011 0.3598
vn 0.7613 -0.6161 0.2020
vn 0.7873 -0.6161 0.0236
vn 0.7866 -0.6011 -0.1413
vn 0.7649 -0.5734 -0.2935
vn 0.7278 -0.5325 -0.4321
vn 0.7898 -0.4007 -0.4644
vn 0.8367 -0.2532 -0.4856
vn 0.8631 -0.0901 -0.4969
vn 0.8631 0.0901 -0.4969
vn 0.8367 0.2532 -0.4856
vn 0.7898 0.4007 -0.4644
vn 0.4705 -0.8096 -0.3509
vn 0.4602 -0.8671 -0.1909
vn 0.4422 -0.8966 -0.0252
vn 0.4166 -0.8966 0.1503
vn 0.3866 -0.8671 0.3142
vn 0.3509 -0.8096 0.4705
vn 0.3142 -0.8671 -0.3866
vn 0.2910 -0.9318 -0.2170
vn 0.2662 -0.9627 -0.0487
vn 0.2413 -0.9627 0.1226
vn 0.2170 -0.9318 0.2910
vn 0.1909 -0.8671 0.4602
vn 0.1503 -0.8966 -0.4167
vn 0.1226 -0.9627 -0.2412
vn 0.0962 -0.9928 -0.0717
vn 0.0717 -0.9928 0.0962
vn 0.0487 -0.9627 0.2662
vn 0.0252 -0.8966 0.4422
vn -0.0251 -0.8966 -0.4422
vn -0.0487 -0.9627 -0.2662
vn -0.0717 -0.9928 -0.0962
vn -0.0962 -0.9928 0.0717
vn -0.1226 -0.9627 0.2413
vn -0.1503 -0.8966 0.4166
vn -0.1909 -0.8671 -0.4602
vn -0.2170 -0.9318 -0.2910
vn -0.2413 -0.9627 -0.1226
vn -0.2662 -0.9627 0.0487
vn -0.2910 -0.9318 0.2170
vn -0.3143 -0.8671 0.3866
vn -0.3509 -0.8096 -0.4705
vn -0.3866 -0.8671 -0.3142
vn -0.4166 -0.8966 -0.1503
vn -0.4422 -0.8966 0.0252
vn -0.4602 -0.8671 0.1909
vn -0.4705 -0.8096 0.3509
vn 0.6037 -0.6579 -0.4502
vn 0.6252 -0.7146 -0.3138
vn 0.6313 -0.7580 -0.1639
vn 0.6227 -0.7825 -0.0004
vn 0.5967 -0.7825 0.1780
vn 0.5583 -0.7580 0.3372
vn 0.5097 -0.7146 0.4791
vn 0.4502 -0.6579 0.6037
vn 0.3138 -0.7146 0.6252
vn 0.1639 -0.7580 0.6313
vn 0.0004 -0.7825 0.6227
vn -0.1780 -0.7825 0.5967
vn -0.3372 -0.7580 0.5583
vn -0.4792 -0.7146 0.5097
vn -0.6037 -0.6579 0.4502
vn -0.6252 -0.7146 0.3138
vn -0.6313 -0.7580 0.1639
vn -0.6227 -0.7825 0.0004
vn -0.5967 -0.7825 -0.1780
vn -0.5583 -0.7580 -0.3372
vn -0.5097 -0.7146 -0.4791
vn -0.4502 -0.6579 -0.6037
vn -0.3138 -0.7146 -0.6252
vn -0.1639 -0.7580 -0.6313
vn -0.0004 -0.7825 -0.6227
vn 0.1780 -0.7825 -0.5967
vn 0.3372 -0.7580 -0.5583
vn 0.4792 -0.7146 -0.5097
vn -0.2940 0.4151 -0.8610
vn -0.1276 0.4279 -0.8948
vn 0.0415 0.4340 -0.9000
vn 0.2169 0.4340 -0.8744
vn 0.3776 0.4279 -0.8212
vn 0.5274 0.4151 -0.7413
vn -0.2984 0.2552 -0.9197
vn -0.1197 0.2567 -0.9590
vn 0.0532 0.2564 -0.9651
vn 0.2244 0.2564 -0.9402
vn 0.3883 0.2567 -0.8850
vn 0.5484 0.2553 -0.7963
vn -0.3002 0.0886 -0.9498
vn -0.1150 0.0865 -0.9896
vn 0.0591 0.0848 -0.9946
vn 0.2271 0.0848 -0.9702
vn 0.3925 0.0865 -0.9157
vn 0.5587 0.0886 -0.8246
vn -0.3002 -0.0886 -0.9498
vn -0.1150 -0.0865 -0.9896
vn 0.0591 -0.0848 -0.9946
vn 0.2271 -0.0848 -0.9702
vn 0.3925 -0.0865 -0.9157
vn 0.5586 -0.0886 -0.8247
vn -0.2984 -0.2552 -0.9197
vn -0.1197 -0.2567 -0.9590
vn 0.0532 -0.2564 -0.9651
vn 0.2244 -0.2564 -0.9402
vn 0.3884 -0.2567 -0.8850
vn 0.5484 -0.2552 -0.7963
vn -0.2940 -0.4151 -0.8610
vn -0.1276 -0.4278 -0.8948
vn 0.0415 -0.4340 -0.9000
vn 0.2169 -0.4340 -0.8744
vn 0.3776 -0.4278 -0.8212
vn 0.5274 -0.4151 -0.7413
vn -0.4321 0.5325 -0.7278
vn -0.2935 0.5734 -0.7649
vn -0.1413 0.6011 -0.7866
vn 0.0236 0.6162 -0.7873
vn 0.2020 0.6162 -0.7613
vn 0.3598 0.6011 -0.7136
vn 0.4995 0.5734 -0.6494
vn 0.6218 0.5325 -0.5743
vn 0.6704 0.4007 -0.6245
vn 0.7041 0.2532 -0.6634
vn 0.7225 0.0901 -0.6855
vn 0.7225 -0.0901 -0.6855
vn 0.7041 -0.2532 -0.6634
vn 0.6704 -0.4007 -0.6245
vn 0.6218 -0.5325 -0.5743
vn 0.4995 -0.5734 -0.6494
vn 0.3598 -0.6011 -0.7136
vn 0.2020 -0.6162 -0.7613
vn 0.0236 -0.6162 -0.7873
vn -0.1413 -0.6011 -0.7866
vn -0.2935 -0.5734 -0.7649
vn -0.4321 -0.5325 -0.7278
vn -0.4644 -0.4007 -0.7898
vn -0.4856 -0.2532 -0.8367
vn -0.4969 -0.0901 -0.8631
vn -0.4969 0.0901 -0.8631
vn -0.4856 0.2532 -0.8367
vn -0.4644 0.4007 -0.7898
vn 0.2940 0.4151 0.8610
vn 0.1276 0.4278 0.8948
vn -0.0415 0.4340 0.9000
vn -0.2169 0.4340 0.8744
vn -0.3776 0.4279 0.8212
vn -0.5274 0.4151 0.7413
vn 0.2984 0.2552 0.9197
vn 0.1197 0.2567 0.9590
vn -0.0531 0.2564 0.9651
vn -0.2244 0.2564 0.9402
vn -0.3883 0.2567 0.8850
vn -0.5484 0.2552 0.7963
vn 0.3002 0.0886 0.9498
vn 0.1149 0.0865 0.9896
vn -0.0591 0.0848 0.9946
vn -0.2271 0.0848 0.9702
vn -0.3925 0.0865 0.9157
vn -0.5587 0.0886 0.8246
vn 0.3002 -0.0886 0.9498
vn 0.1149 -0.0865 0.9896
vn -0.0591 -0.0848 0.9946
vn -0.2271 -0.0848 0.9702
vn -0.3925 -0.0865 0.9157
vn -0.5587 -0.0886 0.8247
vn 0.2984 -0.2553 0.9197
vn 0.1197 -0.2567 0.9590
vn -0.0531 -0.2564 0.9651
vn -0.2244 -0.2564 0.9402
vn -0.3884 -0.2567 0.8850
vn -0.5484 -0.2553 0.7963
vn 0.2940 -0.4151 0.8610
vn 0.1276 -0.4278 0.8948
vn -0.0415 -0.4340 0.9000
vn -0.2169 -0.4340 0.8744
vn -0.3776 -0.4278 0.8212
vn -0.5274 -0.4151 0.7413
vn 0.4321 0.5325 0.7278
vn 0.2935 0.5734 0.7649
vn 0.1413 0.6011 0.7866
vn -0.0236 0.6162 0.7873
vn -0.2020 0.6161 0.7613
vn -0.3598 0.6011 0.7136
vn -0.4995 0.5734 0.6494
vn -0.6218 0.5325 0.5743
vn -0.6704 0.4007 0.6245
vn -0.7041 0.2532 0.6634
vn -0.7225 0.0901 0.6855
vn -0.7225 -0.0901 0.6855
vn -0.7041 -0.2532 0.6634
vn -0.6704 -0.4007 0.6245
vn -0.6218 -0.5325 0.5743
vn -0.4995 -0.5734 0.6494
vn -0.3598 -0.6011 0.7136
vn -0.2020 -0.6162 0.7613
vn -0.0236 -0.6162 0.7873
vn 0.1413 -0.6011 0.7866
vn 0.2935 -0.5734 0.7649
vn 0.4321 -0.5325 0.7278
vn 0.4644 -0.4007 0.7898
vn 0.4856 -0.2532 0.8367
vn 0.4969 -0.0901 0.8631
vn 0.4969 0.0901 0.8631
vn 0.4856 0.2532 0.8367
vn 0.4644 0.4007 0.7898
vt 0.239047 0.508839
vt 0.240237 0.503663
vt 0.255726 0.506634
vt 0.254505 0.512164
vt 0.971884 0.991133
vt 0.966423 0.980916
vt 0.968689 0.979402
vt 0.976038 0.988357
vt 0.237721 0.513959
vt 0.253180 0.517727
vt 0.967268 0.993045
vt 0.963906 0.981959
vt 0.318442 0.531359
vt 0.319905 0.525127
vt 0.321258 0.518840
vt 0.239320 0.349074
vt 0.238115 0.343908
vt 0.253474 0.339631
vt 0.254675 0.345223
vt 0.320186 0.332734
vt 0.318824 0.326476
vt 0.240405 0.354267
vt 0.255777 0.350798
vt 0.321446 0.339053
vt 0.241387 0.359483
vt 0.256788 0.356365
vt 0.322603 0.345409
vt 0.242280 0.364718
vt 0.257713 0.361932
vt 0.323662 0.351792
vt 0.243093 0.369969
vt 0.258557 0.367499
vt 0.324627 0.358193
vt 0.243834 0.375231
vt 0.259324 0.373069
vt 0.325503 0.364607
vt 0.244507 0.380502
vt 0.260015 0.378642
vt 0.326293 0.371028
vt 0.245088 0.385789
vt 0.260652 0.384217
vt 0.326974 0.377457
vt 0.245606 0.391094
vt 0.261218 0.389798
vt 0.327574 0.383889
vt 0.246062 0.396414
vt 0.261716 0.395384
vt 0.328095 0.390322
vt 0.246457 0.401748
vt 0.262146 0.400974
vt 0.328539 0.396756
vt 0.246789 0.407094
vt 0.262508 0.406565
vt 0.328907 0.403190
vt 0.247057 0.412451
vt 0.262801 0.412156
vt 0.329200 0.409625
vt 0.247259 0.417819
vt 0.263025 0.417746
vt 0.329417 0.416060
vt 0.247393 0.423196
vt 0.263178 0.423335
vt 0.329558 0.422497
vt 0.247456 0.428581
vt 0.263258 0.428921
vt 0.329620 0.428934
vt 0.247447 0.433974
vt 0.263263 0.434504
vt 0.329603 0.435373
vt 0.247363 0.439372
vt 0.263192 0.440083
vt 0.329505 0.441814
vt 0.247202 0.444777
vt 0.263042 0.445659
vt 0.329323 0.448257
vt 0.246961 0.450185
vt 0.262813 0.451231
vt 0.329056 0.454701
vt 0.246639 0.455596
vt 0.262504 0.456800
vt 0.328699 0.461145
vt 0.246235 0.461009
vt 0.262114 0.462366
vt 0.328251 0.467589
vt 0.245748 0.466425
vt 0.261643 0.467929
vt 0.327709 0.474032
vt 0.245225 0.471835
vt 0.261060 0.473483
vt 0.327100 0.480474
vt 0.244619 0.477218
vt 0.260394 0.479025
vt 0.326391 0.486910
vt 0.243927 0.482572
vt 0.259642 0.484558
vt 0.325578 0.493336
vt 0.243148 0.487897
vt 0.258803 0.490083
vt 0.324660 0.499748
vt 0.242277 0.493189
vt 0.257872 0.495600
vt 0.323635 0.506141
vt 0.241309 0.498445
vt 0.256847 0.501116
vt 0.322502 0.512507
vt 0.357787 0.519218
vt 0.356415 0.526335
vt 0.358992 0.512128
vt 0.354854 0.533469
vt 0.391729 0.532683
vt 0.390544 0.540917
vt 0.392728 0.524660
vt 0.353083 0.540596
vt 0.389107 0.549387
vt 0.407624 0.542667
vt 0.407032 0.551571
vt 0.408190 0.534149
vt 0.431165 0.542303
vt 0.431649 0.550898
vt 0.430906 0.534013
vt 0.456056 0.539389
vt 0.456937 0.546867
vt 0.455430 0.531919
vt 0.408719 0.525925
vt 0.430796 0.525958
vt 0.454994 0.524473
vt 0.409211 0.517926
vt 0.430787 0.518084
vt 0.454697 0.517055
vt 0.409665 0.510101
vt 0.430842 0.510354
vt 0.454497 0.509670
vt 0.410080 0.502414
vt 0.430938 0.502738
vt 0.454364 0.502320
vt 0.410456 0.494838
vt 0.431056 0.495215
vt 0.454273 0.495007
vt 0.410792 0.487350
vt 0.431184 0.487767
vt 0.454207 0.487734
vt 0.411087 0.479934
vt 0.431315 0.480381
vt 0.454154 0.480504
vt 0.411296 0.472571
vt 0.431406 0.473036
vt 0.454257 0.473289
vt 0.411462 0.465253
vt 0.431486 0.465718
vt 0.454361 0.466050
vt 0.411583 0.457972
vt 0.431546 0.458419
vt 0.454455 0.458790
vt 0.411659 0.450719
vt 0.431581 0.451132
vt 0.454528 0.451510
vt 0.411690 0.443487
vt 0.431585 0.443853
vt 0.454576 0.444214
vt 0.411677 0.436270
vt 0.431560 0.436579
vt 0.454596 0.436904
vt 0.411622 0.429065
vt 0.431504 0.429306
vt 0.454589 0.429582
vt 0.411528 0.421865
vt 0.431421 0.422032
vt 0.454556 0.422249
vt 0.411399 0.414665
vt 0.431314 0.414753
vt 0.454502 0.414907
vt 0.411237 0.407459
vt 0.431188 0.407465
vt 0.454432 0.407558
vt 0.411047 0.400242
vt 0.431049 0.400165
vt 0.454353 0.400201
vt 0.410832 0.393004
vt 0.430902 0.392847
vt 0.454273 0.392838
vt 0.410598 0.385739
vt 0.430755 0.385506
vt 0.454200 0.385466
vt 0.410347 0.378435
vt 0.430615 0.378135
vt 0.454146 0.378085
vt 0.410084 0.371080
vt 0.430489 0.370725
vt 0.454122 0.370692
vt 0.409811 0.363661
vt 0.430386 0.363268
vt 0.454139 0.363284
vt 0.409584 0.356159
vt 0.430360 0.355760
vt 0.454063 0.355882
vt 0.409356 0.348549
vt 0.430389 0.348188
vt 0.454084 0.348528
vt 0.409131 0.340803
vt 0.430502 0.340533
vt 0.454234 0.341214
vt 0.408918 0.332881
vt 0.430731 0.332768
vt 0.454548 0.333931
vt 0.408725 0.324732
vt 0.431115 0.324860
vt 0.455068 0.326676
vt 0.408561 0.316285
vt 0.431705 0.316767
vt 0.455844 0.319445
vt 0.408442 0.307452
vt 0.432562 0.308447
vt 0.456937 0.312273
vt 0.923784 0.390781
vt 0.911693 0.380858
vt 0.913728 0.377813
vt 0.927522 0.385187
vt 0.919026 0.395539
vt 0.909104 0.383448
vt 0.897253 0.369008
vt 0.902676 0.386884
vt 0.906059 0.385482
vt 0.913432 0.399277
vt 0.899084 0.387598
vt 0.895422 0.387598
vt 0.915843 0.370839
vt 0.915129 0.374430
vt 0.915129 0.363585
vt 0.915843 0.367177
vt 0.885402 0.354568
vt 0.880778 0.360202
vt 0.882813 0.357157
vt 0.878663 0.367177
vt 0.879377 0.363585
vt 0.911693 0.357157
vt 0.913728 0.360202
vt 0.879377 0.374430
vt 0.878663 0.370839
vt 0.906059 0.352533
vt 0.909104 0.354567
vt 0.882813 0.380858
vt 0.880778 0.377813
vt 0.899084 0.350417
vt 0.902676 0.351132
vt 0.888447 0.385482
vt 0.885402 0.383448
vt 0.891830 0.386884
vt 0.891830 0.351132
vt 0.888447 0.352533
vt 0.895422 0.350417
vt 0.900617 0.334851
vt 0.893889 0.334851
vt 0.907216 0.336164
vt 0.913432 0.338739
vt 0.887290 0.336164
vt 0.875480 0.342477
vt 0.870722 0.347234
vt 0.881074 0.338739
vt 0.866984 0.352828
vt 0.893889 0.403164
vt 0.900617 0.403164
vt 0.887290 0.401851
vt 0.881074 0.399277
vt 0.907216 0.401851
vt 0.875480 0.395539
vt 0.870722 0.390781
vt 0.866984 0.385187
vt 0.864409 0.378971
vt 0.919026 0.342477
vt 0.923784 0.347234
vt 0.863097 0.372372
vt 0.863097 0.365643
vt 0.927522 0.352828
vt 0.930097 0.359045
vt 0.864409 0.359045
vt 0.931409 0.365643
vt 0.931409 0.372372
vt 0.930097 0.378971
vt 0.392329 0.325836
vt 0.391482 0.317554
vt 0.390420 0.308946
vt 0.356763 0.331677
vt 0.355371 0.324465
vt 0.353769 0.317215
vt 0.357978 0.338848
vt 0.393032 0.333864
vt 0.359043 0.345974
vt 0.393634 0.341690
vt 0.359980 0.353054
vt 0.394160 0.349355
vt 0.360808 0.360091
vt 0.394627 0.356891
vt 0.361539 0.367087
vt 0.395045 0.364324
vt 0.362167 0.374051
vt 0.395454 0.371674
vt 0.362717 0.380984
vt 0.395826 0.378960
vt 0.363195 0.387891
vt 0.396161 0.386193
vt 0.363604 0.394776
vt 0.396460 0.393387
vt 0.363947 0.401643
vt 0.396720 0.400550
vt 0.364224 0.408498
vt 0.396942 0.407691
vt 0.364435 0.415343
vt 0.397122 0.414819
vt 0.364580 0.422183
vt 0.397258 0.421938
vt 0.364655 0.429022
vt 0.397347 0.429056
vt 0.364661 0.435862
vt 0.397386 0.436178
vt 0.364593 0.442707
vt 0.397373 0.443310
vt 0.364448 0.449560
vt 0.397305 0.450457
vt 0.364223 0.456426
vt 0.397180 0.457626
vt 0.363914 0.463306
vt 0.396995 0.464823
vt 0.363516 0.470204
vt 0.396749 0.472055
vt 0.363023 0.477123
vt 0.396438 0.479333
vt 0.362447 0.484068
vt 0.396022 0.486662
vt 0.361764 0.491039
vt 0.395537 0.494058
vt 0.360967 0.498037
vt 0.394975 0.501537
vt 0.360047 0.505067
vt 0.394328 0.509115
vt 0.393585 0.516814
vt 0.970615 0.977476
vt 0.979570 0.984825
vt 0.972129 0.975210
vt 0.982346 0.980671
vt 0.959871 0.968658
vt 0.973172 0.972693
vt 0.973704 0.970020
vt 0.984258 0.976056
vt 0.947613 0.962105
vt 0.946038 0.967295
vt 0.946570 0.964623
vt 0.949127 0.959840
vt 0.951054 0.957913
vt 0.973704 0.967295
vt 0.973172 0.964623
vt 0.961233 0.982490
vt 0.958509 0.982490
vt 0.953319 0.956399
vt 0.955836 0.955357
vt 0.955836 0.981959
vt 0.953319 0.980916
vt 0.951053 0.979402
vt 0.949126 0.977475
vt 0.958509 0.954825
vt 0.961234 0.954825
vt 0.963906 0.955357
vt 0.966423 0.956400
vt 0.947613 0.975210
vt 0.946570 0.972692
vt 0.968689 0.957913
vt 0.970616 0.959840
vt 0.946038 0.970020
vt 0.972130 0.962106
vt 0.957374 0.943296
vt 0.952474 0.944271
vt 0.947858 0.946183
vt 0.943704 0.948958
vt 0.962369 0.943296
vt 0.935484 0.961260
vt 0.934510 0.966160
vt 0.934510 0.971155
vt 0.935484 0.976055
vt 0.937396 0.956644
vt 0.985233 0.966160
vt 0.984258 0.961260
vt 0.982346 0.956645
vt 0.979571 0.952491
vt 0.985233 0.971156
vt 0.976038 0.948958
vt 0.971885 0.946183
vt 0.937396 0.980671
vt 0.940171 0.984824
vt 0.967269 0.944271
vt 0.943704 0.988357
vt 0.947858 0.991133
vt 0.952473 0.993044
vt 0.957373 0.994019
vt 0.962369 0.994019
vt 0.940172 0.952491
vt 0.031536 0.889873
vt 0.036333 0.891347
vt 0.034550 0.896827
vt 0.028898 0.894513
vt 0.041590 0.892137
vt 0.040720 0.898113
vt 0.047020 0.892304
vt 0.047114 0.898426
vt 0.052443 0.891970
vt 0.053495 0.897917
vt 0.057673 0.891019
vt 0.059624 0.896442
vt 0.062422 0.889398
vt 0.065201 0.893955
vt 0.032067 0.903182
vt 0.025409 0.899952
vt 0.039453 0.905135
vt 0.047226 0.905695
vt 0.054978 0.904897
vt 0.062300 0.902718
vt 0.068856 0.899284
vt 0.028854 0.910705
vt 0.021083 0.906352
vt 0.037710 0.913608
vt 0.047364 0.914712
vt 0.056980 0.913312
vt 0.065743 0.910138
vt 0.073376 0.905548
vt 0.621599 0.905199
vt 0.613371 0.908609
vt 0.611063 0.900761
vt 0.618056 0.898335
vt 0.604235 0.910451
vt 0.603500 0.901833
vt 0.594518 0.910415
vt 0.595715 0.901476
vt 0.585134 0.907894
vt 0.588110 0.899773
vt 0.576804 0.903713
vt 0.581095 0.896749
vt 0.569763 0.898259
vt 0.574987 0.892569
vt 0.609345 0.894158
vt 0.615229 0.892524
vt 0.603066 0.894711
vt 0.596680 0.894270
vt 0.590403 0.893015
vt 0.584490 0.890830
vt 0.579243 0.887705
vt 0.608217 0.888506
vt 0.613155 0.887606
vt 0.602904 0.888674
vt 0.597492 0.888202
vt 0.592146 0.887233
vt 0.587064 0.885674
vt 0.582538 0.883507
vt 0.029928 0.885029
vt 0.033053 0.885724
vt 0.027605 0.887424
vt 0.037364 0.886427
vt 0.042085 0.886860
vt 0.046937 0.886927
vt 0.051786 0.886711
vt 0.056491 0.886134
vt 0.060779 0.885298
vt 0.063881 0.884507
vt 0.066276 0.886830
vt 0.069906 0.890350
vt 0.074410 0.894718
vt 0.079744 0.899890
vt 0.564104 0.891891
vt 0.570008 0.887381
vt 0.574994 0.883573
vt 0.579012 0.880504
vt 0.581664 0.878479
vt 0.584652 0.879629
vt 0.588812 0.880962
vt 0.593417 0.882088
vt 0.598206 0.882872
vt 0.603033 0.883375
vt 0.607771 0.883500
vt 0.612136 0.883308
vt 0.617346 0.885637
vt 0.615321 0.882985
vt 0.620415 0.889654
vt 0.624224 0.894641
vt 0.628734 0.900544
vt 0.019717 0.895558
vt 0.014545 0.900891
vt 0.024085 0.891054
vt 0.612399 0.879159
vt 0.608034 0.878839
vt 0.608682 0.874293
vt 0.613238 0.874865
vt 0.603475 0.878515
vt 0.604090 0.873822
vt 0.598855 0.878024
vt 0.599489 0.873292
vt 0.594268 0.877283
vt 0.594909 0.872592
vt 0.589784 0.876396
vt 0.590356 0.871840
vt 0.585490 0.875556
vt 0.585810 0.871192
vt 0.609435 0.869739
vt 0.614125 0.870381
vt 0.604773 0.869175
vt 0.600117 0.868599
vt 0.595474 0.867930
vt 0.590827 0.867248
vt 0.586133 0.866633
vt 0.610135 0.865160
vt 0.614866 0.865794
vt 0.605442 0.864532
vt 0.600746 0.863903
vt 0.596049 0.863275
vt 0.591357 0.862646
vt 0.586625 0.862013
vt 0.610664 0.860559
vt 0.615358 0.861174
vt 0.606018 0.859876
vt 0.601374 0.859207
vt 0.596719 0.858631
vt 0.592057 0.858067
vt 0.587366 0.857426
vt 0.611136 0.855967
vt 0.615682 0.856615
vt 0.606582 0.855214
vt 0.602003 0.854514
vt 0.597401 0.853985
vt 0.592809 0.853513
vt 0.588253 0.852942
vt 0.611707 0.851411
vt 0.616002 0.852250
vt 0.607223 0.850524
vt 0.602636 0.849783
vt 0.598016 0.849291
vt 0.593457 0.848967
vt 0.589092 0.848647
vt 0.616471 0.879997
vt 0.581340 0.875293
vt 0.581149 0.870929
vt 0.581274 0.866190
vt 0.581777 0.861364
vt 0.582561 0.856574
vt 0.583687 0.851970
vt 0.585020 0.847810
vt 0.586170 0.844822
vt 0.589356 0.844498
vt 0.593720 0.844306
vt 0.598459 0.844431
vt 0.603285 0.844934
vt 0.608074 0.845719
vt 0.612679 0.846845
vt 0.616839 0.848178
vt 0.620151 0.852513
vt 0.619827 0.849328
vt 0.620343 0.856878
vt 0.620217 0.861616
vt 0.619714 0.866443
vt 0.618930 0.871232
vt 0.617804 0.875837
vt 0.618953 0.844300
vt 0.614427 0.842133
vt 0.617001 0.836976
vt 0.622248 0.840101
vt 0.609345 0.840573
vt 0.611089 0.834791
vt 0.603999 0.839604
vt 0.604812 0.833536
vt 0.598587 0.839133
vt 0.598425 0.833096
vt 0.593273 0.839300
vt 0.592146 0.833648
vt 0.588336 0.840200
vt 0.586262 0.835283
vt 0.620396 0.831058
vt 0.626504 0.835238
vt 0.613381 0.828034
vt 0.605776 0.826331
vt 0.597991 0.825973
vt 0.590428 0.827045
vt 0.583436 0.829471
vt 0.624687 0.824094
vt 0.631728 0.829548
vt 0.616358 0.819913
vt 0.606973 0.817392
vt 0.597256 0.817355
vt 0.588120 0.819197
vt 0.579892 0.822607
vt 0.019911 0.830035
vt 0.027544 0.825445
vt 0.030987 0.832865
vt 0.024430 0.836299
vt 0.036307 0.822272
vt 0.038308 0.830686
vt 0.045922 0.820871
vt 0.046061 0.829888
vt 0.055576 0.821975
vt 0.053834 0.830448
vt 0.064433 0.824878
vt 0.061220 0.832401
vt 0.072203 0.829231
vt 0.067878 0.835631
vt 0.033663 0.839141
vt 0.028086 0.841628
vt 0.039792 0.837666
vt 0.046173 0.837157
vt 0.052566 0.837470
vt 0.058737 0.838756
vt 0.064389 0.841070
vt 0.035614 0.844564
vt 0.030865 0.846185
vt 0.040844 0.843613
vt 0.046267 0.843279
vt 0.051697 0.843446
vt 0.056954 0.844236
vt 0.061751 0.845710
vt 0.622479 0.847303
vt 0.584145 0.842170
vt 0.581076 0.838152
vt 0.577267 0.833166
vt 0.572758 0.827262
vt 0.078742 0.834691
vt 0.073570 0.840025
vt 0.069202 0.844529
vt 0.065682 0.848159
vt 0.063359 0.850554
vt 0.060234 0.849859
vt 0.055922 0.849155
vt 0.051202 0.848723
vt 0.046349 0.848656
vt 0.041501 0.848872
vt 0.036796 0.849449
vt 0.032508 0.850285
vt 0.027010 0.848753
vt 0.029406 0.851076
vt 0.023381 0.845233
vt 0.018877 0.840865
vt 0.013543 0.835693
vt 0.631483 0.840425
vt 0.637387 0.835915
vt 0.626497 0.844234
vt 0.032862 0.854427
vt 0.037226 0.854098
vt 0.037258 0.858690
vt 0.032667 0.858799
vt 0.041782 0.853744
vt 0.041868 0.858477
vt 0.046425 0.853547
vt 0.046498 0.858320
vt 0.051071 0.853601
vt 0.051130 0.858335
vt 0.055636 0.853815
vt 0.055745 0.858406
vt 0.060008 0.854010
vt 0.060337 0.858374
vt 0.037187 0.863305
vt 0.032453 0.863365
vt 0.041881 0.863173
vt 0.046571 0.863054
vt 0.051262 0.863029
vt 0.055958 0.863017
vt 0.060691 0.862931
vt 0.037172 0.867937
vt 0.032399 0.868010
vt 0.041906 0.867864
vt 0.046643 0.867792
vt 0.051381 0.867719
vt 0.056115 0.867646
vt 0.060888 0.867573
vt 0.037329 0.872567
vt 0.032596 0.872652
vt 0.042025 0.872554
vt 0.046716 0.872529
vt 0.051406 0.872410
vt 0.056100 0.872278
vt 0.060834 0.872219
vt 0.037542 0.877177
vt 0.032950 0.877209
vt 0.042157 0.877248
vt 0.046789 0.877263
vt 0.051419 0.877106
vt 0.056029 0.876893
vt 0.060620 0.876784
vt 0.037651 0.881768
vt 0.033279 0.881573
vt 0.042216 0.881982
vt 0.046862 0.882036
vt 0.051504 0.881839
vt 0.056061 0.881485
vt 0.060425 0.881156
vt 0.028711 0.854201
vt 0.064150 0.853656
vt 0.064986 0.857944
vt 0.065563 0.862649
vt 0.065779 0.867498
vt 0.065712 0.872350
vt 0.065280 0.877070
vt 0.064576 0.881382
vt 0.029137 0.881927
vt 0.028301 0.877639
vt 0.027724 0.872934
vt 0.027508 0.868086
vt 0.027575 0.863233
vt 0.028007 0.858512
vt 0.620349 0.882111
vt 0.622516 0.877584
vt 0.627673 0.880159
vt 0.624548 0.885406
vt 0.624076 0.872503
vt 0.629858 0.874246
vt 0.625044 0.867157
vt 0.631112 0.867969
vt 0.625516 0.861744
vt 0.631553 0.861583
vt 0.625349 0.856431
vt 0.631000 0.855304
vt 0.624449 0.851494
vt 0.629366 0.849420
vt 0.633591 0.883554
vt 0.629411 0.889661
vt 0.636615 0.876539
vt 0.638318 0.868934
vt 0.638676 0.861149
vt 0.637604 0.853585
vt 0.635178 0.846593
vt 0.640555 0.887845
vt 0.635101 0.894886
vt 0.644736 0.879515
vt 0.647257 0.870131
vt 0.647294 0.860414
vt 0.645451 0.851278
vt 0.642041 0.843050
vt 0.008887 0.894524
vt 0.004297 0.886891
vt 0.011717 0.883448
vt 0.015151 0.890004
vt 0.001123 0.878128
vt 0.009538 0.876126
vt -0.000277 0.868513
vt 0.008740 0.868374
vt 0.000827 0.858858
vt 0.009300 0.860601
vt 0.003730 0.850002
vt 0.011253 0.853215
vt 0.008083 0.842232
vt 0.014483 0.846557
vt 0.017993 0.880772
vt 0.020480 0.886349
vt 0.016518 0.874643
vt 0.016009 0.868262
vt 0.016322 0.861869
vt 0.017608 0.855698
vt 0.019922 0.850047
vt 0.023416 0.878821
vt 0.025037 0.883570
vt 0.022465 0.873591
vt 0.022131 0.868168
vt 0.022298 0.862738
vt 0.023088 0.857481
vt 0.024562 0.852684
vt 0.581142 0.845696
vt 0.578975 0.850222
vt 0.573819 0.847648
vt 0.576943 0.842401
vt 0.577415 0.855304
vt 0.571634 0.853560
vt 0.576447 0.860650
vt 0.570379 0.859837
vt 0.575975 0.866062
vt 0.569938 0.866223
vt 0.576143 0.871375
vt 0.570491 0.872503
vt 0.577043 0.876313
vt 0.572125 0.878387
vt 0.567900 0.844252
vt 0.572080 0.838145
vt 0.564876 0.851268
vt 0.563173 0.858872
vt 0.562816 0.866658
vt 0.563888 0.874221
vt 0.566314 0.881213
vt 0.560936 0.839962
vt 0.566390 0.832921
vt 0.556755 0.848291
vt 0.554234 0.857676
vt 0.554197 0.867393
vt 0.556040 0.876529
vt 0.559450 0.884757
vt 0.084400 0.841059
vt 0.088990 0.848692
vt 0.081570 0.852135
vt 0.078136 0.845579
vt 0.092163 0.857455
vt 0.083749 0.859457
vt 0.093564 0.867070
vt 0.084547 0.867209
vt 0.092460 0.876724
vt 0.083987 0.874982
vt 0.089557 0.885581
vt 0.082034 0.882368
vt 0.085204 0.893351
vt 0.078804 0.889026
vt 0.075293 0.854811
vt 0.072807 0.849234
vt 0.076769 0.860940
vt 0.077278 0.867321
vt 0.076965 0.873715
vt 0.075679 0.879885
vt 0.073364 0.885536
vt 0.069870 0.856762
vt 0.068250 0.852013
vt 0.070822 0.861992
vt 0.071156 0.867415
vt 0.070989 0.872845
vt 0.070198 0.878102
vt 0.068725 0.882899
s 0
usemtl lay_figure_material
f 1/1/1 2/2/1 3/3/1 4/4/1
f 1/5/2 5/6/2 6/7/2 2/8/2
f 7/9/3 1/1/3 4/4/3 8/10/3
f 7/11/2 9/12/2 5/6/2 1/5/2
f 10/13/4 8/10/4 4/4/4 11/14/4
f 4/4/5 3/3/5 12/15/5 11/14/5
f 13/16/6 7/17/6 8/18/6 14/19/6
f 15/20/7 14/19/7 8/18/7 10/21/7
f 16/22/8 13/16/8 14/19/8 17/23/8
f 18/24/9 17/23/9 14/19/9 15/20/9
f 19/25/10 16/22/10 17/23/10 20/26/10
f 21/27/11 20/26/11 17/23/11 18/24/11
f 22/28/12 19/25/12 20/26/12 23/29/12
f 24/30/13 23/29/13 20/26/13 21/27/13
f 25/31/14 22/28/14 23/29/14 26/32/14
f 27/33/15 26/32/15 23/29/15 24/30/15
f 28/34/16 25/31/16 26/32/16 29/35/16
f 30/36/17 29/35/17 26/32/17 27/33/17
f 31/37/18 28/34/18 29/35/18 32/38/18
f 33/39/19 32/38/19 29/35/19 30/36/19
f 34/40/20 31/37/20 32/38/20 35/41/20
f 36/42/21 35/41/21 32/38/21 33/39/21
f 37/43/22 34/40/22 35/41/22 38/44/22
f 39/45/23 38/44/23 35/41/23 36/42/23
f 40/46/24 37/43/24 38/44/24 41/47/24
f 42/48/25 41/47/25 38/44/25 39/45/25
f 43/49/26 40/46/26 41/47/26 44/50/26
f 45/51/27 44/50/27 41/47/27 42/48/27
f 46/52/28 43/49/28 44/50/28 47/53/28
f 48/54/29 47/53/29 44/50/29 45/51/29
f 49/55/30 46/52/30 47/53/30 50/56/30
f 51/57/31 50/56/31 47/53/31 48/54/31
f 52/58/32 49/55/32 50/56/32 53/59/32
f 54/60/33 53/59/33 50/56/33 51/57/33
f 55/61/34 52/58/34 53/59/34 56/62/34
f 57/63/35 56/62/35 53/59/35 54/60/35
f 58/64/36 55/61/36 56/62/36 59/65/36
f 60/66/37 59/65/37 56/62/37 57/63/37
f 61/67/38 58/64/38 59/65/38 62/68/38
f 63/69/39 62/68/39 59/65/39 60/66/39
f 64/70/40 61/67/40 62/68/40 65/71/40
f 66/72/41 65/71/41 62/68/41 63/69/41
f 67/73/42 64/70/42 65/71/42 68/74/42
f 69/75/43 68/74/43 65/71/43 66/72/43
f 70/76/44 67/73/44 68/74/44 71/77/44
f 72/78/45 71/77/45 68/74/45 69/75/45
f 73/79/46 70/76/46 71/77/46 74/80/46
f 75/81/47 74/80/47 71/77/47 72/78/47
f 76/82/48 73/79/48 74/80/48 77/83/48
f 78/84/49 77/83/49 74/80/49 75/81/49
f 79/85/50 76/82/50 77/83/50 80/86/50
f 81/87/51 80/86/51 77/83/51 78/84/51
f 82/88/52 79/85/52 80/86/52 83/89/52
f 84/90/53 83/89/53 80/86/53 81/87/53
f 85/91/54 82/88/54 83/89/54 86/92/54
f 87/93/55 86/92/55 83/89/55 84/90/55
f 88/94/56 85/91/56 86/92/56 89/95/56
f 90/96/57 89/95/57 86/92/57 87/93/57
f 91/97/58 88/94/58 89/95/58 92/98/58
f 93/99/59 92/98/59 89/95/59 90/96/59
f 94/100/60 91/97/60 92/98/60 95/101/60
f 96/102/61 95/101/61 92/98/61 93/99/61
f 97/103/62 94/100/62 95/101/62 98/104/62
f 99/105/63 98/104/63 95/101/63 96/102/63
f 2/2/64 97/103/64 98/104/64 3/3/64
f 12/15/65 3/3/65 98/104/65 99/105/65
f 12/15/66 99/105/66 100/106/66 101/107/66
f 99/105/67 96/102/67 102/108/67 100/106/67
f 11/14/68 12/15/68 101/107/68 103/109/68
f 103/109/69 101/107/69 104/110/69 105/111/69
f 101/107/70 100/106/70 106/112/70 104/110/70
f 10/13/71 11/14/71 103/109/71 107/113/71
f 107/113/72 103/109/72 105/111/72 108/114/72
f 108/114/73 105/111/73 109/115/73 110/116/73
f 105/111/74 104/110/74 111/117/74 109/115/74
f 110/116/75 109/115/75 112/118/75 113/119/75
f 109/115/76 111/117/76 114/120/76 112/118/76
f 113/119/77 112/118/77 115/121/77 116/122/77
f 112/118/78 114/120/78 117/123/78 115/121/78
f 111/117/79 118/124/79 119/125/79 114/120/79
f 114/120/80 119/125/80 120/126/80 117/123/80
f 118/124/81 121/127/81 122/128/81 119/125/81
f 119/125/82 122/128/82 123/129/82 120/126/82
f 121/127/83 124/130/83 125/131/83 122/128/83
f 122/128/84 125/131/84 126/132/84 123/129/84
f 124/130/85 127/133/85 128/134/85 125/131/85
f 125/131/86 128/134/86 129/135/86 126/132/86
f 127/133/87 130/136/87 131/137/87 128/134/87
f 128/134/88 131/137/88 132/138/88 129/135/88
f 130/136/89 133/139/89 134/140/89 131/137/89
f 131/137/90 134/140/90 135/141/90 132/138/90
f 133/139/91 136/142/91 137/143/91 134/140/91
f 134/140/92 137/143/92 138/144/92 135/141/92
f 136/142/93 139/145/93 140/146/93 137/143/93
f 137/143/94 140/146/94 141/147/94 138/144/94
f 139/145/95 142/148/95 143/149/95 140/146/95
f 140/146/96 143/149/96 144/150/96 141/147/96
f 142/148/97 145/151/97 146/152/97 143/149/97
f 143/149/98 146/152/98 147/153/98 144/150/98
f 145/151/99 148/154/99 149/155/99 146/152/99
f 146/152/100 149/155/100 150/156/100 147/153/100
f 148/154/101 151/157/101 152/158/101 149/155/101
f 149/155/102 152/158/102 153/159/102 150/156/102
f 151/157/103 154/160/103 155/161/103 152/158/103
f 152/158/104 155/161/104 156/162/104 153/159/104
f 154/160/105 157/163/105 158/164/105 155/161/105
f 155/161/106 158/164/106 159/165/106 156/162/106
f 157/163/107 160/166/107 161/167/107 158/164/107
f 158/164/108 161/167/108 162/168/108 159/165/108
f 160/166/109 163/169/109 164/170/109 161/167/109
f 161/167/110 164/170/110 165/171/110 162/168/110
f 163/169/111 166/172/111 167/173/111 164/170/111
f 164/170/112 167/173/112 168/174/112 165/171/112
f 166/172/113 169/175/113 170/176/113 167/173/113
f 167/173/114 170/176/114 171/177/114 168/174/114
f 169/175/115 172/178/115 173/179/115 170/176/115
f 170/176/116 173/179/116 174/180/116 171/177/116
f 172/178/117 175/181/117 176/182/117 173/179/117
f 173/179/118 176/182/118 177/183/118 174/180/118
f 175/181/119 178/184/119 179/185/119 176/182/119
f 176/182/120 179/185/120 180/186/120 177/183/120
f 178/184/121 181/187/121 182/188/121 179/185/121
f 179/185/122 182/188/122 183/189/122 180/186/122
f 181/187/123 184/190/123 185/191/123 182/188/123
f 182/188/124 185/191/124 186/192/124 183/189/124
f 184/190/125 187/193/125 188/194/125 185/191/125
f 185/191/126 188/194/126 189/195/126 186/192/126
f 187/193/127 190/196/127 191/197/127 188/194/127
f 188/194/128 191/197/128 192/198/128 189/195/128
f 190/196/129 193/199/129 194/200/129 191/197/129
f 191/197/130 194/200/130 195/201/130 192/198/130
f 193/199/131 196/202/131 197/203/131 194/200/131
f 194/200/132 197/203/132 198/204/132 195/201/132
f 196/202/133 199/205/133 200/206/133 197/203/133
f 197/203/134 200/206/134 201/207/134 198/204/134
f 199/205/135 202/208/135 203/209/135 200/206/135
f 200/206/136 203/209/136 204/210/136 201/207/136
f 202/208/137 110/211/137 113/212/137 203/209/137
f 203/209/138 113/212/138 116/213/138 204/210/138
f 204/214/139 205/215/139 206/216/139 201/217/139
f 116/218/139 207/219/139 205/215/139 204/214/139
f 207/219/139 208/220/139 206/216/139 205/215/139
f 209/221/139 208/220/139 207/219/139 210/222/139
f 115/223/139 210/222/139 207/219/139 116/218/139
f 211/224/139 212/225/139 208/220/139 209/221/139
f 206/216/139 208/220/139 213/226/139 214/227/139
f 213/226/139 208/220/139 215/228/139 216/229/139
f 217/230/139 208/220/139 218/231/139 219/232/139
f 218/231/139 208/220/139 220/233/139 221/234/139
f 215/228/139 208/220/139 222/235/139 223/236/139
f 220/233/139 208/220/139 224/237/139 225/238/139
f 222/235/139 208/220/139 226/239/139 227/240/139
f 224/237/139 208/220/139 228/241/139 229/242/139
f 226/239/139 208/220/139 230/243/139 231/244/139
f 228/241/139 208/220/139 232/245/139 233/246/139
f 232/245/139 208/220/139 212/225/139 234/247/139
f 235/248/139 208/220/139 217/230/139 236/249/139
f 230/243/139 208/220/139 235/248/139 237/250/139
f 171/251/139 230/243/139 237/250/139 168/252/139
f 174/253/139 231/244/139 230/243/139 171/251/139
f 177/254/139 226/239/139 231/244/139 174/253/139
f 168/252/139 237/250/139 235/248/139 165/255/139
f 159/256/139 217/230/139 219/232/139 156/257/139
f 162/258/139 236/249/139 217/230/139 159/256/139
f 165/255/139 235/248/139 236/249/139 162/258/139
f 156/257/139 219/232/139 218/231/139 153/259/139
f 123/260/139 212/225/139 211/224/139 120/261/139
f 126/262/139 234/247/139 212/225/139 123/260/139
f 129/263/139 232/245/139 234/247/139 126/262/139
f 120/261/139 211/224/139 209/221/139 117/264/139
f 132/265/139 233/246/139 232/245/139 129/263/139
f 135/266/139 228/241/139 233/246/139 132/265/139
f 138/267/139 229/242/139 228/241/139 135/266/139
f 141/268/139 224/237/139 229/242/139 138/267/139
f 180/269/139 227/240/139 226/239/139 177/254/139
f 183/270/139 222/235/139 227/240/139 180/269/139
f 144/271/139 225/238/139 224/237/139 141/268/139
f 147/272/139 220/233/139 225/238/139 144/271/139
f 186/273/139 223/236/139 222/235/139 183/270/139
f 189/274/139 215/228/139 223/236/139 186/273/139
f 150/275/139 221/234/139 220/233/139 147/272/139
f 153/259/139 218/231/139 221/234/139 150/275/139
f 192/276/139 216/229/139 215/228/139 189/274/139
f 195/277/139 213/226/139 216/229/139 192/276/139
f 198/278/139 214/227/139 213/226/139 195/277/139
f 201/217/139 206/216/139 214/227/139 198/278/139
f 117/264/139 209/221/139 210/222/139 115/223/139
f 238/279/140 239/280/140 202/208/140 199/205/140
f 239/280/141 108/281/141 110/211/141 202/208/141
f 240/282/142 241/283/142 239/280/142 238/279/142
f 241/283/143 107/284/143 108/281/143 239/280/143
f 242/285/144 240/282/144 238/279/144 243/286/144
f 243/286/145 238/279/145 199/205/145 196/202/145
f 244/287/146 242/285/146 243/286/146 245/288/146
f 245/288/147 243/286/147 196/202/147 193/199/147
f 246/289/148 244/287/148 245/288/148 247/290/148
f 247/290/149 245/288/149 193/199/149 190/196/149
f 248/291/150 246/289/150 247/290/150 249/292/150
f 249/292/151 247/290/151 190/196/151 187/193/151
f 250/293/152 248/291/152 249/292/152 251/294/152
f 251/294/153 249/292/153 187/193/153 184/190/153
f 252/295/154 250/293/154 251/294/154 253/296/154
f 253/296/155 251/294/155 184/190/155 181/187/155
f 254/297/156 252/295/156 253/296/156 255/298/156
f 255/298/157 253/296/157 181/187/157 178/184/157
f 256/299/158 254/297/158 255/298/158 257/300/158
f 257/300/159 255/298/159 178/184/159 175/181/159
f 258/301/160 256/299/160 257/300/160 259/302/160
f 259/302/161 257/300/161 175/181/161 172/178/161
f 260/303/162 258/301/162 259/302/162 261/304/162
f 261/304/163 259/302/163 172/178/163 169/175/163
f 262/305/164 260/303/164 261/304/164 263/306/164
f 263/306/165 261/304/165 169/175/165 166/172/165
f 264/307/166 262/305/166 263/306/166 265/308/166
f 265/308/167 263/306/167 166/172/167 163/169/167
f 266/309/168 264/307/168 265/308/168 267/310/168
f 267/310/169 265/308/169 163/169/169 160/166/169
f 268/311/170 266/309/170 267/310/170 269/312/170
f 269/312/171 267/310/171 160/166/171 157/163/171
f 270/313/172 268/311/172 269/312/172 271/314/172
f 271/314/173 269/312/173 157/163/173 154/160/173
f 272/315/174 270/313/174 271/314/174 273/316/174
f 273/316/175 271/314/175 154/160/175 151/157/175
f 274/317/176 272/315/176 273/316/176 275/318/176
f 275/318/177 273/316/177 151/157/177 148/154/177
f 276/319/178 274/317/178 275/318/178 277/320/178
f 277/320/179 275/318/179 148/154/179 145/151/179
f 278/321/180 276/319/180 277/320/180 279/322/180
f 279/322/181 277/320/181 145/151/181 142/148/181
f 280/323/182 278/321/182 279/322/182 281/324/182
f 281/324/183 279/322/183 142/148/183 139/145/183
f 282/325/184 280/323/184 281/324/184 283/326/184
f 283/326/185 281/324/185 139/145/185 136/142/185
f 284/327/186 282/325/186 283/326/186 285/328/186
f 285/328/187 283/326/187 136/142/187 133/139/187
f 286/329/188 284/327/188 285/328/188 287/330/188
f 287/330/189 285/328/189 133/139/189 130/136/189
f 288/331/190 286/329/190 287/330/190 289/332/190
f 289/332/191 287/330/191 130/136/191 127/133/191
f 290/333/192 288/331/192 289/332/192 291/334/192
f 291/334/193 289/332/193 127/133/193 124/130/193
f 102/108/194 290/333/194 291/334/194 292/335/194
f 292/335/195 291/334/195 124/130/195 121/127/195
f 100/106/196 102/108/196 292/335/196 106/112/196
f 106/112/197 292/335/197 121/127/197 118/124/197
f 104/110/198 106/112/198 118/124/198 111/117/198
f 96/102/199 93/99/199 290/333/199 102/108/199
f 93/99/200 90/96/200 288/331/200 290/333/200
f 90/96/201 87/93/201 286/329/201 288/331/201
f 87/93/202 84/90/202 284/327/202 286/329/202
f 84/90/203 81/87/203 282/325/203 284/327/203
f 81/87/204 78/84/204 280/323/204 282/325/204
f 78/84/205 75/81/205 278/321/205 280/323/205
f 75/81/206 72/78/206 276/319/206 278/321/206
f 72/78/207 69/75/207 274/317/207 276/319/207
f 69/75/208 66/72/208 272/315/208 274/317/208
f 66/72/209 63/69/209 270/313/209 272/315/209
f 63/69/210 60/66/210 268/311/210 270/313/210
f 60/66/211 57/63/211 266/309/211 268/311/211
f 57/63/212 54/60/212 264/307/212 266/309/212
f 54/60/213 51/57/213 262/305/213 264/307/213
f 51/57/214 48/54/214 260/303/214 262/305/214
f 48/54/215 45/51/215 258/301/215 260/303/215
f 45/51/216 42/48/216 256/299/216 258/301/216
f 42/48/217 39/45/217 254/297/217 256/299/217
f 39/45/218 36/42/218 252/295/218 254/297/218
f 36/42/219 33/39/219 250/293/219 252/295/219
f 33/39/220 30/36/220 248/291/220 250/293/220
f 30/36/221 27/33/221 246/289/221 248/291/221
f 27/33/222 24/30/222 244/287/222 246/289/222
f 24/30/223 21/27/223 242/285/223 244/287/223
f 21/27/224 18/24/224 240/282/224 242/285/224
f 18/24/225 15/20/225 241/283/225 240/282/225
f 15/20/226 10/21/226 107/284/226 241/283/226
f 2/8/2 6/7/2 293/336/2 97/337/2
f 97/337/2 293/336/2 294/338/2 94/339/2
f 293/336/2 6/7/2 295/340/2 294/338/2
f 296/341/2 294/338/2 295/340/2 297/342/2
f 94/339/2 294/338/2 296/341/2 91/343/2
f 298/344/2 295/340/2 299/345/2 300/346/2
f 301/347/2 302/348/2 295/340/2 298/344/2
f 303/349/2 297/342/2 295/340/2 304/350/2
f 305/351/2 306/352/2 295/340/2 9/12/2
f 9/12/2 295/340/2 6/7/2 5/6/2
f 307/353/2 308/354/2 295/340/2 302/348/2
f 309/355/2 310/356/2 295/340/2 306/352/2
f 311/357/2 312/358/2 295/340/2 310/356/2
f 313/359/2 314/360/2 295/340/2 308/354/2
f 315/361/2 316/362/2 295/340/2 314/360/2
f 317/363/2 318/364/2 295/340/2 312/358/2
f 319/365/2 320/366/2 295/340/2 316/362/2
f 321/367/2 299/345/2 295/340/2 318/364/2
f 322/368/2 304/350/2 295/340/2 320/366/2
f 61/369/2 313/359/2 308/354/2 58/370/2
f 58/370/2 308/354/2 307/353/2 55/371/2
f 55/371/2 307/353/2 302/348/2 52/372/2
f 64/373/2 314/360/2 313/359/2 61/369/2
f 43/374/2 300/346/2 299/345/2 40/375/2
f 40/375/2 299/345/2 321/367/2 37/376/2
f 37/376/2 321/367/2 318/364/2 34/377/2
f 46/378/2 298/344/2 300/346/2 43/374/2
f 85/379/2 303/349/2 304/350/2 82/380/2
f 82/380/2 304/350/2 322/368/2 79/381/2
f 79/381/2 322/368/2 320/366/2 76/382/2
f 88/383/2 297/342/2 303/349/2 85/379/2
f 76/382/2 320/366/2 319/365/2 73/384/2
f 73/384/2 319/365/2 316/362/2 70/385/2
f 34/377/2 318/364/2 317/363/2 31/386/2
f 31/386/2 317/363/2 312/358/2 28/387/2
f 70/385/2 316/362/2 315/361/2 67/388/2
f 67/388/2 315/361/2 314/360/2 64/373/2
f 28/387/2 312/358/2 311/357/2 25/389/2
f 25/389/2 311/357/2 310/356/2 22/390/2
f 22/390/2 310/356/2 309/355/2 19/391/2
f 19/391/2 309/355/2 306/352/2 16/392/2
f 16/392/2 306/352/2 305/351/2 13/393/2
f 13/393/2 305/351/2 9/12/2 7/11/2
f 52/372/2 302/348/2 301/347/2 49/394/2
f 49/394/2 301/347/2 298/344/2 46/378/2
f 91/343/2 296/341/2 297/342/2 88/383/2
f 323/395/227 324/396/227 325/397/227 326/398/227
f 324/396/228 327/399/228 328/400/228 325/397/228
f 327/399/229 329/401/229 330/402/229 328/400/229
f 329/401/230 331/403/230 332/404/230 330/402/230
f 331/403/231 333/405/231 334/406/231 332/404/231
f 333/405/232 335/407/232 336/408/232 334/406/232
f 326/398/233 325/397/233 337/409/233 338/410/233
f 325/397/234 328/400/234 339/411/234 337/409/234
f 328/400/235 330/402/235 340/412/235 339/411/235
f 330/402/236 332/404/236 341/413/236 340/412/236
f 332/404/237 334/406/237 342/414/237 341/413/237
f 334/406/238 336/408/238 343/415/238 342/414/238
f 338/410/239 337/409/239 344/416/239 345/417/239
f 337/409/240 339/411/240 346/418/240 344/416/240
f 339/411/241 340/412/241 347/419/241 346/418/241
f 340/412/242 341/413/242 348/420/242 347/419/242
f 341/413/243 342/414/243 349/421/243 348/420/243
f 342/414/244 343/415/244 350/422/244 349/421/244
f 345/423/245 344/424/245 351/425/245 352/426/245
f 344/424/246 346/427/246 353/428/246 351/425/246
f 346/427/247 347/429/247 354/430/247 353/428/247
f 347/429/248 348/431/248 355/432/248 354/430/248
f 348/431/249 349/433/249 356/434/249 355/432/249
f 349/433/250 350/435/250 357/436/250 356/434/250
f 352/426/251 351/425/251 358/437/251 359/438/251
f 351/425/252 353/428/252 360/439/252 358/437/252
f 353/428/253 354/430/253 361/440/253 360/439/253
f 354/430/254 355/432/254 362/441/254 361/440/254
f 355/432/255 356/434/255 363/442/255 362/441/255
f 356/434/256 357/436/256 364/443/256 363/442/256
f 359/438/257 358/437/257 365/444/257 366/445/257
f 358/437/258 360/439/258 367/446/258 365/444/258
f 360/439/259 361/440/259 368/447/259 367/446/259
f 361/440/260 362/441/260 369/448/260 368/447/260
f 362/441/261 363/442/261 370/449/261 369/448/261
f 363/442/262 364/443/262 371/450/262 370/449/262
f 372/451/263 373/452/263 323/395/263 374/453/263
f 373/452/264 375/454/264 324/396/264 323/395/264
f 375/454/265 376/455/265 327/399/265 324/396/265
f 376/455/266 377/456/266 329/401/266 327/399/266
f 377/456/267 378/457/267 331/403/267 329/401/267
f 378/457/268 379/458/268 333/405/268 331/403/268
f 379/458/269 380/459/269 335/407/269 333/405/269
f 380/459/270 381/460/270 382/461/270 335/407/270
f 335/407/271 382/461/271 383/462/271 336/408/271
f 336/408/272 383/462/272 384/463/272 343/415/272
f 343/415/273 384/463/273 385/464/273 350/422/273
f 350/435/274 385/465/274 386/466/274 357/436/274
f 357/436/275 386/466/275 387/467/275 364/443/275
f 364/443/276 387/467/276 388/468/276 371/450/276
f 371/450/277 388/468/277 389/469/277 390/470/277
f 370/449/278 371/450/278 390/470/278 391/471/278
f 369/448/279 370/449/279 391/471/279 392/472/279
f 368/447/280 369/448/280 392/472/280 393/473/280
f 367/446/281 368/447/281 393/473/281 394/474/281
f 365/444/282 367/446/282 394/474/282 395/475/282
f 366/445/283 365/444/283 395/475/283 396/476/283
f 397/477/284 366/445/284 396/476/284 398/478/284
f 399/479/285 359/438/285 366/445/285 397/477/285
f 400/480/286 352/426/286 359/438/286 399/479/286
f 401/481/287 345/423/287 352/426/287 400/480/287
f 402/482/288 338/410/288 345/417/288 401/483/288
f 403/484/289 326/398/289 338/410/289 402/482/289
f 374/453/290 323/395/290 326/398/290 403/484/290
f 404/485/291 405/486/291 406/487/291 407/488/291
f 405/486/292 408/489/292 409/490/292 406/487/292
f 408/489/293 410/491/293 411/492/293 409/490/293
f 410/491/294 412/493/294 413/494/294 411/492/294
f 412/493/295 414/495/295 415/496/295 413/494/295
f 414/495/296 416/497/296 417/498/296 415/496/296
f 407/488/297 406/487/297 418/499/297 419/500/297
f 406/487/298 409/490/298 420/501/298 418/499/298
f 409/490/299 411/492/299 421/502/299 420/501/299
f 411/492/300 413/494/300 422/503/300 421/502/300
f 413/494/301 415/496/301 423/504/301 422/503/301
f 415/496/302 417/498/302 424/505/302 423/504/302
f 419/500/303 418/499/303 425/506/303 426/507/303
f 418/499/304 420/501/304 427/508/304 425/506/304
f 420/501/305 421/502/305 428/509/305 427/508/305
f 421/502/306 422/503/306 429/510/306 428/509/306
f 422/503/307 423/504/307 430/511/307 429/510/307
f 423/504/308 424/505/308 431/512/308 430/511/308
f 426/507/309 425/506/309 432/513/309 433/514/309
f 425/506/310 427/508/310 434/515/310 432/513/310
f 427/508/311 428/509/311 435/516/311 434/515/311
f 428/509/312 429/510/312 436/517/312 435/516/312
f 429/510/313 430/511/313 437/518/313 436/517/313
f 430/511/314 431/512/314 438/519/314 437/518/314
f 433/514/315 432/513/315 439/520/315 440/521/315
f 432/513/316 434/515/316 441/522/316 439/520/316
f 434/515/317 435/516/317 442/523/317 441/522/317
f 435/516/318 436/517/318 443/524/318 442/523/318
f 436/517/319 437/518/319 444/525/319 443/524/319
f 437/518/320 438/519/320 445/526/320 444/525/320
f 440/521/321 439/520/321 446/527/321 447/528/321
f 439/520/322 441/522/322 448/529/322 446/527/322
f 441/522/323 442/523/323 449/530/323 448/529/323
f 442/523/324 443/524/324 450/531/324 449/530/324
f 443/524/325 444/525/325 451/532/325 450/531/325
f 444/525/326 445/526/326 452/533/326 451/532/326
f 398/478/327 396/476/327 404/485/327 453/534/327
f 396/476/328 395/475/328 405/486/328 404/485/328
f 395/475/329 394/474/329 408/489/329 405/486/329
f 394/474/330 393/473/330 410/491/330 408/489/330
f 393/473/331 392/472/331 412/493/331 410/491/331
f 392/472/332 391/471/332 414/495/332 412/493/332
f 391/471/333 390/470/333 416/497/333 414/495/333
f 390/470/334 389/469/334 454/535/334 416/497/334
f 416/497/335 454/535/335 455/536/335 417/498/335
f 417/498/336 455/536/336 456/537/336 424/505/336
f 424/505/337 456/537/337 457/538/337 431/512/337
f 431/512/338 457/538/338 458/539/338 438/519/338
f 438/519/339 458/539/339 459/540/339 445/526/339
f 445/526/340 459/540/340 460/541/340 452/533/340
f 452/533/341 460/541/341 461/542/341 462/543/341
f 451/532/342 452/533/342 462/543/342 463/544/342
f 450/531/343 451/532/343 463/544/343 464/545/343
f 449/530/344 450/531/344 464/545/344 465/546/344
f 448/529/345 449/530/345 465/546/345 466/547/345
f 446/527/346 448/529/346 466/547/346 467/548/346
f 447/528/347 446/527/347 467/548/347 468/549/347
f 469/550/348 447/528/348 468/549/348 470/551/348
f 471/552/349 440/521/349 447/528/349 469/550/349
f 472/553/350 433/514/350 440/521/350 471/552/350
f 473/554/351 426/507/351 433/514/351 472/553/351
f 474/555/352 419/500/352 426/507/352 473/554/352
f 475/556/353 407/488/353 419/500/353 474/555/353
f 453/534/354 404/485/354 407/488/354 475/556/354
f 476/557/355 477/558/355 478/559/355 479/560/355
f 477/558/356 480/561/356 481/562/356 478/559/356
f 480/561/357 482/563/357 483/564/357 481/562/357
f 482/563/358 484/565/358 485/566/358 483/564/358
f 484/565/359 486/567/359 487/568/359 485/566/359
f 486/567/360 488/569/360 489/570/360 487/568/360
f 479/560/361 478/559/361 490/571/361 491/572/361
f 478/559/362 481/562/362 492/573/362 490/571/362
f 481/562/363 483/564/363 493/574/363 492/573/363
f 483/564/364 485/566/364 494/575/364 493/574/364
f 485/566/365 487/568/365 495/576/365 494/575/365
f 487/568/366 489/570/366 496/577/366 495/576/366
f 491/572/367 490/571/367 497/578/367 498/579/367
f 490/571/368 492/573/368 499/580/368 497/578/368
f 492/573/369 493/574/369 500/581/369 499/580/369
f 493/574/370 494/575/370 501/582/370 500/581/370
f 494/575/371 495/576/371 502/583/371 501/582/371
f 495/576/372 496/577/372 503/584/372 502/583/372
f 498/585/373 497/586/373 504/587/373 505/588/373
f 497/586/374 499/589/374 506/590/374 504/587/374
f 499/589/375 500/591/375 507/592/375 506/590/375
f 500/591/376 501/593/376 508/594/376 507/592/376
f 501/593/377 502/595/377 509/596/377 508/594/377
f 502/595/378 503/597/378 510/598/378 509/596/378
f 505/588/379 504/587/379 511/599/379 512/600/379
f 504/587/380 506/590/380 513/601/380 511/599/380
f 506/590/381 507/592/381 514/602/381 513/601/381
f 507/592/382 508/594/382 515/603/382 514/602/382
f 508/594/383 509/596/383 516/604/383 515/603/383
f 509/596/384 510/598/384 517/605/384 516/604/384
f 512/600/385 511/599/385 518/606/385 519/607/385
f 511/599/386 513/601/386 520/608/386 518/606/386
f 513/601/387 514/602/387 521/609/387 520/608/387
f 514/602/388 515/603/388 522/610/388 521/609/388
f 515/603/389 516/604/389 523/611/389 522/610/389
f 516/604/390 517/605/390 524/612/390 523/611/390
f 470/551/391 468/549/391 476/557/391 525/613/391
f 468/549/392 467/548/392 477/558/392 476/557/392
f 467/548/393 466/547/393 480/561/393 477/558/393
f 466/547/394 465/546/394 482/563/394 480/561/394
f 465/546/395 464/545/395 484/565/395 482/563/395
f 464/545/396 463/544/396 486/567/396 484/565/396
f 463/544/397 462/543/397 488/569/397 486/567/397
f 462/543/398 461/542/398 526/614/398 488/569/398
f 488/569/399 526/614/399 527/615/399 489/570/399
f 489/570/400 527/615/400 528/616/400 496/577/400
f 496/577/401 528/616/401 529/617/401 503/584/401
f 503/597/402 529/618/402 530/619/402 510/598/402
f 510/598/403 530/619/403 531/620/403 517/605/403
f 517/605/404 531/620/404 532/621/404 524/612/404
f 524/612/405 532/621/405 533/622/405 534/623/405
f 523/611/406 524/612/406 534/623/406 535/624/406
f 522/610/407 523/611/407 535/624/407 536/625/407
f 521/609/408 522/610/408 536/625/408 537/626/408
f 520/608/409 521/609/409 537/626/409 538/627/409
f 518/606/410 520/608/410 538/627/410 539/628/410
f 519/607/411 518/606/411 539/628/411 540/629/411
f 541/630/412 519/607/412 540/629/412 542/631/412
f 543/632/413 512/600/413 519/607/413 541/630/413
f 544/633/414 505/588/414 512/600/414 543/632/414
f 545/634/415 498/585/415 505/588/415 544/633/415
f 546/635/416 491/572/416 498/579/416 545/636/416
f 547/637/417 479/560/417 491/572/417 546/635/417
f 525/613/418 476/557/418 479/560/418 547/637/418
f 548/638/419 549/639/419 550/640/419 551/641/419
f 549/639/420 552/642/420 553/643/420 550/640/420
f 552/642/421 554/644/421 555/645/421 553/643/421
f 554/644/422 556/646/422 557/647/422 555/645/422
f 556/646/423 558/648/423 559/649/423 557/647/423
f 558/648/424 560/650/424 561/651/424 559/649/424
f 551/641/425 550/640/425 562/652/425 563/653/425
f 550/640/426 553/643/426 564/654/426 562/652/426
f 553/643/427 555/645/427 565/655/427 564/654/427
f 555/645/428 557/647/428 566/656/428 565/655/428
f 557/647/429 559/649/429 567/657/429 566/656/429
f 559/649/430 561/651/430 568/658/430 567/657/430
f 563/653/431 562/652/431 569/659/431 570/660/431
f 562/652/432 564/654/432 571/661/432 569/659/432
f 564/654/433 565/655/433 572/662/433 571/661/433
f 565/655/434 566/656/434 573/663/434 572/662/434
f 566/656/435 567/657/435 574/664/435 573/663/435
f 567/657/436 568/658/436 575/665/436 574/664/436
f 570/660/437 569/659/437 576/666/437 577/667/437
f 569/659/438 571/661/438 578/668/438 576/666/438
f 571/661/439 572/662/439 579/669/439 578/668/439
f 572/662/440 573/663/440 580/670/440 579/669/440
f 573/663/441 574/664/441 581/671/441 580/670/441
f 574/664/442 575/665/442 582/672/442 581/671/442
f 577/667/443 576/666/443 583/673/443 584/674/443
f 576/666/444 578/668/444 585/675/444 583/673/444
f 578/668/445 579/669/445 586/676/445 585/675/445
f 579/669/446 580/670/446 587/677/446 586/676/446
f 580/670/447 581/671/447 588/678/447 587/677/447
f 581/671/448 582/672/448 589/679/448 588/678/448
f 584/674/449 583/673/449 590/680/449 591/681/449
f 583/673/450 585/675/450 592/682/450 590/680/450
f 585/675/451 586/676/451 593/683/451 592/682/451
f 586/676/452 587/677/452 594/684/452 593/683/452
f 587/677/453 588/678/453 595/685/453 594/684/453
f 588/678/454 589/679/454 596/686/454 595/685/454
f 542/631/455 540/629/455 548/638/455 597/687/455
f 540/629/456 539/628/456 549/639/456 548/638/456
f 539/628/457 538/627/457 552/642/457 549/639/457
f 538/627/458 537/626/458 554/644/458 552/642/458
f 537/626/459 536/625/459 556/646/459 554/644/459
f 536/625/460 535/624/460 558/648/460 556/646/460
f 535/624/461 534/623/461 560/650/461 558/648/461
f 534/623/462 533/622/462 598/688/462 560/650/462
f 560/650/463 598/688/463 599/689/463 561/651/463
f 561/651/464 599/689/464 600/690/464 568/658/464
f 568/658/465 600/690/465 601/691/465 575/665/465
f 575/665/466 601/691/466 602/692/466 582/672/466
f 582/672/467 602/692/467 603/693/467 589/679/467
f 589/679/468 603/693/468 604/694/468 596/686/468
f 596/686/469 604/694/469 381/460/469 380/459/469
f 595/685/470 596/686/470 380/459/470 379/458/470
f 594/684/471 595/685/471 379/458/471 378/457/471
f 593/683/472 594/684/472 378/457/472 377/456/472
f 592/682/473 593/683/473 377/456/473 376/455/473
f 590/680/474 592/682/474 376/455/474 375/454/474
f 591/681/475 590/680/475 375/454/475 373/452/475
f 605/695/476 591/681/476 373/452/476 372/451/476
f 606/696/477 584/674/477 591/681/477 605/695/477
f 607/697/478 577/667/478 584/674/478 606/696/478
f 608/698/479 570/660/479 577/667/479 607/697/479
f 609/699/480 563/653/480 570/660/480 608/698/480
f 610/700/481 551/641/481 563/653/481 609/699/481
f 597/687/482 548/638/482 551/641/482 610/700/482
f 611/701/483 612/702/483 613/703/483 614/704/483
f 612/702/484 615/705/484 616/706/484 613/703/484
f 615/705/485 617/707/485 618/708/485 616/706/485
f 617/707/486 619/709/486 620/710/486 618/708/486
f 619/709/487 621/711/487 622/712/487 620/710/487
f 621/711/488 623/713/488 624/714/488 622/712/488
f 614/704/489 613/703/489 625/715/489 626/716/489
f 613/703/490 616/706/490 627/717/490 625/715/490
f 616/706/491 618/708/491 628/718/491 627/717/491
f 618/708/492 620/710/492 629/719/492 628/718/492
f 620/710/493 622/712/493 630/720/493 629/719/493
f 622/712/494 624/714/494 631/721/494 630/720/494
f 626/716/495 625/715/495 632/722/495 633/723/495
f 625/715/496 627/717/496 634/724/496 632/722/496
f 627/717/497 628/718/497 635/725/497 634/724/497
f 628/718/498 629/719/498 636/726/498 635/725/498
f 629/719/499 630/720/499 637/727/499 636/726/499
f 630/720/500 631/721/500 638/728/500 637/727/500
f 633/729/501 632/730/501 639/731/501 640/732/501
f 632/730/502 634/733/502 641/734/502 639/731/502
f 634/733/503 635/735/503 642/736/503 641/734/503
f 635/735/504 636/737/504 643/738/504 642/736/504
f 636/737/505 637/739/505 644/740/505 643/738/505
f 637/739/506 638/741/506 645/742/506 644/740/506
f 640/732/507 639/731/507 646/743/507 647/744/507
f 639/731/508 641/734/508 648/745/508 646/743/508
f 641/734/509 642/736/509 649/746/509 648/745/509
f 642/736/510 643/738/510 650/747/510 649/746/510
f 643/738/511 644/740/511 651/748/511 650/747/511
f 644/740/512 645/742/512 652/749/512 651/748/512
f 647/744/513 646/743/513 653/750/513 654/751/513
f 646/743/514 648/745/514 655/752/514 653/750/514
f 648/745/515 649/746/515 656/753/515 655/752/515
f 649/746/516 650/747/516 657/754/516 656/753/516
f 650/747/517 651/748/517 658/755/517 657/754/517
f 651/748/518 652/749/518 659/756/518 658/755/518
f 398/478/519 453/534/519 611/701/519 397/477/519
f 453/534/520 475/556/520 612/702/520 611/701/520
f 475/556/521 474/555/521 615/705/521 612/702/521
f 474/555/522 473/554/522 617/707/522 615/705/522
f 473/554/523 472/553/523 619/709/523 617/707/523
f 472/553/524 471/552/524 621/711/524 619/709/524
f 471/552/525 469/550/525 623/713/525 621/711/525
f 469/550/526 470/551/526 525/613/526 623/713/526
f 623/713/527 525/613/527 547/637/527 624/714/527
f 624/714/528 547/637/528 546/635/528 631/721/528
f 631/721/529 546/635/529 545/636/529 638/728/529
f 638/741/530 545/634/530 544/633/530 645/742/530
f 645/742/531 544/633/531 543/632/531 652/749/531
f 652/749/532 543/632/532 541/630/532 659/756/532
f 659/756/533 541/630/533 542/631/533 597/687/533
f 658/755/534 659/756/534 597/687/534 610/700/534
f 657/754/535 658/755/535 610/700/535 609/699/535
f 656/753/536 657/754/536 609/699/536 608/698/536
f 655/752/537 656/753/537 608/698/537 607/697/537
f 653/750/538 655/752/538 607/697/538 606/696/538
f 654/751/539 653/750/539 606/696/539 605/695/539
f 374/453/540 654/751/540 605/695/540 372/451/540
f 403/484/541 647/744/541 654/751/541 374/453/541
f 402/482/542 640/732/542 647/744/542 403/484/542
f 401/483/543 633/729/543 640/732/543 402/482/543
f 400/480/544 626/716/544 633/723/544 401/481/544
f 399/479/545 614/704/545 626/716/545 400/480/545
f 397/477/546 611/701/546 614/704/546 399/479/546
f 660/757/547 661/758/547 662/759/547 663/760/547
f 661/758/548 664/761/548 665/762/548 662/759/548
f 664/761/549 666/763/549 667/764/549 665/762/549
f 666/763/550 668/765/550 669/766/550 667/764/550
f 668/765/551 670/767/551 671/768/551 669/766/551
f 670/767/552 672/769/552 673/770/552 671/768/552
f 663/760/553 662/759/553 674/771/553 675/772/553
f 662/759/554 665/762/554 676/773/554 674/771/554
f 665/762/555 667/764/555 677/774/555 676/773/555
f 667/764/556 669/766/556 678/775/556 677/774/556
f 669/766/557 671/768/557 679/776/557 678/775/557
f 671/768/558 673/770/558 680/777/558 679/776/558
f 675/772/559 674/771/559 681/778/559 682/779/559
f 674/771/560 676/773/560 683/780/560 681/778/560
f 676/773/561 677/774/561 684/781/561 683/780/561
f 677/774/562 678/775/562 685/782/562 684/781/562
f 678/775/563 679/776/563 686/783/563 685/782/563
f 679/776/564 680/777/564 687/784/564 686/783/564
f 682/785/565 681/786/565 688/787/565 689/788/565
f 681/786/566 683/789/566 690/790/566 688/787/566
f 683/789/567 684/791/567 691/792/567 690/790/567
f 684/791/568 685/793/568 692/794/568 691/792/568
f 685/793/569 686/795/569 693/796/569 692/794/569
f 686/795/570 687/797/570 694/798/570 693/796/570
f 689/788/571 688/787/571 695/799/571 696/800/571
f 688/787/572 690/790/572 697/801/572 695/799/572
f 690/790/573 691/792/573 698/802/573 697/801/573
f 691/792/574 692/794/574 699/803/574 698/802/574
f 692/794/575 693/796/575 700/804/575 699/803/575
f 693/796/576 694/798/576 701/805/576 700/804/576
f 696/800/577 695/799/577 702/806/577 703/807/577
f 695/799/578 697/801/578 704/808/578 702/806/578
f 697/801/579 698/802/579 705/809/579 704/808/579
f 698/802/580 699/803/580 706/810/580 705/809/580
f 699/803/581 700/804/581 707/811/581 706/810/581
f 700/804/582 701/805/582 708/812/582 707/811/582
f 461/542/583 460/541/583 660/757/583 526/614/583
f 460/541/584 459/540/584 661/758/584 660/757/584
f 459/540/585 458/539/585 664/761/585 661/758/585
f 458/539/586 457/538/586 666/763/586 664/761/586
f 457/538/587 456/537/587 668/765/587 666/763/587
f 456/537/588 455/536/588 670/767/588 668/765/588
f 455/536/589 454/535/589 672/769/589 670/767/589
f 454/535/590 389/469/590 388/468/590 672/769/590
f 672/769/591 388/468/591 387/467/591 673/770/591
f 673/770/592 387/467/592 386/466/592 680/777/592
f 680/777/593 386/466/593 385/465/593 687/784/593
f 687/797/594 385/464/594 384/463/594 694/798/594
f 694/798/595 384/463/595 383/462/595 701/805/595
f 701/805/596 383/462/596 382/461/596 708/812/596
f 708/812/597 382/461/597 381/460/597 604/694/597
f 707/811/598 708/812/598 604/694/598 603/693/598
f 706/810/599 707/811/599 603/693/599 602/692/599
f 705/809/600 706/810/600 602/692/600 601/691/600
f 704/808/601 705/809/601 601/691/601 600/690/601
f 702/806/602 704/808/602 600/690/602 599/689/602
f 703/807/603 702/806/603 599/689/603 598/688/603
f 532/621/604 703/807/604 598/688/604 533/622/604
f 531/620/605 696/800/605 703/807/605 532/621/605
f 530/619/606 689/788/606 696/800/606 531/620/606
f 529/618/607 682/785/607 689/788/607 530/619/607
f 528/616/608 675/772/608 682/779/608 529/617/608
f 527/615/609 663/760/609 675/772/609 528/616/609
f 526/614/610 660/757/610 663/760/610 527/615/610
