# Blender 5.1.1
# www.blender.org
mtllib r_ankle.mtl
o export_r_ankle_part
v 0.019942 -0.016932 -0.035469
v 0.021916 -0.011882 -0.036647
v 0.025117 -0.012399 -0.031548
v 0.022657 -0.017855 -0.030720
v 0.027403 -0.012866 -0.025738
v 0.024691 -0.018604 -0.025169
v 0.028712 -0.013065 -0.019503
v 0.025915 -0.018902 -0.019153
v 0.028980 -0.012866 -0.013137
v 0.026211 -0.018604 -0.013021
v 0.028196 -0.012399 -0.006943
v 0.025608 -0.017855 -0.007140
v 0.026349 -0.011882 -0.001213
v 0.024146 -0.016932 -0.001867
v 0.023142 -0.006121 -0.037555
v 0.026594 -0.006350 -0.032204
v 0.029026 -0.006572 -0.026165
v 0.030395 -0.006671 -0.019713
v 0.030658 -0.006572 -0.013123
v 0.029789 -0.006350 -0.006671
v 0.027761 -0.006121 -0.000634
v 0.023569 -0.000000 -0.037908
v 0.027091 -0.000000 -0.032466
v 0.029567 -0.000000 -0.026333
v 0.030957 -0.000000 -0.019783
v 0.031223 -0.000000 -0.013093
v 0.030334 -0.000000 -0.006539
v 0.028262 -0.000000 -0.000397
v 0.023142 0.006121 -0.037555
v 0.026594 0.006350 -0.032204
v 0.029026 0.006572 -0.026165
v 0.030395 0.006671 -0.019713
v 0.030658 0.006572 -0.013123
v 0.029789 0.006350 -0.006671
v 0.027761 0.006121 -0.000634
v 0.021916 0.011882 -0.036647
v 0.025117 0.012398 -0.031548
v 0.027403 0.012866 -0.025738
v 0.028712 0.013064 -0.019503
v 0.028980 0.012866 -0.013137
v 0.028196 0.012398 -0.006943
v 0.026349 0.011882 -0.001213
v 0.019942 0.016932 -0.035469
v 0.022657 0.017855 -0.030720
v 0.024691 0.018604 -0.025169
v 0.025915 0.018902 -0.019153
v 0.026211 0.018604 -0.013021
v 0.025608 0.017855 -0.007140
v 0.024146 0.016932 -0.001867
v 0.015311 -0.019608 -0.037587
v 0.016507 -0.016426 -0.039124
v 0.017073 -0.020985 -0.034600
v 0.019139 -0.022468 -0.030029
v 0.020876 -0.023515 -0.024585
v 0.022009 -0.023905 -0.018664
v 0.022370 -0.023515 -0.012646
v 0.022028 -0.022468 -0.006942
v 0.021151 -0.020985 -0.002003
v 0.021717 -0.016426 0.002521
v 0.020180 -0.019608 0.001326
v 0.023373 -0.011634 0.003809
v 0.024542 -0.006016 0.004718
v 0.024977 -0.000000 0.005056
v 0.024542 0.006016 0.004718
v 0.023373 0.011633 0.003809
v 0.021717 0.016426 0.002521
v 0.021151 0.020985 -0.002003
v 0.020180 0.019608 0.001326
v 0.022028 0.022468 -0.006942
v 0.022370 0.023515 -0.012646
v 0.022009 0.023905 -0.018664
v 0.020876 0.023515 -0.024585
v 0.019139 0.022468 -0.030029
v 0.017073 0.020985 -0.034600
v 0.016507 0.016426 -0.039124
v 0.015311 0.019608 -0.037587
v 0.017794 0.011633 -0.040780
v 0.018703 0.006016 -0.041949
v 0.019042 -0.000000 -0.042384
v 0.018703 -0.006016 -0.041949
v 0.017794 -0.011634 -0.040780
v 0.012988 0.023940 -0.034599
v 0.007863 0.026045 -0.034888
v 0.009053 0.028588 -0.029538
v 0.014531 0.026045 -0.029703
v 0.010267 0.030135 -0.023594
v 0.015990 0.027374 -0.024080
v 0.011253 0.030660 -0.017318
v 0.017045 0.027841 -0.018043
v 0.011844 0.030135 -0.010993
v 0.017509 0.027374 -0.011932
v 0.012131 0.028588 -0.004933
v 0.017481 0.026045 -0.006123
v 0.012296 0.026045 0.000546
v 0.017192 0.023940 -0.000997
v 0.002054 0.027374 -0.034916
v 0.002993 0.030135 -0.029251
v 0.003995 0.031799 -0.023033
v 0.004909 0.032356 -0.016525
v 0.005626 0.031799 -0.009991
v 0.006187 0.030135 -0.003719
v 0.006673 0.027374 0.002004
v -0.004057 0.027841 -0.034452
v -0.003333 0.030660 -0.028660
v -0.002539 0.032356 -0.022316
v -0.001711 0.032922 -0.015696
v -0.000882 0.032356 -0.009077
v -0.000089 0.030660 -0.002733
v 0.000636 0.027841 0.003059
v -0.010094 0.027374 -0.033397
v -0.009608 0.030135 -0.027674
v -0.009048 0.031799 -0.021402
v -0.008330 0.032356 -0.014868
v -0.007416 0.031799 -0.008359
v -0.006414 0.030135 -0.002142
v -0.005475 0.027374 0.003524
v -0.015717 0.026045 -0.031938
v -0.015552 0.028588 -0.026460
v -0.015265 0.030135 -0.020400
v -0.014674 0.030660 -0.014074
v -0.013689 0.030135 -0.007799
v -0.012474 0.028588 -0.001855
v -0.011284 0.026045 0.003496
v -0.020614 0.023940 -0.030395
v -0.020903 0.026045 -0.025270
v -0.020931 0.027374 -0.019461
v -0.020466 0.027841 -0.013350
v -0.019411 0.027374 -0.007313
v -0.017953 0.026045 -0.001690
v -0.016410 0.023940 0.003207
v 0.011983 0.020985 -0.038558
v 0.017193 0.020985 0.003087
v 0.012622 0.022468 0.005154
v 0.007178 0.023515 0.006890
v 0.001257 0.023905 0.008024
v -0.004761 0.023515 0.008384
v -0.010465 0.022468 0.008042
v -0.015404 0.020985 0.007166
v -0.020494 0.020985 0.003207
v -0.018733 0.019608 0.006194
v -0.022561 0.022468 -0.001364
v -0.024297 0.023515 -0.006808
v -0.025431 0.023905 -0.012729
v -0.025791 0.023515 -0.018746
v -0.025449 0.022468 -0.024450
v -0.024573 0.020985 -0.029390
v -0.020614 0.020985 -0.034480
v -0.023601 0.019608 -0.032718
v -0.016043 0.022468 -0.036546
v -0.010599 0.023515 -0.038283
v -0.004678 0.023905 -0.039416
v 0.001339 0.023515 -0.039777
v 0.007043 0.022468 -0.039435
v -0.027567 0.016932 -0.029525
v -0.029771 0.011882 -0.030180
v -0.031617 0.012398 -0.024450
v -0.029029 0.017855 -0.024253
v -0.032401 0.012866 -0.018256
v -0.029633 0.018604 -0.018372
v -0.032134 0.013064 -0.011890
v -0.029337 0.018902 -0.012240
v -0.030825 0.012866 -0.005655
v -0.028113 0.018604 -0.006224
v -0.028538 0.012398 0.000155
v -0.026079 0.017855 -0.000673
v -0.025337 0.011882 0.005254
v -0.023363 0.016932 0.004077
v -0.031182 0.006121 -0.030758
v -0.033210 0.006350 -0.024721
v -0.034079 0.006572 -0.018270
v -0.033816 0.006671 -0.011679
v -0.032448 0.006572 -0.005228
v -0.030016 0.006350 0.000811
v -0.026563 0.006121 0.006162
v -0.031683 -0.000000 -0.030995
v -0.033756 -0.000000 -0.024853
v -0.034644 -0.000000 -0.018299
v -0.034378 -0.000000 -0.011609
v -0.032988 -0.000000 -0.005060
v -0.030512 -0.000000 0.001073
v -0.026990 -0.000000 0.006516
v -0.031182 -0.006121 -0.030758
v -0.033210 -0.006350 -0.024721
v -0.034079 -0.006572 -0.018270
v -0.033816 -0.006671 -0.011679
v -0.032448 -0.006572 -0.005228
v -0.030016 -0.006350 0.000811
v -0.026563 -0.006121 0.006162
v -0.029771 -0.011882 -0.030180
v -0.031617 -0.012399 -0.024450
v -0.032401 -0.012866 -0.018256
v -0.032134 -0.013065 -0.011890
v -0.030825 -0.012866 -0.005655
v -0.028538 -0.012399 0.000155
v -0.025337 -0.011882 0.005254
v -0.027567 -0.016932 -0.029525
v -0.029029 -0.017855 -0.024253
v -0.029633 -0.018604 -0.018372
v -0.029337 -0.018902 -0.012240
v -0.028113 -0.018604 -0.006224
v -0.026079 -0.017855 -0.000673
v -0.023363 -0.016932 0.004077
v -0.025139 0.016426 -0.033914
v -0.019928 0.016426 0.007732
v -0.021216 0.011633 0.009387
v -0.022125 0.006016 0.010556
v -0.022463 -0.000000 0.010991
v -0.022125 -0.006016 0.010556
v -0.021216 -0.011634 0.009387
v -0.019928 -0.016426 0.007732
v -0.020494 -0.020985 0.003207
v -0.018733 -0.019608 0.006194
v -0.022561 -0.022468 -0.001364
v -0.024297 -0.023515 -0.006808
v -0.025431 -0.023905 -0.012729
v -0.025791 -0.023515 -0.018746
v -0.025449 -0.022468 -0.024450
v -0.024573 -0.020985 -0.029390
v -0.025139 -0.016426 -0.033914
v -0.023601 -0.019608 -0.032718
v -0.026794 -0.011634 -0.035201
v -0.027963 -0.006016 -0.036110
v -0.028398 -0.000000 -0.036449
v -0.027963 0.006016 -0.036110
v -0.026794 0.011633 -0.035201
v -0.020614 -0.023940 -0.030395
v -0.015717 -0.026045 -0.031938
v -0.015552 -0.028588 -0.026460
v -0.020903 -0.026045 -0.025270
v -0.015265 -0.030135 -0.020400
v -0.020931 -0.027374 -0.019461
v -0.014674 -0.030660 -0.014074
v -0.020466 -0.027842 -0.013350
v -0.013688 -0.030135 -0.007799
v -0.019411 -0.027374 -0.007313
v -0.012474 -0.028588 -0.001855
v -0.017953 -0.026045 -0.001690
v -0.011284 -0.026045 0.003496
v -0.016410 -0.023940 0.003207
v -0.010094 -0.027374 -0.033397
v -0.009608 -0.030135 -0.027674
v -0.009048 -0.031799 -0.021402
v -0.008330 -0.032356 -0.014868
v -0.007416 -0.031799 -0.008359
v -0.006414 -0.030135 -0.002142
v -0.005475 -0.027374 0.003524
v -0.004057 -0.027842 -0.034452
v -0.003333 -0.030660 -0.028660
v -0.002539 -0.032356 -0.022316
v -0.001711 -0.032922 -0.015696
v -0.000882 -0.032356 -0.009077
v -0.000089 -0.030660 -0.002733
v 0.000636 -0.027842 0.003059
v 0.002054 -0.027374 -0.034916
v 0.002993 -0.030135 -0.029251
v 0.003995 -0.031799 -0.023033
v 0.004909 -0.032356 -0.016525
v 0.005626 -0.031799 -0.009991
v 0.006187 -0.030135 -0.003719
v 0.006673 -0.027374 0.002004
v 0.007863 -0.026045 -0.034888
v 0.009053 -0.028588 -0.029538
v 0.010267 -0.030135 -0.023594
v 0.011253 -0.030660 -0.017318
v 0.011844 -0.030135 -0.010993
v 0.012131 -0.028588 -0.004933
v 0.012296 -0.026045 0.000546
v 0.012988 -0.023940 -0.034599
v 0.014531 -0.026045 -0.029703
v 0.015990 -0.027374 -0.024080
v 0.017045 -0.027842 -0.018043
v 0.017509 -0.027374 -0.011932
v 0.017481 -0.026045 -0.006123
v 0.017192 -0.023940 -0.000997
v -0.020615 -0.020985 -0.034480
v -0.015404 -0.020985 0.007166
v -0.010465 -0.022468 0.008042
v -0.004761 -0.023515 0.008384
v 0.001257 -0.023905 0.008024
v 0.007178 -0.023515 0.006890
v 0.012622 -0.022468 0.005154
v 0.017193 -0.020985 0.003087
v 0.011983 -0.020985 -0.038558
v 0.007043 -0.022468 -0.039435
v 0.001339 -0.023515 -0.039777
v -0.004678 -0.023905 -0.039416
v -0.010599 -0.023515 -0.038283
v -0.016043 -0.022468 -0.036546
v 0.012118 0.016932 -0.041553
v 0.012773 0.011882 -0.043756
v 0.007043 0.012398 -0.045603
v 0.006846 0.017855 -0.043015
v 0.000849 0.012866 -0.046387
v 0.000965 0.018604 -0.043618
v -0.005517 0.013064 -0.046119
v -0.005167 0.018902 -0.043322
v -0.011752 0.012866 -0.044810
v -0.011183 0.018604 -0.042098
v -0.017562 0.012398 -0.042524
v -0.016734 0.017855 -0.040064
v -0.022661 0.011882 -0.039323
v -0.021484 0.016932 -0.037349
v 0.013351 0.006121 -0.045168
v 0.007314 0.006350 -0.047196
v 0.000863 0.006572 -0.048065
v -0.005727 0.006671 -0.047802
v -0.012179 0.006572 -0.046433
v -0.018218 0.006350 -0.044001
v -0.023569 0.006121 -0.040549
v 0.013588 -0.000000 -0.045669
v 0.007446 -0.000000 -0.047741
v 0.000892 -0.000000 -0.048630
v -0.005798 -0.000000 -0.048364
v -0.012347 -0.000000 -0.046974
v -0.018480 -0.000000 -0.044498
v -0.023923 -0.000000 -0.040976
v 0.013351 -0.006121 -0.045168
v 0.007314 -0.006350 -0.047196
v 0.000863 -0.006572 -0.048065
v -0.005727 -0.006671 -0.047802
v -0.012179 -0.006572 -0.046433
v -0.018218 -0.006350 -0.044001
v -0.023569 -0.006121 -0.040549
v 0.012773 -0.011882 -0.043756
v 0.007043 -0.012399 -0.045603
v 0.000849 -0.012866 -0.046387
v -0.005517 -0.013065 -0.046119
v -0.011752 -0.012866 -0.044810
v -0.017562 -0.012399 -0.042524
v -0.022661 -0.011882 -0.039323
v 0.012118 -0.016932 -0.041553
v 0.006846 -0.017855 -0.043015
v 0.000965 -0.018604 -0.043618
v -0.005167 -0.018902 -0.043322
v -0.011183 -0.018604 -0.042098
v -0.016734 -0.017855 -0.040064
v -0.021484 -0.016932 -0.037349
v -0.015540 0.016932 0.010160
v -0.016194 0.011882 0.012364
v -0.010464 0.012398 0.014210
v -0.010267 0.017855 0.011622
v -0.004270 0.012866 0.014994
v -0.004386 0.018604 0.012226
v 0.002096 0.013064 0.014727
v 0.001746 0.018902 0.011930
v 0.008331 0.012866 0.013418
v 0.007762 0.018604 0.010706
v 0.014141 0.012398 0.011131
v 0.013313 0.017855 0.008672
v 0.019240 0.011882 0.007930
v 0.018062 0.016932 0.005956
v -0.016773 0.006121 0.013775
v -0.010736 0.006350 0.015803
v -0.004284 0.006572 0.016672
v 0.002306 0.006671 0.016409
v 0.008758 0.006572 0.015041
v 0.014797 0.006350 0.012609
v 0.020148 0.006121 0.009156
v -0.017010 -0.000000 0.014276
v -0.010868 -0.000000 0.016349
v -0.004313 -0.000000 0.017237
v 0.002376 -0.000000 0.016971
v 0.008926 -0.000000 0.015581
v 0.015059 -0.000000 0.013105
v 0.020501 -0.000000 0.009583
v -0.016773 -0.006121 0.013775
v -0.010736 -0.006350 0.015803
v -0.004284 -0.006572 0.016672
v 0.002306 -0.006671 0.016409
v 0.008758 -0.006572 0.015041
v 0.014797 -0.006350 0.012609
v 0.020148 -0.006121 0.009156
v -0.016194 -0.011882 0.012364
v -0.010464 -0.012399 0.014210
v -0.004270 -0.012866 0.014994
v 0.002096 -0.013065 0.014727
v 0.008331 -0.012866 0.013418
v 0.014141 -0.012399 0.011131
v 0.019240 -0.011882 0.007930
v -0.015540 -0.016932 0.010160
v -0.010267 -0.017855 0.011622
v -0.004386 -0.018604 0.012226
v 0.001746 -0.018902 0.011930
v 0.007762 -0.018604 0.010706
v 0.013313 -0.017855 0.008672
v 0.018062 -0.016932 0.005956
vn 0.7518 -0.4151 -0.5124
vn 0.8287 -0.4278 -0.3609
vn 0.8786 -0.4340 -0.1992
vn 0.9006 -0.4340 -0.0234
vn 0.8920 -0.4278 0.1456
vn 0.8549 -0.4151 0.3113
vn 0.8072 -0.2552 -0.5322
vn 0.8927 -0.2567 -0.3704
vn 0.9445 -0.2564 -0.2054
vn 0.9660 -0.2564 -0.0337
vn 0.9564 -0.2567 0.1391
vn 0.9135 -0.2552 0.3169
vn 0.8358 -0.0886 -0.5419
vn 0.9234 -0.0865 -0.3739
vn 0.9746 -0.0848 -0.2074
vn 0.9956 -0.0848 -0.0391
vn 0.9871 -0.0865 0.1349
vn 0.9435 -0.0886 0.3193
vn 0.8358 0.0886 -0.5419
vn 0.9234 0.0865 -0.3739
vn 0.9746 0.0848 -0.2074
vn 0.9956 0.0848 -0.0391
vn 0.9871 0.0865 0.1349
vn 0.9435 0.0886 0.3193
vn 0.8072 0.2552 -0.5322
vn 0.8927 0.2567 -0.3704
vn 0.9445 0.2564 -0.2054
vn 0.9660 0.2564 -0.0337
vn 0.9564 0.2567 0.1391
vn 0.9135 0.2552 0.3169
vn 0.7518 0.4151 -0.5123
vn 0.8287 0.4278 -0.3609
vn 0.8786 0.4340 -0.1993
vn 0.9006 0.4340 -0.0234
vn 0.8920 0.4278 0.1456
vn 0.8549 0.4151 0.3113
vn 0.5867 -0.5325 -0.6101
vn 0.6593 -0.5734 -0.4863
vn 0.7207 -0.6011 -0.3453
vn 0.7652 -0.6161 -0.1866
vn 0.7876 -0.6162 -0.0077
vn 0.7836 -0.6011 0.1571
vn 0.7588 -0.5734 0.3089
vn 0.7190 -0.5325 0.4467
vn 0.7803 -0.4007 0.4803
vn 0.8267 -0.2532 0.5024
vn 0.8529 -0.0901 0.5142
vn 0.8529 0.0901 0.5142
vn 0.8268 0.2532 0.5024
vn 0.7803 0.4007 0.4803
vn 0.7190 0.5325 0.4467
vn 0.7588 0.5734 0.3089
vn 0.7836 0.6011 0.1571
vn 0.7876 0.6161 -0.0077
vn 0.7652 0.6161 -0.1866
vn 0.7207 0.6011 -0.3453
vn 0.6593 0.5734 -0.4863
vn 0.5867 0.5325 -0.6101
vn 0.6379 0.4007 -0.6577
vn 0.6775 0.2532 -0.6906
vn 0.6999 0.0901 -0.7085
vn 0.6999 -0.0901 -0.7085
vn 0.6775 -0.2532 -0.6906
vn 0.6379 -0.4007 -0.6577
vn 0.3603 0.8096 -0.4634
vn 0.3929 0.8671 -0.3064
vn 0.4196 0.8966 -0.1418
vn 0.4416 0.8966 0.0341
vn 0.4562 0.8671 0.2002
vn 0.4634 0.8096 0.3603
vn 0.2002 0.8671 -0.4562
vn 0.2229 0.9318 -0.2866
vn 0.2437 0.9627 -0.1177
vn 0.2652 0.9627 0.0540
vn 0.2866 0.9318 0.2229
vn 0.3064 0.8671 0.3928
vn 0.0341 0.8966 -0.4416
vn 0.0540 0.9627 -0.2652
vn 0.0737 0.9928 -0.0947
vn 0.0947 0.9928 0.0737
vn 0.1177 0.9627 0.2437
vn 0.1418 0.8966 0.4196
vn -0.1418 0.8966 -0.4196
vn -0.1177 0.9627 -0.2437
vn -0.0947 0.9928 -0.0737
vn -0.0737 0.9928 0.0947
vn -0.0540 0.9627 0.2652
vn -0.0341 0.8966 0.4416
vn -0.3064 0.8671 -0.3929
vn -0.2866 0.9318 -0.2229
vn -0.2652 0.9627 -0.0540
vn -0.2437 0.9627 0.1177
vn -0.2229 0.9318 0.2866
vn -0.2002 0.8671 0.4562
vn -0.4634 0.8096 -0.3603
vn -0.4562 0.8671 -0.2002
vn -0.4416 0.8966 -0.0341
vn -0.4196 0.8966 0.1418
vn -0.3929 0.8671 0.3064
vn -0.3603 0.8096 0.4634
vn 0.4623 0.6579 -0.5945
vn 0.5192 0.7146 -0.4688
vn 0.5650 0.7580 -0.3259
vn 0.6002 0.7825 -0.1659
vn 0.6226 0.7825 0.0129
vn 0.6279 0.7580 0.1766
vn 0.6187 0.7146 0.3264
vn 0.5945 0.6579 0.4623
vn 0.4688 0.7146 0.5192
vn 0.3259 0.7580 0.5650
vn 0.1659 0.7825 0.6002
vn -0.0129 0.7825 0.6226
vn -0.1766 0.7580 0.6279
vn -0.3264 0.7146 0.6187
vn -0.4623 0.6579 0.5945
vn -0.5192 0.7146 0.4688
vn -0.5650 0.7580 0.3259
vn -0.6002 0.7825 0.1659
vn -0.6226 0.7825 -0.0129
vn -0.6279 0.7580 -0.1766
vn -0.6187 0.7146 -0.3264
vn -0.5945 0.6579 -0.4623
vn -0.4688 0.7146 -0.5192
vn -0.3259 0.7580 -0.5650
vn -0.1659 0.7825 -0.6002
vn 0.0129 0.7825 -0.6226
vn 0.1766 0.7580 -0.6279
vn 0.3264 0.7146 -0.6187
vn -0.8549 0.4151 -0.3113
vn -0.8920 0.4278 -0.1456
vn -0.9006 0.4340 0.0234
vn -0.8786 0.4340 0.1992
vn -0.8287 0.4278 0.3609
vn -0.7518 0.4151 0.5123
vn -0.9135 0.2552 -0.3169
vn -0.9564 0.2567 -0.1391
vn -0.9660 0.2564 0.0337
vn -0.9445 0.2564 0.2054
vn -0.8927 0.2567 0.3704
vn -0.8072 0.2552 0.5322
vn -0.9435 0.0886 -0.3193
vn -0.9871 0.0865 -0.1349
vn -0.9956 0.0848 0.0391
vn -0.9746 0.0848 0.2074
vn -0.9234 0.0865 0.3739
vn -0.8358 0.0886 0.5419
vn -0.9435 -0.0886 -0.3193
vn -0.9871 -0.0865 -0.1349
vn -0.9956 -0.0848 0.0391
vn -0.9746 -0.0848 0.2074
vn -0.9234 -0.0865 0.3739
vn -0.8358 -0.0886 0.5419
vn -0.9135 -0.2552 -0.3169
vn -0.9564 -0.2567 -0.1391
vn -0.9660 -0.2564 0.0337
vn -0.9445 -0.2564 0.2054
vn -0.8927 -0.2567 0.3704
vn -0.8072 -0.2552 0.5322
vn -0.8549 -0.4151 -0.3113
vn -0.8920 -0.4278 -0.1456
vn -0.9006 -0.4340 0.0234
vn -0.8786 -0.4340 0.1992
vn -0.8287 -0.4278 0.3609
vn -0.7518 -0.4151 0.5124
vn -0.7190 0.5325 -0.4467
vn -0.7588 0.5734 -0.3089
vn -0.7836 0.6011 -0.1571
vn -0.7876 0.6161 0.0077
vn -0.7652 0.6161 0.1866
vn -0.7207 0.6011 0.3453
vn -0.6593 0.5734 0.4863
vn -0.5867 0.5325 0.6101
vn -0.6379 0.4007 0.6577
vn -0.6775 0.2532 0.6906
vn -0.6999 0.0901 0.7085
vn -0.6999 -0.0901 0.7085
vn -0.6775 -0.2532 0.6906
vn -0.6379 -0.4007 0.6577
vn -0.5867 -0.5325 0.6101
vn -0.6593 -0.5734 0.4863
vn -0.7207 -0.6011 0.3453
vn -0.7652 -0.6161 0.1866
vn -0.7876 -0.6161 0.0077
vn -0.7836 -0.6011 -0.1571
vn -0.7588 -0.5734 -0.3089
vn -0.7190 -0.5325 -0.4467
vn -0.7803 -0.4007 -0.4803
vn -0.8268 -0.2532 -0.5024
vn -0.8529 -0.0901 -0.5142
vn -0.8529 0.0901 -0.5142
vn -0.8268 0.2532 -0.5024
vn -0.7803 0.4007 -0.4803
vn -0.4634 -0.8096 -0.3603
vn -0.4562 -0.8671 -0.2002
vn -0.4416 -0.8966 -0.0341
vn -0.4196 -0.8966 0.1418
vn -0.3929 -0.8671 0.3064
vn -0.3603 -0.8096 0.4634
vn -0.3064 -0.8671 -0.3929
vn -0.2866 -0.9318 -0.2229
vn -0.2652 -0.9627 -0.0540
vn -0.2437 -0.9627 0.1177
vn -0.2229 -0.9318 0.2866
vn -0.2002 -0.8671 0.4562
vn -0.1418 -0.8966 -0.4196
vn -0.1177 -0.9627 -0.2437
vn -0.0947 -0.9928 -0.0737
vn -0.0737 -0.9928 0.0947
vn -0.0540 -0.9627 0.2652
vn -0.0341 -0.8966 0.4416
vn 0.0341 -0.8966 -0.4416
vn 0.0540 -0.9627 -0.2652
vn 0.0737 -0.9928 -0.0947
vn 0.0947 -0.9928 0.0737
vn 0.1177 -0.9627 0.2437
vn 0.1418 -0.8966 0.4196
vn 0.2002 -0.8671 -0.4562
vn 0.2229 -0.9318 -0.2866
vn 0.2437 -0.9627 -0.1177
vn 0.2652 -0.9627 0.0540
vn 0.2866 -0.9318 0.2229
vn 0.3064 -0.8671 0.3929
vn 0.3603 -0.8096 -0.4634
vn 0.3929 -0.8671 -0.3064
vn 0.4196 -0.8966 -0.1418
vn 0.4416 -0.8966 0.0341
vn 0.4562 -0.8671 0.2002
vn 0.4634 -0.8096 0.3603
vn -0.5945 -0.6579 -0.4623
vn -0.6187 -0.7146 -0.3264
vn -0.6279 -0.7580 -0.1766
vn -0.6226 -0.7825 -0.0129
vn -0.6002 -0.7825 0.1659
vn -0.5650 -0.7580 0.3259
vn -0.5192 -0.7146 0.4688
vn -0.4623 -0.6579 0.5945
vn -0.3264 -0.7146 0.6187
vn -0.1766 -0.7580 0.6279
vn -0.0129 -0.7825 0.6226
vn 0.1659 -0.7825 0.6002
vn 0.3259 -0.7580 0.5650
vn 0.4688 -0.7146 0.5192
vn 0.5945 -0.6579 0.4623
vn 0.6187 -0.7146 0.3264
vn 0.6279 -0.7580 0.1766
vn 0.6226 -0.7825 0.0129
vn 0.6002 -0.7825 -0.1659
vn 0.5650 -0.7580 -0.3259
vn 0.5192 -0.7146 -0.4688
vn 0.4623 -0.6579 -0.5945
vn 0.3264 -0.7146 -0.6187
vn 0.1766 -0.7580 -0.6279
vn 0.0129 -0.7825 -0.6226
vn -0.1659 -0.7825 -0.6002
vn -0.3259 -0.7580 -0.5650
vn -0.4688 -0.7146 -0.5192
vn 0.3113 0.4151 -0.8549
vn 0.1456 0.4278 -0.8920
vn -0.0234 0.4340 -0.9006
vn -0.1992 0.4340 -0.8786
vn -0.3609 0.4278 -0.8287
vn -0.5124 0.4151 -0.7518
vn 0.3169 0.2552 -0.9135
vn 0.1391 0.2567 -0.9564
vn -0.0337 0.2564 -0.9660
vn -0.2054 0.2564 -0.9445
vn -0.3704 0.2567 -0.8927
vn -0.5322 0.2552 -0.8072
vn 0.3193 0.0886 -0.9435
vn 0.1349 0.0865 -0.9871
vn -0.0391 0.0848 -0.9956
vn -0.2074 0.0848 -0.9746
vn -0.3739 0.0865 -0.9234
vn -0.5419 0.0886 -0.8358
vn 0.3193 -0.0886 -0.9435
vn 0.1349 -0.0865 -0.9871
vn -0.0391 -0.0848 -0.9956
vn -0.2074 -0.0848 -0.9746
vn -0.3739 -0.0865 -0.9234
vn -0.5419 -0.0886 -0.8358
vn 0.3169 -0.2552 -0.9135
vn 0.1391 -0.2567 -0.9564
vn -0.0337 -0.2564 -0.9660
vn -0.2054 -0.2564 -0.9445
vn -0.3704 -0.2567 -0.8927
vn -0.5322 -0.2552 -0.8072
vn 0.3113 -0.4151 -0.8549
vn 0.1456 -0.4278 -0.8920
vn -0.0234 -0.4340 -0.9006
vn -0.1992 -0.4340 -0.8786
vn -0.3609 -0.4278 -0.8287
vn -0.5124 -0.4151 -0.7518
vn 0.4467 0.5325 -0.7190
vn 0.3089 0.5734 -0.7588
vn 0.1571 0.6011 -0.7836
vn -0.0077 0.6161 -0.7876
vn -0.1866 0.6161 -0.7652
vn -0.3453 0.6011 -0.7207
vn -0.4863 0.5734 -0.6593
vn -0.6101 0.5325 -0.5867
vn -0.6577 0.4007 -0.6379
vn -0.6906 0.2532 -0.6775
vn -0.7085 0.0901 -0.6999
vn -0.7085 -0.0901 -0.6999
vn -0.6906 -0.2532 -0.6775
vn -0.6577 -0.4007 -0.6379
vn -0.6101 -0.5325 -0.5867
vn -0.4863 -0.5734 -0.6593
vn -0.3453 -0.6011 -0.7207
vn -0.1866 -0.6161 -0.7652
vn -0.0077 -0.6161 -0.7876
vn 0.1571 -0.6011 -0.7836
vn 0.3089 -0.5734 -0.7588
vn 0.4467 -0.5325 -0.7190
vn 0.4803 -0.4007 -0.7803
vn 0.5024 -0.2532 -0.8268
vn 0.5142 -0.0901 -0.8529
vn 0.5142 0.0901 -0.8529
vn 0.5024 0.2532 -0.8268
vn 0.4803 0.4007 -0.7803
vn -0.3113 0.4151 0.8549
vn -0.1456 0.4278 0.8920
vn 0.0234 0.4340 0.9006
vn 0.1993 0.4340 0.8786
vn 0.3609 0.4278 0.8287
vn 0.5123 0.4151 0.7518
vn -0.3169 0.2552 0.9135
vn -0.1391 0.2567 0.9564
vn 0.0337 0.2564 0.9660
vn 0.2054 0.2564 0.9445
vn 0.3704 0.2567 0.8927
vn 0.5322 0.2552 0.8072
vn -0.3193 0.0886 0.9435
vn -0.1349 0.0865 0.9871
vn 0.0391 0.0848 0.9956
vn 0.2074 0.0848 0.9746
vn 0.3739 0.0865 0.9234
vn 0.5419 0.0886 0.8358
vn -0.3193 -0.0886 0.9435
vn -0.1349 -0.0865 0.9871
vn 0.0391 -0.0848 0.9956
vn 0.2074 -0.0848 0.9746
vn 0.3739 -0.0865 0.9234
vn 0.5419 -0.0886 0.8358
vn -0.3169 -0.2552 0.9135
vn -0.1391 -0.2567 0.9564
vn 0.0337 -0.2564 0.9660
vn 0.2054 -0.2564 0.9445
vn 0.3704 -0.2567 0.8927
vn 0.5322 -0.2552 0.8072
vn -0.3113 -0.4151 0.8549
vn -0.1456 -0.4278 0.8920
vn 0.0234 -0.4340 0.9006
vn 0.1992 -0.4340 0.8786
vn 0.3609 -0.4278 0.8287
vn 0.5124 -0.4151 0.7518
vn -0.4467 0.5325 0.7190
vn -0.3089 0.5734 0.7588
vn -0.1571 0.6011 0.7836
vn 0.0077 0.6161 0.7876
vn 0.1866 0.6161 0.7652
vn 0.3453 0.6011 0.7207
vn 0.4863 0.5734 0.6593
vn 0.6101 0.5325 0.5867
vn 0.6577 0.4007 0.6379
vn 0.6906 0.2532 0.6775
vn 0.7085 0.0901 0.6999
vn 0.7085 -0.0901 0.6999
vn 0.6906 -0.2532 0.6775
vn 0.6577 -0.4007 0.6379
vn 0.6101 -0.5325 0.5867
vn 0.4863 -0.5734 0.6593
vn 0.3453 -0.6011 0.7207
vn 0.1866 -0.6161 0.7652
vn 0.0077 -0.6161 0.7876
vn -0.1571 -0.6011 0.7836
vn -0.3089 -0.5734 0.7588
vn -0.4467 -0.5325 0.7190
vn -0.4803 -0.4007 0.7803
vn -0.5024 -0.2532 0.8268
vn -0.5142 -0.0901 0.8529
vn -0.5142 0.0901 0.8529
vn -0.5024 0.2532 0.8268
vn -0.4803 0.4007 0.7803
vt 0.037772 0.954326
vt 0.039565 0.956907
vt 0.036373 0.958564
vt 0.035036 0.955445
vt 0.032822 0.959646
vt 0.031995 0.956187
vt 0.029088 0.960168
vt 0.028819 0.956573
vt 0.025319 0.960208
vt 0.025621 0.956665
vt 0.021646 0.959668
vt 0.022503 0.956384
vt 0.018243 0.958505
vt 0.019631 0.955685
vt 0.041900 0.959912
vt 0.038166 0.962161
vt 0.033938 0.963697
vt 0.029408 0.964438
vt 0.024819 0.964381
vt 0.020410 0.963491
vt 0.016382 0.961825
vt 0.044776 0.963437
vt 0.040449 0.966402
vt 0.035409 0.968574
vt 0.029805 0.969734
vt 0.024092 0.969422
vt 0.018784 0.968025
vt 0.014063 0.965738
vt 0.151176 0.929892
vt 0.155389 0.931606
vt 0.154337 0.935836
vt 0.149612 0.934899
vt 0.154110 0.940329
vt 0.149016 0.940355
vt 0.154732 0.944876
vt 0.149553 0.946052
vt 0.156134 0.949246
vt 0.151529 0.951422
vt 0.158280 0.953200
vt 0.154423 0.956086
vt 0.161055 0.956560
vt 0.157995 0.959926
vt 0.158947 0.932956
vt 0.158301 0.936494
vt 0.158310 0.940206
vt 0.158907 0.943928
vt 0.159976 0.947543
vt 0.161571 0.950895
vt 0.163682 0.953806
vt 0.161942 0.933912
vt 0.161676 0.936855
vt 0.161859 0.939980
vt 0.162423 0.943129
vt 0.163274 0.946214
vt 0.164458 0.949111
vt 0.165969 0.951651
vt 0.038458 0.951400
vt 0.039947 0.952682
vt 0.036662 0.951973
vt 0.034170 0.952614
vt 0.031425 0.953118
vt 0.028582 0.953415
vt 0.025727 0.953545
vt 0.022937 0.953456
vt 0.020378 0.953194
vt 0.017235 0.954384
vt 0.018517 0.952894
vt 0.015293 0.956640
vt 0.012883 0.959441
vt 0.010029 0.962757
vt 0.164361 0.959205
vt 0.162030 0.962907
vt 0.166331 0.956079
vt 0.167918 0.953560
vt 0.168132 0.950206
vt 0.168965 0.951897
vt 0.167130 0.947836
vt 0.166225 0.945195
vt 0.165511 0.942428
vt 0.164960 0.939624
vt 0.164635 0.936852
vt 0.164516 0.934282
vt 0.162875 0.931349
vt 0.164537 0.932396
vt 0.160355 0.929762
vt 0.157229 0.927793
vt 0.153527 0.925461
vt 0.045005 0.957034
vt 0.048321 0.959888
vt 0.042204 0.954624
vt 0.166936 0.933907
vt 0.169410 0.933187
vt 0.169987 0.935829
vt 0.167355 0.936450
vt 0.170507 0.938497
vt 0.167787 0.939107
vt 0.171061 0.941168
vt 0.168320 0.941791
vt 0.171715 0.943816
vt 0.168998 0.944441
vt 0.172398 0.946447
vt 0.169756 0.947024
vt 0.173019 0.949079
vt 0.170476 0.949498
vt 0.171993 0.932429
vt 0.172618 0.935146
vt 0.173196 0.937851
vt 0.173780 0.940551
vt 0.174419 0.943238
vt 0.175066 0.945927
vt 0.175676 0.948648
vt 0.174644 0.931751
vt 0.175266 0.934493
vt 0.175884 0.937212
vt 0.176501 0.939933
vt 0.177119 0.942654
vt 0.177737 0.945373
vt 0.178359 0.948114
vt 0.177327 0.931218
vt 0.177937 0.933938
vt 0.178584 0.936627
vt 0.179222 0.939315
vt 0.179807 0.942015
vt 0.180385 0.944719
vt 0.181010 0.947436
vt 0.179984 0.930786
vt 0.180605 0.933418
vt 0.181288 0.936049
vt 0.181941 0.938698
vt 0.182496 0.941369
vt 0.183016 0.944037
vt 0.183593 0.946678
vt 0.182527 0.930367
vt 0.183247 0.932842
vt 0.184005 0.935424
vt 0.184683 0.938075
vt 0.185216 0.940759
vt 0.185648 0.943416
vt 0.186067 0.945958
vt 0.166229 0.931563
vt 0.170850 0.951918
vt 0.173420 0.951799
vt 0.176193 0.951474
vt 0.178997 0.950923
vt 0.181764 0.950209
vt 0.184405 0.949305
vt 0.186774 0.948302
vt 0.188487 0.945584
vt 0.188466 0.947469
vt 0.188368 0.943014
vt 0.188043 0.940242
vt 0.187492 0.937437
vt 0.186778 0.934670
vt 0.185874 0.932029
vt 0.184871 0.929660
vt 0.182153 0.927948
vt 0.184038 0.927969
vt 0.179583 0.928067
vt 0.176810 0.928391
vt 0.174006 0.928942
vt 0.171239 0.929656
vt 0.168598 0.930561
vt 0.187034 0.928214
vt 0.189321 0.926059
vt 0.191432 0.928971
vt 0.188545 0.930754
vt 0.193027 0.932323
vt 0.189729 0.933652
vt 0.194096 0.935938
vt 0.190580 0.936736
vt 0.194693 0.939660
vt 0.191144 0.939886
vt 0.194702 0.943372
vt 0.191327 0.943010
vt 0.194055 0.946910
vt 0.191061 0.945954
vt 0.191948 0.923305
vt 0.194723 0.926666
vt 0.196869 0.930620
vt 0.198271 0.934990
vt 0.198893 0.939537
vt 0.198666 0.944030
vt 0.197614 0.948259
vt 0.195008 0.919940
vt 0.198580 0.923780
vt 0.201474 0.928444
vt 0.203450 0.933814
vt 0.203987 0.939511
vt 0.203391 0.944967
vt 0.201827 0.949974
vt 0.041417 0.918615
vt 0.039098 0.922528
vt 0.035071 0.920862
vt 0.036696 0.916327
vt 0.030661 0.919972
vt 0.031389 0.914931
vt 0.026072 0.919915
vt 0.025675 0.914619
vt 0.021542 0.920656
vt 0.020072 0.915779
vt 0.017315 0.922193
vt 0.015031 0.917951
vt 0.013581 0.924440
vt 0.010705 0.920916
vt 0.037237 0.925848
vt 0.033834 0.924685
vt 0.030161 0.924144
vt 0.026392 0.924184
vt 0.022659 0.924707
vt 0.019107 0.925788
vt 0.015916 0.927445
vt 0.035849 0.928667
vt 0.032977 0.927969
vt 0.029859 0.927688
vt 0.026661 0.927780
vt 0.023485 0.928166
vt 0.020444 0.928908
vt 0.017709 0.930027
vt 0.185085 0.926306
vt 0.190128 0.948517
vt 0.192648 0.950104
vt 0.195774 0.952073
vt 0.199476 0.954405
vt 0.010475 0.927319
vt 0.007159 0.924465
vt 0.013276 0.929729
vt 0.015533 0.931671
vt 0.018818 0.932380
vt 0.017022 0.932953
vt 0.021310 0.931738
vt 0.024055 0.931234
vt 0.026898 0.930938
vt 0.029753 0.930808
vt 0.032543 0.930897
vt 0.035102 0.931159
vt 0.038245 0.929969
vt 0.036964 0.931459
vt 0.040187 0.927712
vt 0.042598 0.924912
vt 0.045451 0.921596
vt 0.188642 0.920660
vt 0.190973 0.916959
vt 0.186672 0.923787
vt 0.035114 0.933607
vt 0.035461 0.936161
vt 0.032762 0.936341
vt 0.032538 0.933646
vt 0.030047 0.936460
vt 0.029846 0.933680
vt 0.027323 0.936614
vt 0.027113 0.933810
vt 0.024607 0.936868
vt 0.024391 0.934088
vt 0.021904 0.937154
vt 0.021725 0.934456
vt 0.019210 0.937379
vt 0.019171 0.934802
vt 0.035828 0.938828
vt 0.033049 0.939044
vt 0.030288 0.939215
vt 0.027532 0.939394
vt 0.024779 0.939628
vt 0.022024 0.939870
vt 0.019243 0.940070
vt 0.036106 0.941550
vt 0.033303 0.941759
vt 0.030523 0.941968
vt 0.027740 0.942176
vt 0.024958 0.942385
vt 0.022177 0.942593
vt 0.019374 0.942803
vt 0.036237 0.944283
vt 0.033456 0.944483
vt 0.030701 0.944725
vt 0.027949 0.944959
vt 0.025192 0.945138
vt 0.022432 0.945309
vt 0.019652 0.945525
vt 0.036271 0.946974
vt 0.033576 0.947199
vt 0.030873 0.947485
vt 0.028157 0.947739
vt 0.025434 0.947892
vt 0.022718 0.948012
vt 0.020020 0.948192
vt 0.036309 0.949551
vt 0.033755 0.949897
vt 0.031089 0.950264
vt 0.028367 0.950543
vt 0.025634 0.950673
vt 0.022943 0.950707
vt 0.020366 0.950745
vt 0.037537 0.933255
vt 0.016723 0.934814
vt 0.016460 0.937374
vt 0.016371 0.940164
vt 0.016501 0.943019
vt 0.016798 0.945861
vt 0.017302 0.948607
vt 0.017943 0.951098
vt 0.038757 0.949538
vt 0.039020 0.946979
vt 0.039109 0.944189
vt 0.038979 0.941334
vt 0.038682 0.938492
vt 0.038178 0.935746
vt 0.164783 0.929401
vt 0.162628 0.927113
vt 0.165540 0.925002
vt 0.167323 0.927890
vt 0.168892 0.923407
vt 0.170221 0.926706
vt 0.172507 0.922338
vt 0.173305 0.925854
vt 0.176229 0.921741
vt 0.176454 0.925290
vt 0.179941 0.921732
vt 0.179579 0.925107
vt 0.183478 0.922379
vt 0.182522 0.925373
vt 0.159874 0.924486
vt 0.163235 0.921711
vt 0.167189 0.919565
vt 0.171558 0.918163
vt 0.176106 0.917541
vt 0.180598 0.917768
vt 0.184828 0.918820
vt 0.156508 0.921427
vt 0.160349 0.917854
vt 0.165012 0.914960
vt 0.170383 0.912984
vt 0.176080 0.912447
vt 0.181536 0.913043
vt 0.186542 0.914607
vt 0.051302 0.955853
vt 0.047388 0.953534
vt 0.049055 0.949507
vt 0.053589 0.951133
vt 0.049944 0.945097
vt 0.054986 0.945825
vt 0.050001 0.940508
vt 0.055298 0.940111
vt 0.049261 0.935979
vt 0.054138 0.934508
vt 0.047724 0.931751
vt 0.051966 0.929467
vt 0.045476 0.928017
vt 0.049001 0.925141
vt 0.044069 0.951673
vt 0.045232 0.948270
vt 0.045772 0.944598
vt 0.045732 0.940828
vt 0.045210 0.937095
vt 0.044128 0.933544
vt 0.042471 0.930352
vt 0.041249 0.950285
vt 0.041948 0.947413
vt 0.042229 0.944296
vt 0.042137 0.941098
vt 0.041751 0.937922
vt 0.041008 0.934880
vt 0.039890 0.932145
vt 0.188220 0.950465
vt 0.190375 0.952753
vt 0.187463 0.954864
vt 0.185680 0.951976
vt 0.184111 0.956459
vt 0.182782 0.953160
vt 0.180496 0.957527
vt 0.179698 0.954011
vt 0.176774 0.958125
vt 0.176549 0.954575
vt 0.173062 0.958134
vt 0.173424 0.954759
vt 0.169525 0.957487
vt 0.170480 0.954493
vt 0.193129 0.955379
vt 0.189768 0.958155
vt 0.185814 0.960300
vt 0.181444 0.961702
vt 0.176897 0.962325
vt 0.172404 0.962097
vt 0.168175 0.961045
vt 0.196495 0.958439
vt 0.192654 0.962012
vt 0.187991 0.964906
vt 0.182620 0.966882
vt 0.176923 0.967418
vt 0.171467 0.966822
vt 0.166461 0.965259
vt 0.004178 0.928500
vt 0.008092 0.930818
vt 0.006426 0.934846
vt 0.001891 0.933220
vt 0.005536 0.939256
vt 0.000495 0.938528
vt 0.005479 0.943845
vt 0.000183 0.944241
vt 0.006219 0.948374
vt 0.001343 0.949845
vt 0.007756 0.952602
vt 0.003515 0.954885
vt 0.010004 0.956336
vt 0.006480 0.959212
vt 0.011411 0.932680
vt 0.010249 0.936083
vt 0.009708 0.939755
vt 0.009748 0.943525
vt 0.010270 0.947258
vt 0.011352 0.950809
vt 0.013009 0.954001
vt 0.014231 0.934068
vt 0.013532 0.936939
vt 0.013252 0.940057
vt 0.013344 0.943255
vt 0.013729 0.946431
vt 0.014472 0.949472
vt 0.015591 0.952208
s 0
usemtl lay_figure_material
f 1/1/1 2/2/1 3/3/1 4/4/1
f 4/4/2 3/3/2 5/5/2 6/6/2
f 6/6/3 5/5/3 7/7/3 8/8/3
f 8/8/4 7/7/4 9/9/4 10/10/4
f 10/10/5 9/9/5 11/11/5 12/12/5
f 12/12/6 11/11/6 13/13/6 14/14/6
f 2/2/7 15/15/7 16/16/7 3/3/7
f 3/3/8 16/16/8 17/17/8 5/5/8
f 5/5/9 17/17/9 18/18/9 7/7/9
f 7/7/10 18/18/10 19/19/10 9/9/10
f 9/9/11 19/19/11 20/20/11 11/11/11
f 11/11/12 20/20/12 21/21/12 13/13/12
f 15/15/13 22/22/13 23/23/13 16/16/13
f 16/16/14 23/23/14 24/24/14 17/17/14
f 17/17/15 24/24/15 25/25/15 18/18/15
f 18/18/16 25/25/16 26/26/16 19/19/16
f 19/19/17 26/26/17 27/27/17 20/20/17
f 20/20/18 27/27/18 28/28/18 21/21/18
f 22/29/19 29/30/19 30/31/19 23/32/19
f 23/32/20 30/31/20 31/33/20 24/34/20
f 24/34/21 31/33/21 32/35/21 25/36/21
f 25/36/22 32/35/22 33/37/22 26/38/22
f 26/38/23 33/37/23 34/39/23 27/40/23
f 27/40/24 34/39/24 35/41/24 28/42/24
f 29/30/25 36/43/25 37/44/25 30/31/25
f 30/31/26 37/44/26 38/45/26 31/33/26
f 31/33/27 38/45/27 39/46/27 32/35/27
f 32/35/28 39/46/28 40/47/28 33/37/28
f 33/37/29 40/47/29 41/48/29 34/39/29
f 34/39/30 41/48/30 42/49/30 35/41/30
f 36/43/31 43/50/31 44/51/31 37/44/31
f 37/44/32 44/51/32 45/52/32 38/45/32
f 38/45/33 45/52/33 46/53/33 39/46/33
f 39/46/34 46/53/34 47/54/34 40/47/34
f 40/47/35 47/54/35 48/55/35 41/48/35
f 41/48/36 48/55/36 49/56/36 42/49/36
f 50/57/37 51/58/37 1/1/37 52/59/37
f 52/59/38 1/1/38 4/4/38 53/60/38
f 53/60/39 4/4/39 6/6/39 54/61/39
f 54/61/40 6/6/40 8/8/40 55/62/40
f 55/62/41 8/8/41 10/10/41 56/63/41
f 56/63/42 10/10/42 12/12/42 57/64/42
f 57/64/43 12/12/43 14/14/43 58/65/43
f 58/65/44 14/14/44 59/66/44 60/67/44
f 14/14/45 13/13/45 61/68/45 59/66/45
f 13/13/46 21/21/46 62/69/46 61/68/46
f 21/21/47 28/28/47 63/70/47 62/69/47
f 28/42/48 35/41/48 64/71/48 63/72/48
f 35/41/49 42/49/49 65/73/49 64/71/49
f 42/49/50 49/56/50 66/74/50 65/73/50
f 49/56/51 67/75/51 68/76/51 66/74/51
f 48/55/52 69/77/52 67/75/52 49/56/52
f 47/54/53 70/78/53 69/77/53 48/55/53
f 46/53/54 71/79/54 70/78/54 47/54/54
f 45/52/55 72/80/55 71/79/55 46/53/55
f 44/51/56 73/81/56 72/80/56 45/52/56
f 43/50/57 74/82/57 73/81/57 44/51/57
f 75/83/58 76/84/58 74/82/58 43/50/58
f 77/85/59 75/83/59 43/50/59 36/43/59
f 78/86/60 77/85/60 36/43/60 29/30/60
f 79/87/61 78/86/61 29/30/61 22/29/61
f 80/88/62 79/89/62 22/22/62 15/15/62
f 81/90/63 80/88/63 15/15/63 2/2/63
f 51/58/64 81/90/64 2/2/64 1/1/64
f 82/91/65 83/92/65 84/93/65 85/94/65
f 85/94/66 84/93/66 86/95/66 87/96/66
f 87/96/67 86/95/67 88/97/67 89/98/67
f 89/98/68 88/97/68 90/99/68 91/100/68
f 91/100/69 90/99/69 92/101/69 93/102/69
f 93/102/70 92/101/70 94/103/70 95/104/70
f 83/92/71 96/105/71 97/106/71 84/93/71
f 84/93/72 97/106/72 98/107/72 86/95/72
f 86/95/73 98/107/73 99/108/73 88/97/73
f 88/97/74 99/108/74 100/109/74 90/99/74
f 90/99/75 100/109/75 101/110/75 92/101/75
f 92/101/76 101/110/76 102/111/76 94/103/76
f 96/105/77 103/112/77 104/113/77 97/106/77
f 97/106/78 104/113/78 105/114/78 98/107/78
f 98/107/79 105/114/79 106/115/79 99/108/79
f 99/108/80 106/115/80 107/116/80 100/109/80
f 100/109/81 107/116/81 108/117/81 101/110/81
f 101/110/82 108/117/82 109/118/82 102/111/82
f 103/112/83 110/119/83 111/120/83 104/113/83
f 104/113/84 111/120/84 112/121/84 105/114/84
f 105/114/85 112/121/85 113/122/85 106/115/85
f 106/115/86 113/122/86 114/123/86 107/116/86
f 107/116/87 114/123/87 115/124/87 108/117/87
f 108/117/88 115/124/88 116/125/88 109/118/88
f 110/119/89 117/126/89 118/127/89 111/120/89
f 111/120/90 118/127/90 119/128/90 112/121/90
f 112/121/91 119/128/91 120/129/91 113/122/91
f 113/122/92 120/129/92 121/130/92 114/123/92
f 114/123/93 121/130/93 122/131/93 115/124/93
f 115/124/94 122/131/94 123/132/94 116/125/94
f 117/126/95 124/133/95 125/134/95 118/127/95
f 118/127/96 125/134/96 126/135/96 119/128/96
f 119/128/97 126/135/97 127/136/97 120/129/97
f 120/129/98 127/136/98 128/137/98 121/130/98
f 121/130/99 128/137/99 129/138/99 122/131/99
f 122/131/100 129/138/100 130/139/100 123/132/100
f 76/84/101 131/140/101 82/91/101 74/82/101
f 74/82/102 82/91/102 85/94/102 73/81/102
f 73/81/103 85/94/103 87/96/103 72/80/103
f 72/80/104 87/96/104 89/98/104 71/79/104
f 71/79/105 89/98/105 91/100/105 70/78/105
f 70/78/106 91/100/106 93/102/106 69/77/106
f 69/77/107 93/102/107 95/104/107 67/75/107
f 67/75/108 95/104/108 132/141/108 68/76/108
f 95/104/109 94/103/109 133/142/109 132/141/109
f 94/103/110 102/111/110 134/143/110 133/142/110
f 102/111/111 109/118/111 135/144/111 134/143/111
f 109/118/112 116/125/112 136/145/112 135/144/112
f 116/125/113 123/132/113 137/146/113 136/145/113
f 123/132/114 130/139/114 138/147/114 137/146/114
f 130/139/115 139/148/115 140/149/115 138/147/115
f 129/138/116 141/150/116 139/148/116 130/139/116
f 128/137/117 142/151/117 141/150/117 129/138/117
f 127/136/118 143/152/118 142/151/118 128/137/118
f 126/135/119 144/153/119 143/152/119 127/136/119
f 125/134/120 145/154/120 144/153/120 126/135/120
f 124/133/121 146/155/121 145/154/121 125/134/121
f 147/156/122 148/157/122 146/155/122 124/133/122
f 149/158/123 147/156/123 124/133/123 117/126/123
f 150/159/124 149/158/124 117/126/124 110/119/124
f 151/160/125 150/159/125 110/119/125 103/112/125
f 152/161/126 151/160/126 103/112/126 96/105/126
f 153/162/127 152/161/127 96/105/127 83/92/127
f 131/140/128 153/162/128 83/92/128 82/91/128
f 154/163/129 155/164/129 156/165/129 157/166/129
f 157/166/130 156/165/130 158/167/130 159/168/130
f 159/168/131 158/167/131 160/169/131 161/170/131
f 161/170/132 160/169/132 162/171/132 163/172/132
f 163/172/133 162/171/133 164/173/133 165/174/133
f 165/174/134 164/173/134 166/175/134 167/176/134
f 155/164/135 168/177/135 169/178/135 156/165/135
f 156/165/136 169/178/136 170/179/136 158/167/136
f 158/167/137 170/179/137 171/180/137 160/169/137
f 160/169/138 171/180/138 172/181/138 162/171/138
f 162/171/139 172/181/139 173/182/139 164/173/139
f 164/173/140 173/182/140 174/183/140 166/175/140
f 168/177/141 175/184/141 176/185/141 169/178/141
f 169/178/142 176/185/142 177/186/142 170/179/142
f 170/179/143 177/186/143 178/187/143 171/180/143
f 171/180/144 178/187/144 179/188/144 172/181/144
f 172/181/145 179/188/145 180/189/145 173/182/145
f 173/182/146 180/189/146 181/190/146 174/183/146
f 175/191/147 182/192/147 183/193/147 176/194/147
f 176/194/148 183/193/148 184/195/148 177/196/148
f 177/196/149 184/195/149 185/197/149 178/198/149
f 178/198/150 185/197/150 186/199/150 179/200/150
f 179/200/151 186/199/151 187/201/151 180/202/151
f 180/202/152 187/201/152 188/203/152 181/204/152
f 182/192/153 189/205/153 190/206/153 183/193/153
f 183/193/154 190/206/154 191/207/154 184/195/154
f 184/195/155 191/207/155 192/208/155 185/197/155
f 185/197/156 192/208/156 193/209/156 186/199/156
f 186/199/157 193/209/157 194/210/157 187/201/157
f 187/201/158 194/210/158 195/211/158 188/203/158
f 189/205/159 196/212/159 197/213/159 190/206/159
f 190/206/160 197/213/160 198/214/160 191/207/160
f 191/207/161 198/214/161 199/215/161 192/208/161
f 192/208/162 199/215/162 200/216/162 193/209/162
f 193/209/163 200/216/163 201/217/163 194/210/163
f 194/210/164 201/217/164 202/218/164 195/211/164
f 148/157/165 203/219/165 154/163/165 146/155/165
f 146/155/166 154/163/166 157/166/166 145/154/166
f 145/154/167 157/166/167 159/168/167 144/153/167
f 144/153/168 159/168/168 161/170/168 143/152/168
f 143/152/169 161/170/169 163/172/169 142/151/169
f 142/151/170 163/172/170 165/174/170 141/150/170
f 141/150/171 165/174/171 167/176/171 139/148/171
f 139/148/172 167/176/172 204/220/172 140/149/172
f 167/176/173 166/175/173 205/221/173 204/220/173
f 166/175/174 174/183/174 206/222/174 205/221/174
f 174/183/175 181/190/175 207/223/175 206/222/175
f 181/204/176 188/203/176 208/224/176 207/225/176
f 188/203/177 195/211/177 209/226/177 208/224/177
f 195/211/178 202/218/178 210/227/178 209/226/178
f 202/218/179 211/228/179 212/229/179 210/227/179
f 201/217/180 213/230/180 211/228/180 202/218/180
f 200/216/181 214/231/181 213/230/181 201/217/181
f 199/215/182 215/232/182 214/231/182 200/216/182
f 198/214/183 216/233/183 215/232/183 199/215/183
f 197/213/184 217/234/184 216/233/184 198/214/184
f 196/212/185 218/235/185 217/234/185 197/213/185
f 219/236/186 220/237/186 218/235/186 196/212/186
f 221/238/187 219/236/187 196/212/187 189/205/187
f 222/239/188 221/238/188 189/205/188 182/192/188
f 223/240/189 222/239/189 182/192/189 175/191/189
f 224/241/190 223/242/190 175/184/190 168/177/190
f 225/243/191 224/241/191 168/177/191 155/164/191
f 203/219/192 225/243/192 155/164/192 154/163/192
f 226/244/193 227/245/193 228/246/193 229/247/193
f 229/247/194 228/246/194 230/248/194 231/249/194
f 231/249/195 230/248/195 232/250/195 233/251/195
f 233/251/196 232/250/196 234/252/196 235/253/196
f 235/253/197 234/252/197 236/254/197 237/255/197
f 237/255/198 236/254/198 238/256/198 239/257/198
f 227/245/199 240/258/199 241/259/199 228/246/199
f 228/246/200 241/259/200 242/260/200 230/248/200
f 230/248/201 242/260/201 243/261/201 232/250/201
f 232/250/202 243/261/202 244/262/202 234/252/202
f 234/252/203 244/262/203 245/263/203 236/254/203
f 236/254/204 245/263/204 246/264/204 238/256/204
f 240/258/205 247/265/205 248/266/205 241/259/205
f 241/259/206 248/266/206 249/267/206 242/260/206
f 242/260/207 249/267/207 250/268/207 243/261/207
f 243/261/208 250/268/208 251/269/208 244/262/208
f 244/262/209 251/269/209 252/270/209 245/263/209
f 245/263/210 252/270/210 253/271/210 246/264/210
f 247/265/211 254/272/211 255/273/211 248/266/211
f 248/266/212 255/273/212 256/274/212 249/267/212
f 249/267/213 256/274/213 257/275/213 250/268/213
f 250/268/214 257/275/214 258/276/214 251/269/214
f 251/269/215 258/276/215 259/277/215 252/270/215
f 252/270/216 259/277/216 260/278/216 253/271/216
f 254/272/217 261/279/217 262/280/217 255/273/217
f 255/273/218 262/280/218 263/281/218 256/274/218
f 256/274/219 263/281/219 264/282/219 257/275/219
f 257/275/220 264/282/220 265/283/220 258/276/220
f 258/276/221 265/283/221 266/284/221 259/277/221
f 259/277/222 266/284/222 267/285/222 260/278/222
f 261/279/223 268/286/223 269/287/223 262/280/223
f 262/280/224 269/287/224 270/288/224 263/281/224
f 263/281/225 270/288/225 271/289/225 264/282/225
f 264/282/226 271/289/226 272/290/226 265/283/226
f 265/283/227 272/290/227 273/291/227 266/284/227
f 266/284/228 273/291/228 274/292/228 267/285/228
f 220/237/229 275/293/229 226/244/229 218/235/229
f 218/235/230 226/244/230 229/247/230 217/234/230
f 217/234/231 229/247/231 231/249/231 216/233/231
f 216/233/232 231/249/232 233/251/232 215/232/232
f 215/232/233 233/251/233 235/253/233 214/231/233
f 214/231/234 235/253/234 237/255/234 213/230/234
f 213/230/235 237/255/235 239/257/235 211/228/235
f 211/228/236 239/257/236 276/294/236 212/229/236
f 239/257/237 238/256/237 277/295/237 276/294/237
f 238/256/238 246/264/238 278/296/238 277/295/238
f 246/264/239 253/271/239 279/297/239 278/296/239
f 253/271/240 260/278/240 280/298/240 279/297/240
f 260/278/241 267/285/241 281/299/241 280/298/241
f 267/285/242 274/292/242 282/300/242 281/299/242
f 274/292/243 58/65/243 60/67/243 282/300/243
f 273/291/244 57/64/244 58/65/244 274/292/244
f 272/290/245 56/63/245 57/64/245 273/291/245
f 271/289/246 55/62/246 56/63/246 272/290/246
f 270/288/247 54/61/247 55/62/247 271/289/247
f 269/287/248 53/60/248 54/61/248 270/288/248
f 268/286/249 52/59/249 53/60/249 269/287/249
f 283/301/250 50/57/250 52/59/250 268/286/250
f 284/302/251 283/301/251 268/286/251 261/279/251
f 285/303/252 284/302/252 261/279/252 254/272/252
f 286/304/253 285/303/253 254/272/253 247/265/253
f 287/305/254 286/304/254 247/265/254 240/258/254
f 288/306/255 287/305/255 240/258/255 227/245/255
f 275/293/256 288/306/256 227/245/256 226/244/256
f 289/307/257 290/308/257 291/309/257 292/310/257
f 292/310/258 291/309/258 293/311/258 294/312/258
f 294/312/259 293/311/259 295/313/259 296/314/259
f 296/314/260 295/313/260 297/315/260 298/316/260
f 298/316/261 297/315/261 299/317/261 300/318/261
f 300/318/262 299/317/262 301/319/262 302/320/262
f 290/308/263 303/321/263 304/322/263 291/309/263
f 291/309/264 304/322/264 305/323/264 293/311/264
f 293/311/265 305/323/265 306/324/265 295/313/265
f 295/313/266 306/324/266 307/325/266 297/315/266
f 297/315/267 307/325/267 308/326/267 299/317/267
f 299/317/268 308/326/268 309/327/268 301/319/268
f 303/321/269 310/328/269 311/329/269 304/322/269
f 304/322/270 311/329/270 312/330/270 305/323/270
f 305/323/271 312/330/271 313/331/271 306/324/271
f 306/324/272 313/331/272 314/332/272 307/325/272
f 307/325/273 314/332/273 315/333/273 308/326/273
f 308/326/274 315/333/274 316/334/274 309/327/274
f 310/335/275 317/336/275 318/337/275 311/338/275
f 311/338/276 318/337/276 319/339/276 312/340/276
f 312/340/277 319/339/277 320/341/277 313/342/277
f 313/342/278 320/341/278 321/343/278 314/344/278
f 314/344/279 321/343/279 322/345/279 315/346/279
f 315/346/280 322/345/280 323/347/280 316/348/280
f 317/336/281 324/349/281 325/350/281 318/337/281
f 318/337/282 325/350/282 326/351/282 319/339/282
f 319/339/283 326/351/283 327/352/283 320/341/283
f 320/341/284 327/352/284 328/353/284 321/343/284
f 321/343/285 328/353/285 329/354/285 322/345/285
f 322/345/286 329/354/286 330/355/286 323/347/286
f 324/349/287 331/356/287 332/357/287 325/350/287
f 325/350/288 332/357/288 333/358/288 326/351/288
f 326/351/289 333/358/289 334/359/289 327/352/289
f 327/352/290 334/359/290 335/360/290 328/353/290
f 328/353/291 335/360/291 336/361/291 329/354/291
f 329/354/292 336/361/292 337/362/292 330/355/292
f 76/84/293 75/83/293 289/307/293 131/140/293
f 131/140/294 289/307/294 292/310/294 153/162/294
f 153/162/295 292/310/295 294/312/295 152/161/295
f 152/161/296 294/312/296 296/314/296 151/160/296
f 151/160/297 296/314/297 298/316/297 150/159/297
f 150/159/298 298/316/298 300/318/298 149/158/298
f 149/158/299 300/318/299 302/320/299 147/156/299
f 147/156/300 302/320/300 203/219/300 148/157/300
f 302/320/301 301/319/301 225/243/301 203/219/301
f 301/319/302 309/327/302 224/241/302 225/243/302
f 309/327/303 316/334/303 223/242/303 224/241/303
f 316/348/304 323/347/304 222/239/304 223/240/304
f 323/347/305 330/355/305 221/238/305 222/239/305
f 330/355/306 337/362/306 219/236/306 221/238/306
f 337/362/307 275/293/307 220/237/307 219/236/307
f 336/361/308 288/306/308 275/293/308 337/362/308
f 335/360/309 287/305/309 288/306/309 336/361/309
f 334/359/310 286/304/310 287/305/310 335/360/310
f 333/358/311 285/303/311 286/304/311 334/359/311
f 332/357/312 284/302/312 285/303/312 333/358/312
f 331/356/313 283/301/313 284/302/313 332/357/313
f 51/58/314 50/57/314 283/301/314 331/356/314
f 81/90/315 51/58/315 331/356/315 324/349/315
f 80/88/316 81/90/316 324/349/316 317/336/316
f 79/89/317 80/88/317 317/336/317 310/335/317
f 78/86/318 79/87/318 310/328/318 303/321/318
f 77/85/319 78/86/319 303/321/319 290/308/319
f 75/83/320 77/85/320 290/308/320 289/307/320
f 338/363/321 339/364/321 340/365/321 341/366/321
f 341/366/322 340/365/322 342/367/322 343/368/322
f 343/368/323 342/367/323 344/369/323 345/370/323
f 345/370/324 344/369/324 346/371/324 347/372/324
f 347/372/325 346/371/325 348/373/325 349/374/325
f 349/374/326 348/373/326 350/375/326 351/376/326
f 339/364/327 352/377/327 353/378/327 340/365/327
f 340/365/328 353/378/328 354/379/328 342/367/328
f 342/367/329 354/379/329 355/380/329 344/369/329
f 344/369/330 355/380/330 356/381/330 346/371/330
f 346/371/331 356/381/331 357/382/331 348/373/331
f 348/373/332 357/382/332 358/383/332 350/375/332
f 352/377/333 359/384/333 360/385/333 353/378/333
f 353/378/334 360/385/334 361/386/334 354/379/334
f 354/379/335 361/386/335 362/387/335 355/380/335
f 355/380/336 362/387/336 363/388/336 356/381/336
f 356/381/337 363/388/337 364/389/337 357/382/337
f 357/382/338 364/389/338 365/390/338 358/383/338
f 359/391/339 366/392/339 367/393/339 360/394/339
f 360/394/340 367/393/340 368/395/340 361/396/340
f 361/396/341 368/395/341 369/397/341 362/398/341
f 362/398/342 369/397/342 370/399/342 363/400/342
f 363/400/343 370/399/343 371/401/343 364/402/343
f 364/402/344 371/401/344 372/403/344 365/404/344
f 366/392/345 373/405/345 374/406/345 367/393/345
f 367/393/346 374/406/346 375/407/346 368/395/346
f 368/395/347 375/407/347 376/408/347 369/397/347
f 369/397/348 376/408/348 377/409/348 370/399/348
f 370/399/349 377/409/349 378/410/349 371/401/349
f 371/401/350 378/410/350 379/411/350 372/403/350
f 373/405/351 380/412/351 381/413/351 374/406/351
f 374/406/352 381/413/352 382/414/352 375/407/352
f 375/407/353 382/414/353 383/415/353 376/408/353
f 376/408/354 383/415/354 384/416/354 377/409/354
f 377/409/355 384/416/355 385/417/355 378/410/355
f 378/410/356 385/417/356 386/418/356 379/411/356
f 140/149/357 204/220/357 338/363/357 138/147/357
f 138/147/358 338/363/358 341/366/358 137/146/358
f 137/146/359 341/366/359 343/368/359 136/145/359
f 136/145/360 343/368/360 345/370/360 135/144/360
f 135/144/361 345/370/361 347/372/361 134/143/361
f 134/143/362 347/372/362 349/374/362 133/142/362
f 133/142/363 349/374/363 351/376/363 132/141/363
f 132/141/364 351/376/364 66/74/364 68/76/364
f 351/376/365 350/375/365 65/73/365 66/74/365
f 350/375/366 358/383/366 64/71/366 65/73/366
f 358/383/367 365/390/367 63/72/367 64/71/367
f 365/404/368 372/403/368 62/69/368 63/70/368
f 372/403/369 379/411/369 61/68/369 62/69/369
f 379/411/370 386/418/370 59/66/370 61/68/370
f 386/418/371 282/300/371 60/67/371 59/66/371
f 385/417/372 281/299/372 282/300/372 386/418/372
f 384/416/373 280/298/373 281/299/373 385/417/373
f 383/415/374 279/297/374 280/298/374 384/416/374
f 382/414/375 278/296/375 279/297/375 383/415/375
f 381/413/376 277/295/376 278/296/376 382/414/376
f 380/412/377 276/294/377 277/295/377 381/413/377
f 210/227/378 212/229/378 276/294/378 380/412/378
f 209/226/379 210/227/379 380/412/379 373/405/379
f 208/224/380 209/226/380 373/405/380 366/392/380
f 207/225/381 208/224/381 366/392/381 359/391/381
f 206/222/382 207/223/382 359/384/382 352/377/382
f 205/221/383 206/222/383 352/377/383 339/364/383
f 204/220/384 205/221/384 339/364/384 338/363/384
