# Blender 5.1.1
# www.blender.org
mtllib r_thigh.mtl
o export_r_thigh_part
v -0.008076 0.069428 -0.072881
v -0.002623 0.059429 -0.034976
v 0.008887 0.058287 -0.036375
v 0.005370 0.068094 -0.074515
v 0.019953 0.054905 -0.037721
v 0.018299 0.064143 -0.076088
v 0.030153 0.049413 -0.038961
v 0.030214 0.057727 -0.077536
v 0.039093 0.042023 -0.040048
v 0.040658 0.049093 -0.078806
v 0.046429 0.033017 -0.040940
v 0.049229 0.038572 -0.079849
v 0.051881 0.022742 -0.041603
v 0.055598 0.026569 -0.080623
v 0.055238 0.011594 -0.042011
v 0.059520 0.013545 -0.081100
v 0.056372 -0.000000 -0.042149
v 0.060845 -0.000000 -0.081261
v 0.055238 -0.011594 -0.042011
v 0.059520 -0.013545 -0.081100
v 0.051881 -0.022743 -0.041603
v 0.055598 -0.026569 -0.080623
v 0.046429 -0.033017 -0.040940
v 0.049229 -0.038572 -0.079849
v 0.039093 -0.042023 -0.040048
v 0.040658 -0.049093 -0.078806
v 0.030153 -0.049414 -0.038961
v 0.030214 -0.057727 -0.077536
v 0.019953 -0.054905 -0.037721
v 0.018299 -0.064143 -0.076088
v 0.008887 -0.058287 -0.036375
v 0.005370 -0.068094 -0.074515
v -0.002623 -0.059429 -0.034976
v -0.008076 -0.069428 -0.072881
v -0.014132 -0.058287 -0.033576
v -0.021521 -0.068094 -0.071246
v -0.025199 -0.054905 -0.032230
v -0.034450 -0.064143 -0.069674
v -0.035398 -0.049414 -0.030990
v -0.046366 -0.057727 -0.068225
v -0.044338 -0.042023 -0.029903
v -0.056809 -0.049093 -0.066955
v -0.051675 -0.033017 -0.029011
v -0.065381 -0.038572 -0.065913
v -0.057127 -0.022743 -0.028348
v -0.071749 -0.026569 -0.065138
v -0.060484 -0.011594 -0.027940
v -0.075671 -0.013545 -0.064661
v -0.061617 -0.000000 -0.027802
v -0.076996 -0.000000 -0.064500
v -0.060484 0.011594 -0.027940
v -0.075671 0.013545 -0.064661
v -0.057127 0.022742 -0.028348
v -0.071749 0.026569 -0.065138
v -0.051675 0.033017 -0.029011
v -0.065381 0.038572 -0.065913
v -0.044338 0.042023 -0.029903
v -0.056809 0.049093 -0.066955
v -0.035398 0.049413 -0.030990
v -0.046366 0.057727 -0.068225
v -0.025199 0.054905 -0.032230
v -0.034450 0.064143 -0.069674
v 0.028869 -0.006310 -0.038805
v 0.027042 -0.012378 -0.038583
v -0.014132 0.058287 -0.033576
v -0.021521 0.068094 -0.071246
v -0.014910 -0.029883 -0.033481
v -0.020462 -0.026894 -0.032806
v -0.053177 0.049891 -0.255088
v -0.043121 0.052964 -0.256311
v -0.055794 0.047357 -0.366193
v -0.064786 0.044610 -0.365100
v -0.062445 0.044901 -0.253962
v -0.073073 0.040148 -0.364092
v -0.070568 0.038185 -0.252974
v -0.080336 0.034143 -0.363209
v -0.077235 0.030002 -0.252163
v -0.086297 0.026826 -0.362484
v -0.082189 0.020665 -0.251561
v -0.090727 0.018478 -0.361946
v -0.085239 0.010535 -0.251190
v -0.093454 0.009420 -0.361614
v -0.086269 -0.000000 -0.251065
v -0.094375 -0.000000 -0.361502
v -0.085239 -0.010535 -0.251190
v -0.093454 -0.009420 -0.361614
v -0.082189 -0.020666 -0.251561
v -0.090727 -0.018478 -0.361946
v -0.077235 -0.030002 -0.252163
v -0.086297 -0.026826 -0.362484
v -0.070568 -0.038185 -0.252974
v -0.080336 -0.034143 -0.363209
v -0.062445 -0.044901 -0.253962
v -0.073073 -0.040148 -0.364092
v -0.053177 -0.049891 -0.255088
v -0.064786 -0.044610 -0.365100
v -0.043121 -0.052964 -0.256311
v -0.055794 -0.047357 -0.366193
v -0.032663 -0.054002 -0.257583
v -0.046443 -0.048285 -0.367330
v -0.022204 -0.052964 -0.258855
v -0.037092 -0.047357 -0.368467
v -0.012148 -0.049891 -0.260077
v -0.028100 -0.044610 -0.369561
v -0.002880 -0.044901 -0.261204
v -0.019814 -0.040148 -0.370568
v 0.005243 -0.038185 -0.262192
v -0.012550 -0.034143 -0.371451
v 0.011910 -0.030002 -0.263003
v -0.006589 -0.026826 -0.372176
v 0.016864 -0.020666 -0.263605
v -0.002160 -0.018478 -0.372715
v 0.019914 -0.010535 -0.263976
v 0.000568 -0.009420 -0.373047
v 0.020944 -0.000000 -0.264101
v 0.001489 -0.000000 -0.373159
v 0.019914 0.010535 -0.263976
v 0.000568 0.009420 -0.373047
v 0.016864 0.020665 -0.263605
v -0.002160 0.018478 -0.372715
v 0.011910 0.030002 -0.263003
v -0.006589 0.026826 -0.372176
v 0.005243 0.038185 -0.262192
v -0.012550 0.034143 -0.371451
v -0.002880 0.044901 -0.261204
v -0.019814 0.040148 -0.370568
v -0.012148 0.049891 -0.260077
v -0.028100 0.044610 -0.369561
v -0.022204 0.052964 -0.258855
v -0.037092 0.047357 -0.368467
v -0.046443 0.048285 -0.367330
v -0.032663 0.054002 -0.257583
v -0.037095 0.061152 -0.197478
v -0.025020 0.062350 -0.198946
v -0.048705 0.057604 -0.196066
v -0.059406 0.051842 -0.194765
v -0.068785 0.044088 -0.193624
v -0.076483 0.034640 -0.192688
v -0.082202 0.023860 -0.191993
v -0.085724 0.012164 -0.191565
v -0.086914 -0.000000 -0.191420
v -0.085724 -0.012164 -0.191565
v -0.082202 -0.023860 -0.191993
v -0.076483 -0.034640 -0.192688
v -0.068785 -0.044088 -0.193624
v -0.059406 -0.051842 -0.194765
v -0.048705 -0.057604 -0.196066
v -0.037095 -0.061152 -0.197478
v -0.025020 -0.062350 -0.198946
v -0.012945 -0.061152 -0.200414
v -0.001334 -0.057604 -0.201826
v 0.009367 -0.051842 -0.203127
v 0.018746 -0.044088 -0.204268
v 0.026444 -0.034640 -0.205204
v 0.032163 -0.023860 -0.205899
v 0.035685 -0.012164 -0.206327
v 0.036875 -0.000000 -0.206472
v 0.035685 0.012164 -0.206327
v 0.032163 0.023860 -0.205899
v 0.026444 0.034640 -0.205204
v 0.018746 0.044088 -0.204268
v 0.009367 0.051842 -0.203127
v -0.001334 0.057604 -0.201826
v -0.012945 0.061152 -0.200414
v -0.031139 0.070596 -0.137250
v -0.017199 0.071979 -0.138945
v -0.044543 0.066500 -0.135620
v -0.056896 0.059849 -0.134118
v -0.067724 0.050897 -0.132801
v -0.076610 0.039990 -0.131720
v -0.083213 0.027545 -0.130918
v -0.087279 0.014042 -0.130423
v -0.088652 -0.000000 -0.130256
v -0.087279 -0.014043 -0.130423
v -0.083213 -0.027546 -0.130918
v -0.076610 -0.039990 -0.131720
v -0.067724 -0.050897 -0.132801
v -0.056896 -0.059849 -0.134118
v -0.044543 -0.066501 -0.135620
v -0.031139 -0.070597 -0.137250
v -0.017199 -0.071980 -0.138945
v -0.003259 -0.070597 -0.140640
v 0.010145 -0.066501 -0.142269
v 0.022498 -0.059849 -0.143772
v 0.033326 -0.050897 -0.145088
v 0.042212 -0.039990 -0.146169
v 0.048815 -0.027546 -0.146972
v 0.052882 -0.014043 -0.147466
v 0.054254 -0.000000 -0.147633
v 0.052882 0.014042 -0.147466
v 0.048815 0.027545 -0.146972
v 0.042212 0.039990 -0.146169
v 0.033326 0.050897 -0.145088
v 0.022498 0.059849 -0.143772
v 0.010145 0.066500 -0.142269
v -0.003259 0.070596 -0.140640
v -0.027679 0.071666 -0.109065
v -0.013528 0.073070 -0.110785
v -0.041287 0.067508 -0.107410
v -0.053827 0.060755 -0.105885
v -0.064819 0.051668 -0.104549
v -0.073840 0.040595 -0.103452
v -0.080543 0.027963 -0.102637
v -0.084671 0.014255 -0.102135
v -0.086064 -0.000000 -0.101965
v -0.084671 -0.014255 -0.102135
v -0.080543 -0.027963 -0.102637
v -0.073840 -0.040596 -0.103452
v -0.064819 -0.051669 -0.104549
v -0.053827 -0.060756 -0.105885
v -0.041287 -0.067508 -0.107410
v -0.027679 -0.071666 -0.109065
v -0.013528 -0.073070 -0.110785
v 0.000623 -0.071666 -0.112506
v 0.014230 -0.067508 -0.114161
v 0.026770 -0.060756 -0.115686
v 0.037762 -0.051669 -0.117022
v 0.046783 -0.040596 -0.118119
v 0.053486 -0.027963 -0.118934
v 0.057614 -0.014255 -0.119436
v 0.059007 -0.000000 -0.119605
v 0.057614 0.014255 -0.119436
v 0.053486 0.027963 -0.118934
v 0.046783 0.040595 -0.118119
v 0.037762 0.051668 -0.117022
v 0.026770 0.060755 -0.115686
v 0.014230 0.067508 -0.114161
v 0.000623 0.071666 -0.112506
v -0.029320 0.017970 -0.031729
v -0.025327 0.022872 -0.032215
v 0.024075 0.017970 -0.038222
v 0.027042 0.012378 -0.038583
v 0.009665 -0.029883 -0.036470
v 0.003641 -0.031724 -0.035737
v -0.034115 -0.006310 -0.031146
v -0.034732 -0.000000 -0.031071
v 0.003641 0.031724 -0.035737
v 0.009665 0.029883 -0.036470
v 0.024075 -0.017970 -0.038222
v -0.025327 -0.022872 -0.032215
v -0.020462 0.026894 -0.032806
v 0.028869 0.006310 -0.038805
v -0.002623 -0.032346 -0.034976
v -0.034115 0.006310 -0.031146
v 0.015216 0.026894 -0.037145
v 0.020082 -0.022872 -0.037736
v -0.029320 -0.017970 -0.031729
v -0.014910 0.029883 -0.033481
v 0.029486 -0.000000 -0.038880
v -0.008887 -0.031724 -0.034214
v -0.032288 0.012378 -0.031368
v 0.020082 0.022872 -0.037736
v 0.015216 -0.026894 -0.037145
v -0.032288 -0.012378 -0.031368
v -0.008887 0.031724 -0.034214
v -0.002623 0.032345 -0.034976
v -0.002623 -0.000000 -0.034975
v -0.033558 0.040767 -0.394787
v -0.025985 0.036690 -0.395708
v -0.037048 0.020011 -0.394363
v -0.041178 0.022235 -0.393861
v -0.013899 -0.024516 -0.397178
v -0.019347 -0.031202 -0.396515
v -0.033427 -0.017018 -0.394803
v -0.030456 -0.013371 -0.395164
v -0.081295 -0.031202 -0.388983
v -0.086743 -0.024516 -0.388320
v -0.070186 -0.013371 -0.390334
v -0.067215 -0.017018 -0.390695
v -0.074657 0.036690 -0.389790
v -0.067084 0.040767 -0.390711
v -0.059464 0.022235 -0.391637
v -0.063594 0.020011 -0.391135
v -0.007359 0.008609 -0.397973
v -0.006517 -0.000000 -0.398075
v -0.026429 -0.000000 -0.395654
v -0.026889 0.004695 -0.395598
v -0.050321 -0.044127 -0.392749
v -0.058867 -0.043279 -0.391710
v -0.054982 -0.023605 -0.392182
v -0.050321 -0.024068 -0.392749
v -0.093283 0.008609 -0.387525
v -0.090791 0.016886 -0.387828
v -0.072394 0.009210 -0.390065
v -0.073753 0.004695 -0.389900
v -0.019347 0.031202 -0.396515
v -0.033427 0.017018 -0.394803
v -0.025985 -0.036690 -0.395708
v -0.037048 -0.020012 -0.394363
v -0.090791 -0.016887 -0.387828
v -0.072394 -0.009210 -0.390065
v -0.058867 0.043279 -0.391710
v -0.054982 0.023605 -0.392182
v -0.007359 -0.008609 -0.397973
v -0.026889 -0.004695 -0.395598
v -0.067084 -0.040768 -0.390711
v -0.059464 -0.022236 -0.391637
v -0.086743 0.024515 -0.388320
v -0.070186 0.013371 -0.390334
v -0.013899 0.024515 -0.397178
v -0.030456 0.013371 -0.395164
v -0.033558 -0.040768 -0.394787
v -0.041178 -0.022236 -0.393861
v -0.093283 -0.008609 -0.387525
v -0.073753 -0.004695 -0.389900
v -0.050321 0.044126 -0.392749
v -0.041775 0.043279 -0.393788
v -0.045660 0.023605 -0.393316
v -0.050321 0.024067 -0.392749
v -0.009852 -0.016887 -0.397670
v -0.028248 -0.009210 -0.395433
v -0.074657 -0.036690 -0.389790
v -0.063594 -0.020012 -0.391135
v -0.081295 0.031202 -0.388983
v -0.067215 0.017018 -0.390695
v -0.009852 0.016886 -0.397670
v -0.028248 0.009210 -0.395433
v -0.041775 -0.043279 -0.393788
v -0.045660 -0.023605 -0.393316
v -0.094125 -0.000000 -0.387423
v -0.074213 -0.000000 -0.389844
v -0.050321 -0.000000 -0.392749
v 0.038190 -0.028752 -0.034698
v 0.041501 -0.020177 -0.036765
v 0.047110 -0.021054 -0.028218
v 0.042963 -0.030320 -0.026727
v 0.051191 -0.021847 -0.018433
v 0.046606 -0.031592 -0.017373
v 0.053627 -0.022185 -0.007891
v 0.048890 -0.032097 -0.007201
v 0.054299 -0.021847 0.002907
v 0.049603 -0.031592 0.003199
v 0.053180 -0.021054 0.013450
v 0.048779 -0.030320 0.013204
v 0.050242 -0.020177 0.023242
v 0.046479 -0.028752 0.022205
v 0.043551 -0.010395 -0.038349
v 0.049596 -0.010783 -0.029382
v 0.053932 -0.011160 -0.019213
v 0.056476 -0.011329 -0.008306
v 0.057149 -0.011160 0.002873
v 0.055894 -0.010783 0.013856
v 0.052658 -0.010395 0.024175
v 0.044264 -0.000000 -0.038963
v 0.050429 -0.000000 -0.029844
v 0.054843 -0.000000 -0.019516
v 0.057428 -0.000000 -0.008445
v 0.058109 -0.000000 0.002904
v 0.056825 -0.000000 0.014062
v 0.053517 -0.000000 0.024560
v 0.043551 0.010394 -0.038349
v 0.049596 0.010782 -0.029382
v 0.053932 0.011160 -0.019213
v 0.056476 0.011328 -0.008307
v 0.057149 0.011160 0.002873
v 0.055894 0.010782 0.013856
v 0.052658 0.010394 0.024175
v 0.041501 0.020176 -0.036765
v 0.047110 0.021054 -0.028218
v 0.051191 0.021847 -0.018433
v 0.053627 0.022185 -0.007891
v 0.054299 0.021847 0.002907
v 0.053180 0.021054 0.013450
v 0.050242 0.020176 0.023242
v 0.038190 0.028752 -0.034698
v 0.042963 0.030320 -0.026727
v 0.046606 0.031591 -0.017373
v 0.048890 0.032097 -0.007201
v 0.049603 0.031591 0.003199
v 0.048779 0.030320 0.013204
v 0.046479 0.028752 0.022205
v 0.030256 -0.033297 -0.038135
v 0.032233 -0.027893 -0.040786
v 0.033349 -0.035635 -0.033124
v 0.037014 -0.038153 -0.025435
v 0.040148 -0.039932 -0.016251
v 0.042275 -0.040593 -0.006238
v 0.043093 -0.039932 0.003966
v 0.042709 -0.038153 0.013662
v 0.041390 -0.035635 0.022078
v 0.042506 -0.027893 0.029740
v 0.039855 -0.033297 0.027763
v 0.045361 -0.019755 0.031869
v 0.047377 -0.010216 0.033372
v 0.048127 -0.000000 0.033931
v 0.047377 0.010215 0.033372
v 0.045361 0.019755 0.031869
v 0.042506 0.027892 0.029739
v 0.041390 0.035635 0.022078
v 0.039855 0.033296 0.027763
v 0.042709 0.038153 0.013662
v 0.043093 0.039931 0.003966
v 0.042275 0.040593 -0.006238
v 0.040148 0.039931 -0.016251
v 0.037014 0.038153 -0.025435
v 0.033349 0.035635 -0.033124
v 0.032233 0.027892 -0.040786
v 0.030256 0.033296 -0.038135
v 0.034362 0.019755 -0.043641
v 0.035865 0.010215 -0.045657
v 0.036424 -0.000000 -0.046407
v 0.035865 -0.010216 -0.045657
v 0.034362 -0.019755 -0.043641
v 0.026414 0.040652 -0.032983
v 0.017702 0.044226 -0.033298
v 0.019906 0.048545 -0.024255
v 0.029201 0.044226 -0.024723
v 0.022171 0.051173 -0.014206
v 0.031870 0.046483 -0.015226
v 0.024060 0.052064 -0.003585
v 0.033868 0.047277 -0.005013
v 0.025280 0.051173 0.007134
v 0.034867 0.046483 0.005346
v 0.025975 0.048545 0.017412
v 0.035018 0.044226 0.015209
v 0.026443 0.044226 0.026708
v 0.034703 0.040652 0.023921
v 0.007839 0.046483 -0.033147
v 0.009627 0.051173 -0.023560
v 0.011541 0.053997 -0.013038
v 0.013317 0.054943 -0.002020
v 0.014758 0.053997 0.009048
v 0.015925 0.051173 0.019678
v 0.016946 0.046483 0.029377
v -0.002520 0.047277 -0.032148
v -0.001091 0.052064 -0.022340
v 0.000474 0.054943 -0.011597
v 0.002106 0.055905 -0.000387
v 0.003739 0.054943 0.010823
v 0.005304 0.052064 0.021566
v 0.006733 0.047277 0.031375
v -0.012733 0.046483 -0.030150
v -0.011712 0.051173 -0.020452
v -0.010545 0.053997 -0.009821
v -0.009104 0.054943 0.001246
v -0.007328 0.053997 0.012265
v -0.005414 0.051173 0.022786
v -0.003626 0.046483 0.032373
v -0.022230 0.044226 -0.027482
v -0.021762 0.048545 -0.018186
v -0.021067 0.051173 -0.007908
v -0.019847 0.052064 0.002811
v -0.017958 0.051173 0.013432
v -0.015693 0.048545 0.023482
v -0.013489 0.044226 0.032525
v -0.030490 0.040652 -0.024694
v -0.030805 0.044226 -0.015982
v -0.030654 0.046483 -0.006119
v -0.029655 0.047277 0.004240
v -0.027657 0.046483 0.014453
v -0.024988 0.044226 0.023949
v -0.022201 0.040652 0.032209
v 0.024571 0.035635 -0.039670
v 0.034844 0.035635 0.030856
v 0.027154 0.038153 0.034521
v 0.017971 0.039931 0.037655
v 0.007958 0.040593 0.039782
v -0.002246 0.039931 0.040600
v -0.011942 0.038153 0.040216
v -0.020358 0.035635 0.038897
v -0.029136 0.035635 0.032351
v -0.026043 0.033296 0.037361
v -0.032801 0.038153 0.024661
v -0.035935 0.039931 0.015478
v -0.038062 0.040593 0.005464
v -0.038880 0.039931 -0.004739
v -0.038496 0.038153 -0.014436
v -0.037177 0.035635 -0.022851
v -0.030631 0.035635 -0.031629
v -0.035642 0.033296 -0.028536
v -0.022942 0.038153 -0.035294
v -0.013758 0.039931 -0.038429
v -0.003745 0.040593 -0.040556
v 0.006459 0.039931 -0.041374
v 0.016155 0.038153 -0.040989
v -0.042266 0.028752 -0.022979
v -0.046029 0.020176 -0.024015
v -0.048967 0.021054 -0.014223
v -0.044567 0.030320 -0.013978
v -0.050086 0.021847 -0.003680
v -0.045390 0.031591 -0.003973
v -0.049414 0.022185 0.007118
v -0.044677 0.032097 0.006428
v -0.046978 0.021847 0.017659
v -0.042393 0.031591 0.016600
v -0.042897 0.021054 0.027445
v -0.038750 0.030320 0.025954
v -0.037288 0.020176 0.035991
v -0.033977 0.028752 0.033925
v -0.048445 0.010394 -0.024948
v -0.051681 0.010782 -0.014629
v -0.052936 0.011160 -0.003647
v -0.052263 0.011328 0.007533
v -0.049719 0.011160 0.018440
v -0.045383 0.010782 0.028608
v -0.039338 0.010394 0.037575
v -0.049304 -0.000000 -0.025334
v -0.052612 -0.000000 -0.014835
v -0.053896 -0.000000 -0.003677
v -0.053215 -0.000000 0.007672
v -0.050630 -0.000000 0.018743
v -0.046216 -0.000000 0.029071
v -0.040051 -0.000000 0.038190
v -0.048445 -0.010395 -0.024948
v -0.051681 -0.010783 -0.014630
v -0.052936 -0.011160 -0.003647
v -0.052263 -0.011329 0.007533
v -0.049719 -0.011160 0.018440
v -0.045383 -0.010783 0.028608
v -0.039338 -0.010395 0.037575
v -0.046029 -0.020177 -0.024015
v -0.048967 -0.021054 -0.014223
v -0.050086 -0.021847 -0.003680
v -0.049414 -0.022185 0.007118
v -0.046978 -0.021847 0.017659
v -0.042897 -0.021054 0.027445
v -0.037288 -0.020177 0.035991
v -0.042266 -0.028752 -0.022979
v -0.044567 -0.030320 -0.013978
v -0.045390 -0.031592 -0.003972
v -0.044677 -0.032097 0.006428
v -0.042393 -0.031592 0.016600
v -0.038750 -0.030320 0.025954
v -0.033977 -0.028752 0.033925
v -0.038293 0.027892 -0.030513
v -0.028020 0.027892 0.040013
v -0.030149 0.019755 0.042867
v -0.031652 0.010215 0.044884
v -0.032211 -0.000000 0.045633
v -0.031652 -0.010216 0.044883
v -0.030149 -0.019755 0.042868
v -0.028020 -0.027893 0.040013
v -0.029136 -0.035635 0.032351
v -0.026043 -0.033297 0.037361
v -0.032801 -0.038153 0.024661
v -0.035936 -0.039932 0.015478
v -0.038062 -0.040593 0.005464
v -0.038880 -0.039932 -0.004740
v -0.038496 -0.038153 -0.014436
v -0.037177 -0.035635 -0.022851
v -0.038293 -0.027893 -0.030513
v -0.035642 -0.033297 -0.028536
v -0.041148 -0.019755 -0.032642
v -0.043164 -0.010216 -0.034145
v -0.043914 -0.000000 -0.034705
v -0.043164 0.010215 -0.034145
v -0.041148 0.019755 -0.032642
v -0.030490 -0.040653 -0.024694
v -0.022230 -0.044227 -0.027482
v -0.021762 -0.048546 -0.018186
v -0.030805 -0.044227 -0.015982
v -0.021067 -0.051173 -0.007908
v -0.030654 -0.046484 -0.006119
v -0.019847 -0.052064 0.002811
v -0.029655 -0.047278 0.004240
v -0.017958 -0.051173 0.013432
v -0.027657 -0.046484 0.014453
v -0.015693 -0.048546 0.023482
v -0.024988 -0.044227 0.023949
v -0.013489 -0.044227 0.032525
v -0.022201 -0.040653 0.032210
v -0.012733 -0.046484 -0.030150
v -0.011712 -0.051173 -0.020452
v -0.010545 -0.053998 -0.009821
v -0.009104 -0.054943 0.001246
v -0.007328 -0.053998 0.012265
v -0.005414 -0.051173 0.022786
v -0.003626 -0.046484 0.032373
v -0.002520 -0.047278 -0.032148
v -0.001091 -0.052064 -0.022340
v 0.000474 -0.054943 -0.011597
v 0.002106 -0.055905 -0.000387
v 0.003739 -0.054943 0.010823
v 0.005304 -0.052064 0.021566
v 0.006733 -0.047278 0.031375
v 0.007839 -0.046484 -0.033147
v 0.009627 -0.051173 -0.023560
v 0.011541 -0.053998 -0.013038
v 0.013317 -0.054943 -0.002020
v 0.014758 -0.053998 0.009048
v 0.015925 -0.051173 0.019678
v 0.016946 -0.046484 0.029377
v 0.017702 -0.044227 -0.033298
v 0.019906 -0.048546 -0.024255
v 0.022171 -0.051173 -0.014206
v 0.024060 -0.052064 -0.003585
v 0.025280 -0.051173 0.007134
v 0.025975 -0.048546 0.017412
v 0.026443 -0.044227 0.026708
v 0.026414 -0.040653 -0.032983
v 0.029201 -0.044227 -0.024723
v 0.031870 -0.046484 -0.015226
v 0.033868 -0.047278 -0.005013
v 0.034867 -0.046484 0.005346
v 0.035018 -0.044227 0.015209
v 0.034703 -0.040653 0.023921
v -0.030631 -0.035635 -0.031629
v -0.020358 -0.035635 0.038897
v -0.011942 -0.038153 0.040216
v -0.002246 -0.039932 0.040600
v 0.007958 -0.040593 0.039782
v 0.017971 -0.039932 0.037655
v 0.027154 -0.038153 0.034521
v 0.034844 -0.035635 0.030856
v 0.024571 -0.035635 -0.039670
v 0.016155 -0.038153 -0.040989
v 0.006459 -0.039932 -0.041374
v -0.003745 -0.040593 -0.040556
v -0.013758 -0.039932 -0.038429
v -0.022942 -0.038153 -0.035294
v 0.024698 0.028752 -0.044759
v 0.025735 0.020176 -0.048522
v 0.015943 0.021054 -0.051460
v 0.015697 0.030320 -0.047060
v 0.005400 0.021847 -0.052579
v 0.005692 0.031591 -0.047883
v -0.005398 0.022185 -0.051907
v -0.004708 0.032097 -0.047171
v -0.015940 0.021847 -0.049471
v -0.014880 0.031591 -0.044886
v -0.025725 0.021054 -0.045391
v -0.024234 0.030320 -0.041243
v -0.034272 0.020176 -0.039781
v -0.032205 0.028752 -0.036470
v 0.026668 0.010394 -0.050939
v 0.016349 0.010782 -0.054174
v 0.005366 0.011160 -0.055429
v -0.005813 0.011328 -0.054756
v -0.016720 0.011160 -0.052212
v -0.026889 0.010782 -0.047876
v -0.035856 0.010394 -0.041831
v 0.027053 -0.000000 -0.051797
v 0.016555 -0.000000 -0.055105
v 0.005397 -0.000000 -0.056389
v -0.005952 -0.000000 -0.055708
v -0.017023 -0.000000 -0.053123
v -0.027351 -0.000000 -0.048709
v -0.036470 -0.000000 -0.042544
v 0.026668 -0.010395 -0.050939
v 0.016349 -0.010783 -0.054174
v 0.005366 -0.011160 -0.055429
v -0.005813 -0.011329 -0.054756
v -0.016720 -0.011160 -0.052212
v -0.026889 -0.010783 -0.047876
v -0.035856 -0.010395 -0.041831
v 0.025735 -0.020177 -0.048522
v 0.015943 -0.021054 -0.051460
v 0.005400 -0.021847 -0.052579
v -0.005398 -0.022185 -0.051907
v -0.015940 -0.021847 -0.049471
v -0.025725 -0.021054 -0.045391
v -0.034272 -0.020177 -0.039781
v 0.024698 -0.028752 -0.044759
v 0.015697 -0.030320 -0.047060
v 0.005692 -0.031592 -0.047883
v -0.004708 -0.032097 -0.047171
v -0.014880 -0.031592 -0.044887
v -0.024234 -0.030320 -0.041243
v -0.032205 -0.028752 -0.036470
v -0.020486 0.028752 0.043985
v -0.021522 0.020176 0.047748
v -0.011730 0.021054 0.050687
v -0.011484 0.030320 0.046286
v -0.001187 0.021847 0.051806
v -0.001479 0.031591 0.047110
v 0.009611 0.022185 0.051134
v 0.008921 0.032097 0.046397
v 0.020152 0.021847 0.048698
v 0.019093 0.031591 0.044113
v 0.029938 0.021054 0.044617
v 0.028447 0.030320 0.040470
v 0.038485 0.020176 0.039008
v 0.036418 0.028752 0.035697
v -0.022455 0.010394 0.050165
v -0.012136 0.010782 0.053401
v -0.001153 0.011160 0.054655
v 0.010026 0.011328 0.053983
v 0.020933 0.011160 0.051438
v 0.031102 0.010782 0.047103
v 0.040068 0.010394 0.041058
v -0.022841 -0.000000 0.051024
v -0.012342 -0.000000 0.054332
v -0.001184 -0.000000 0.055616
v 0.010165 -0.000000 0.054935
v 0.021236 -0.000000 0.052350
v 0.031564 -0.000000 0.047936
v 0.040683 -0.000000 0.041771
v -0.022455 -0.010395 0.050165
v -0.012136 -0.010783 0.053401
v -0.001153 -0.011160 0.054656
v 0.010026 -0.011329 0.053983
v 0.020933 -0.011160 0.051438
v 0.031102 -0.010783 0.047103
v 0.040068 -0.010395 0.041058
v -0.021522 -0.020177 0.047748
v -0.011730 -0.021054 0.050686
v -0.001187 -0.021847 0.051806
v 0.009611 -0.022185 0.051134
v 0.020152 -0.021847 0.048697
v 0.029938 -0.021054 0.044617
v 0.038485 -0.020177 0.039007
v -0.020486 -0.028752 0.043986
v -0.011484 -0.030320 0.046286
v -0.001479 -0.031592 0.047110
v 0.008921 -0.032097 0.046397
v 0.019093 -0.031592 0.044113
v 0.028447 -0.030320 0.040470
v 0.036418 -0.028752 0.035697
vn 0.1243 0.9637 0.2363
vn 0.3090 0.9276 0.2100
vn 0.4833 0.8557 0.1852
vn 0.6404 0.7506 0.1628
vn 0.7742 0.6165 0.1437
vn 0.8794 0.4583 0.1287
vn 0.9520 0.2823 0.1184
vn 0.9890 0.0954 0.1131
vn 0.9890 -0.0954 0.1131
vn 0.9520 -0.2823 0.1184
vn 0.8794 -0.4583 0.1287
vn 0.7742 -0.6165 0.1437
vn 0.6404 -0.7506 0.1628
vn 0.4833 -0.8557 0.1852
vn 0.3090 -0.9276 0.2100
vn 0.1243 -0.9637 0.2363
vn -0.0635 -0.9627 0.2631
vn -0.2474 -0.9247 0.2893
vn -0.4203 -0.8514 0.3139
vn -0.5755 -0.7456 0.3360
vn -0.7073 -0.6114 0.3548
vn -0.8108 -0.4540 0.3695
vn -0.8819 -0.2795 0.3796
vn -0.9182 -0.0943 0.3848
vn -0.9182 0.0943 0.3848
vn -0.8819 0.2795 0.3796
vn -0.8108 0.4540 0.3695
vn -0.7073 0.6114 0.3548
vn -0.5755 0.7456 0.3360
vn -0.4203 0.8514 0.3139
vn 0.1207 -0.0000 0.9927
vn -0.2474 0.9247 0.2893
vn -0.0635 0.9627 0.2631
vn -0.2939 0.9557 -0.0149
vn -0.4734 0.8808 0.0077
vn -0.6349 0.7721 0.0279
vn -0.7723 0.6337 0.0452
vn -0.8803 0.4709 0.0588
vn -0.9546 0.2900 0.0681
vn -0.9925 0.0979 0.0728
vn -0.9925 -0.0979 0.0728
vn -0.9546 -0.2900 0.0681
vn -0.8803 -0.4709 0.0588
vn -0.7723 -0.6337 0.0452
vn -0.6349 -0.7721 0.0279
vn -0.4734 -0.8808 0.0077
vn -0.2939 -0.9557 -0.0149
vn -0.1033 -0.9939 -0.0388
vn 0.0909 -0.9939 -0.0632
vn 0.2814 -0.9556 -0.0871
vn 0.4609 -0.8807 -0.1096
vn 0.6223 -0.7719 -0.1299
vn 0.7597 -0.6335 -0.1472
vn 0.8675 -0.4707 -0.1607
vn 0.9419 -0.2898 -0.1700
vn 0.9797 -0.0979 -0.1748
vn 0.9797 0.0979 -0.1748
vn 0.9418 0.2898 -0.1700
vn 0.8675 0.4707 -0.1607
vn 0.7597 0.6335 -0.1472
vn 0.6223 0.7719 -0.1299
vn 0.4609 0.8807 -0.1096
vn 0.2814 0.9556 -0.0871
vn 0.0909 0.9939 -0.0632
vn -0.1131 0.9856 -0.1256
vn -0.3020 0.9480 -0.1010
vn -0.4800 0.8738 -0.0778
vn -0.6402 0.7661 -0.0570
vn -0.7766 0.6288 -0.0392
vn -0.8837 0.4673 -0.0253
vn -0.9576 0.2878 -0.0156
vn -0.9952 0.0972 -0.0107
vn -0.9952 -0.0972 -0.0107
vn -0.9576 -0.2878 -0.0156
vn -0.8837 -0.4673 -0.0253
vn -0.7766 -0.6288 -0.0392
vn -0.6402 -0.7661 -0.0570
vn -0.4800 -0.8738 -0.0778
vn -0.3020 -0.9480 -0.1010
vn -0.1131 -0.9856 -0.1256
vn 0.0794 -0.9854 -0.1506
vn 0.2682 -0.9473 -0.1752
vn 0.4459 -0.8728 -0.1983
vn 0.6057 -0.7649 -0.2192
vn 0.7416 -0.6276 -0.2368
vn 0.8483 -0.4663 -0.2507
vn 0.9218 -0.2871 -0.2603
vn 0.9593 -0.0969 -0.2652
vn 0.9593 0.0969 -0.2652
vn 0.9218 0.2871 -0.2603
vn 0.8483 0.4663 -0.2507
vn 0.7416 0.6276 -0.2368
vn 0.6057 0.7649 -0.2192
vn 0.4459 0.8728 -0.1983
vn 0.2682 0.9473 -0.1752
vn 0.0794 0.9854 -0.1506
vn -0.1149 0.9831 -0.1428
vn -0.3033 0.9455 -0.1183
vn -0.4809 0.8716 -0.0952
vn -0.6408 0.7641 -0.0744
vn -0.7768 0.6272 -0.0567
vn -0.8837 0.4661 -0.0427
vn -0.9573 0.2871 -0.0332
vn -0.9949 0.0969 -0.0283
vn -0.9949 -0.0969 -0.0283
vn -0.9573 -0.2871 -0.0332
vn -0.8837 -0.4661 -0.0427
vn -0.7768 -0.6272 -0.0567
vn -0.6408 -0.7641 -0.0744
vn -0.4809 -0.8716 -0.0952
vn -0.3033 -0.9455 -0.1183
vn -0.1149 -0.9831 -0.1428
vn 0.0771 -0.9828 -0.1678
vn 0.2653 -0.9448 -0.1923
vn 0.4425 -0.8705 -0.2153
vn 0.6020 -0.7628 -0.2361
vn 0.7375 -0.6259 -0.2537
vn 0.8439 -0.4650 -0.2676
vn 0.9172 -0.2863 -0.2771
vn 0.9545 -0.0967 -0.2820
vn 0.9545 0.0967 -0.2820
vn 0.9172 0.2863 -0.2771
vn 0.8439 0.4650 -0.2676
vn 0.7375 0.6259 -0.2537
vn 0.6020 0.7628 -0.2361
vn 0.4425 0.8705 -0.2153
vn 0.2653 0.9448 -0.1923
vn 0.0771 0.9828 -0.1678
vn -0.1017 0.9945 -0.0253
vn -0.2923 0.9563 -0.0004
vn -0.4718 0.8814 0.0230
vn -0.6334 0.7726 0.0440
vn -0.7708 0.6341 0.0619
vn -0.8788 0.4712 0.0760
vn -0.9531 0.2902 0.0857
vn -0.9911 0.0980 0.0907
vn -0.9911 -0.0980 0.0907
vn -0.9531 -0.2902 0.0857
vn -0.8788 -0.4712 0.0760
vn -0.7708 -0.6341 0.0619
vn -0.6334 -0.7726 0.0440
vn -0.4718 -0.8814 0.0230
vn -0.2923 -0.9563 -0.0004
vn -0.1017 -0.9945 -0.0253
vn 0.0925 -0.9944 -0.0506
vn 0.2830 -0.9561 -0.0754
vn 0.4624 -0.8811 -0.0988
vn 0.6239 -0.7723 -0.1198
vn 0.7612 -0.6338 -0.1377
vn 0.8690 -0.4709 -0.1518
vn 0.9433 -0.2900 -0.1615
vn 0.9812 -0.0979 -0.1664
vn 0.9812 0.0979 -0.1664
vn 0.9433 0.2900 -0.1615
vn 0.8690 0.4709 -0.1518
vn 0.7612 0.6338 -0.1377
vn 0.6239 0.7723 -0.1198
vn 0.4624 0.8811 -0.0988
vn 0.2830 0.9561 -0.0754
vn 0.0925 0.9944 -0.0506
vn -0.1207 -0.0000 -0.9927
vn 0.0765 0.9821 -0.1723
vn 0.2639 0.9434 -0.2008
vn 0.4401 0.8687 -0.2275
vn 0.5983 0.7607 -0.2515
vn 0.7327 0.6239 -0.2719
vn 0.8381 0.4633 -0.2879
vn 0.9107 0.2852 -0.2989
vn 0.9476 0.0963 -0.3045
vn 0.9476 -0.0963 -0.3045
vn 0.9107 -0.2852 -0.2989
vn 0.8381 -0.4633 -0.2879
vn 0.7327 -0.6239 -0.2719
vn 0.5983 -0.7607 -0.2515
vn 0.4401 -0.8687 -0.2275
vn 0.2639 -0.9434 -0.2008
vn 0.0765 -0.9821 -0.1723
vn -0.1150 -0.9830 -0.1433
vn -0.3030 -0.9460 -0.1147
vn -0.4805 -0.8726 -0.0878
vn -0.6405 -0.7654 -0.0635
vn -0.7766 -0.6285 -0.0428
vn -0.8837 -0.4672 -0.0265
vn -0.9576 -0.2878 -0.0153
vn -0.9952 -0.0972 -0.0096
vn -0.9952 0.0972 -0.0096
vn -0.9576 0.2878 -0.0153
vn -0.8837 0.4672 -0.0265
vn -0.7766 0.6285 -0.0428
vn -0.6405 0.7654 -0.0635
vn -0.4805 0.8726 -0.0878
vn -0.3030 0.9460 -0.1147
vn -0.1150 0.9830 -0.1433
vn -0.0852 0.9906 0.1074
vn -0.2746 0.9521 0.1346
vn -0.4528 0.8771 0.1602
vn -0.6131 0.7685 0.1833
vn -0.7492 0.6305 0.2028
vn -0.8562 0.4684 0.2182
vn -0.9298 0.2884 0.2288
vn -0.9673 0.0974 0.2341
vn -0.9673 -0.0974 0.2341
vn -0.9298 -0.2884 0.2288
vn -0.8562 -0.4684 0.2182
vn -0.7492 -0.6305 0.2028
vn -0.6131 -0.7685 0.1833
vn -0.4528 -0.8771 0.1602
vn -0.2746 -0.9521 0.1346
vn -0.0852 -0.9906 0.1074
vn 0.1080 -0.9910 0.0797
vn 0.2977 -0.9532 0.0524
vn 0.4764 -0.8788 0.0268
vn 0.6374 -0.7705 0.0036
vn 0.7744 -0.6325 -0.0161
vn 0.8821 -0.4701 -0.0315
vn 0.9562 -0.2895 -0.0422
vn 0.9941 -0.0978 -0.0476
vn 0.9941 0.0978 -0.0476
vn 0.9562 0.2895 -0.0422
vn 0.8821 0.4701 -0.0315
vn 0.7744 0.6325 -0.0161
vn 0.6374 0.7705 0.0036
vn 0.4764 0.8788 0.0268
vn 0.2977 0.9532 0.0524
vn 0.1080 0.9910 0.0797
vn -0.1033 0.9939 -0.0388
vn 0.7413 -0.4151 -0.5274
vn 0.8212 -0.4278 -0.3776
vn 0.8744 -0.4340 -0.2169
vn 0.9000 -0.4340 -0.0415
vn 0.8948 -0.4278 0.1276
vn 0.8610 -0.4151 0.2940
vn 0.7963 -0.2552 -0.5484
vn 0.8850 -0.2567 -0.3883
vn 0.9402 -0.2564 -0.2244
vn 0.9651 -0.2564 -0.0532
vn 0.9590 -0.2567 0.1197
vn 0.9197 -0.2552 0.2984
vn 0.8246 -0.0886 -0.5587
vn 0.9157 -0.0865 -0.3925
vn 0.9702 -0.0848 -0.2271
vn 0.9946 -0.0848 -0.0591
vn 0.9896 -0.0865 0.1150
vn 0.9498 -0.0886 0.3002
vn 0.8246 0.0886 -0.5587
vn 0.9157 0.0865 -0.3925
vn 0.9702 0.0848 -0.2271
vn 0.9946 0.0848 -0.0591
vn 0.9896 0.0865 0.1150
vn 0.9498 0.0886 0.3002
vn 0.7963 0.2552 -0.5484
vn 0.8850 0.2567 -0.3883
vn 0.9402 0.2564 -0.2244
vn 0.9651 0.2564 -0.0532
vn 0.9590 0.2567 0.1197
vn 0.9197 0.2552 0.2984
vn 0.7413 0.4151 -0.5274
vn 0.8212 0.4278 -0.3776
vn 0.8744 0.4340 -0.2169
vn 0.9000 0.4340 -0.0415
vn 0.8948 0.4278 0.1276
vn 0.8610 0.4151 0.2940
vn 0.5743 -0.5325 -0.6218
vn 0.6494 -0.5734 -0.4995
vn 0.7136 -0.6011 -0.3598
vn 0.7613 -0.6161 -0.2020
vn 0.7873 -0.6161 -0.0236
vn 0.7866 -0.6011 0.1413
vn 0.7649 -0.5734 0.2935
vn 0.7278 -0.5325 0.4321
vn 0.7898 -0.4007 0.4644
vn 0.8367 -0.2532 0.4856
vn 0.8631 -0.0901 0.4969
vn 0.8631 0.0901 0.4969
vn 0.8367 0.2532 0.4856
vn 0.7898 0.4007 0.4644
vn 0.7278 0.5325 0.4321
vn 0.7649 0.5734 0.2935
vn 0.7866 0.6011 0.1413
vn 0.7873 0.6161 -0.0236
vn 0.7613 0.6161 -0.2020
vn 0.7136 0.6011 -0.3598
vn 0.6494 0.5734 -0.4995
vn 0.5743 0.5325 -0.6218
vn 0.6245 0.4007 -0.6704
vn 0.6634 0.2532 -0.7041
vn 0.6855 0.0901 -0.7225
vn 0.6855 -0.0901 -0.7225
vn 0.6634 -0.2532 -0.7041
vn 0.6245 -0.4007 -0.6704
vn 0.3509 0.8096 -0.4705
vn 0.3866 0.8671 -0.3143
vn 0.4166 0.8966 -0.1503
vn 0.4422 0.8966 0.0252
vn 0.4602 0.8671 0.1909
vn 0.4705 0.8096 0.3509
vn 0.1909 0.8671 -0.4602
vn 0.2170 0.9318 -0.2910
vn 0.2413 0.9627 -0.1226
vn 0.2662 0.9627 0.0487
vn 0.2911 0.9318 0.2170
vn 0.3143 0.8671 0.3866
vn 0.0252 0.8966 -0.4422
vn 0.0487 0.9627 -0.2662
vn 0.0717 0.9928 -0.0962
vn 0.0962 0.9928 0.0717
vn 0.1226 0.9627 0.2413
vn 0.1503 0.8966 0.4166
vn -0.1503 0.8966 -0.4167
vn -0.1226 0.9627 -0.2412
vn -0.0962 0.9928 -0.0717
vn -0.0717 0.9928 0.0962
vn -0.0487 0.9627 0.2662
vn -0.0252 0.8966 0.4422
vn -0.3143 0.8671 -0.3866
vn -0.2910 0.9318 -0.2170
vn -0.2662 0.9627 -0.0487
vn -0.2412 0.9627 0.1226
vn -0.2170 0.9318 0.2910
vn -0.1909 0.8671 0.4602
vn -0.4705 0.8096 -0.3509
vn -0.4602 0.8671 -0.1909
vn -0.4422 0.8966 -0.0252
vn -0.4166 0.8966 0.1503
vn -0.3866 0.8671 0.3142
vn -0.3509 0.8096 0.4705
vn 0.4502 0.6579 -0.6037
vn 0.5097 0.7146 -0.4791
vn 0.5583 0.7580 -0.3372
vn 0.5967 0.7825 -0.1780
vn 0.6227 0.7825 0.0004
vn 0.6313 0.7580 0.1639
vn 0.6252 0.7146 0.3138
vn 0.6037 0.6579 0.4502
vn 0.4791 0.7146 0.5097
vn 0.3372 0.7580 0.5583
vn 0.1780 0.7825 0.5967
vn -0.0004 0.7825 0.6227
vn -0.1639 0.7580 0.6313
vn -0.3138 0.7146 0.6252
vn -0.4502 0.6579 0.6037
vn -0.5097 0.7146 0.4792
vn -0.5583 0.7580 0.3372
vn -0.5967 0.7825 0.1780
vn -0.6227 0.7825 -0.0004
vn -0.6313 0.7580 -0.1639
vn -0.6252 0.7146 -0.3138
vn -0.6037 0.6579 -0.4502
vn -0.4791 0.7146 -0.5097
vn -0.3372 0.7580 -0.5583
vn -0.1780 0.7825 -0.5967
vn 0.0004 0.7825 -0.6227
vn 0.1639 0.7580 -0.6313
vn 0.3138 0.7146 -0.6252
vn -0.8610 0.4151 -0.2940
vn -0.8948 0.4278 -0.1276
vn -0.9000 0.4340 0.0415
vn -0.8744 0.4340 0.2169
vn -0.8212 0.4278 0.3776
vn -0.7413 0.4151 0.5274
vn -0.9197 0.2552 -0.2984
vn -0.9590 0.2567 -0.1197
vn -0.9651 0.2564 0.0532
vn -0.9402 0.2564 0.2244
vn -0.8850 0.2567 0.3883
vn -0.7963 0.2552 0.5484
vn -0.9498 0.0886 -0.3002
vn -0.9896 0.0865 -0.1150
vn -0.9946 0.0848 0.0591
vn -0.9702 0.0848 0.2271
vn -0.9157 0.0865 0.3925
vn -0.8247 0.0886 0.5587
vn -0.9498 -0.0886 -0.3002
vn -0.9896 -0.0865 -0.1150
vn -0.9946 -0.0848 0.0591
vn -0.9702 -0.0848 0.2271
vn -0.9157 -0.0865 0.3925
vn -0.8246 -0.0886 0.5587
vn -0.9197 -0.2552 -0.2984
vn -0.9590 -0.2567 -0.1197
vn -0.9651 -0.2564 0.0532
vn -0.9402 -0.2564 0.2244
vn -0.8850 -0.2567 0.3884
vn -0.7963 -0.2552 0.5484
vn -0.8610 -0.4151 -0.2940
vn -0.8948 -0.4278 -0.1276
vn -0.9000 -0.4340 0.0415
vn -0.8744 -0.4340 0.2169
vn -0.8212 -0.4278 0.3776
vn -0.7413 -0.4151 0.5274
vn -0.7278 0.5325 -0.4321
vn -0.7649 0.5734 -0.2935
vn -0.7866 0.6011 -0.1413
vn -0.7873 0.6161 0.0236
vn -0.7613 0.6162 0.2020
vn -0.7136 0.6011 0.3598
vn -0.6494 0.5734 0.4995
vn -0.5743 0.5325 0.6218
vn -0.6245 0.4007 0.6704
vn -0.6634 0.2532 0.7041
vn -0.6855 0.0901 0.7225
vn -0.6855 -0.0901 0.7225
vn -0.6634 -0.2532 0.7041
vn -0.6245 -0.4007 0.6704
vn -0.5743 -0.5325 0.6218
vn -0.6494 -0.5734 0.4995
vn -0.7136 -0.6011 0.3598
vn -0.7613 -0.6161 0.2020
vn -0.7873 -0.6161 0.0236
vn -0.7866 -0.6011 -0.1413
vn -0.7649 -0.5734 -0.2935
vn -0.7278 -0.5325 -0.4321
vn -0.7898 -0.4007 -0.4644
vn -0.8367 -0.2532 -0.4856
vn -0.8631 -0.0901 -0.4969
vn -0.8631 0.0901 -0.4969
vn -0.8367 0.2532 -0.4856
vn -0.7898 0.4007 -0.4644
vn -0.4705 -0.8096 -0.3509
vn -0.4602 -0.8671 -0.1909
vn -0.4422 -0.8966 -0.0252
vn -0.4166 -0.8966 0.1503
vn -0.3866 -0.8671 0.3142
vn -0.3509 -0.8096 0.4705
vn -0.3142 -0.8671 -0.3866
vn -0.2910 -0.9318 -0.2170
vn -0.2662 -0.9627 -0.0487
vn -0.2413 -0.9627 0.1226
vn -0.2170 -0.9318 0.2910
vn -0.1909 -0.8671 0.4602
vn -0.1503 -0.8966 -0.4167
vn -0.1226 -0.9627 -0.2412
vn -0.0962 -0.9928 -0.0717
vn -0.0717 -0.9928 0.0962
vn -0.0487 -0.9627 0.2662
vn -0.0252 -0.8966 0.4422
vn 0.0251 -0.8966 -0.4422
vn 0.0487 -0.9627 -0.2662
vn 0.0717 -0.9928 -0.0962
vn 0.0962 -0.9928 0.0717
vn 0.1226 -0.9627 0.2413
vn 0.1503 -0.8966 0.4166
vn 0.1909 -0.8671 -0.4602
vn 0.2170 -0.9318 -0.2910
vn 0.2413 -0.9627 -0.1226
vn 0.2662 -0.9627 0.0487
vn 0.2910 -0.9318 0.2170
vn 0.3143 -0.8671 0.3866
vn 0.3509 -0.8096 -0.4705
vn 0.3866 -0.8671 -0.3142
vn 0.4166 -0.8966 -0.1503
vn 0.4422 -0.8966 0.0252
vn 0.4602 -0.8671 0.1909
vn 0.4705 -0.8096 0.3509
vn -0.6037 -0.6579 -0.4502
vn -0.6252 -0.7146 -0.3138
vn -0.6313 -0.7580 -0.1639
vn -0.6227 -0.7825 -0.0004
vn -0.5967 -0.7825 0.1780
vn -0.5583 -0.7580 0.3372
vn -0.5097 -0.7146 0.4791
vn -0.4502 -0.6579 0.6037
vn -0.3138 -0.7146 0.6252
vn -0.1639 -0.7580 0.6313
vn -0.0004 -0.7825 0.6227
vn 0.1780 -0.7825 0.5967
vn 0.3372 -0.7580 0.5583
vn 0.4792 -0.7146 0.5097
vn 0.6037 -0.6579 0.4502
vn 0.6252 -0.7146 0.3138
vn 0.6313 -0.7580 0.1639
vn 0.6227 -0.7825 0.0004
vn 0.5967 -0.7825 -0.1780
vn 0.5583 -0.7580 -0.3372
vn 0.5097 -0.7146 -0.4791
vn 0.4502 -0.6579 -0.6037
vn 0.3138 -0.7146 -0.6252
vn 0.1639 -0.7580 -0.6313
vn 0.0004 -0.7825 -0.6227
vn -0.1780 -0.7825 -0.5967
vn -0.3372 -0.7580 -0.5583
vn -0.4792 -0.7146 -0.5097
vn 0.2940 0.4151 -0.8610
vn 0.1276 0.4279 -0.8948
vn -0.0415 0.4340 -0.9000
vn -0.2169 0.4340 -0.8744
vn -0.3776 0.4279 -0.8212
vn -0.5274 0.4151 -0.7413
vn 0.2984 0.2552 -0.9197
vn 0.1197 0.2567 -0.9590
vn -0.0532 0.2564 -0.9651
vn -0.2244 0.2564 -0.9402
vn -0.3883 0.2567 -0.8850
vn -0.5484 0.2553 -0.7963
vn 0.3002 0.0886 -0.9498
vn 0.1150 0.0865 -0.9896
vn -0.0591 0.0848 -0.9946
vn -0.2271 0.0848 -0.9702
vn -0.3925 0.0865 -0.9157
vn -0.5587 0.0886 -0.8246
vn 0.3002 -0.0886 -0.9498
vn 0.1150 -0.0865 -0.9896
vn -0.0591 -0.0848 -0.9946
vn -0.2271 -0.0848 -0.9702
vn -0.3925 -0.0865 -0.9157
vn -0.5586 -0.0886 -0.8247
vn 0.2984 -0.2552 -0.9197
vn 0.1197 -0.2567 -0.9590
vn -0.0532 -0.2564 -0.9651
vn -0.2244 -0.2564 -0.9402
vn -0.3884 -0.2567 -0.8850
vn -0.5484 -0.2552 -0.7963
vn 0.2940 -0.4151 -0.8610
vn 0.1276 -0.4278 -0.8948
vn -0.0415 -0.4340 -0.9000
vn -0.2169 -0.4340 -0.8744
vn -0.3776 -0.4278 -0.8212
vn -0.5274 -0.4151 -0.7413
vn 0.4321 0.5325 -0.7278
vn 0.2935 0.5734 -0.7649
vn 0.1413 0.6011 -0.7866
vn -0.0236 0.6162 -0.7873
vn -0.2020 0.6162 -0.7613
vn -0.3598 0.6011 -0.7136
vn -0.4995 0.5734 -0.6494
vn -0.6218 0.5325 -0.5743
vn -0.6704 0.4007 -0.6245
vn -0.7041 0.2532 -0.6634
vn -0.7225 0.0901 -0.6855
vn -0.7225 -0.0901 -0.6855
vn -0.7041 -0.2532 -0.6634
vn -0.6704 -0.4007 -0.6245
vn -0.6218 -0.5325 -0.5743
vn -0.4995 -0.5734 -0.6494
vn -0.3598 -0.6011 -0.7136
vn -0.2020 -0.6162 -0.7613
vn -0.0236 -0.6162 -0.7873
vn 0.1413 -0.6011 -0.7866
vn 0.2935 -0.5734 -0.7649
vn 0.4321 -0.5325 -0.7278
vn 0.4644 -0.4007 -0.7898
vn 0.4856 -0.2532 -0.8367
vn 0.4969 -0.0901 -0.8631
vn 0.4969 0.0901 -0.8631
vn 0.4856 0.2532 -0.8367
vn 0.4644 0.4007 -0.7898
vn -0.2940 0.4151 0.8610
vn -0.1276 0.4278 0.8948
vn 0.0415 0.4340 0.9000
vn 0.2169 0.4340 0.8744
vn 0.3776 0.4279 0.8212
vn 0.5274 0.4151 0.7413
vn -0.2984 0.2552 0.9197
vn -0.1197 0.2567 0.9590
vn 0.0531 0.2564 0.9651
vn 0.2244 0.2564 0.9402
vn 0.3883 0.2567 0.8850
vn 0.5484 0.2552 0.7963
vn -0.3002 0.0886 0.9498
vn -0.1149 0.0865 0.9896
vn 0.0591 0.0848 0.9946
vn 0.2271 0.0848 0.9702
vn 0.3925 0.0865 0.9157
vn 0.5587 0.0886 0.8246
vn -0.3002 -0.0886 0.9498
vn -0.1150 -0.0865 0.9896
vn 0.0591 -0.0848 0.9946
vn 0.2271 -0.0848 0.9702
vn 0.3925 -0.0865 0.9157
vn 0.5587 -0.0886 0.8247
vn -0.2984 -0.2553 0.9197
vn -0.1197 -0.2567 0.9590
vn 0.0531 -0.2564 0.9651
vn 0.2244 -0.2564 0.9402
vn 0.3884 -0.2567 0.8850
vn 0.5484 -0.2553 0.7963
vn -0.2940 -0.4151 0.8610
vn -0.1276 -0.4278 0.8948
vn 0.0415 -0.4340 0.9000
vn 0.2169 -0.4340 0.8744
vn 0.3776 -0.4278 0.8212
vn 0.5274 -0.4151 0.7413
vn -0.4321 0.5325 0.7278
vn -0.2935 0.5734 0.7649
vn -0.1413 0.6011 0.7866
vn 0.0236 0.6162 0.7873
vn 0.2020 0.6161 0.7613
vn 0.3598 0.6011 0.7136
vn 0.4995 0.5734 0.6494
vn 0.6218 0.5325 0.5743
vn 0.6704 0.4007 0.6245
vn 0.7041 0.2532 0.6634
vn 0.7225 0.0901 0.6855
vn 0.7225 -0.0901 0.6855
vn 0.7041 -0.2532 0.6634
vn 0.6704 -0.4007 0.6245
vn 0.6218 -0.5325 0.5743
vn 0.4995 -0.5734 0.6494
vn 0.3598 -0.6011 0.7136
vn 0.2020 -0.6162 0.7613
vn 0.0236 -0.6162 0.7873
vn -0.1413 -0.6011 0.7866
vn -0.2935 -0.5734 0.7649
vn -0.4321 -0.5325 0.7278
vn -0.4644 -0.4007 0.7898
vn -0.4856 -0.2532 0.8367
vn -0.4969 -0.0901 0.8631
vn -0.4969 0.0901 0.8631
vn -0.4856 0.2532 0.8367
vn -0.4644 0.4007 0.7898
vt 0.194678 0.391112
vt 0.219886 0.395137
vt 0.219006 0.402600
vt 0.194192 0.399693
vt 0.218374 0.410053
vt 0.193926 0.407970
vt 0.217928 0.417483
vt 0.193806 0.416013
vt 0.217616 0.424881
vt 0.193784 0.423874
vt 0.217399 0.432244
vt 0.193827 0.431593
vt 0.217248 0.439569
vt 0.193910 0.439197
vt 0.217139 0.446853
vt 0.194017 0.446709
vt 0.217057 0.454091
vt 0.194139 0.454146
vt 0.217139 0.461313
vt 0.194228 0.461531
vt 0.217233 0.468555
vt 0.194314 0.468880
vt 0.217325 0.475817
vt 0.194386 0.476203
vt 0.217405 0.483096
vt 0.194437 0.483507
vt 0.217465 0.490392
vt 0.194461 0.490799
vt 0.217502 0.497702
vt 0.194458 0.498082
vt 0.217515 0.505025
vt 0.194426 0.505361
vt 0.217503 0.512359
vt 0.194367 0.512637
vt 0.217470 0.519703
vt 0.194284 0.519915
vt 0.217419 0.527055
vt 0.194181 0.527198
vt 0.217357 0.534416
vt 0.194061 0.534489
vt 0.217288 0.541785
vt 0.193930 0.541794
vt 0.217222 0.549163
vt 0.193793 0.549117
vt 0.217166 0.556552
vt 0.193656 0.556464
vt 0.217128 0.563956
vt 0.193525 0.563841
vt 0.217118 0.571377
vt 0.193403 0.571255
vt 0.216987 0.578790
vt 0.193345 0.578707
vt 0.216928 0.586153
vt 0.193323 0.586207
vt 0.216968 0.593475
vt 0.193362 0.593769
vt 0.217138 0.600763
vt 0.193486 0.601413
vt 0.217469 0.608024
vt 0.193728 0.609165
vt 0.218004 0.615261
vt 0.194124 0.617061
vt 0.860179 0.182155
vt 0.862754 0.188371
vt 0.847786 0.192911
vt 0.846385 0.189528
vt 0.218789 0.622474
vt 0.194725 0.625141
vt 0.219886 0.629630
vt 0.195588 0.633447
vt 0.808137 0.171803
vt 0.813731 0.168065
vt 0.821104 0.181859
vt 0.818059 0.183894
vt 0.084420 0.602914
vt 0.083166 0.609238
vt 0.017624 0.596762
vt 0.018726 0.591185
vt 0.085571 0.596552
vt 0.019734 0.585615
vt 0.086622 0.590165
vt 0.020655 0.580046
vt 0.087578 0.583759
vt 0.021494 0.574476
vt 0.088443 0.577341
vt 0.022255 0.568902
vt 0.089221 0.570916
vt 0.022941 0.563325
vt 0.089919 0.564487
vt 0.023553 0.557745
vt 0.090508 0.558053
vt 0.024113 0.552163
vt 0.091020 0.551618
vt 0.024604 0.546575
vt 0.091455 0.545184
vt 0.025027 0.540982
vt 0.091817 0.538749
vt 0.025382 0.535387
vt 0.092104 0.532315
vt 0.025671 0.529790
vt 0.092318 0.525880
vt 0.025891 0.524195
vt 0.092457 0.519444
vt 0.026043 0.518601
vt 0.092520 0.513007
vt 0.026123 0.513009
vt 0.092505 0.506568
vt 0.026131 0.507421
vt 0.092412 0.500128
vt 0.026065 0.501837
vt 0.092236 0.493685
vt 0.025921 0.496258
vt 0.091976 0.487241
vt 0.025699 0.490683
vt 0.091629 0.480796
vt 0.025398 0.485112
vt 0.091192 0.474351
vt 0.025015 0.479546
vt 0.090662 0.467907
vt 0.024549 0.473984
vt 0.090036 0.461466
vt 0.024003 0.468424
vt 0.089339 0.455027
vt 0.023341 0.462877
vt 0.088538 0.448597
vt 0.022596 0.457340
vt 0.087631 0.442181
vt 0.021762 0.451812
vt 0.086616 0.435783
vt 0.020836 0.446292
vt 0.085490 0.429412
vt 0.019816 0.440776
vt 0.084253 0.423075
vt 0.018696 0.435256
vt 0.082905 0.416783
vt 0.017475 0.429725
vt 0.016146 0.424159
vt 0.081444 0.410546
vt 0.118392 0.617501
vt 0.116797 0.624759
vt 0.081806 0.615501
vt 0.119775 0.610284
vt 0.120979 0.603108
vt 0.122032 0.595978
vt 0.122955 0.588894
vt 0.123767 0.581854
vt 0.124483 0.574854
vt 0.125114 0.567891
vt 0.125649 0.560957
vt 0.126114 0.554050
vt 0.126512 0.547165
vt 0.126845 0.540297
vt 0.127115 0.533443
vt 0.127322 0.526598
vt 0.127464 0.519759
vt 0.127540 0.512922
vt 0.127548 0.506082
vt 0.127485 0.499238
vt 0.127348 0.492385
vt 0.127133 0.485521
vt 0.126836 0.478641
vt 0.126451 0.471743
vt 0.125974 0.464824
vt 0.125397 0.457879
vt 0.124730 0.450907
vt 0.123948 0.443905
vt 0.123042 0.436873
vt 0.121999 0.429809
vt 0.120806 0.422715
vt 0.119444 0.415595
vt 0.117890 0.408456
vt 0.116126 0.401323
vt 0.154538 0.624377
vt 0.153490 0.632987
vt 0.155371 0.616094
vt 0.156060 0.608066
vt 0.156648 0.600239
vt 0.157160 0.592573
vt 0.157613 0.585037
vt 0.158017 0.577604
vt 0.158379 0.570254
vt 0.158737 0.562971
vt 0.159060 0.555739
vt 0.159347 0.548547
vt 0.159599 0.541385
vt 0.159813 0.534246
vt 0.159988 0.527122
vt 0.160121 0.520005
vt 0.160210 0.512890
vt 0.160253 0.505771
vt 0.160245 0.498642
vt 0.160185 0.491497
vt 0.160069 0.484331
vt 0.159896 0.477136
vt 0.159661 0.469905
vt 0.159363 0.462630
vt 0.158997 0.455298
vt 0.158524 0.447904
vt 0.157976 0.440426
vt 0.157343 0.432849
vt 0.156613 0.425150
vt 0.155769 0.417305
vt 0.154783 0.409282
vt 0.153611 0.401046
vt 0.152185 0.392576
vt 0.171615 0.625624
vt 0.171510 0.634451
vt 0.171766 0.617181
vt 0.171945 0.609035
vt 0.172144 0.601115
vt 0.172355 0.593371
vt 0.172571 0.585764
vt 0.172788 0.578262
vt 0.172997 0.570845
vt 0.173250 0.563493
vt 0.173490 0.556190
vt 0.173713 0.548926
vt 0.173918 0.541691
vt 0.174100 0.534476
vt 0.174256 0.527274
vt 0.174383 0.520078
vt 0.174477 0.512882
vt 0.174535 0.505680
vt 0.174554 0.498467
vt 0.174531 0.491239
vt 0.174465 0.483988
vt 0.174356 0.476709
vt 0.174201 0.469394
vt 0.174004 0.462033
vt 0.173764 0.454615
vt 0.173441 0.447130
vt 0.173078 0.439557
vt 0.172677 0.431873
vt 0.172237 0.424051
vt 0.171759 0.416054
vt 0.171242 0.407833
vt 0.170688 0.399319
vt 0.170105 0.390421
vt 0.808137 0.224865
vt 0.803379 0.220107
vt 0.815470 0.210184
vt 0.818059 0.212774
vt 0.862754 0.208297
vt 0.860179 0.214513
vt 0.846385 0.207140
vt 0.847786 0.203756
vt 0.833274 0.164177
vt 0.839873 0.165490
vt 0.835333 0.180458
vt 0.831741 0.179743
vt 0.795754 0.201698
vt 0.795754 0.194970
vt 0.811320 0.196503
vt 0.811320 0.200165
vt 0.846089 0.228603
vt 0.839873 0.231178
vt 0.835333 0.216210
vt 0.838716 0.214808
vt 0.856441 0.176560
vt 0.844350 0.186483
vt 0.803379 0.176560
vt 0.815470 0.186483
vt 0.813731 0.228603
vt 0.821104 0.214808
vt 0.864067 0.201698
vt 0.848501 0.200165
vt 0.826546 0.164177
vt 0.828079 0.179743
vt 0.797066 0.208297
vt 0.812034 0.203756
vt 0.851684 0.224865
vt 0.841761 0.212774
vt 0.851684 0.171803
vt 0.841761 0.183894
vt 0.799641 0.182155
vt 0.813436 0.189528
vt 0.819947 0.231178
vt 0.824488 0.216210
vt 0.864067 0.194970
vt 0.848501 0.196503
vt 0.819947 0.165490
vt 0.824487 0.180458
vt 0.799641 0.214513
vt 0.813436 0.207140
vt 0.856441 0.220107
vt 0.844350 0.210184
vt 0.846089 0.168065
vt 0.838716 0.181859
vt 0.797066 0.188371
vt 0.812034 0.192911
vt 0.826546 0.232490
vt 0.828079 0.216924
vt 0.833274 0.232490
vt 0.831741 0.216924
vt 0.829910 0.198334
vt 0.791706 0.987136
vt 0.787552 0.989911
vt 0.782092 0.979694
vt 0.784357 0.978181
vt 0.753064 0.979449
vt 0.751153 0.974833
vt 0.762239 0.971471
vt 0.763281 0.973988
vt 0.768142 0.943049
vt 0.773042 0.942075
vt 0.774177 0.953603
vt 0.771505 0.954135
vt 0.800901 0.964938
vt 0.800901 0.969934
vt 0.789372 0.968799
vt 0.789372 0.966074
vt 0.768142 0.991823
vt 0.763526 0.989911
vt 0.768987 0.979694
vt 0.771504 0.980737
vt 0.753065 0.955423
vt 0.755840 0.951269
vt 0.764795 0.958618
vt 0.763281 0.960884
vt 0.791707 0.947737
vt 0.795239 0.951269
vt 0.786284 0.958618
vt 0.784357 0.956692
vt 0.782937 0.991823
vt 0.779574 0.980737
vt 0.750178 0.969934
vt 0.761707 0.968798
vt 0.778038 0.942075
vt 0.776902 0.953603
vt 0.799926 0.974834
vt 0.788840 0.971471
vt 0.759372 0.987135
vt 0.766722 0.978180
vt 0.759373 0.947736
vt 0.766722 0.956692
vt 0.798015 0.955423
vt 0.787798 0.960884
vt 0.778037 0.992798
vt 0.776902 0.981269
vt 0.750178 0.964938
vt 0.761707 0.966074
vt 0.782937 0.943049
vt 0.779574 0.954135
vt 0.798014 0.979449
vt 0.795239 0.983603
vt 0.786284 0.976254
vt 0.787798 0.973988
vt 0.755840 0.983603
vt 0.764795 0.976254
vt 0.763527 0.944961
vt 0.768987 0.955178
vt 0.799926 0.960039
vt 0.788841 0.963401
vt 0.773041 0.992797
vt 0.774177 0.981269
vt 0.751153 0.960038
vt 0.762239 0.963401
vt 0.787553 0.944961
vt 0.782092 0.955178
vt 0.775539 0.967436
vt 0.000663 0.427954
vt 0.001996 0.433078
vt 0.003189 0.438259
vt 0.004261 0.443483
vt 0.005224 0.448748
vt 0.006087 0.454049
vt 0.006858 0.459384
vt 0.007540 0.464751
vt 0.008136 0.470149
vt 0.008694 0.475554
vt 0.009169 0.480960
vt 0.009560 0.486366
vt 0.009870 0.491770
vt 0.010100 0.497173
vt 0.010253 0.502571
vt 0.010331 0.507965
vt 0.010337 0.513352
vt 0.010272 0.518732
vt 0.010139 0.524104
vt 0.009940 0.529467
vt 0.009678 0.534820
vt 0.009353 0.540161
vt 0.008967 0.545491
vt 0.008521 0.550806
vt 0.008014 0.556106
vt 0.007415 0.561391
vt 0.006750 0.566672
vt 0.006017 0.571944
vt 0.005209 0.577203
vt 0.004320 0.582446
vt 0.003339 0.587668
vt 0.002252 0.592867
vt 0.016420 0.602356
vt 0.001039 0.598038
vt 0.485851 0.879682
vt 0.481295 0.882461
vt 0.478808 0.876883
vt 0.484231 0.874932
vt 0.477333 0.870755
vt 0.483279 0.869702
vt 0.476824 0.864374
vt 0.482946 0.864280
vt 0.477136 0.857980
vt 0.483113 0.858849
vt 0.478423 0.851809
vt 0.483903 0.853593
vt 0.480737 0.846158
vt 0.485377 0.848795
vt 0.475965 0.886116
vt 0.472532 0.879560
vt 0.470353 0.872238
vt 0.469555 0.864486
vt 0.470114 0.856712
vt 0.472067 0.849327
vt 0.475298 0.842668
vt 0.469701 0.890636
vt 0.465112 0.883002
vt 0.461938 0.874240
vt 0.460537 0.864624
vt 0.461642 0.854970
vt 0.464545 0.846114
vt 0.468898 0.838343
vt 0.827142 0.793374
vt 0.821918 0.799064
vt 0.815810 0.794884
vt 0.820101 0.787920
vt 0.808795 0.791860
vt 0.811772 0.783739
vt 0.801190 0.790157
vt 0.802387 0.781218
vt 0.793405 0.789799
vt 0.792670 0.781181
vt 0.785842 0.790871
vt 0.783534 0.783023
vt 0.778849 0.793297
vt 0.775306 0.786433
vt 0.817662 0.803927
vt 0.812415 0.800803
vt 0.806502 0.798617
vt 0.800225 0.797363
vt 0.793839 0.796922
vt 0.787560 0.797474
vt 0.781676 0.799109
vt 0.814367 0.808126
vt 0.809840 0.805959
vt 0.804759 0.804399
vt 0.799413 0.803431
vt 0.794000 0.802959
vt 0.788687 0.803126
vt 0.783750 0.804026
vt 0.490742 0.881141
vt 0.488420 0.883536
vt 0.489951 0.878038
vt 0.489116 0.873750
vt 0.488539 0.869045
vt 0.488322 0.864197
vt 0.488390 0.859345
vt 0.488822 0.854624
vt 0.489525 0.850313
vt 0.487825 0.844864
vt 0.490221 0.847187
vt 0.484196 0.841345
vt 0.479692 0.836977
vt 0.474358 0.831805
vt 0.772681 0.796992
vt 0.768171 0.791088
vt 0.776489 0.801978
vt 0.779559 0.805996
vt 0.784769 0.808324
vt 0.781584 0.808648
vt 0.789134 0.808132
vt 0.793872 0.808258
vt 0.798699 0.808761
vt 0.803488 0.809545
vt 0.808093 0.810671
vt 0.812253 0.812004
vt 0.817892 0.811129
vt 0.815241 0.813154
vt 0.821910 0.808060
vt 0.826897 0.804251
vt 0.832801 0.799742
vt 0.480532 0.891670
vt 0.475360 0.897003
vt 0.484900 0.887166
vt 0.811415 0.816076
vt 0.811095 0.820441
vt 0.806549 0.819793
vt 0.807120 0.815237
vt 0.801995 0.819040
vt 0.802637 0.814350
vt 0.797416 0.818340
vt 0.798050 0.813609
vt 0.792814 0.817811
vt 0.793430 0.813117
vt 0.788223 0.817339
vt 0.788870 0.812793
vt 0.783667 0.816768
vt 0.784506 0.812473
vt 0.810771 0.825000
vt 0.806077 0.824385
vt 0.801431 0.823703
vt 0.796788 0.823033
vt 0.792132 0.822457
vt 0.787470 0.821893
vt 0.782780 0.821252
vt 0.810279 0.829620
vt 0.805548 0.828987
vt 0.800855 0.828358
vt 0.796159 0.827729
vt 0.791463 0.827101
vt 0.786770 0.826472
vt 0.782039 0.825839
vt 0.809538 0.834207
vt 0.804848 0.833566
vt 0.800186 0.833002
vt 0.795530 0.832425
vt 0.790887 0.831756
vt 0.786241 0.831074
vt 0.781547 0.830459
vt 0.808652 0.838691
vt 0.804095 0.838119
vt 0.799504 0.837648
vt 0.794902 0.837118
vt 0.790323 0.836418
vt 0.785769 0.835665
vt 0.781223 0.835018
vt 0.807812 0.842985
vt 0.803448 0.842665
vt 0.798889 0.842342
vt 0.794268 0.841850
vt 0.789681 0.841109
vt 0.785198 0.840222
vt 0.780903 0.839382
vt 0.815564 0.816340
vt 0.780434 0.811636
vt 0.779100 0.815796
vt 0.777975 0.820400
vt 0.777190 0.825189
vt 0.776687 0.830016
vt 0.776562 0.834755
vt 0.776754 0.839119
vt 0.780065 0.843454
vt 0.777077 0.842304
vt 0.784225 0.844788
vt 0.788830 0.845913
vt 0.793619 0.846698
vt 0.798446 0.847201
vt 0.803185 0.847326
vt 0.807549 0.847135
vt 0.811884 0.843823
vt 0.810734 0.846811
vt 0.813217 0.839663
vt 0.814343 0.835059
vt 0.815128 0.830269
vt 0.815631 0.825442
vt 0.815756 0.820704
vt 0.808568 0.851433
vt 0.810642 0.856350
vt 0.804758 0.857984
vt 0.803631 0.852333
vt 0.798479 0.858537
vt 0.798318 0.852500
vt 0.792093 0.858096
vt 0.792905 0.852028
vt 0.785816 0.856841
vt 0.787559 0.851059
vt 0.779903 0.854656
vt 0.782478 0.849500
vt 0.774656 0.851532
vt 0.777951 0.847333
vt 0.813469 0.862161
vt 0.806477 0.864588
vt 0.798913 0.865659
vt 0.791128 0.865302
vt 0.783523 0.863599
vt 0.776508 0.860575
vt 0.770400 0.856394
vt 0.817012 0.869025
vt 0.808784 0.872435
vt 0.799648 0.874278
vt 0.789931 0.874241
vt 0.780547 0.871720
vt 0.772217 0.867539
vt 0.765176 0.862084
vt 0.546018 0.889463
vt 0.539618 0.885138
vt 0.542849 0.878479
vt 0.550371 0.881693
vt 0.544802 0.871094
vt 0.553274 0.872836
vt 0.545362 0.863321
vt 0.554379 0.863182
vt 0.544563 0.855568
vt 0.552978 0.853567
vt 0.542385 0.848247
vt 0.549805 0.844804
vt 0.538951 0.841690
vt 0.545215 0.837171
vt 0.534179 0.881648
vt 0.536493 0.875997
vt 0.537780 0.869826
vt 0.538092 0.863432
vt 0.537584 0.857052
vt 0.536108 0.850923
vt 0.533622 0.845346
vt 0.529539 0.879011
vt 0.531013 0.874213
vt 0.531804 0.868957
vt 0.531971 0.863527
vt 0.531637 0.858104
vt 0.530685 0.852874
vt 0.529065 0.848124
vt 0.812759 0.849463
vt 0.774426 0.844330
vt 0.770408 0.847399
vt 0.765421 0.851207
vt 0.759517 0.855717
vt 0.534385 0.836137
vt 0.539556 0.830803
vt 0.530016 0.840641
vt 0.526497 0.844271
vt 0.524965 0.849768
vt 0.524174 0.846666
vt 0.525800 0.854056
vt 0.526377 0.858761
vt 0.526594 0.863609
vt 0.526527 0.868462
vt 0.526094 0.873182
vt 0.525391 0.877494
vt 0.527091 0.882942
vt 0.524696 0.880619
vt 0.530721 0.886461
vt 0.535225 0.890830
vt 0.540558 0.896001
vt 0.819637 0.858467
vt 0.824147 0.864371
vt 0.815829 0.853481
vt 0.521240 0.877268
vt 0.516876 0.877597
vt 0.516844 0.873005
vt 0.521435 0.872896
vt 0.516915 0.868390
vt 0.521648 0.868330
vt 0.516930 0.863758
vt 0.521703 0.863684
vt 0.516773 0.859128
vt 0.521506 0.859042
vt 0.516560 0.854517
vt 0.521152 0.854485
vt 0.516451 0.849927
vt 0.520823 0.850122
vt 0.512319 0.877951
vt 0.512233 0.873217
vt 0.512221 0.868522
vt 0.512196 0.863830
vt 0.512077 0.859141
vt 0.511945 0.854446
vt 0.511885 0.849713
vt 0.507677 0.878148
vt 0.507604 0.873375
vt 0.507531 0.868640
vt 0.507458 0.863903
vt 0.507385 0.859166
vt 0.507313 0.854432
vt 0.507239 0.849658
vt 0.503031 0.878094
vt 0.502971 0.873360
vt 0.502840 0.868666
vt 0.502721 0.863976
vt 0.502696 0.859285
vt 0.502683 0.854589
vt 0.502597 0.849855
vt 0.498465 0.877880
vt 0.498356 0.873289
vt 0.498144 0.868678
vt 0.497987 0.864049
vt 0.498001 0.859417
vt 0.498072 0.854801
vt 0.498040 0.850210
vt 0.494094 0.877685
vt 0.493765 0.873321
vt 0.493410 0.868764
vt 0.493213 0.864122
vt 0.493268 0.859476
vt 0.493482 0.854910
vt 0.493677 0.850539
vt 0.521593 0.881410
vt 0.521049 0.845970
vt 0.516737 0.845267
vt 0.512017 0.844835
vt 0.507164 0.844767
vt 0.502316 0.844984
vt 0.497611 0.845561
vt 0.493323 0.846396
vt 0.493868 0.881836
vt 0.498179 0.882539
vt 0.502900 0.882971
vt 0.507752 0.883039
vt 0.512600 0.882822
vt 0.517305 0.882245
vt 0.819862 0.815320
vt 0.824780 0.813246
vt 0.826414 0.819130
vt 0.820762 0.820258
vt 0.826967 0.825409
vt 0.820930 0.825571
vt 0.826526 0.831796
vt 0.820458 0.830983
vt 0.825271 0.838073
vt 0.819489 0.836329
vt 0.823086 0.843985
vt 0.817930 0.841411
vt 0.819961 0.849232
vt 0.815762 0.845937
vt 0.830591 0.810420
vt 0.833017 0.817412
vt 0.834089 0.824975
vt 0.833731 0.832761
vt 0.832028 0.840365
vt 0.829004 0.847380
vt 0.824824 0.853488
vt 0.837455 0.806876
vt 0.840865 0.815105
vt 0.842707 0.824240
vt 0.842670 0.833957
vt 0.840150 0.843342
vt 0.835968 0.851671
vt 0.830514 0.858712
vt 0.481898 0.902463
vt 0.486223 0.896063
vt 0.492882 0.899294
vt 0.489669 0.906816
vt 0.500267 0.901247
vt 0.498525 0.909719
vt 0.508040 0.901807
vt 0.508179 0.910824
vt 0.515793 0.901008
vt 0.517795 0.909423
vt 0.523115 0.898829
vt 0.526557 0.906250
vt 0.529671 0.895396
vt 0.534191 0.901660
vt 0.489713 0.890624
vt 0.495364 0.892939
vt 0.501535 0.894225
vt 0.507929 0.894537
vt 0.514310 0.894029
vt 0.520438 0.892553
vt 0.526016 0.890066
vt 0.492351 0.885984
vt 0.497148 0.887458
vt 0.502404 0.888249
vt 0.507835 0.888416
vt 0.513258 0.888082
vt 0.518487 0.887130
vt 0.523237 0.885510
vt 0.772456 0.840138
vt 0.767538 0.842212
vt 0.765904 0.836329
vt 0.771556 0.835201
vt 0.765351 0.830049
vt 0.771388 0.829888
vt 0.765792 0.823663
vt 0.771860 0.824476
vt 0.767047 0.817386
vt 0.772829 0.819130
vt 0.769232 0.811473
vt 0.774388 0.814048
vt 0.772357 0.806227
vt 0.776556 0.809522
vt 0.761727 0.845039
vt 0.759301 0.838047
vt 0.758229 0.830483
vt 0.758586 0.822698
vt 0.760290 0.815093
vt 0.763314 0.808078
vt 0.767494 0.801971
vt 0.754863 0.848583
vt 0.751453 0.840354
vt 0.749611 0.831218
vt 0.749648 0.821501
vt 0.752168 0.812117
vt 0.756349 0.803788
vt 0.761804 0.796746
vt 0.533018 0.825343
vt 0.528693 0.831743
vt 0.522034 0.828512
vt 0.525248 0.820990
vt 0.514649 0.826559
vt 0.516391 0.818087
vt 0.506876 0.826000
vt 0.506737 0.816982
vt 0.499123 0.826798
vt 0.497122 0.818383
vt 0.491802 0.828977
vt 0.488359 0.821557
vt 0.485245 0.832410
vt 0.480726 0.826146
vt 0.525203 0.837182
vt 0.519552 0.834868
vt 0.513381 0.833581
vt 0.506988 0.833269
vt 0.500606 0.833778
vt 0.494478 0.835253
vt 0.488901 0.837740
vt 0.522566 0.841822
vt 0.517769 0.840348
vt 0.512512 0.839558
vt 0.507082 0.839391
vt 0.501659 0.839724
vt 0.496429 0.840676
vt 0.491679 0.842297
s 0
usemtl lay_figure_material
f 1/1/1 2/2/1 3/3/1 4/4/1
f 4/4/2 3/3/2 5/5/2 6/6/2
f 6/6/3 5/5/3 7/7/3 8/8/3
f 8/8/4 7/7/4 9/9/4 10/10/4
f 10/10/5 9/9/5 11/11/5 12/12/5
f 12/12/6 11/11/6 13/13/6 14/14/6
f 14/14/7 13/13/7 15/15/7 16/16/7
f 16/16/8 15/15/8 17/17/8 18/18/8
f 18/18/9 17/17/9 19/19/9 20/20/9
f 20/20/10 19/19/10 21/21/10 22/22/10
f 22/22/11 21/21/11 23/23/11 24/24/11
f 24/24/12 23/23/12 25/25/12 26/26/12
f 26/26/13 25/25/13 27/27/13 28/28/13
f 28/28/14 27/27/14 29/29/14 30/30/14
f 30/30/15 29/29/15 31/31/15 32/32/15
f 32/32/16 31/31/16 33/33/16 34/34/16
f 34/34/17 33/33/17 35/35/17 36/36/17
f 36/36/18 35/35/18 37/37/18 38/38/18
f 38/38/19 37/37/19 39/39/19 40/40/19
f 40/40/20 39/39/20 41/41/20 42/42/20
f 42/42/21 41/41/21 43/43/21 44/44/21
f 44/44/22 43/43/22 45/45/22 46/46/22
f 46/46/23 45/45/23 47/47/23 48/48/23
f 48/48/24 47/47/24 49/49/24 50/50/24
f 50/50/25 49/49/25 51/51/25 52/52/25
f 52/52/26 51/51/26 53/53/26 54/54/26
f 54/54/27 53/53/27 55/55/27 56/56/27
f 56/56/28 55/55/28 57/57/28 58/58/28
f 58/58/29 57/57/29 59/59/29 60/60/29
f 60/60/30 59/59/30 61/61/30 62/62/30
f 21/63/31 19/64/31 63/65/31 64/66/31
f 62/62/32 61/61/32 65/67/32 66/68/32
f 66/68/33 65/67/33 2/69/33 1/70/33
f 39/71/31 37/72/31 67/73/31 68/74/31
f 69/75/34 70/76/34 71/77/34 72/78/34
f 73/79/35 69/75/35 72/78/35 74/80/35
f 75/81/36 73/79/36 74/80/36 76/82/36
f 77/83/37 75/81/37 76/82/37 78/84/37
f 79/85/38 77/83/38 78/84/38 80/86/38
f 81/87/39 79/85/39 80/86/39 82/88/39
f 83/89/40 81/87/40 82/88/40 84/90/40
f 85/91/41 83/89/41 84/90/41 86/92/41
f 87/93/42 85/91/42 86/92/42 88/94/42
f 89/95/43 87/93/43 88/94/43 90/96/43
f 91/97/44 89/95/44 90/96/44 92/98/44
f 93/99/45 91/97/45 92/98/45 94/100/45
f 95/101/46 93/99/46 94/100/46 96/102/46
f 97/103/47 95/101/47 96/102/47 98/104/47
f 99/105/48 97/103/48 98/104/48 100/106/48
f 101/107/49 99/105/49 100/106/49 102/108/49
f 103/109/50 101/107/50 102/108/50 104/110/50
f 105/111/51 103/109/51 104/110/51 106/112/51
f 107/113/52 105/111/52 106/112/52 108/114/52
f 109/115/53 107/113/53 108/114/53 110/116/53
f 111/117/54 109/115/54 110/116/54 112/118/54
f 113/119/55 111/117/55 112/118/55 114/120/55
f 115/121/56 113/119/56 114/120/56 116/122/56
f 117/123/57 115/121/57 116/122/57 118/124/57
f 119/125/58 117/123/58 118/124/58 120/126/58
f 121/127/59 119/125/59 120/126/59 122/128/59
f 123/129/60 121/127/60 122/128/60 124/130/60
f 125/131/61 123/129/61 124/130/61 126/132/61
f 127/133/62 125/131/62 126/132/62 128/134/62
f 129/135/63 127/133/63 128/134/63 130/136/63
f 131/137/64 132/138/64 129/135/64 130/136/64
f 70/76/65 133/139/65 134/140/65 132/141/65
f 69/75/66 135/142/66 133/139/66 70/76/66
f 73/79/67 136/143/67 135/142/67 69/75/67
f 75/81/68 137/144/68 136/143/68 73/79/68
f 77/83/69 138/145/69 137/144/69 75/81/69
f 79/85/70 139/146/70 138/145/70 77/83/70
f 81/87/71 140/147/71 139/146/71 79/85/71
f 83/89/72 141/148/72 140/147/72 81/87/72
f 85/91/73 142/149/73 141/148/73 83/89/73
f 87/93/74 143/150/74 142/149/74 85/91/74
f 89/95/75 144/151/75 143/150/75 87/93/75
f 91/97/76 145/152/76 144/151/76 89/95/76
f 93/99/77 146/153/77 145/152/77 91/97/77
f 95/101/78 147/154/78 146/153/78 93/99/78
f 97/103/79 148/155/79 147/154/79 95/101/79
f 99/105/80 149/156/80 148/155/80 97/103/80
f 101/107/81 150/157/81 149/156/81 99/105/81
f 103/109/82 151/158/82 150/157/82 101/107/82
f 105/111/83 152/159/83 151/158/83 103/109/83
f 107/113/84 153/160/84 152/159/84 105/111/84
f 109/115/85 154/161/85 153/160/85 107/113/85
f 111/117/86 155/162/86 154/161/86 109/115/86
f 113/119/87 156/163/87 155/162/87 111/117/87
f 115/121/88 157/164/88 156/163/88 113/119/88
f 117/123/89 158/165/89 157/164/89 115/121/89
f 119/125/90 159/166/90 158/165/90 117/123/90
f 121/127/91 160/167/91 159/166/91 119/125/91
f 123/129/92 161/168/92 160/167/92 121/127/92
f 125/131/93 162/169/93 161/168/93 123/129/93
f 127/133/94 163/170/94 162/169/94 125/131/94
f 129/135/95 164/171/95 163/170/95 127/133/95
f 132/138/96 134/172/96 164/171/96 129/135/96
f 133/139/97 165/173/97 166/174/97 134/140/97
f 135/142/98 167/175/98 165/173/98 133/139/98
f 136/143/99 168/176/99 167/175/99 135/142/99
f 137/144/100 169/177/100 168/176/100 136/143/100
f 138/145/101 170/178/101 169/177/101 137/144/101
f 139/146/102 171/179/102 170/178/102 138/145/102
f 140/147/103 172/180/103 171/179/103 139/146/103
f 141/148/104 173/181/104 172/180/104 140/147/104
f 142/149/105 174/182/105 173/181/105 141/148/105
f 143/150/106 175/183/106 174/182/106 142/149/106
f 144/151/107 176/184/107 175/183/107 143/150/107
f 145/152/108 177/185/108 176/184/108 144/151/108
f 146/153/109 178/186/109 177/185/109 145/152/109
f 147/154/110 179/187/110 178/186/110 146/153/110
f 148/155/111 180/188/111 179/187/111 147/154/111
f 149/156/112 181/189/112 180/188/112 148/155/112
f 150/157/113 182/190/113 181/189/113 149/156/113
f 151/158/114 183/191/114 182/190/114 150/157/114
f 152/159/115 184/192/115 183/191/115 151/158/115
f 153/160/116 185/193/116 184/192/116 152/159/116
f 154/161/117 186/194/117 185/193/117 153/160/117
f 155/162/118 187/195/118 186/194/118 154/161/118
f 156/163/119 188/196/119 187/195/119 155/162/119
f 157/164/120 189/197/120 188/196/120 156/163/120
f 158/165/121 190/198/121 189/197/121 157/164/121
f 159/166/122 191/199/122 190/198/122 158/165/122
f 160/167/123 192/200/123 191/199/123 159/166/123
f 161/168/124 193/201/124 192/200/124 160/167/124
f 162/169/125 194/202/125 193/201/125 161/168/125
f 163/170/126 195/203/126 194/202/126 162/169/126
f 164/171/127 196/204/127 195/203/127 163/170/127
f 134/172/128 166/205/128 196/204/128 164/171/128
f 165/173/129 197/206/129 198/207/129 166/174/129
f 167/175/130 199/208/130 197/206/130 165/173/130
f 168/176/131 200/209/131 199/208/131 167/175/131
f 169/177/132 201/210/132 200/209/132 168/176/132
f 170/178/133 202/211/133 201/210/133 169/177/133
f 171/179/134 203/212/134 202/211/134 170/178/134
f 172/180/135 204/213/135 203/212/135 171/179/135
f 173/181/136 205/214/136 204/213/136 172/180/136
f 174/182/137 206/215/137 205/214/137 173/181/137
f 175/183/138 207/216/138 206/215/138 174/182/138
f 176/184/139 208/217/139 207/216/139 175/183/139
f 177/185/140 209/218/140 208/217/140 176/184/140
f 178/186/141 210/219/141 209/218/141 177/185/141
f 179/187/142 211/220/142 210/219/142 178/186/142
f 180/188/143 212/221/143 211/220/143 179/187/143
f 181/189/144 213/222/144 212/221/144 180/188/144
f 182/190/145 214/223/145 213/222/145 181/189/145
f 183/191/146 215/224/146 214/223/146 182/190/146
f 184/192/147 216/225/147 215/224/147 183/191/147
f 185/193/148 217/226/148 216/225/148 184/192/148
f 186/194/149 218/227/149 217/226/149 185/193/149
f 187/195/150 219/228/150 218/227/150 186/194/150
f 188/196/151 220/229/151 219/228/151 187/195/151
f 189/197/152 221/230/152 220/229/152 188/196/152
f 190/198/153 222/231/153 221/230/153 189/197/153
f 191/199/154 223/232/154 222/231/154 190/198/154
f 192/200/155 224/233/155 223/232/155 191/199/155
f 193/201/156 225/234/156 224/233/156 192/200/156
f 194/202/157 226/235/157 225/234/157 193/201/157
f 195/203/158 227/236/158 226/235/158 194/202/158
f 196/204/159 228/237/159 227/236/159 195/203/159
f 166/205/160 198/238/160 228/237/160 196/204/160
f 57/239/31 55/240/31 229/241/31 230/242/31
f 13/243/31 11/244/31 231/245/31 232/246/31
f 31/247/31 29/248/31 233/249/31 234/250/31
f 49/251/31 47/252/31 235/253/31 236/254/31
f 5/255/31 3/256/31 237/257/31 238/258/31
f 23/259/31 21/63/31 64/66/31 239/260/31
f 41/261/31 39/71/31 68/74/31 240/262/31
f 59/263/31 57/239/31 230/242/31 241/264/31
f 15/265/31 13/243/31 232/246/31 242/266/31
f 33/267/31 31/247/31 234/250/31 243/268/31
f 51/269/31 49/251/31 236/254/31 244/270/31
f 7/271/31 5/255/31 238/258/31 245/272/31
f 25/273/31 23/259/31 239/260/31 246/274/31
f 43/275/31 41/261/31 240/262/31 247/276/31
f 61/277/31 59/263/31 241/264/31 248/278/31
f 17/279/31 15/265/31 242/266/31 249/280/31
f 35/281/31 33/267/31 243/268/31 250/282/31
f 53/283/31 51/269/31 244/270/31 251/284/31
f 9/285/31 7/271/31 245/272/31 252/286/31
f 27/287/31 25/273/31 246/274/31 253/288/31
f 45/289/31 43/275/31 247/276/31 254/290/31
f 65/291/31 61/277/31 248/278/31 255/292/31
f 19/64/31 17/279/31 249/280/31 63/65/31
f 37/72/31 35/281/31 250/282/31 67/73/31
f 55/240/31 53/283/31 251/284/31 229/241/31
f 11/244/31 9/285/31 252/286/31 231/245/31
f 29/248/31 27/287/31 253/288/31 233/249/31
f 3/256/31 2/293/31 256/294/31 237/257/31
f 47/252/31 45/289/31 254/290/31 235/253/31
f 2/293/31 65/291/31 255/292/31 256/294/31
f 238/258/31 237/257/31 257/295/31 245/272/31
f 255/292/31 248/278/31 241/264/31 257/295/31
f 231/245/31 252/286/31 245/272/31 257/295/31
f 68/74/31 67/73/31 250/282/31 257/295/31
f 237/257/31 256/294/31 255/292/31 257/295/31
f 242/266/31 232/246/31 231/245/31 257/295/31
f 247/276/31 240/262/31 68/74/31 257/295/31
f 63/65/31 249/280/31 242/266/31 257/295/31
f 235/253/31 254/290/31 247/276/31 257/295/31
f 239/260/31 64/66/31 63/65/31 257/295/31
f 244/270/31 236/254/31 235/253/31 257/295/31
f 253/288/31 246/274/31 239/260/31 257/295/31
f 229/241/31 251/284/31 244/270/31 257/295/31
f 234/250/31 233/249/31 253/288/31 257/295/31
f 241/264/31 230/242/31 229/241/31 257/295/31
f 250/282/31 243/268/31 234/250/31 257/295/31
f 258/296/161 259/297/161 260/298/161 261/299/161
f 262/300/161 263/301/161 264/302/161 265/303/161
f 266/304/161 267/305/161 268/306/161 269/307/161
f 270/308/161 271/309/161 272/310/161 273/311/161
f 274/312/161 275/313/161 276/314/161 277/315/161
f 278/316/161 279/317/161 280/318/161 281/319/161
f 282/320/161 283/321/161 284/322/161 285/323/161
f 259/297/161 286/324/161 287/325/161 260/298/161
f 263/301/161 288/326/161 289/327/161 264/302/161
f 267/305/161 290/328/161 291/329/161 268/306/161
f 271/309/161 292/330/161 293/331/161 272/310/161
f 275/313/161 294/332/161 295/333/161 276/314/161
f 279/317/161 296/334/161 297/335/161 280/318/161
f 283/321/161 298/336/161 299/337/161 284/322/161
f 286/324/161 300/338/161 301/339/161 287/325/161
f 288/326/161 302/340/161 303/341/161 289/327/161
f 290/328/161 304/342/161 305/343/161 291/329/161
f 306/344/161 307/345/161 308/346/161 309/347/161
f 292/330/161 306/344/161 309/347/161 293/331/161
f 294/332/161 310/348/161 311/349/161 295/333/161
f 296/334/161 312/350/161 313/351/161 297/335/161
f 298/336/161 314/352/161 315/353/161 299/337/161
f 300/338/161 316/354/161 317/355/161 301/339/161
f 302/340/161 318/356/161 319/357/161 303/341/161
f 304/342/161 320/358/161 321/359/161 305/343/161
f 307/345/161 258/296/161 261/299/161 308/346/161
f 310/348/161 262/300/161 265/303/161 311/349/161
f 312/350/161 266/304/161 269/307/161 313/351/161
f 314/352/161 270/308/161 273/311/161 315/353/161
f 316/354/161 274/312/161 277/315/161 317/355/161
f 318/356/161 278/316/161 281/319/161 319/357/161
f 320/358/161 282/320/161 285/323/161 321/359/161
f 276/314/161 295/333/161 322/360/161 277/315/161
f 291/329/161 305/343/161 322/360/161 268/306/161
f 311/349/161 265/303/161 322/360/161 295/333/161
f 321/359/161 285/323/161 322/360/161 305/343/161
f 264/302/161 289/327/161 322/360/161 265/303/161
f 284/322/161 299/337/161 322/360/161 285/323/161
f 303/341/161 319/357/161 322/360/161 289/327/161
f 293/331/161 309/347/161 308/346/161 322/360/161
f 315/353/161 273/311/161 322/360/161 299/337/161
f 261/299/161 260/298/161 322/360/161 308/346/161
f 281/319/161 280/318/161 322/360/161 319/357/161
f 272/310/161 293/331/161 322/360/161 273/311/161
f 287/325/161 301/339/161 322/360/161 260/298/161
f 297/335/161 313/351/161 322/360/161 280/318/161
f 317/355/161 277/315/161 322/360/161 301/339/161
f 313/351/161 269/307/161 268/306/161 322/360/161
f 306/361/162 131/137/162 130/136/162 307/362/162
f 307/362/163 130/136/163 128/134/163 258/363/163
f 258/363/164 128/134/164 126/132/164 259/364/164
f 259/364/165 126/132/165 124/130/165 286/365/165
f 286/365/166 124/130/166 122/128/166 300/366/166
f 300/366/167 122/128/167 120/126/167 316/367/167
f 316/367/168 120/126/168 118/124/168 274/368/168
f 274/368/169 118/124/169 116/122/169 275/369/169
f 275/369/170 116/122/170 114/120/170 294/370/170
f 294/370/171 114/120/171 112/118/171 310/371/171
f 310/371/172 112/118/172 110/116/172 262/372/172
f 262/372/173 110/116/173 108/114/173 263/373/173
f 263/373/174 108/114/174 106/112/174 288/374/174
f 288/374/175 106/112/175 104/110/175 302/375/175
f 302/375/176 104/110/176 102/108/176 318/376/176
f 318/376/177 102/108/177 100/106/177 278/377/177
f 278/377/178 100/106/178 98/104/178 279/378/178
f 279/378/179 98/104/179 96/102/179 296/379/179
f 296/379/180 96/102/180 94/100/180 312/380/180
f 312/380/181 94/100/181 92/98/181 266/381/181
f 266/381/182 92/98/182 90/96/182 267/382/182
f 267/382/183 90/96/183 88/94/183 290/383/183
f 290/383/184 88/94/184 86/92/184 304/384/184
f 304/384/185 86/92/185 84/90/185 320/385/185
f 320/385/186 84/90/186 82/88/186 282/386/186
f 282/386/187 82/88/187 80/86/187 283/387/187
f 283/387/188 80/86/188 78/84/188 298/388/188
f 298/388/189 78/84/189 76/82/189 314/389/189
f 314/389/190 76/82/190 74/80/190 270/390/190
f 270/390/191 74/80/191 72/78/191 271/391/191
f 271/391/192 72/78/192 71/77/192 292/392/192
f 292/392/193 71/77/193 131/393/193 306/394/193
f 197/206/194 66/68/194 1/70/194 198/207/194
f 199/208/195 62/62/195 66/68/195 197/206/195
f 200/209/196 60/60/196 62/62/196 199/208/196
f 201/210/197 58/58/197 60/60/197 200/209/197
f 202/211/198 56/56/198 58/58/198 201/210/198
f 203/212/199 54/54/199 56/56/199 202/211/199
f 204/213/200 52/52/200 54/54/200 203/212/200
f 205/214/201 50/50/201 52/52/201 204/213/201
f 206/215/202 48/48/202 50/50/202 205/214/202
f 207/216/203 46/46/203 48/48/203 206/215/203
f 208/217/204 44/44/204 46/46/204 207/216/204
f 209/218/205 42/42/205 44/44/205 208/217/205
f 210/219/206 40/40/206 42/42/206 209/218/206
f 211/220/207 38/38/207 40/40/207 210/219/207
f 212/221/208 36/36/208 38/38/208 211/220/208
f 213/222/209 34/34/209 36/36/209 212/221/209
f 214/223/210 32/32/210 34/34/210 213/222/210
f 215/224/211 30/30/211 32/32/211 214/223/211
f 216/225/212 28/28/212 30/30/212 215/224/212
f 217/226/213 26/26/213 28/28/213 216/225/213
f 218/227/214 24/24/214 26/26/214 217/226/214
f 219/228/215 22/22/215 24/24/215 218/227/215
f 220/229/216 20/20/216 22/22/216 219/228/216
f 221/230/217 18/18/217 20/20/217 220/229/217
f 222/231/218 16/16/218 18/18/218 221/230/218
f 223/232/219 14/14/219 16/16/219 222/231/219
f 224/233/220 12/12/220 14/14/220 223/232/220
f 225/234/221 10/10/221 12/12/221 224/233/221
f 226/235/222 8/8/222 10/10/222 225/234/222
f 227/236/223 6/6/223 8/8/223 226/235/223
f 228/237/224 4/4/224 6/6/224 227/236/224
f 198/238/225 1/1/225 4/4/225 228/237/225
f 70/76/226 132/141/226 131/393/226 71/77/226
f 323/395/227 324/396/227 325/397/227 326/398/227
f 326/398/228 325/397/228 327/399/228 328/400/228
f 328/400/229 327/399/229 329/401/229 330/402/229
f 330/402/230 329/401/230 331/403/230 332/404/230
f 332/404/231 331/403/231 333/405/231 334/406/231
f 334/406/232 333/405/232 335/407/232 336/408/232
f 324/396/233 337/409/233 338/410/233 325/397/233
f 325/397/234 338/410/234 339/411/234 327/399/234
f 327/399/235 339/411/235 340/412/235 329/401/235
f 329/401/236 340/412/236 341/413/236 331/403/236
f 331/403/237 341/413/237 342/414/237 333/405/237
f 333/405/238 342/414/238 343/415/238 335/407/238
f 337/409/239 344/416/239 345/417/239 338/410/239
f 338/410/240 345/417/240 346/418/240 339/411/240
f 339/411/241 346/418/241 347/419/241 340/412/241
f 340/412/242 347/419/242 348/420/242 341/413/242
f 341/413/243 348/420/243 349/421/243 342/414/243
f 342/414/244 349/421/244 350/422/244 343/415/244
f 344/423/245 351/424/245 352/425/245 345/426/245
f 345/426/246 352/425/246 353/427/246 346/428/246
f 346/428/247 353/427/247 354/429/247 347/430/247
f 347/430/248 354/429/248 355/431/248 348/432/248
f 348/432/249 355/431/249 356/433/249 349/434/249
f 349/434/250 356/433/250 357/435/250 350/436/250
f 351/424/251 358/437/251 359/438/251 352/425/251
f 352/425/252 359/438/252 360/439/252 353/427/252
f 353/427/253 360/439/253 361/440/253 354/429/253
f 354/429/254 361/440/254 362/441/254 355/431/254
f 355/431/255 362/441/255 363/442/255 356/433/255
f 356/433/256 363/442/256 364/443/256 357/435/256
f 358/437/257 365/444/257 366/445/257 359/438/257
f 359/438/258 366/445/258 367/446/258 360/439/258
f 360/439/259 367/446/259 368/447/259 361/440/259
f 361/440/260 368/447/260 369/448/260 362/441/260
f 362/441/261 369/448/261 370/449/261 363/442/261
f 363/442/262 370/449/262 371/450/262 364/443/262
f 372/451/263 373/452/263 323/395/263 374/453/263
f 374/453/264 323/395/264 326/398/264 375/454/264
f 375/454/265 326/398/265 328/400/265 376/455/265
f 376/455/266 328/400/266 330/402/266 377/456/266
f 377/456/267 330/402/267 332/404/267 378/457/267
f 378/457/268 332/404/268 334/406/268 379/458/268
f 379/458/269 334/406/269 336/408/269 380/459/269
f 380/459/270 336/408/270 381/460/270 382/461/270
f 336/408/271 335/407/271 383/462/271 381/460/271
f 335/407/272 343/415/272 384/463/272 383/462/272
f 343/415/273 350/422/273 385/464/273 384/463/273
f 350/436/274 357/435/274 386/465/274 385/466/274
f 357/435/275 364/443/275 387/467/275 386/465/275
f 364/443/276 371/450/276 388/468/276 387/467/276
f 371/450/277 389/469/277 390/470/277 388/468/277
f 370/449/278 391/471/278 389/469/278 371/450/278
f 369/448/279 392/472/279 391/471/279 370/449/279
f 368/447/280 393/473/280 392/472/280 369/448/280
f 367/446/281 394/474/281 393/473/281 368/447/281
f 366/445/282 395/475/282 394/474/282 367/446/282
f 365/444/283 396/476/283 395/475/283 366/445/283
f 397/477/284 398/478/284 396/476/284 365/444/284
f 399/479/285 397/477/285 365/444/285 358/437/285
f 400/480/286 399/479/286 358/437/286 351/424/286
f 401/481/287 400/480/287 351/424/287 344/423/287
f 402/482/288 401/483/288 344/416/288 337/409/288
f 403/484/289 402/482/289 337/409/289 324/396/289
f 373/452/290 403/484/290 324/396/290 323/395/290
f 404/485/291 405/486/291 406/487/291 407/488/291
f 407/488/292 406/487/292 408/489/292 409/490/292
f 409/490/293 408/489/293 410/491/293 411/492/293
f 411/492/294 410/491/294 412/493/294 413/494/294
f 413/494/295 412/493/295 414/495/295 415/496/295
f 415/496/296 414/495/296 416/497/296 417/498/296
f 405/486/297 418/499/297 419/500/297 406/487/297
f 406/487/298 419/500/298 420/501/298 408/489/298
f 408/489/299 420/501/299 421/502/299 410/491/299
f 410/491/300 421/502/300 422/503/300 412/493/300
f 412/493/301 422/503/301 423/504/301 414/495/301
f 414/495/302 423/504/302 424/505/302 416/497/302
f 418/499/303 425/506/303 426/507/303 419/500/303
f 419/500/304 426/507/304 427/508/304 420/501/304
f 420/501/305 427/508/305 428/509/305 421/502/305
f 421/502/306 428/509/306 429/510/306 422/503/306
f 422/503/307 429/510/307 430/511/307 423/504/307
f 423/504/308 430/511/308 431/512/308 424/505/308
f 425/506/309 432/513/309 433/514/309 426/507/309
f 426/507/310 433/514/310 434/515/310 427/508/310
f 427/508/311 434/515/311 435/516/311 428/509/311
f 428/509/312 435/516/312 436/517/312 429/510/312
f 429/510/313 436/517/313 437/518/313 430/511/313
f 430/511/314 437/518/314 438/519/314 431/512/314
f 432/513/315 439/520/315 440/521/315 433/514/315
f 433/514/316 440/521/316 441/522/316 434/515/316
f 434/515/317 441/522/317 442/523/317 435/516/317
f 435/516/318 442/523/318 443/524/318 436/517/318
f 436/517/319 443/524/319 444/525/319 437/518/319
f 437/518/320 444/525/320 445/526/320 438/519/320
f 439/520/321 446/527/321 447/528/321 440/521/321
f 440/521/322 447/528/322 448/529/322 441/522/322
f 441/522/323 448/529/323 449/530/323 442/523/323
f 442/523/324 449/530/324 450/531/324 443/524/324
f 443/524/325 450/531/325 451/532/325 444/525/325
f 444/525/326 451/532/326 452/533/326 445/526/326
f 398/478/327 453/534/327 404/485/327 396/476/327
f 396/476/328 404/485/328 407/488/328 395/475/328
f 395/475/329 407/488/329 409/490/329 394/474/329
f 394/474/330 409/490/330 411/492/330 393/473/330
f 393/473/331 411/492/331 413/494/331 392/472/331
f 392/472/332 413/494/332 415/496/332 391/471/332
f 391/471/333 415/496/333 417/498/333 389/469/333
f 389/469/334 417/498/334 454/535/334 390/470/334
f 417/498/335 416/497/335 455/536/335 454/535/335
f 416/497/336 424/505/336 456/537/336 455/536/336
f 424/505/337 431/512/337 457/538/337 456/537/337
f 431/512/338 438/519/338 458/539/338 457/538/338
f 438/519/339 445/526/339 459/540/339 458/539/339
f 445/526/340 452/533/340 460/541/340 459/540/340
f 452/533/341 461/542/341 462/543/341 460/541/341
f 451/532/342 463/544/342 461/542/342 452/533/342
f 450/531/343 464/545/343 463/544/343 451/532/343
f 449/530/344 465/546/344 464/545/344 450/531/344
f 448/529/345 466/547/345 465/546/345 449/530/345
f 447/528/346 467/548/346 466/547/346 448/529/346
f 446/527/347 468/549/347 467/548/347 447/528/347
f 469/550/348 470/551/348 468/549/348 446/527/348
f 471/552/349 469/550/349 446/527/349 439/520/349
f 472/553/350 471/552/350 439/520/350 432/513/350
f 473/554/351 472/553/351 432/513/351 425/506/351
f 474/555/352 473/554/352 425/506/352 418/499/352
f 475/556/353 474/555/353 418/499/353 405/486/353
f 453/534/354 475/556/354 405/486/354 404/485/354
f 476/557/355 477/558/355 478/559/355 479/560/355
f 479/560/356 478/559/356 480/561/356 481/562/356
f 481/562/357 480/561/357 482/563/357 483/564/357
f 483/564/358 482/563/358 484/565/358 485/566/358
f 485/566/359 484/565/359 486/567/359 487/568/359
f 487/568/360 486/567/360 488/569/360 489/570/360
f 477/558/361 490/571/361 491/572/361 478/559/361
f 478/559/362 491/572/362 492/573/362 480/561/362
f 480/561/363 492/573/363 493/574/363 482/563/363
f 482/563/364 493/574/364 494/575/364 484/565/364
f 484/565/365 494/575/365 495/576/365 486/567/365
f 486/567/366 495/576/366 496/577/366 488/569/366
f 490/571/367 497/578/367 498/579/367 491/572/367
f 491/572/368 498/579/368 499/580/368 492/573/368
f 492/573/369 499/580/369 500/581/369 493/574/369
f 493/574/370 500/581/370 501/582/370 494/575/370
f 494/575/371 501/582/371 502/583/371 495/576/371
f 495/576/372 502/583/372 503/584/372 496/577/372
f 497/585/373 504/586/373 505/587/373 498/588/373
f 498/588/374 505/587/374 506/589/374 499/590/374
f 499/590/375 506/589/375 507/591/375 500/592/375
f 500/592/376 507/591/376 508/593/376 501/594/376
f 501/594/377 508/593/377 509/595/377 502/596/377
f 502/596/378 509/595/378 510/597/378 503/598/378
f 504/586/379 511/599/379 512/600/379 505/587/379
f 505/587/380 512/600/380 513/601/380 506/589/380
f 506/589/381 513/601/381 514/602/381 507/591/381
f 507/591/382 514/602/382 515/603/382 508/593/382
f 508/593/383 515/603/383 516/604/383 509/595/383
f 509/595/384 516/604/384 517/605/384 510/597/384
f 511/599/385 518/606/385 519/607/385 512/600/385
f 512/600/386 519/607/386 520/608/386 513/601/386
f 513/601/387 520/608/387 521/609/387 514/602/387
f 514/602/388 521/609/388 522/610/388 515/603/388
f 515/603/389 522/610/389 523/611/389 516/604/389
f 516/604/390 523/611/390 524/612/390 517/605/390
f 470/551/391 525/613/391 476/557/391 468/549/391
f 468/549/392 476/557/392 479/560/392 467/548/392
f 467/548/393 479/560/393 481/562/393 466/547/393
f 466/547/394 481/562/394 483/564/394 465/546/394
f 465/546/395 483/564/395 485/566/395 464/545/395
f 464/545/396 485/566/396 487/568/396 463/544/396
f 463/544/397 487/568/397 489/570/397 461/542/397
f 461/542/398 489/570/398 526/614/398 462/543/398
f 489/570/399 488/569/399 527/615/399 526/614/399
f 488/569/400 496/577/400 528/616/400 527/615/400
f 496/577/401 503/584/401 529/617/401 528/616/401
f 503/598/402 510/597/402 530/618/402 529/619/402
f 510/597/403 517/605/403 531/620/403 530/618/403
f 517/605/404 524/612/404 532/621/404 531/620/404
f 524/612/405 533/622/405 534/623/405 532/621/405
f 523/611/406 535/624/406 533/622/406 524/612/406
f 522/610/407 536/625/407 535/624/407 523/611/407
f 521/609/408 537/626/408 536/625/408 522/610/408
f 520/608/409 538/627/409 537/626/409 521/609/409
f 519/607/410 539/628/410 538/627/410 520/608/410
f 518/606/411 540/629/411 539/628/411 519/607/411
f 541/630/412 542/631/412 540/629/412 518/606/412
f 543/632/413 541/630/413 518/606/413 511/599/413
f 544/633/414 543/632/414 511/599/414 504/586/414
f 545/634/415 544/633/415 504/586/415 497/585/415
f 546/635/416 545/636/416 497/578/416 490/571/416
f 547/637/417 546/635/417 490/571/417 477/558/417
f 525/613/418 547/637/418 477/558/418 476/557/418
f 548/638/419 549/639/419 550/640/419 551/641/419
f 551/641/420 550/640/420 552/642/420 553/643/420
f 553/643/421 552/642/421 554/644/421 555/645/421
f 555/645/422 554/644/422 556/646/422 557/647/422
f 557/647/423 556/646/423 558/648/423 559/649/423
f 559/649/424 558/648/424 560/650/424 561/651/424
f 549/639/425 562/652/425 563/653/425 550/640/425
f 550/640/426 563/653/426 564/654/426 552/642/426
f 552/642/427 564/654/427 565/655/427 554/644/427
f 554/644/428 565/655/428 566/656/428 556/646/428
f 556/646/429 566/656/429 567/657/429 558/648/429
f 558/648/430 567/657/430 568/658/430 560/650/430
f 562/652/431 569/659/431 570/660/431 563/653/431
f 563/653/432 570/660/432 571/661/432 564/654/432
f 564/654/433 571/661/433 572/662/433 565/655/433
f 565/655/434 572/662/434 573/663/434 566/656/434
f 566/656/435 573/663/435 574/664/435 567/657/435
f 567/657/436 574/664/436 575/665/436 568/658/436
f 569/659/437 576/666/437 577/667/437 570/660/437
f 570/660/438 577/667/438 578/668/438 571/661/438
f 571/661/439 578/668/439 579/669/439 572/662/439
f 572/662/440 579/669/440 580/670/440 573/663/440
f 573/663/441 580/670/441 581/671/441 574/664/441
f 574/664/442 581/671/442 582/672/442 575/665/442
f 576/666/443 583/673/443 584/674/443 577/667/443
f 577/667/444 584/674/444 585/675/444 578/668/444
f 578/668/445 585/675/445 586/676/445 579/669/445
f 579/669/446 586/676/446 587/677/446 580/670/446
f 580/670/447 587/677/447 588/678/447 581/671/447
f 581/671/448 588/678/448 589/679/448 582/672/448
f 583/673/449 590/680/449 591/681/449 584/674/449
f 584/674/450 591/681/450 592/682/450 585/675/450
f 585/675/451 592/682/451 593/683/451 586/676/451
f 586/676/452 593/683/452 594/684/452 587/677/452
f 587/677/453 594/684/453 595/685/453 588/678/453
f 588/678/454 595/685/454 596/686/454 589/679/454
f 542/631/455 597/687/455 548/638/455 540/629/455
f 540/629/456 548/638/456 551/641/456 539/628/456
f 539/628/457 551/641/457 553/643/457 538/627/457
f 538/627/458 553/643/458 555/645/458 537/626/458
f 537/626/459 555/645/459 557/647/459 536/625/459
f 536/625/460 557/647/460 559/649/460 535/624/460
f 535/624/461 559/649/461 561/651/461 533/622/461
f 533/622/462 561/651/462 598/688/462 534/623/462
f 561/651/463 560/650/463 599/689/463 598/688/463
f 560/650/464 568/658/464 600/690/464 599/689/464
f 568/658/465 575/665/465 601/691/465 600/690/465
f 575/665/466 582/672/466 602/692/466 601/691/466
f 582/672/467 589/679/467 603/693/467 602/692/467
f 589/679/468 596/686/468 604/694/468 603/693/468
f 596/686/469 380/459/469 382/461/469 604/694/469
f 595/685/470 379/458/470 380/459/470 596/686/470
f 594/684/471 378/457/471 379/458/471 595/685/471
f 593/683/472 377/456/472 378/457/472 594/684/472
f 592/682/473 376/455/473 377/456/473 593/683/473
f 591/681/474 375/454/474 376/455/474 592/682/474
f 590/680/475 374/453/475 375/454/475 591/681/475
f 605/695/476 372/451/476 374/453/476 590/680/476
f 606/696/477 605/695/477 590/680/477 583/673/477
f 607/697/478 606/696/478 583/673/478 576/666/478
f 608/698/479 607/697/479 576/666/479 569/659/479
f 609/699/480 608/698/480 569/659/480 562/652/480
f 610/700/481 609/699/481 562/652/481 549/639/481
f 597/687/482 610/700/482 549/639/482 548/638/482
f 611/701/483 612/702/483 613/703/483 614/704/483
f 614/704/484 613/703/484 615/705/484 616/706/484
f 616/706/485 615/705/485 617/707/485 618/708/485
f 618/708/486 617/707/486 619/709/486 620/710/486
f 620/710/487 619/709/487 621/711/487 622/712/487
f 622/712/488 621/711/488 623/713/488 624/714/488
f 612/702/489 625/715/489 626/716/489 613/703/489
f 613/703/490 626/716/490 627/717/490 615/705/490
f 615/705/491 627/717/491 628/718/491 617/707/491
f 617/707/492 628/718/492 629/719/492 619/709/492
f 619/709/493 629/719/493 630/720/493 621/711/493
f 621/711/494 630/720/494 631/721/494 623/713/494
f 625/715/495 632/722/495 633/723/495 626/716/495
f 626/716/496 633/723/496 634/724/496 627/717/496
f 627/717/497 634/724/497 635/725/497 628/718/497
f 628/718/498 635/725/498 636/726/498 629/719/498
f 629/719/499 636/726/499 637/727/499 630/720/499
f 630/720/500 637/727/500 638/728/500 631/721/500
f 632/729/501 639/730/501 640/731/501 633/732/501
f 633/732/502 640/731/502 641/733/502 634/734/502
f 634/734/503 641/733/503 642/735/503 635/736/503
f 635/736/504 642/735/504 643/737/504 636/738/504
f 636/738/505 643/737/505 644/739/505 637/740/505
f 637/740/506 644/739/506 645/741/506 638/742/506
f 639/730/507 646/743/507 647/744/507 640/731/507
f 640/731/508 647/744/508 648/745/508 641/733/508
f 641/733/509 648/745/509 649/746/509 642/735/509
f 642/735/510 649/746/510 650/747/510 643/737/510
f 643/737/511 650/747/511 651/748/511 644/739/511
f 644/739/512 651/748/512 652/749/512 645/741/512
f 646/743/513 653/750/513 654/751/513 647/744/513
f 647/744/514 654/751/514 655/752/514 648/745/514
f 648/745/515 655/752/515 656/753/515 649/746/515
f 649/746/516 656/753/516 657/754/516 650/747/516
f 650/747/517 657/754/517 658/755/517 651/748/517
f 651/748/518 658/755/518 659/756/518 652/749/518
f 398/478/519 397/477/519 611/701/519 453/534/519
f 453/534/520 611/701/520 614/704/520 475/556/520
f 475/556/521 614/704/521 616/706/521 474/555/521
f 474/555/522 616/706/522 618/708/522 473/554/522
f 473/554/523 618/708/523 620/710/523 472/553/523
f 472/553/524 620/710/524 622/712/524 471/552/524
f 471/552/525 622/712/525 624/714/525 469/550/525
f 469/550/526 624/714/526 525/613/526 470/551/526
f 624/714/527 623/713/527 547/637/527 525/613/527
f 623/713/528 631/721/528 546/635/528 547/637/528
f 631/721/529 638/728/529 545/636/529 546/635/529
f 638/742/530 645/741/530 544/633/530 545/634/530
f 645/741/531 652/749/531 543/632/531 544/633/531
f 652/749/532 659/756/532 541/630/532 543/632/532
f 659/756/533 597/687/533 542/631/533 541/630/533
f 658/755/534 610/700/534 597/687/534 659/756/534
f 657/754/535 609/699/535 610/700/535 658/755/535
f 656/753/536 608/698/536 609/699/536 657/754/536
f 655/752/537 607/697/537 608/698/537 656/753/537
f 654/751/538 606/696/538 607/697/538 655/752/538
f 653/750/539 605/695/539 606/696/539 654/751/539
f 373/452/540 372/451/540 605/695/540 653/750/540
f 403/484/541 373/452/541 653/750/541 646/743/541
f 402/482/542 403/484/542 646/743/542 639/730/542
f 401/483/543 402/482/543 639/730/543 632/729/543
f 400/480/544 401/481/544 632/722/544 625/715/544
f 399/479/545 400/480/545 625/715/545 612/702/545
f 397/477/546 399/479/546 612/702/546 611/701/546
f 660/757/547 661/758/547 662/759/547 663/760/547
f 663/760/548 662/759/548 664/761/548 665/762/548
f 665/762/549 664/761/549 666/763/549 667/764/549
f 667/764/550 666/763/550 668/765/550 669/766/550
f 669/766/551 668/765/551 670/767/551 671/768/551
f 671/768/552 670/767/552 672/769/552 673/770/552
f 661/758/553 674/771/553 675/772/553 662/759/553
f 662/759/554 675/772/554 676/773/554 664/761/554
f 664/761/555 676/773/555 677/774/555 666/763/555
f 666/763/556 677/774/556 678/775/556 668/765/556
f 668/765/557 678/775/557 679/776/557 670/767/557
f 670/767/558 679/776/558 680/777/558 672/769/558
f 674/771/559 681/778/559 682/779/559 675/772/559
f 675/772/560 682/779/560 683/780/560 676/773/560
f 676/773/561 683/780/561 684/781/561 677/774/561
f 677/774/562 684/781/562 685/782/562 678/775/562
f 678/775/563 685/782/563 686/783/563 679/776/563
f 679/776/564 686/783/564 687/784/564 680/777/564
f 681/785/565 688/786/565 689/787/565 682/788/565
f 682/788/566 689/787/566 690/789/566 683/790/566
f 683/790/567 690/789/567 691/791/567 684/792/567
f 684/792/568 691/791/568 692/793/568 685/794/568
f 685/794/569 692/793/569 693/795/569 686/796/569
f 686/796/570 693/795/570 694/797/570 687/798/570
f 688/786/571 695/799/571 696/800/571 689/787/571
f 689/787/572 696/800/572 697/801/572 690/789/572
f 690/789/573 697/801/573 698/802/573 691/791/573
f 691/791/574 698/802/574 699/803/574 692/793/574
f 692/793/575 699/803/575 700/804/575 693/795/575
f 693/795/576 700/804/576 701/805/576 694/797/576
f 695/799/577 702/806/577 703/807/577 696/800/577
f 696/800/578 703/807/578 704/808/578 697/801/578
f 697/801/579 704/808/579 705/809/579 698/802/579
f 698/802/580 705/809/580 706/810/580 699/803/580
f 699/803/581 706/810/581 707/811/581 700/804/581
f 700/804/582 707/811/582 708/812/582 701/805/582
f 462/543/583 526/614/583 660/757/583 460/541/583
f 460/541/584 660/757/584 663/760/584 459/540/584
f 459/540/585 663/760/585 665/762/585 458/539/585
f 458/539/586 665/762/586 667/764/586 457/538/586
f 457/538/587 667/764/587 669/766/587 456/537/587
f 456/537/588 669/766/588 671/768/588 455/536/588
f 455/536/589 671/768/589 673/770/589 454/535/589
f 454/535/590 673/770/590 388/468/590 390/470/590
f 673/770/591 672/769/591 387/467/591 388/468/591
f 672/769/592 680/777/592 386/465/592 387/467/592
f 680/777/593 687/784/593 385/466/593 386/465/593
f 687/798/594 694/797/594 384/463/594 385/464/594
f 694/797/595 701/805/595 383/462/595 384/463/595
f 701/805/596 708/812/596 381/460/596 383/462/596
f 708/812/597 604/694/597 382/461/597 381/460/597
f 707/811/598 603/693/598 604/694/598 708/812/598
f 706/810/599 602/692/599 603/693/599 707/811/599
f 705/809/600 601/691/600 602/692/600 706/810/600
f 704/808/601 600/690/601 601/691/601 705/809/601
f 703/807/602 599/689/602 600/690/602 704/808/602
f 702/806/603 598/688/603 599/689/603 703/807/603
f 532/621/604 534/623/604 598/688/604 702/806/604
f 531/620/605 532/621/605 702/806/605 695/799/605
f 530/618/606 531/620/606 695/799/606 688/786/606
f 529/619/607 530/618/607 688/786/607 681/785/607
f 528/616/608 529/617/608 681/778/608 674/771/608
f 527/615/609 528/616/609 674/771/609 661/758/609
f 526/614/610 527/615/610 661/758/610 660/757/610
